<svg width="268" height="382" viewBox="0 0 268 382" fill="none" xmlns="http://www.w3.org/2000/svg">
<path fill-rule="evenodd" clip-rule="evenodd" d="M143.526 189.954L143.607 189.964C144.776 190.19 146.715 193.537 147.51 194.488C150.069 197.555 152.629 200.623 155.19 203.69C156.214 204.918 157.692 206.207 158.422 207.628C158.983 208.721 159.176 210.228 159.511 211.4C163.674 225.953 167.745 240.6 170.778 255.437C171.431 258.63 172.05 261.846 172.413 265.088C172.592 266.69 173.062 269.044 172.365 270.593C171.578 272.338 169.046 273.063 167.401 273.604C164.202 274.657 160.852 275.284 157.538 275.847C149.552 277.203 141.466 277.99 133.395 278.627C130.929 278.821 128.391 278.818 125.941 279.15C124.771 279.308 125.121 278.994 124.753 279.779C124.239 280.873 124.58 283.153 124.519 284.345C124.375 287.148 124.232 289.951 124.088 292.754L122.913 315.691C122.516 323.442 122.12 331.194 121.722 338.946C121.572 341.882 121.422 344.82 121.272 347.757C121.191 349.327 121.43 351.354 121.009 352.874C120.691 354.023 121.215 353.684 119.805 353.753C116.541 353.91 113.159 353.515 109.894 353.398C106.191 353.266 102.487 353.133 98.7829 353.001C97.7252 352.963 96.5433 353.263 96.117 352.504C95.5982 351.581 95.9933 349.042 95.9568 348.011C95.854 345.138 95.7512 342.264 95.6484 339.39C95.3663 331.502 95.0842 323.614 94.8021 315.726C94.4172 304.968 94.0319 294.21 93.647 283.452C89.5288 284.281 85.4101 285.11 81.2914 285.938C75.2059 287.163 69.12 288.388 63.034 289.612C60.2429 290.174 56.9281 291.456 54.0458 291.042C51.1831 290.632 49.9998 289.409 49.839 286.692C49.6665 283.779 49.7337 280.843 49.7727 277.927C49.837 273.159 49.9739 268.391 50.1542 263.625C58.2854 262.893 66.417 262.16 74.5482 261.427C78.8779 261.037 83.208 260.647 87.5372 260.257C88.5198 260.169 90.9421 260.359 91.3806 259.618C92.0627 258.466 91.3036 254.68 91.2831 253.378L91.0892 241.066L90.3784 195.764C92.3252 195.828 94.2721 195.886 96.2189 195.941C104.689 196.18 113.2 196.526 121.673 196.266C125.921 196.136 129.947 194.989 133.958 193.637C136.091 192.918 138.202 192.135 140.296 191.312C140.955 191.053 142.895 189.826 143.607 189.964L143.526 189.954ZM132.123 232.109L127.796 253.272L142.603 252.291L132.123 232.109Z" fill="#FFAB00"/>
<path fill-rule="evenodd" clip-rule="evenodd" d="M255.798 60.4704C255.496 62.8244 255.711 65.3907 253.054 66.0112C250.595 66.586 247.896 66.4247 245.389 66.6259C242.571 66.8524 239.762 67.1617 236.95 67.4403C233.405 67.7914 233.911 66.4291 233.136 63.4016C232.428 60.637 231.297 57.8778 230.357 55.1814C229.92 53.9282 229.399 52.7754 228.803 51.5943C228.263 50.5252 228.52 49.0708 227.938 48.1722C225.954 45.1061 216.274 53.4904 215.375 51.8378C217.013 50.5627 219.847 49.1361 220.349 46.954C220.94 44.3897 219.311 43.624 217.263 44.5616C212.225 46.8698 206.41 48.6738 200.915 49.515C202.693 48.3271 218.766 38.9643 213.372 36.1871C212.156 35.5612 210.532 36.7394 209.436 37.1851C207.696 37.8928 205.878 38.3672 204.061 38.8309C202.147 39.3194 200.229 39.7894 198.304 40.2336C196.954 40.5453 194.548 41.6524 193.232 41.3792C191.897 41.1015 194.263 40.2726 194.65 40.0772C196.339 39.2264 198 38.3121 199.649 37.3862C202.574 35.7434 205.276 33.8404 207.501 31.3004C209.179 29.3839 211.951 25.1985 210.783 22.5485C210.105 21.0123 208.621 19.5925 207.749 18.1372C206.731 16.4373 205.909 14.6255 205.025 12.8545C206.505 13.5052 208.166 13.6718 209.677 14.2558C211.187 14.8403 212.721 15.3132 214.293 15.7476C217.446 16.619 220.589 16.7739 223.714 17.4806C227.25 18.2804 230.936 19.1746 234.529 19.6368C237.657 20.0386 240.47 20.8949 243.151 22.6006C248.625 26.085 252.422 31.0905 254.343 37.2806C255.468 40.9067 255.742 44.6902 255.875 48.4629C256.015 52.4408 256.308 56.5102 255.798 60.4704ZM225.077 60.7632C221.254 63.5496 216.798 65.7273 212.696 68.0978C210.348 69.4538 207.951 70.7211 205.556 71.9923C203.857 72.8943 201.793 74.5542 199.923 75.017C198.739 75.3097 198.828 75.3321 198.079 74.2532C197.363 73.2231 196.738 72.1141 196.068 71.0533C194.834 69.0972 193.587 67.1485 192.34 65.1998C189.546 60.8313 186.756 56.4639 183.82 52.1885C180.874 47.8984 178.048 43.5295 175.194 39.1786C173.868 37.1559 172.55 35.1253 171.142 33.1581C170.067 31.656 167.312 29.3649 168.62 27.5963C169.836 25.9535 172.605 24.5887 174.243 23.3453C176.244 21.8271 178.257 20.3245 180.253 18.7986C184.544 15.5182 188.722 12.0952 193.009 8.81045C196.647 15.1914 200.927 21.1735 205.244 27.1059C201.34 29.5972 197.396 31.9653 193.282 34.0981C190.244 35.6733 185.595 37.8017 183.676 40.7898C181.785 43.7321 183.642 47.1269 187.012 47.181C189.028 47.2132 191.037 46.6793 193.013 46.3744C194.439 46.1543 197.043 45.1261 198.329 45.8509C196.018 47.3257 187.632 51.624 192.152 55.3923C195.384 58.0863 200.846 54.1552 204.337 54.9642C203.273 57.006 202.167 60.2629 205.12 61.3734C207.578 62.2979 210.794 60.5752 213.006 59.6614C214.604 59.0015 216.192 58.3191 217.764 57.5987C219.013 57.0255 220.51 55.8643 221.845 55.6169C223.403 55.3281 226.575 59.6702 225.077 60.7632ZM154.014 211.251C156.201 210.852 157.324 209.948 158.013 212.603C158.63 214.982 159.242 217.273 160.037 219.607C156.62 219.903 153.607 221.534 151.116 223.828C149.341 225.463 145.813 229.366 146.688 232.103C148.813 238.757 159.546 223.831 160.821 222.236C162.383 224.518 162.957 227.506 163.733 230.115C164.285 231.972 166.335 235.533 163.625 235.984C159.821 236.618 152.684 238.035 153.135 243.423C153.668 249.782 161.758 249.746 166.297 250.032C168.856 250.193 168.867 252.243 169.232 254.538C169.395 255.564 169.904 256.951 169.033 257.702C168.259 258.369 165.89 258.388 164.883 258.603C161.947 259.234 159.014 259.876 156.079 260.506C152.747 261.221 150.985 260.219 147.87 259.307C146.716 258.969 145.558 259.111 145.473 257.82C145.421 257.028 146.196 255.803 146.45 255.019C147.456 251.918 148.312 248.727 148.6 245.471C149.021 240.74 148.496 233.647 142.671 232.724C139.899 232.285 139.366 232.141 138.115 229.541C136.762 226.728 134.614 224.123 135.133 220.884C135.509 218.536 134.875 214.093 136.373 212.146C137.066 211.246 138.416 210.709 139.338 210.048C140.512 209.206 141.644 208.304 142.738 207.36C143.659 206.567 144.781 205.017 145.825 204.444C147.101 203.744 147.14 204.221 148.055 205.315C149.407 206.93 151.556 211.7 154.014 211.251ZM160.196 221.761C159.438 223.291 157.686 224.713 156.571 225.99C155.448 227.275 154.386 228.632 153.134 229.796C151.757 231.078 146.863 234.172 147.941 230.007C148.78 226.766 151.919 224.142 154.682 222.525C155.217 222.211 161.479 219.173 160.196 221.761ZM165.549 237.187C166.034 239.356 166.295 241.592 166.709 243.776C166.922 244.893 168.096 247.591 167.617 248.665C166.806 250.486 159.506 248.33 157.992 247.704C154.39 246.213 152.736 242.384 156.058 239.658C157.318 238.625 165.064 235.019 165.549 237.187ZM170.335 263.235C170.742 265.306 171.932 267.225 169.965 268.791C168.332 270.09 165.657 270.977 163.645 271.44C160.902 272.07 160.021 270.533 158.569 268.557C157.008 266.431 155.346 264.378 153.622 262.382C159.036 261.171 164.45 259.958 169.865 258.747C169.861 260.255 170.044 261.757 170.335 263.235ZM157.363 272.844C154.539 272.698 151.501 273.548 148.638 273.772C145.062 274.051 141.496 274.457 137.917 274.697C138.834 271.771 140.481 269.162 141.769 266.399C143.062 263.625 143.969 263.325 146.943 263.112C149.698 262.913 151.641 261.965 153.675 264.302C155.79 266.733 157.706 269.375 159.638 271.952C158.98 272.392 158.195 272.888 157.363 272.844ZM137.18 273.442C136.484 273.949 134.336 272.506 133.612 272.227C132.203 271.683 131.891 271.508 131.156 270.134C130.525 268.953 129.52 267.611 129.322 266.262C129.061 264.486 129.848 262.146 130.134 260.38C130.896 262.218 133.399 262.432 135.09 262.732C136.368 262.96 140.157 262.597 141.121 263.508C142.187 264.514 140.226 267.32 139.715 268.377C139.105 269.639 138.352 272.589 137.18 273.442ZM135.815 274.899C134.977 275.035 132.564 275.869 132.613 274.338C132.667 272.589 135.986 274.476 135.815 274.899ZM131.564 274.808C131.411 276.281 128.241 276.158 128.169 274.863C128.046 272.674 131.807 272.456 131.564 274.808ZM127.94 235.09C127.13 237.397 122.195 238.223 120.299 238.933C118.568 239.582 113.397 242.578 111.612 241.491C117.654 237.339 123.845 233.27 128.964 227.968C129.173 229.278 128.854 230.372 128.468 231.611C128.12 232.73 128.299 234.067 127.94 235.09ZM126.438 243.505C125.568 249.158 124.715 254.885 123.539 260.481C121.297 259.797 119.448 258.408 117.093 257.924C114.943 257.483 112.723 257.472 110.556 257.795C105.938 258.482 101.821 260.766 97.7922 262.992C97.42 259.115 96.6493 254.966 96.7404 251.076C96.8159 247.845 102.346 246.888 104.854 245.553C106.372 244.746 107.744 243.61 109.473 243.328C111.252 243.038 112.969 243.047 114.726 242.505C118.881 241.223 122.791 239.19 126.862 237.675C127.195 239.616 126.732 241.593 126.438 243.505ZM122.555 267.429C122.37 268.714 122.603 271.007 121.624 271.986C120.702 272.909 118.732 272.939 117.517 273.189C113.812 273.951 110.111 274.721 106.413 275.507C104.758 275.858 103.102 276.195 101.441 276.509C100.648 276.658 98.6603 277.418 97.9929 276.788C97.3596 276.189 97.8312 274.275 97.8653 273.473C97.9335 271.869 98.0241 270.261 97.9232 268.657C97.7303 265.58 97.9018 264.402 100.765 262.811C103.807 261.119 106.949 259.961 110.374 259.334C113.841 258.7 117.143 259.047 120.443 260.378C121.362 260.748 122.739 261.204 123.166 262.194C123.748 263.542 122.751 266.064 122.555 267.429ZM118.385 317.022C117.027 317.874 114.072 317.728 112.513 317.901C109.994 318.18 107.459 318.021 104.958 317.632C103.074 317.34 100.263 316.935 98.82 315.613C96.7692 313.734 99.1357 313.648 100.705 313.78C105.268 314.164 109.889 313.896 114.448 313.566C115.335 313.502 117.721 312.722 118.577 313.087C119.671 313.553 119.335 316.426 118.385 317.022ZM115.797 347.384C107.296 346.558 102.367 339.518 99.2838 332.321C97.629 328.457 98.2257 324.403 98.0625 320.317C98.0328 319.571 97.5642 317.718 98.3314 317.161C99.0524 316.637 101.969 318.256 102.758 318.45C106.801 319.441 111.273 319.536 115.326 318.573C117.081 318.156 118.065 317.381 118.622 319.121C119.071 320.522 118.334 323.104 118.254 324.572C118.115 327.112 118.513 347.647 115.797 347.384ZM98.8142 347.391C98.7816 346.158 98.1595 333.697 98.7631 333.659C100.557 337.528 102.399 340.989 105.664 343.836C107.332 345.291 109.208 346.601 111.294 347.382C112.078 347.675 116.518 347.898 116.736 348.87C117.117 350.572 114.085 349.885 113.186 349.747C112.464 349.635 111.815 349.328 111.107 349.199C109.759 348.955 108.484 349.284 107.13 349.311C105.072 349.353 103.052 349.137 100.993 349.315C99.1114 349.477 98.8644 349.261 98.8142 347.391ZM100.069 291.497C107.347 289.145 113.429 293.6 117.27 299.431C119.461 302.756 119.95 305.082 119.567 309.019C119.43 310.428 119.683 311.383 118.388 311.957C117.105 312.526 114.191 312.104 112.803 312.169C108.812 312.355 104.836 312.603 100.845 312.366C98.252 312.213 97.8857 311.774 97.9305 309.257C97.9841 306.228 97.7323 303.212 97.5608 300.177C97.3752 296.895 96.2479 292.732 100.069 291.497ZM97.6874 287.134C97.6918 284.908 97.5583 282.624 97.6943 280.402C97.8297 278.198 98.7674 278.307 100.848 277.931C105.352 277.117 109.851 276.206 114.295 275.102C116.052 274.665 118.038 273.827 119.869 273.821C121.791 273.813 121.689 274.801 121.561 276.502C121.276 280.271 120.585 283.984 120.376 287.732C120.149 291.777 120.03 295.875 120.048 299.925C120.055 301.292 120.387 302.305 119.221 301.025C118.054 299.744 117.483 297.702 116.441 296.261C114.307 293.312 111.135 290.94 107.615 289.941C105.669 289.388 103.622 289.293 101.638 289.692C101.036 289.814 98.0207 291.253 97.6368 290.968C97.3771 290.776 97.687 287.224 97.6874 287.134ZM124.313 364.281C127.199 366.348 130.396 368.018 133.632 369.468C135.453 370.284 142.661 372.001 142.891 373.837C143.013 374.816 141.819 375.914 141.037 376.03C140.044 376.177 138.409 375.529 137.398 375.406C133.722 374.96 130.054 374.957 126.467 373.934C119.306 371.89 111.881 371.314 104.646 369.533C102.924 369.109 101.199 368.711 99.4684 368.328C97.8248 367.963 97.0883 368.025 97.0303 366.269C96.9022 362.414 98.008 358.464 98.0168 354.561C103.87 355.23 109.744 355.221 115.613 355.771C118.128 356.006 118.07 356.483 119.172 358.68C120.316 360.96 122.262 362.813 124.313 364.281ZM95.7725 239.036C95.6984 237.609 95.6405 236.178 95.5114 234.754C95.4247 233.798 94.5512 231.126 95.0437 230.381C95.6288 229.497 96.2182 230.037 97.2651 230.012C98.6452 229.979 99.8007 229.425 100.939 228.698C103.094 227.324 104.696 225.514 106.095 223.403C107.325 221.544 107.096 219.005 107.081 216.78C107.042 211.025 107.461 205.412 107.11 199.632C106.949 196.977 109.215 198.605 111.045 198.949C114.039 199.511 117.292 199.122 120.335 199.129C120.222 199.837 114 201.594 112.995 202.263C110.422 203.974 108.922 206.712 109.157 209.833C109.629 216.112 116.544 217.161 121.597 217.174C117.405 220.881 113.288 224.415 109.993 228.988C107.563 232.36 103.284 239.007 107.256 242.738C103.745 244.732 100.265 246.95 96.2947 247.909C96.1169 244.952 95.9264 241.995 95.7725 239.036ZM94.1786 124.414C95.6078 125.332 96.209 124.034 97.2968 123.362C98.8288 122.415 99.3359 122.508 99.5303 120.392C99.8898 116.469 98.2394 112.918 96.1671 109.707C95.2254 108.248 94.2857 106.51 92.9563 105.37C91.7443 104.33 90.5192 104.688 89.3963 103.613C88.9554 103.19 89.0499 102.593 88.3212 102.61C87.8414 102.622 86.6751 104.108 86.2786 104.436C85.0267 105.473 83.4951 106.262 81.8544 105.407C79.4655 104.163 80.2327 99.648 82.0882 98.1854C83.517 97.0593 85.2054 97.2332 86.832 97.0515C88.0518 96.9156 88.3056 96.9687 87.8038 95.5728C87.4521 94.5953 86.6415 93.8326 86.2411 92.8765C85.4714 91.0407 85.639 88.8095 85.3068 86.8666C85.0081 85.1259 84.3101 83.2429 84.3354 81.4749C84.3685 79.2237 85.1041 78.6387 87.0546 78.0075C88.9442 77.3962 90.5089 76.0485 92.1184 74.9161C93.9404 73.6342 95.9357 72.7877 97.8078 71.6173C99.0787 70.8224 99.8991 69.2156 101.297 69.9661C102.957 70.8579 104.713 73.4399 106.126 74.7593C104.059 76.071 103.579 76.6447 103.863 79.2125C104.125 81.5664 104.604 83.6642 106.404 85.3041C107.095 85.9344 108.385 86.439 108.92 87.1657C109.545 88.0122 109.139 87.266 109.06 88.2216C109.018 88.7369 108.611 89.074 108.699 89.6697C109.096 92.3154 112.135 90.7539 113.388 89.8348C117.862 86.551 109.507 83.9433 107.522 82.7471C106.152 81.9205 105.474 79.2826 107.646 79.9835C109.09 80.4496 112.353 84.4016 112.684 80.7993C116.266 82.8796 118.476 87.2996 121.479 90.0944C123.644 92.1098 126.553 94.3454 124.834 97.5644C122.644 101.667 118.3 103.53 114.335 105.3C110.489 107.017 111.287 111.876 113.343 114.85C114.532 116.569 116.089 117.577 117.963 118.412C119.877 119.266 120.274 120.269 120.692 122.249C121.156 124.446 120.663 125.331 118.761 126.466C116.904 127.575 114.962 128.648 112.98 129.516C108.692 131.392 104.245 131.51 99.6847 132.15C98.0864 132.374 96.5539 132.84 95.6819 131.256C94.7013 129.473 94.6292 126.402 94.1786 124.414ZM93.4893 115.881C92.4161 115.315 89.8255 117.194 88.4688 117.276C86.2742 117.409 84.8333 117.359 82.8852 118.523C79.2024 120.724 76.1466 123.557 73.1935 126.629C69.8673 130.09 66.5601 133.568 63.2451 137.039C61.7428 138.611 60.2327 140.175 58.7064 141.724C57.5037 142.944 56.3277 144.661 54.839 145.531C54.9165 144.497 55.5507 143.765 55.7758 142.806C55.9068 142.245 55.6779 141.769 55.7627 141.233C55.7904 141.058 56.2586 140.452 56.3297 140.254C56.5197 139.729 56.752 139.211 56.9776 138.666C57.188 138.158 57.1573 137.631 57.3707 137.1C57.5904 136.553 58.1915 136.19 58.4 135.651C59.0114 134.073 57.9996 133.341 56.3813 133.378C57.0146 130.221 57.2913 128.676 60.5927 127.563C63.7469 126.499 66.8281 125.305 69.7256 123.643C72.2982 122.167 74.4445 120.04 76.9177 118.395C79.1318 116.922 81.888 115.379 81.8651 112.359C83.1205 113.21 84.2969 113.927 85.733 113.079C86.945 112.363 87.1058 111.787 88.5068 111.652C89.6506 111.543 90.3594 111.513 91.3799 112.016C92.5812 112.608 92.7454 113.019 93.4449 111.278C94.2399 111.947 96.2499 114.734 96.1827 115.837C96.1461 116.445 96.0541 116.719 95.3009 116.88C94.2326 117.107 94.2741 116.294 93.4893 115.881ZM88.4849 280.845C87.9627 281.645 85.7613 281.498 84.9112 281.487C82.3196 281.453 81.4135 279.278 80.2765 277.176C78.4839 273.863 75.8046 266.98 78.7455 263.502C81.0667 260.758 85.5878 264.216 87.1715 266.289C88.5389 268.08 88.1327 270.766 88.2598 272.915C88.367 274.726 89.5166 279.265 88.4849 280.845ZM81.4048 282.045C80.3686 283.081 77.0059 282.862 75.6331 283.084C73.1828 283.481 70.7461 283.958 68.3689 284.682C66.5991 285.22 64.8498 286.67 64.3831 284.203C63.9914 282.129 64.1863 279.641 64.2238 277.548C64.2642 275.289 64.5005 273.059 64.6968 270.811C64.8298 269.29 64.4971 266.493 65.7383 265.326C66.8081 264.32 69.4089 264.224 70.7978 263.89C73.0781 263.343 75.4607 262.625 77.8311 262.87C76.4481 266.624 76.3307 270.56 77.8136 274.301C78.2364 275.368 82.0449 281.405 81.4048 282.045ZM63.9778 267.091C63.4 272.737 62.8189 278.419 63.3752 284.094C63.4088 284.433 63.8131 285.983 63.6373 286.225C63.4556 286.477 62.0166 286.607 61.6897 286.684C60.392 286.992 59.0962 287.318 57.7901 287.591C55.2482 288.123 54.9165 286.517 54.4177 284.161C53.3494 279.113 55.4207 273.641 56.6756 268.793C57.2869 266.432 57.74 266.161 60.0612 265.965C61.6765 265.829 64.2233 264.692 63.9778 267.091ZM54.1619 288.157C53.1905 289.04 52.2197 284.871 52.1339 284.447C51.7944 282.76 51.9834 281.049 51.9883 279.335C51.9966 276.659 51.792 273.994 51.7881 271.331C51.7856 269.89 50.7061 266.944 52.4111 266.182C52.9114 265.958 54.8989 266.051 55.35 266.346C56.2868 266.957 55.9176 267.354 55.6399 268.418C55.0183 270.807 54.481 273.207 53.9398 275.615C53.4088 277.977 52.8851 280.249 53.1379 282.687C53.2212 283.494 54.7811 287.594 54.1619 288.157ZM85.1411 261.848C87.5091 261.18 87.6358 262.995 87.6319 264.731C87.2709 264.454 83.9057 262.196 85.1411 261.848ZM53.4663 134.391C52.8861 135.348 49.2111 135.609 48.1608 135.86C46.0949 136.355 44.0279 136.847 41.9673 137.362C38.1067 138.327 34.3411 139.416 30.3836 139.922C32.5567 136.442 33.2329 133.437 32.8286 129.095C32.3185 123.613 31.6701 118.186 30.4079 112.82C29.1638 107.528 27.7233 102.271 26.3359 97.015C25.6544 94.4326 24.9174 91.8994 24.0108 89.3867C23.284 87.3727 22.149 84.8375 23.3824 82.7729C26.5128 85.0567 29.0235 87.5173 30.8089 90.9867C32.7219 94.7059 34.3918 98.5239 36.6117 102.082C37.6269 103.709 38.8121 105.192 39.8979 106.767C40.5439 107.704 41.0145 109.056 41.8372 109.846C42.7857 110.757 43.797 111.186 44.3392 109.649C44.9208 108 43.0653 104.735 42.5178 103.186C41.1952 99.4459 39.8838 95.7136 38.8637 91.877C38.0385 88.7759 36.6745 85.0265 37.1573 81.7545C37.6352 78.515 39.8331 80.8334 40.9453 82.3394C43.2383 85.4444 44.611 89.0637 46.1173 92.5837C47.5017 95.8178 49.1166 98.9009 50.6486 102.06C51.1816 103.159 51.884 105.999 53.2802 106.326C55.3096 106.801 55.1376 103.943 54.9438 102.784C53.6577 95.0965 50.3003 87.7355 49.6037 79.9148C49.5701 79.5413 49.0849 76.6355 49.4751 76.3929C50.2317 75.9224 51.2522 78.8701 51.5786 79.5924C53.2763 83.3491 54.4586 87.3094 55.5434 91.2779C56.4661 94.6528 57.3006 98.0534 58.3362 101.396C58.9052 103.234 59.5575 105.041 60.2005 106.853C60.7821 108.495 61.3726 111.301 62.8895 112.383C65.0417 113.917 72.7434 110.268 73.5238 113.531C74.0791 115.85 66.9377 117.717 65.4168 118.421C63.4147 119.348 61.4505 120.363 59.4474 121.291C57.9309 121.993 55.7514 122.281 54.6544 123.602C53.4921 125.001 53.306 126.966 53.2714 128.702C53.2446 130.015 54.1551 133.258 53.4663 134.391ZM48.5992 159.712C48.4974 160.441 47.9182 161.406 47.6576 162.099C47.1271 163.512 46.676 165.2 45.938 166.52C45.3033 167.657 44.3665 168.674 43.7532 169.827C43.1715 170.922 43.0941 172.185 42.4145 173.281C41.637 174.534 40.352 175.435 39.5798 176.68C39.1994 177.294 38.8063 177.995 38.2685 178.65C36.3642 180.967 34.4736 183.152 32.9421 185.635C32.5504 186.27 30.6374 189.044 29.876 189.194C28.2845 189.507 30.1371 187.244 30.4484 186.776C32.7034 183.392 34.706 179.829 36.8825 176.393C38.9909 173.065 41.1484 169.763 43.1774 166.385C44.8322 163.632 45.9765 159.678 48.666 157.738C48.6762 158.398 48.6543 159.056 48.5992 159.712ZM122.129 128.61C123.439 133.995 125.005 139.213 126.482 144.55C127.852 149.502 129.676 154.801 130.244 159.906C130.806 164.963 132.099 170.08 133.838 174.88C134.641 177.101 135.468 179.33 136.341 181.525C136.82 182.731 137.356 183.91 137.9 185.088C138.322 186.003 139.438 187.484 139.481 188.454C139.515 189.23 139.785 188.92 139.019 189.504C138.225 190.108 136.851 189.888 135.927 189.995C133.516 190.274 131.166 191.181 128.816 191.768C124.284 192.9 118.882 193.8 114.238 193.012C112.285 192.68 110.256 192.392 108.324 191.96C105.947 191.429 105.459 190.445 104.971 188.109C103.904 183.002 102.986 177.909 102.105 172.768C101.057 166.653 99.9239 160.545 99.1157 154.392C98.2993 148.167 97.7128 141.936 96.4335 135.779C101.594 136.642 106.454 137.617 111.629 136.203C116.212 134.951 119.521 132.503 122.129 128.61ZM142.329 195.278C143.483 197.656 140.702 199.794 139.355 201.625C137.577 204.039 135.918 206.561 133.851 208.745C133.231 206.263 132.687 203.472 131.032 201.434C128.919 198.831 126.453 199.895 123.864 198.664C126.579 197.343 130.045 197.847 132.925 196.669C135.766 195.508 138.635 194.596 141.278 193.087C141.629 193.817 141.976 194.549 142.329 195.278ZM132.261 250.753C130.526 250.85 131.686 247.191 131.799 246.281C132.109 243.782 132.422 241.283 132.693 238.779C134.125 242.554 135.556 246.329 136.987 250.104C135.414 250.328 133.851 250.665 132.261 250.753ZM129.438 268.851C129.675 269.377 130.779 271.13 129.907 271.453C128.713 271.896 128.569 268.992 129.438 268.851ZM127.368 228.181C121.84 232.594 116.351 237.019 110.371 240.818C109.06 241.651 107.741 241.999 106.872 240.348C106.19 239.05 106.91 237.588 107.348 236.317C108.465 233.078 110.41 230.262 112.566 227.625C116.871 222.36 121.995 217.863 128.534 215.787C129.603 215.447 131.255 214.423 131.629 215.838C131.85 216.67 130.916 218.749 130.727 219.53C129.946 222.757 130.116 225.988 127.368 228.181ZM143.279 260.367C143.401 264.114 133.157 261.091 131.881 260.422C133.22 259.972 143.224 258.682 143.279 260.367ZM147.084 260.39C147.692 260.552 150.026 260.758 149.154 261.556C148.374 262.27 144.84 261.984 143.903 262.071C144.532 260.004 145.01 259.838 147.084 260.39ZM145.186 255.37C144.957 256.204 144.864 257.476 144.116 258.047C143.185 258.759 141.207 258.327 140.153 258.333C138.364 258.342 136.576 258.433 134.795 258.611C134.113 258.679 131.353 259.511 130.715 258.943C130.245 258.526 130.42 256.571 130.762 256.132C131.463 255.228 133.079 255.541 134.091 255.505C137.795 255.372 141.479 255.361 145.186 255.37ZM142.807 241.519C142.285 240.742 142.191 240.75 141.968 239.576C141.73 238.32 141.123 237.246 140.767 236.032C139.982 233.361 142.489 233.598 144.327 234.578C149.096 237.119 147.945 245.997 146.766 250.153C145.051 248.893 144.418 248.321 143.828 246.287C143.604 245.514 143.353 244.755 143.12 243.986C142.948 243.42 143.068 241.906 142.807 241.519ZM143.22 198.308C144.552 198.147 145.77 202.278 145.39 203.173C144.611 205.001 141.636 206.635 140.121 207.803C139.112 208.579 138.11 209.471 137.032 210.148C136.031 210.777 135.455 210.424 134.525 210.726C133.178 211.162 132.851 212.587 131.473 213.2C129.533 214.062 127.182 214.303 125.156 215.082C122.698 216.026 120.445 216.052 117.867 215.604C114.161 214.961 109.816 213.122 110.15 208.618C110.739 200.671 126.521 196.599 130.825 203.337C131.945 205.091 131.928 207.135 132.655 209.019C133.443 211.058 134.206 210.257 135.391 208.755C136.941 206.79 138.381 204.72 139.87 202.709C140.352 202.059 142.259 198.425 143.22 198.308ZM46.5031 275.681C46.4276 277.032 46.5084 278.403 46.0383 279.693C45.5648 280.993 44.6047 282.045 44.0518 283.308C42.9309 285.87 42.9392 288.969 42.984 291.714C43.0882 298.1 44.6003 304.302 45.4002 310.611C42.738 310.605 39.9861 310.635 37.4057 309.874C35.1011 309.194 34.7333 307.509 34.0815 305.387C32.2513 299.425 30.2745 293.49 29.6836 287.246C29.4025 284.271 29.2841 281.272 29.1497 278.287C29.0323 275.669 29.6202 274.527 31.9838 273.231C37.1212 270.413 42.4467 268.066 47.5314 265.114C47.0117 268.617 46.7009 272.147 46.5031 275.681ZM265.821 66.453C264.57 66.2236 263.307 66.0799 262.045 65.9294C261.387 65.8505 259.334 65.9601 258.841 65.531C258.255 65.0201 259.271 61.1572 259.323 60.3282C259.64 55.3432 259.271 50.2042 258.814 45.2381C257.986 36.248 255.159 27.9193 248.636 21.4458C245.389 18.2234 241.739 15.6668 237.304 14.4331C234.721 13.7142 232.059 13.3309 229.47 12.6339C227.381 12.0708 225.432 11.4265 223.263 11.2034C218.935 10.7582 214.979 9.12315 210.756 8.17728C207.649 7.48127 202.652 5.83062 200.638 9.33891C199.052 7.47932 197.457 6.08292 195.458 4.69577C193.542 3.36707 193.229 2.03984 190.883 3.57407C186.326 6.55537 182.058 10.1922 177.801 13.5841C173.826 16.752 169.979 20.0693 165.813 22.9824C161.563 25.954 162.369 30.9965 164.367 35.1769C168.127 43.0454 173.926 49.7722 179.002 56.517C182.182 60.7422 185.371 64.9728 188.538 69.2063C191.566 73.2528 194.184 77.9359 197.722 81.5713C199.952 83.8629 202.615 80.866 204.628 79.4813C207.126 77.7615 209.581 75.9779 212.082 74.263C217.291 70.6909 222.865 67.3453 228.364 64.2359C228.764 65.3698 229.164 66.5036 229.564 67.6375C228.357 67.7281 226.725 67.4583 226.11 68.7568C225.232 70.6115 227.387 70.855 227.764 71.9183C228.102 72.868 226.718 75.3764 226.309 76.2322C225.389 78.1604 224.104 79.8228 222.688 81.4101C217.088 87.6917 210.001 92.1848 202.81 96.4675C195.115 101.05 186.868 103.847 178.444 106.801C174.16 108.302 169.714 108.999 165.293 109.961C161.034 110.887 156.778 112.104 152.426 112.453C143.521 113.168 134.071 113.704 125.274 111.783C124.311 111.573 123.292 111.118 122.312 111.031C121.527 110.961 120.945 111.291 120.204 111.333C118.612 111.424 117.699 110 116.435 111.323C115.802 111.985 115.791 113.096 114.909 111.861C113.787 110.29 116.654 109.986 117.717 109.539C121.294 108.032 124.17 104.998 126.443 101.932C128.714 98.8678 129.041 95.5952 127.658 92.0075C126.275 88.4213 123.131 85.9904 120.77 83.0783C119.628 81.6682 118.577 80.1764 117.324 78.8599C116.654 78.1565 115.576 77.4834 115.534 76.7743C115.485 75.9502 115.979 75.5405 115.683 74.5387C115.607 74.2781 115.28 74.13 115.21 73.8436C115.1 73.3873 115.27 72.9957 115.213 72.551C115.08 71.5311 114.68 70.8906 114.114 70.0548C113.762 69.5327 113.246 68.4874 112.761 68.0963C111.91 67.4105 110.75 67.6901 109.885 66.9951C108.517 65.8958 108.036 63.5793 106.825 62.2448C105.121 60.3667 104.758 62.2643 102.952 61.6657C101.409 61.1533 101.427 58.8305 100.179 58.0449C98.422 56.9383 96.9421 58.9742 95.3818 59.4276C93.329 60.0243 94.1177 57.7083 92.288 57.4974C90.6356 57.3065 88.347 60.6584 87.5228 61.8488C86.6834 60.8703 85.7652 59.2031 84.2545 59.8002C82.6689 60.4276 82.3868 63.346 81.2279 64.3874C80.8241 64.7492 80.9093 65.0166 80.4125 65.1832C79.7709 65.398 78.916 64.4668 78.0864 64.7507C76.413 65.3235 76.6171 67.5567 76.6137 69.0032C74.6394 68.7149 73.2622 68.5678 72.6012 70.6958C71.9542 72.7784 71.7087 71.8593 69.6272 72.5359C67.8325 73.1189 67.5817 74.8231 67.2855 76.4898C67.1023 77.5263 67.2718 77.9495 67.5505 78.8944C67.9022 80.0848 67.9022 80.0697 67.3288 81.206C66.3297 83.1884 66.2698 85.3723 66.11 87.5539C65.9405 89.882 65.5332 92.0012 66.1948 94.2748C66.604 95.6819 66.6351 97.5966 68.0133 98.3846C68.5598 98.6968 69.4883 98.5259 69.9535 98.8356C70.8416 99.4269 70.5712 100.327 71.1626 101.191C71.6059 101.837 72.3206 101.899 72.817 102.423C73.3567 102.994 73.3889 103.689 73.6963 104.385C74.6062 106.446 75.4621 107.443 72.4959 107.561C70.6662 107.633 68.7143 108.182 66.8919 108.014C64.7411 107.816 64.2063 106.613 63.5218 104.783C60.0719 95.5592 58.2178 85.5613 53.6743 76.7898C52.6766 74.864 48.5817 66.9961 46.8509 72.7287C45.3914 77.5638 47.3064 83.4645 48.0405 88.2772C45.7368 86.2008 44.8848 82.4612 43.1355 79.926C41.8436 78.0533 37.7979 73.454 35.4265 76.0895C33.5573 78.1668 34.0245 82.5712 34.3694 85.0548C34.9145 88.9834 36.1699 92.7698 37.0667 96.6229C35.9375 95.1462 35.3807 93.3426 34.5974 91.6797C33.6148 89.5946 32.3887 87.6157 30.9915 85.7834C29.7708 84.1819 28.4058 82.6935 26.9259 81.3283C25.7947 80.284 23.7687 77.9987 22.1621 77.875C18.0278 77.5579 19.3279 85.1419 19.9578 87.3103C21.2629 91.8044 22.678 96.1743 23.6913 100.759C25.672 109.716 28.0711 118.466 29.5301 127.537C29.8531 129.549 30.2423 131.154 29.4468 133.087C28.7458 134.79 28.0185 136.827 26.7252 138.137C23.7974 141.103 21.3666 144.27 19.1784 147.843C16.8343 151.67 14.4215 155.542 12.508 159.605C11.6282 161.474 10.9087 163.496 9.89737 165.294C8.98447 166.917 7.88695 168.2 7.23807 169.996C4.13742 178.582 1.84153 187.017 0.790279 196.108C-0.0729345 203.572 0.731335 213.5 9.74295 215.247C13.8827 216.049 17.5996 214.213 21.3325 212.698C25.1936 211.131 27.9854 208.584 31.1348 205.877C35.048 202.513 39.1107 199.357 43.0653 196.049C47.0219 192.74 50.6764 189.07 54.6115 185.725C58.4984 182.42 62.0146 178.91 65.3759 175.073C68.7104 171.266 71.4189 167.048 74.6471 163.188C74.635 168.186 73.8931 173.138 73.685 178.129C73.4946 182.705 73.4902 187.276 73.6748 191.85C73.8594 196.421 72.6518 200.772 72.6421 205.333C72.6318 209.782 72.4555 214.206 72.3581 218.65C72.3142 220.644 71.9235 222.881 72.6684 224.804C73.2247 226.241 74.973 226.69 76.4647 227.077C78.7698 227.675 85.7052 226.523 86.7346 228.986C87.2967 230.33 86.7307 232.776 86.7745 234.261C86.8476 236.708 86.9372 239.155 87.021 241.601C87.1077 244.128 87.192 246.655 87.2841 249.181C87.3659 251.407 87.799 253.887 87.5306 256.091C87.3011 257.98 86.1997 257.733 84.4543 257.83C81.8198 257.976 79.1844 258.092 76.5485 258.207C72.682 258.377 68.647 258.299 64.9404 258.756C63.3835 258.947 61.6824 258.866 60.0402 259.178C57.9806 259.57 56.0783 259.669 53.9895 259.773C52.3054 259.856 50.1406 259.734 48.8175 260.979C48.3586 261.411 48.2558 261.926 47.9304 262.406C47.321 263.307 47.66 263.07 46.6599 263.273C42.754 264.064 39.0445 264.957 35.2248 266.288C33.3128 266.954 31.5386 267.849 29.6178 268.476C27.9342 269.025 26.7003 269.701 25.8683 271.354C24.3815 274.306 24.7581 278.576 24.8657 281.757C25.0353 286.719 26.1377 291.444 27.3268 296.243C28.5636 301.236 29.5335 306.363 31.9395 310.95C32.7301 312.458 33.5836 314.38 35.1985 315.166C37.2835 316.18 40.4898 315.565 42.7652 315.569C44.2924 315.572 48.383 316.096 49.5243 314.816C50.6296 313.576 49.5175 310.079 49.3616 308.54C48.8146 303.147 47.8301 297.705 47.8432 292.276C49.0888 294.116 51.2488 297.293 53.4102 294.473C53.9422 293.779 53.7347 293.457 54.6792 293.055C55.2019 292.832 56.3034 292.696 56.8724 292.734C57.6464 292.786 57.9329 293.097 58.6441 292.945C59.2735 292.81 59.9813 292.247 60.7032 292.075C69.6505 289.949 78.5462 287.656 87.532 285.762C89.9078 285.261 89.5702 287.085 89.7271 289.139C89.9005 291.41 89.5697 293.705 89.8849 295.951C90.1592 297.906 90.3725 299.811 89.9862 301.777C89.5308 304.096 89.824 306.031 90.2775 308.327C92.0254 317.183 91.7132 326.789 92.1072 335.79C92.3123 340.478 91.872 345.264 92.3128 349.927C92.4794 351.688 93.4625 352.661 93.861 354.263C94.3184 356.102 93.0708 358.445 92.6913 360.227C91.9289 363.804 90.5893 368.924 93.0396 372.036C94.3627 373.717 96.0974 373.961 98.0562 374.529C100.4 375.21 102.711 376.003 105.066 376.647C113.672 379.003 122.971 379.463 131.79 380.761C133.95 381.079 135.953 381.049 138.126 380.899C139.466 380.806 142.766 381.246 143.88 380.445C144.477 380.016 144.174 379.478 144.478 378.954C144.908 378.209 145.431 377.906 146.164 377.442C147.379 376.674 148.784 376.226 148.989 374.641C149.49 370.759 144.639 368.702 142.045 367.023C138.73 364.877 134.726 364.049 131.208 362.297C129.266 361.331 127.394 360.236 125.524 359.14C124.713 358.664 123.068 358.126 122.503 357.378C121.927 356.614 122.491 355.524 122.73 354.432C123.716 349.923 123.383 345.311 123.893 340.754C124.403 336.189 124.264 331.596 124.432 327.008C124.605 322.283 124.996 317.57 125.295 312.852C125.571 308.494 125.849 304.066 125.895 299.704C125.939 295.659 126.49 291.69 126.621 287.619C126.665 286.237 126.417 283.731 127.334 282.56C128.139 281.534 130.803 281.663 132.046 281.482C135.396 280.996 138.583 280.57 141.895 280.277C149.775 279.58 158.544 279.066 165.995 276.32C169.068 275.187 173.157 273.64 174.177 270.111C175.349 266.055 173.819 261.069 173.768 256.922C173.714 252.494 172.43 248.174 171.468 243.883C170.431 239.265 169.778 234.566 168.658 229.965C167.631 225.743 165.964 222.004 164.388 217.995C163.748 216.369 160.107 210.767 161.236 209.385C161.845 208.641 164.036 208.453 164.926 208.112C166.842 207.379 168.762 206.545 170.529 205.501C172.888 204.107 178.054 201.8 178.293 198.702C178.519 195.741 175.61 192.748 174.131 190.423C171.747 186.675 168.742 183.399 166.472 179.578C161.885 171.855 158.238 163.396 154.893 155.074C153.144 150.72 152.573 146.62 152.285 141.972C157.365 141.984 162.535 142.609 167.583 141.899C173.076 141.126 178.577 139.824 184.022 138.751C193.939 136.796 203.46 134.589 212.646 130.188C221.248 126.067 229.977 121.556 237.099 115.015C240.782 111.632 244.539 108.185 247.719 104.317C250.986 100.343 253.444 95.8285 255.964 91.3675C258.746 86.4439 260.961 81.2693 262.712 75.8834C263.064 74.8007 263.066 73.4218 263.516 72.399C264.025 71.2442 264.95 71.214 265.916 70.6057C267.275 69.7499 268.179 66.886 265.821 66.453Z" fill="#3B247B"/>
<path fill-rule="evenodd" clip-rule="evenodd" d="M147.552 11.3351C148.713 12.3327 153.718 15.8468 155.335 14.9923C157.33 13.9375 154.172 10.76 153.321 9.97662C152.239 8.97999 148.373 5.96494 146.893 6.24482C143.934 6.80459 146.507 10.4372 147.552 11.3351Z" fill="#3B247B"/>
<path fill-rule="evenodd" clip-rule="evenodd" d="M150.024 47.4012C150.68 46.1099 152.426 45.6352 153.232 44.3856C154.203 42.8833 154.649 41.5687 154.291 39.7266C151.806 40.563 148.979 43.0948 147.317 45.0746C145.927 46.7292 143.953 50.1866 147.579 50.1953C147.548 49.7031 147.516 49.2105 147.484 48.7188C148.572 48.8768 149.53 48.3745 150.024 47.4012Z" fill="#3B247B"/>
<path fill-rule="evenodd" clip-rule="evenodd" d="M138.186 25.9171C139.788 26.3775 141.11 26.3123 142.747 26.3484C143.935 26.3748 145.558 27.0277 146.521 26.2918C145.666 25.7972 146.746 25.7698 146.534 25.2875C146.357 24.8854 146.019 25.0171 145.745 24.6916C144.768 23.5318 143.917 23.5459 142.367 23.3048C141.165 23.1169 139.399 22.6838 138.244 23.2811C137.03 23.9097 136.559 25.4493 138.186 25.9171Z" fill="#3B247B"/>
<path fill-rule="evenodd" clip-rule="evenodd" d="M160.99 61.4908C162.026 60.6218 163.155 58.1059 163.365 56.8079C163.447 56.2993 163.08 55.9097 163.124 55.5353C163.208 54.8221 164.674 53.4431 163.138 52.8579C161.795 52.3455 160.533 56.3257 160.191 57.1942C159.841 58.0824 158.887 59.8127 159.18 60.6722C159.423 61.3849 160.29 62.077 160.99 61.4908Z" fill="#3B247B"/>
<path fill-rule="evenodd" clip-rule="evenodd" d="M173.384 7.62017C174.322 6.75013 174.915 5.76343 174.818 4.56701C174.741 3.62456 174.035 0.375261 173.241 0.470814C170.603 0.789155 171.789 9.10174 173.384 7.62017Z" fill="#3B247B"/>
<path fill-rule="evenodd" clip-rule="evenodd" d="M117.703 152.892C117.486 152.098 116.697 147.24 115.332 147.571C114.296 147.822 115.372 152.097 115.421 152.66C115.522 153.836 113.26 153.798 112.209 153.639C110.542 153.387 110.675 152.41 110.426 150.895C110.332 150.322 109.971 147.734 108.777 148.682C107.97 149.322 108.547 152.514 108.614 153.242C108.847 155.764 109.12 160.071 110.62 162.361C111.218 163.275 111.755 163.726 112.384 162.554C113.019 161.369 111.581 157.756 111.329 156.543C112.516 156.659 115.932 156.274 116.646 157.507C117.299 158.632 116.255 161.846 118.349 162.107C119.592 162.262 119.366 160.823 119.247 159.716C118.996 157.394 118.315 155.135 117.703 152.892Z" fill="#3B247B"/>
<path fill-rule="evenodd" clip-rule="evenodd" d="M120.885 151.768C119.509 152.39 121.236 161.449 123.249 161.157C125.597 160.816 122.195 151.176 120.885 151.768Z" fill="#3B247B"/>
<path fill-rule="evenodd" clip-rule="evenodd" d="M119.352 148.768C119.182 150.808 121.833 151.569 121.958 149.352C122.055 147.641 119.53 146.624 119.352 148.768Z" fill="#3B247B"/>
<path fill-rule="evenodd" clip-rule="evenodd" d="M104.801 94.6853C106.011 99.1953 117.026 101.114 115.542 95.0315C114.799 91.986 111.696 94.6915 109.528 94.3372C108.126 94.1082 103.949 91.5051 104.801 94.6853Z" fill="#3B247B"/>
<path fill-rule="evenodd" clip-rule="evenodd" d="M102.035 86.6408C102.553 84.2274 97.2738 81.564 95.3584 82.2284C92.5562 83.2005 92.5682 89.4163 94.7058 91.0688C94.9872 91.2864 95.8494 91.805 96.2716 91.3916C96.9382 90.7378 96.2101 90.9162 96.0543 90.2634C95.8076 89.2253 95.0001 87.8926 95.8042 86.7116C97.3243 84.4804 101.293 90.0986 102.035 86.6408Z" fill="#3B247B"/>
<path fill-rule="evenodd" clip-rule="evenodd" d="M85.9385 98.3544C84.0352 98.2474 82.4746 101.202 85.2748 100.954C85.8111 100.907 86.9632 100.772 87.2744 100.208C87.7893 99.2748 86.7753 98.4013 85.9385 98.3544Z" fill="#3B247B"/>
<path fill-rule="evenodd" clip-rule="evenodd" d="M178.273 27.9296C177.621 26.9872 176.256 25.4708 175.08 26.4159C174.039 27.2541 174.221 29.3228 174.62 30.3508C175.695 33.1183 178.235 35.5838 181.109 33.9893C180.111 31.989 179.548 29.7743 178.273 27.9296Z" fill="#3B247B"/>
</svg>
