<svg width="181" height="138" viewBox="0 0 181 138" fill="none" xmlns="http://www.w3.org/2000/svg">
<path fill-rule="evenodd" clip-rule="evenodd" d="M58.8179 125.136C81.8463 141.07 104.288 138.292 116.022 136.831C148.291 135.369 173.08 123.674 177.627 95.8984C186.427 59.3518 184.961 -15.2033 82.2863 12.5721C25.5221 23.2437 44.7369 110.956 58.8179 125.136Z" fill="#3B247B"/>
<path d="M0.879878 78.502C12.6141 90.1969 46.3499 119.58 89.6197 114.318C132.89 109.055 150.784 95.3135 154.011 91.2202C157.238 86.9808 157.238 83.9109 150.784 85.9575C144.477 88.0041 108.541 102.769 73.7786 100.576C25.9617 97.7986 5.13352 77.4787 2.93336 76.4554C0.879878 75.4321 -1.17361 76.4554 0.879878 78.502Z" fill="#FFAB00"/>
<path d="M141.25 78.502C147.558 73.2393 163.399 70.0232 169.706 76.4554C173.96 80.6948 165.452 100.722 159.145 105.985C152.838 111.248 155.918 104.962 158.118 101.746C160.172 98.5295 162.665 84.6418 161.345 82.7414C158.118 78.502 144.477 81.7181 142.277 81.7181C140.224 81.7181 139.49 79.9639 141.25 78.502Z" fill="#FFAB00"/>
<path fill-rule="evenodd" clip-rule="evenodd" d="M105.168 47.6568L88.4468 54.9661C86.98 55.8432 82.873 64.3221 86.54 64.3221C90.7936 64.3221 102.968 65.7839 108.542 66.0763C109.568 66.0763 110.448 65.053 110.155 64.0297C108.688 59.2055 105.901 49.9958 105.168 47.6568ZM103.408 32.5996C99.7409 4.678 72.6056 29.2373 77.5926 13.5954C80.5262 4.38563 94.0205 -2.48513 103.995 0.877155C121.596 6.72461 125.85 55.2585 123.649 70.0233C121.596 83.6187 118.369 80.1102 107.515 80.1102C98.1275 80.1102 83.8998 84.0572 75.5392 76.6017C67.9119 69.731 72.1656 54.089 75.9792 46.7797C81.6996 35.231 94.6072 39.6166 103.408 32.5996Z" fill="#FFAB00"/>
</svg>
