<svg width="132" height="157" viewBox="0 0 132 157" fill="none" xmlns="http://www.w3.org/2000/svg">
<path fill-rule="evenodd" clip-rule="evenodd" d="M23.302 141.525C44.0883 155.942 66.7283 144.435 74.9369 145.493C104.064 148.138 118.496 137.557 122.6 112.426C105.388 99.1995 92.1485 67.4556 123.924 51.5836C90.8246 29.0984 79.5708 51.7159 65.6691 48.9383C50.0462 45.6316 49.7814 36.6375 33.8938 39.6797C-17.344 49.3351 10.5918 128.695 23.302 141.525Z" fill="#3B247B"/>
<path d="M118.496 46.6898C115.45 44.5735 112.14 43.2509 108.566 42.325C105.123 41.3992 101.416 41.0024 97.8415 41.0024C94.2668 41.0024 93.34 41.3992 89.8977 42.325C89.1033 42.5896 88.1765 42.8541 87.3822 43.1186C86.5878 43.5154 85.7934 43.7799 84.999 44.1767C83.4102 44.9703 81.8215 45.8962 80.2327 46.8221C78.6439 47.7479 77.0552 48.6738 75.334 49.5997C73.6129 50.5255 71.6269 51.1869 69.5085 51.5837C68.4494 51.7159 67.3902 51.8482 66.331 51.8482C65.8014 51.8482 65.2718 51.8482 64.7422 51.8482C64.2126 51.8482 63.6831 51.8482 63.1535 51.5837C60.7703 51.1869 58.7844 50.1287 57.1956 49.0706C53.8857 46.9543 51.1053 44.8381 48.1926 43.3831C45.2798 41.9282 42.3671 41.1346 39.322 41.2669C36.2768 41.2669 33.0993 42.1928 30.0542 43.3831C26.8766 44.5735 23.8315 46.293 21.0512 48.1447C18.1384 49.9965 15.3581 52.1127 12.9749 54.4935C10.5918 56.8743 8.34102 59.5196 6.61986 62.4295L5.56068 64.678C5.29589 65.3393 5.03109 66.1329 4.7663 66.9265C4.6339 67.7201 4.36911 68.5137 4.23671 69.3073C4.10431 70.2332 3.97192 71.0268 3.97192 71.9527C3.70712 75.5238 3.57472 79.095 3.70712 82.6662C4.10431 89.8086 5.69308 96.951 7.54664 103.961C8.47342 107.532 9.5326 110.971 10.5918 114.41C11.7834 117.849 13.1073 121.156 14.4313 124.595C17.344 131.208 20.9188 137.557 25.5527 142.715C27.8034 145.228 30.5838 147.477 33.3641 148.535C34.8205 149.064 36.2768 149.328 37.7332 149.328C38.5276 149.328 39.4544 149.196 40.2488 149.196C41.0431 149.064 41.9699 148.932 42.7643 148.932C46.0742 148.403 49.2518 147.344 52.4293 146.022C54.0181 145.36 55.6068 144.567 57.1956 143.641C58.9168 142.847 60.7703 141.921 62.8887 141.26C63.4183 141.128 63.9479 140.996 64.6098 140.863C65.1394 140.731 65.8014 140.731 66.331 140.599C66.5958 140.599 66.8606 140.599 67.2578 140.599H68.1846C68.8465 140.599 69.5085 140.731 70.0381 140.863C72.4213 141.392 74.2748 142.186 75.996 142.98C79.5707 144.567 82.6159 146.286 85.661 147.344C87.2498 147.873 88.7061 148.27 90.2949 148.667C91.7513 148.799 93.2076 149.064 94.664 148.799C97.4443 148.535 100.357 147.344 103.137 145.625C108.698 142.318 113.597 137.292 117.436 131.737C119.422 128.959 120.879 126.05 122.203 123.007C123.394 119.965 124.189 116.791 124.189 113.749L127.366 117.584C123.527 116.659 119.952 114.807 116.907 112.426C113.862 110.045 111.478 107.268 109.36 104.226C107.374 101.183 105.785 97.8768 104.594 94.5702C103.402 91.1313 102.74 87.6923 102.475 84.1211C101.946 77.111 103.27 69.7041 107.242 63.8844C109.228 60.9746 111.743 58.4615 114.656 56.6098C117.569 54.758 121.011 52.9063 121.011 52.9063C121.011 52.245 121.011 51.7159 120.879 51.0546C120.746 50.5255 120.746 49.8642 120.481 49.3351C120.084 48.277 119.422 47.2189 118.496 46.6898ZM121.541 45.8962C122.203 46.293 122.6 46.8221 122.997 47.3511C123.394 47.8802 123.659 48.5415 123.924 49.0706C124.189 49.7319 124.321 50.261 124.321 50.9223C124.453 51.5837 124.453 52.245 124.453 52.7741V53.1708L124.056 53.3031C120.879 54.229 117.834 55.6839 115.186 57.6679C112.538 59.6519 110.419 62.0327 108.831 64.9425C105.785 70.63 105.388 77.3756 106.58 83.4598C107.771 89.6763 110.684 95.496 114.524 100.258C118.363 105.019 123.394 108.723 128.822 109.781L131.868 110.442V113.749C131.868 117.981 130.941 122.082 129.617 125.917C128.161 129.753 126.439 133.324 124.189 136.499C121.938 139.805 119.422 142.847 116.642 145.625C113.862 148.403 110.684 150.916 107.109 152.9L105.785 153.693L104.329 154.354L102.873 155.016C102.343 155.28 101.813 155.413 101.416 155.545L99.9599 156.074C99.4303 156.206 98.9007 156.338 98.3711 156.471C97.8415 156.603 97.3119 156.735 96.7824 156.735L95.0612 156.868C92.8104 157.132 90.6921 156.868 88.5737 156.471C86.4554 156.074 84.4694 155.413 82.6159 154.619C78.9087 153.164 75.5988 151.18 72.5537 149.725C70.9649 148.932 69.5085 148.27 68.317 148.006C67.9198 147.873 67.655 147.873 67.3902 147.873H66.993C66.8606 147.873 66.7282 147.873 66.4634 147.873C66.1986 147.873 65.8014 147.873 65.5366 148.006C65.1394 148.006 64.8746 148.138 64.4774 148.138C61.6971 148.799 58.3872 150.651 54.8124 152.106C51.2377 153.561 47.2658 154.487 43.2939 154.884C41.3079 155.016 39.4544 155.016 37.336 155.016C35.0853 154.884 32.9669 154.355 30.9809 153.296C27.1414 151.445 24.2287 148.535 21.9779 145.493C19.5948 142.451 17.7412 139.144 16.0201 135.837C14.2989 132.531 12.8425 129.092 11.5186 125.653C8.87061 118.775 6.75226 111.633 4.8987 104.622C3.04514 97.6123 1.19157 90.3377 0.264794 82.9307C0.132397 79.2273 0 75.5238 0 71.6881L0.132397 68.9105C0.132397 67.9847 0.397192 66.9265 0.529589 65.8684C0.794383 64.9425 1.05918 63.8844 1.32397 62.9585L2.38315 60.181C5.82548 52.9063 11.3862 47.3511 17.4764 42.7218C20.654 40.4733 23.9639 38.4893 27.5386 36.9021C31.1133 35.3149 35.2177 34.1245 39.4544 34.1245C43.6911 34.1245 48.0602 35.4472 51.6349 37.4312C55.2096 39.4152 58.1224 42.0605 60.7703 44.0445C62.0943 45.1026 63.4183 45.8962 64.6098 46.1607C64.8746 46.293 65.2718 46.293 65.669 46.4253C66.0662 46.5575 66.4634 46.5575 66.8606 46.5575C67.655 46.6898 68.4494 46.6898 69.1113 46.5575C72.1565 46.4253 75.334 44.9703 78.7763 43.5154C80.4975 42.7218 82.2187 42.0605 83.9398 41.3992C84.7342 41.0024 85.661 40.7378 86.7202 40.4733C87.647 40.2088 88.5737 40.0765 89.5005 39.812C93.2076 39.1506 96.5176 38.0925 100.225 38.357C103.932 38.6216 108.566 38.6216 112.14 39.6797C115.583 40.7378 118.496 43.9122 121.541 45.8962Z" fill="#FFAB00"/>
<path d="M64.3452 35.7119C64.3452 17.1946 76.261 0 96.1205 0C115.98 0 92.1486 35.7119 64.3452 35.7119Z" fill="#FFAB00"/>
</svg>
