<svg width="145" height="35" viewBox="0 0 145 35" fill="none" xmlns="http://www.w3.org/2000/svg">
<path fill-rule="evenodd" clip-rule="evenodd" d="M89.5798 15.3727C89.7058 15.0516 89.8739 14.7305 90 14.4094C90.21 14.9713 90.2521 15.2523 89.5798 15.3727ZM89.7899 16.8979C89.4958 16.9381 89.5798 16.0149 89.5798 15.8544C90.126 16.1353 89.7058 16.4966 89.7899 16.8979ZM89.2857 14.1686C89.5378 14.008 89.8319 13.8475 90.084 13.7271C89.7058 14.3693 89.8739 13.9679 90 14.4094C89.7479 14.4897 89.4537 14.4094 89.2857 14.1686ZM87.689 19.3463C86.6806 22.8383 83.4874 25.5677 80.126 27.0126C78.1932 27.8154 76.2605 28.0562 74.2017 27.9358C73.4033 27.8956 72.4369 27.6548 71.6806 27.695C71.0924 27.7351 71.0924 27.7752 70.6302 28.2569C70.4201 27.8555 70.5882 27.6147 70.126 27.3738C69.5798 27.0929 69.3277 27.414 69.0756 27.8154C68.7395 27.4541 68.5714 27.2936 68.1092 27.0528C68.1092 27.0528 67.647 27.0528 67.6891 27.0528C67.605 27.0126 67.1008 26.7317 66.9748 26.6514C66.3445 26.4105 65.5882 26.3303 65 26.0092C64.4958 25.7282 64.0756 24.9255 63.4874 25.5275C63.4874 24.4839 62.0168 24.0826 61.3445 23.5206C60.2941 22.6778 59.4117 21.4335 58.9075 20.2294C58.3613 18.945 58.1512 17.7007 57.8991 16.3761C57.7311 15.453 56.5126 14.0883 57.2269 13.1651C57.3949 13.5665 57.3109 13.9679 57.605 14.3291C57.8571 13.8475 58.0252 13.3257 58.1092 12.8039C58.1512 12.5631 58.4874 11.8005 58.4454 11.5596C58.3613 11.1181 57.7731 11.078 58.1092 10.5161C58.7815 11.2385 59.3277 9.99427 58.8235 9.47248C58.5714 9.75344 58.4874 10.0745 58.3613 10.3956C57.6891 9.11124 59.5378 9.51262 59.1596 8.34863C59.8319 8.22821 60.2101 8.06766 60.4622 7.42546C60.7563 6.70298 60.5462 6.54243 61.1764 6.10092C61.3865 5.94037 62.0168 5.69954 62.1428 5.45872C62.3529 4.93693 61.8067 4.77638 62.3109 4.29473C62.479 4.57569 63.1512 5.13762 63.4874 4.61583C63.5714 4.49542 63.2773 4.41514 63.4874 4.17431C63.8235 3.81308 64.1596 3.45184 64.7479 3.53211C64.3277 2.48854 67.1008 2.40826 67.8151 2.16743C68.5294 1.92661 69.1176 1.76606 69.8739 1.68578C70.6302 1.64565 70.6722 1.40482 71.3025 0.963306C71.3445 1.60551 71.5126 1.44496 71.9748 1.56537C72.1008 1.36468 72.1848 1.36468 72.3109 1.4851C72.4369 1.60551 72.563 1.64565 72.7311 1.64565C72.9832 1.64565 73.2773 1.64565 73.5294 1.64565C74.1596 1.64565 74.7899 1.60551 75.4201 1.60551C75.5882 1.56537 75.7143 1.52523 75.8823 1.44496C75.9243 1.56537 76.0084 1.64565 76.0504 1.76606C76.3865 1.8062 76.3865 2.20757 76.8067 1.76606C76.9327 2.28785 77.2689 2.00688 77.605 2.16743C77.9411 2.28785 77.9832 2.52867 78.2773 2.64909C78.4874 2.80964 78.6974 2.80964 78.9075 2.72936C79.1176 2.88991 79.3277 3.05046 79.5798 3.17087C80 3.4117 80.4622 3.53211 80.9243 3.69266C81.2185 3.81308 81.5126 3.93349 81.7647 4.0539C81.7647 4.375 81.9327 4.49542 82.2269 4.41514C82.479 4.61583 82.563 4.61583 82.8151 4.97707C83.4033 5.81996 83.9495 6.46216 84.7059 7.18464C87.9411 10.4759 88.9495 15.0917 87.689 19.3463Z" fill="#3B247B"/>
<path fill-rule="evenodd" clip-rule="evenodd" d="M144.454 16.3761C144.58 16.055 144.748 15.7339 144.874 15.4128C145.084 15.9748 145.126 16.2557 144.454 16.3761ZM144.664 17.8612C144.37 17.9014 144.454 16.9782 144.454 16.8177C145 17.0986 144.58 17.4599 144.664 17.8612ZM144.16 15.172C144.412 15.0115 144.706 14.8509 144.958 14.7305C144.58 15.3727 144.748 14.9713 144.874 15.4128C144.622 15.453 144.328 15.3727 144.16 15.172ZM142.563 20.3096C141.555 23.8016 138.361 26.531 135 27.9759C133.067 28.7787 131.134 29.0195 129.076 28.8991C128.277 28.8589 127.311 28.6181 126.555 28.6583C125.966 28.6984 125.966 28.7385 125.504 29.2202C125.294 28.8188 125.462 28.578 125 28.3372C124.454 28.0562 124.202 28.3773 123.95 28.7787C123.613 28.4174 123.445 28.2569 122.983 28.0161C122.983 28.0161 122.521 28.0161 122.563 28.0161C122.479 27.9759 121.975 27.695 121.849 27.6147C121.218 27.3739 120.462 27.2936 119.874 26.9725C119.37 26.6915 118.95 25.8888 118.361 26.4908C118.361 25.4473 116.891 25.0459 116.218 24.4839C115.168 23.6411 114.286 22.3968 113.781 21.1927C113.235 19.9083 113.025 18.664 112.773 17.3395C112.605 16.4163 111.387 15.0516 112.101 14.1284C112.269 14.5298 112.185 14.9312 112.479 15.2924C112.731 14.8108 112.899 14.289 112.983 13.7672C113.025 13.5264 113.361 12.7638 113.319 12.5229C113.235 12.0814 112.647 12.0413 112.983 11.4794C113.655 12.2018 114.202 10.9576 113.697 10.4358C113.445 10.7167 113.361 11.0378 113.235 11.3589C112.563 10.0745 114.412 10.4759 114.034 9.31193C114.706 9.19151 115.084 9.03096 115.336 8.38876C115.63 7.66628 115.42 7.50573 116.05 7.06422C116.26 6.90367 116.891 6.66284 117.017 6.42202C117.227 5.90023 116.681 5.73968 117.185 5.25802C117.353 5.53899 118.025 6.10091 118.361 5.57913C118.445 5.45871 118.151 5.37844 118.361 5.13761C118.697 4.77637 119.034 4.41513 119.622 4.49541C119.202 3.45183 121.975 3.37156 122.689 3.13073C123.403 2.8899 123.992 2.72935 124.748 2.64908C125.504 2.60894 125.546 2.36812 126.176 1.9266C126.218 2.5688 126.387 2.40825 126.849 2.52867C126.975 2.32798 127.059 2.32798 127.185 2.44839C127.311 2.5688 127.437 2.60894 127.605 2.60894C127.857 2.60894 128.151 2.60894 128.403 2.60894C129.034 2.60894 129.664 2.5688 130.294 2.5688C130.462 2.52867 130.588 2.48853 130.756 2.40825C130.798 2.52867 130.882 2.60894 130.924 2.72935C131.26 2.76949 131.26 3.17087 131.681 2.72935C131.807 3.25114 132.143 2.97018 132.479 3.13073C132.815 3.25114 132.857 3.49197 133.151 3.61238C133.361 3.77293 133.571 3.77293 133.781 3.69266C133.992 3.85321 134.202 4.01376 134.454 4.13417C134.874 4.375 135.336 4.49541 135.798 4.65596C136.092 4.77637 136.387 4.89679 136.639 5.0172C136.639 5.3383 136.807 5.45871 137.101 5.37844C137.353 5.57913 137.437 5.57913 137.689 5.94036C138.277 6.78325 138.824 7.42546 139.58 8.14793C142.815 11.4794 143.823 16.055 142.563 20.3096Z" fill="#3B247B"/>
<path fill-rule="evenodd" clip-rule="evenodd" d="M38.9495 15.6135C39.0755 15.2924 39.2436 14.9713 39.3696 14.6502C39.5377 15.2122 39.6217 15.4931 38.9495 15.6135ZM39.1175 17.0986C38.8234 17.1388 38.9074 16.2156 38.9074 16.055C39.4957 16.336 39.0335 16.6972 39.1175 17.0986ZM38.6553 14.3693C38.9074 14.2087 39.2016 14.0482 39.4537 13.9278C39.0755 14.57 39.2436 14.1686 39.3696 14.6101C39.0755 14.6904 38.8234 14.6101 38.6553 14.3693ZM37.0587 19.547C36.0503 23.039 32.857 25.7684 29.4957 27.2133C27.5629 28.0161 25.6301 28.2569 23.5713 28.1365C22.773 28.0963 21.8066 27.8555 21.0503 27.8956C20.4621 27.9358 20.4621 27.9759 19.9999 28.4576C19.7898 28.0562 19.9579 27.8154 19.4957 27.5745C18.9495 27.2936 18.6974 27.6147 18.4453 28.0161C18.1091 27.6548 17.9411 27.4943 17.4789 27.2534C17.4789 27.2534 17.0167 27.2534 17.0587 27.2534C16.9747 27.2133 16.4705 26.9323 16.3444 26.8521C15.7142 26.6112 14.9579 26.531 14.3696 26.2099C13.8654 25.9289 13.4453 25.1261 12.857 25.7282C12.857 24.6846 11.3864 24.2833 10.7142 23.7213C9.66375 22.8784 8.7814 21.6342 8.2772 20.43C7.73098 19.1456 7.5209 17.9014 7.2688 16.5768C7.10073 15.6537 5.88224 14.289 6.59653 13.3658C6.76459 13.7672 6.68056 14.1686 6.97468 14.5298C7.22678 14.0482 7.39485 13.5264 7.47888 13.0046C7.5209 12.7638 7.85703 12.0011 7.81501 11.7603C7.73098 11.3188 7.14275 11.2787 7.47888 10.7167C8.15115 11.4392 8.69737 10.195 8.19317 9.67317C7.94106 9.95413 7.85703 10.2752 7.73098 10.5963C7.05871 9.31193 8.90745 9.71331 8.5293 8.54931C9.20157 8.4289 9.57972 8.26835 9.83182 7.62615C10.1259 6.90367 9.91585 6.74312 10.5461 6.30161C10.7562 6.14106 11.3864 5.90023 11.5125 5.65941C11.7226 5.13762 11.1764 4.97707 11.6806 4.49542C11.8486 4.77638 12.5209 5.33831 12.857 4.81652C12.9411 4.6961 12.6469 4.61583 12.857 4.375C13.1932 4.01376 13.5293 3.65253 14.1175 3.7328C13.6974 2.68922 16.4705 2.60895 17.1848 2.36812C17.899 2.1273 18.4873 1.96675 19.2436 1.88647C19.9159 1.84633 19.9159 1.64565 20.5881 1.20413C20.6301 1.84633 20.7982 1.68578 21.2604 1.8062C21.3444 1.60551 21.4705 1.60551 21.5965 1.76606C21.7226 1.88647 21.8486 1.92661 22.0167 1.92661C22.2688 1.92661 22.5629 1.92661 22.815 1.92661C23.4453 1.92661 24.0755 1.88647 24.7058 1.88647C24.8738 1.84633 24.9999 1.8062 25.168 1.72592C25.21 1.8062 25.294 1.92661 25.336 2.00688C25.6722 2.04702 25.6722 2.4484 26.0923 2.00688C26.2184 2.52867 26.5545 2.24771 26.8906 2.40826C27.2268 2.52867 27.2688 2.7695 27.5629 2.88991C27.773 3.05046 27.9831 3.05046 28.1932 2.97019C28.4032 3.13074 28.6133 3.29129 28.8654 3.4117C29.2856 3.65253 29.7478 3.77294 30.21 3.93349C30.5041 4.0539 30.7982 4.17432 31.0503 4.29473C31.0503 4.61583 31.2184 4.73624 31.5125 4.65597C31.7646 4.85665 31.8486 4.85665 32.1007 5.21789C32.689 6.06078 33.2352 6.70298 33.9915 7.42546C37.2688 10.7167 38.2772 15.2924 37.0587 19.547Z" fill="#3B247B"/>
<path fill-rule="evenodd" clip-rule="evenodd" d="M37.4789 18.664C37.605 18.3429 37.773 18.0218 37.8991 17.7007C38.1092 18.2626 38.1512 18.5436 37.4789 18.664ZM37.689 20.1892C37.3949 20.2294 37.4789 19.3062 37.4789 19.1456C38.0251 19.4266 37.605 19.7878 37.689 20.1892ZM37.1848 17.4599C37.4369 17.2993 37.731 17.1388 37.9831 17.0183C37.605 17.6605 37.773 17.2592 37.8991 17.7007C37.647 17.781 37.3529 17.6605 37.1848 17.4599ZM35.5882 22.6376C34.5798 26.1296 31.3865 28.8589 28.0251 30.3039C26.0924 31.1066 24.1596 31.3475 22.1008 31.2271C21.3024 31.1869 20.3361 30.9461 19.5798 30.9862C18.9915 31.0264 18.9915 31.0665 18.5293 31.5482C18.3193 31.1468 18.4873 30.906 18.0251 30.6651C17.4789 30.3842 17.2268 30.7053 16.9747 31.1066C16.6386 30.7454 16.4705 30.5849 16.0083 30.344C16.0083 30.344 15.5461 30.344 15.5882 30.344C15.5041 30.3039 14.9999 30.0229 14.8739 29.9427C14.2436 29.7018 13.4873 29.6216 12.8991 29.3005C12.3949 29.0195 11.9747 28.2167 11.3865 28.8188C11.3865 27.7752 9.9159 27.3738 9.24363 26.8119C8.19321 25.969 7.31085 24.7248 6.80665 23.5206C6.26043 22.2362 6.05035 20.992 5.79825 19.6674C5.63018 18.7443 4.4117 17.3796 5.12598 16.4564C5.29405 16.8578 5.21001 17.2592 5.50413 17.6204C5.75623 17.1388 5.9243 16.617 6.00833 16.0952C6.05035 15.8544 6.38649 15.0917 6.34447 14.8509C6.26043 14.4094 5.6722 14.3693 6.00833 13.8073C6.6806 14.5298 7.22682 13.2855 6.72262 12.7638C6.47052 13.0447 6.38648 13.3658 6.26043 13.6869C5.58817 12.4025 7.4369 12.8039 7.05875 11.6399C7.73102 11.5195 8.10917 11.3589 8.36127 10.7167C8.65539 9.99426 8.44531 9.83371 9.07556 9.3922C9.28564 9.23165 9.9159 8.99082 10.0419 8.75C10.252 8.22821 9.70581 8.06766 10.21 7.58601C10.3781 7.86697 11.0503 8.4289 11.3865 7.90711C11.4705 7.7867 11.1764 7.70642 11.3865 7.4656C11.7226 7.10436 12.0588 6.74312 12.647 6.82339C12.2268 5.77982 14.9999 5.69954 15.7142 5.45871C16.4285 5.21789 17.0167 5.05734 17.773 4.97706C18.5293 4.93693 18.5714 4.6961 19.2016 4.25459C19.2436 4.89679 19.4117 4.73624 19.8739 4.85665C19.9999 4.65596 20.084 4.65596 20.21 4.77638C20.3361 4.89679 20.4621 4.93693 20.6302 4.93693C20.8823 4.93693 21.1764 4.93693 21.4285 4.93693C22.0588 4.93693 22.689 4.89679 23.3193 4.89679C23.4873 4.85665 23.6134 4.81651 23.7814 4.73624C23.8235 4.85665 23.9075 4.93693 23.9495 5.05734C24.2856 5.09748 24.2856 5.49885 24.7058 5.05734C24.8319 5.57913 25.168 5.29816 25.5041 5.45871C25.8403 5.57913 25.8823 5.81995 26.1764 5.94037C26.3865 6.10092 26.5966 6.10092 26.8066 6.02064C27.0167 6.18119 27.2268 6.34174 27.4789 6.46216C27.8991 6.70298 28.3613 6.82339 28.8235 6.98394C29.1176 7.10436 29.4117 7.22477 29.6638 7.34518C29.6638 7.66628 29.8319 7.7867 30.126 7.70642C30.3781 7.90711 30.4621 7.90711 30.7142 8.26835C31.3024 9.11124 31.8487 9.75344 32.605 10.4759C35.8403 13.7672 36.8487 18.3429 35.5882 22.6376ZM36.5966 8.83027C35.126 6.98394 33.0251 4.81651 31.1764 3.61238C30.21 3.01032 28.9075 1.92661 27.731 1.6055C27.4369 1.52523 27.1848 1.52523 26.8907 1.44495C26.6806 1.36468 26.5545 1.16399 26.3445 1.12385C26.1764 1.08372 26.1764 1.44495 25.9663 1.40482C25.5882 1.32454 25.3781 1.00344 25.084 0.762615C24.5377 1.68578 24.2016 0.120413 23.4033 1.16399C22.4369 -0.321101 20.126 1.0239e-07 18.5293 0.0802753C18.0672 0.120413 17.8571 0.240826 17.4369 0.361239C17.0588 0.481651 17.0167 0.441514 16.5966 0.441514C15.5461 0.441514 14.6218 0.561927 13.6554 1.00344C12.0167 1.72592 10.5461 2.88991 8.99153 3.77294C7.26884 4.77638 5.71422 6.02064 4.4117 7.4656C-0.294186 12.7638 -1.55469 20.43 2.22682 26.4908C8.23522 36.1238 23.7814 37.1674 32.605 30.625C39.4117 25.5677 41.9747 15.7339 36.5966 8.83027Z" fill="#FFAB00"/>
<path fill-rule="evenodd" clip-rule="evenodd" d="M88.1511 18.5837C88.2772 18.2626 88.4453 17.9415 88.5713 17.6204C88.7394 18.1823 88.8234 18.4633 88.1511 18.5837ZM88.3192 20.1089C88.0251 20.1491 88.1091 19.2259 88.1091 19.0654C88.6974 19.3463 88.2352 19.7076 88.3192 20.1089ZM87.857 17.3796C88.1091 17.219 88.4032 17.0585 88.6553 16.9381C88.2772 17.5803 88.4453 17.1789 88.5713 17.6204C88.2772 17.7007 88.0251 17.6204 87.857 17.3796ZM86.2604 22.5573C85.252 26.0493 82.0587 28.7787 78.6974 30.2236C76.7646 31.0264 74.8318 31.2672 72.773 31.1468C71.9747 31.1067 71.0083 30.8658 70.252 30.906C69.6638 30.9461 69.6638 30.9862 69.2016 31.4679C68.9915 31.0665 69.1596 30.8257 68.6974 30.5849C68.1512 30.3039 67.899 30.625 67.6469 31.0264C67.3108 30.6651 67.1427 30.5046 66.6806 30.2638C66.6806 30.2638 66.2184 30.2638 66.2604 30.2638C66.1764 30.2236 65.6722 29.9427 65.5461 29.8624C64.9159 29.6216 64.1596 29.5413 63.5713 29.2202C63.0671 28.9392 62.6469 28.1365 62.0587 28.7385C62.0587 27.695 60.5881 27.2936 59.9159 26.7317C58.8654 25.8888 57.9831 24.6445 57.4789 23.4404C56.9327 22.156 56.7226 20.9117 56.4705 19.5872C56.3024 18.664 55.0839 17.2993 55.7982 16.3761C55.9663 16.7775 55.8822 17.1789 56.1764 17.5401C56.4285 17.0585 56.5965 16.5367 56.6806 16.0149C56.7226 15.7741 57.0587 15.0115 57.0167 14.7706C56.9327 14.3291 56.3444 14.289 56.6806 13.7271C57.3528 14.4495 57.8991 13.2053 57.3949 12.6835C57.1428 12.9645 57.0587 13.2856 56.9327 13.6067C56.2604 12.3222 58.1091 12.7236 57.731 11.5596C58.4033 11.4392 58.7814 11.2787 59.0335 10.6365C59.3276 9.91399 59.1175 9.75344 59.7478 9.31193C59.9579 9.15138 60.5881 8.91055 60.7142 8.66973C60.9243 8.14794 60.378 7.98739 60.8822 7.50573C61.0503 7.7867 61.7226 8.34862 62.0587 7.82684C62.1427 7.70642 61.8486 7.62615 62.0587 7.38532C62.3948 7.02408 62.731 6.66284 63.3192 6.74312C62.899 5.69954 65.6722 5.61927 66.3864 5.37844C67.1007 5.13761 67.689 4.97706 68.4453 4.89679C69.2016 4.85665 69.2436 4.61583 69.8738 4.17431C69.9159 4.81651 70.0839 4.65596 70.5461 4.77638C70.6722 4.57569 70.7562 4.57569 70.8822 4.6961C71.0083 4.81651 71.1343 4.85665 71.3024 4.85665C71.5545 4.85665 71.8486 4.85665 72.1007 4.85665C72.731 4.85665 73.3612 4.81651 73.9915 4.81651C74.1596 4.77638 74.2856 4.73624 74.4537 4.65596C74.4957 4.77638 74.5797 4.85665 74.6217 4.97706C74.9579 5.0172 74.9579 5.41858 75.378 4.97706C75.5041 5.49885 75.8402 5.21789 76.1764 5.37844C76.5125 5.49885 76.5545 5.73968 76.8486 5.86009C77.0587 6.02064 77.2688 6.02064 77.4789 5.94037C77.689 6.10092 77.899 6.26147 78.1511 6.38188C78.5713 6.62271 79.0335 6.74312 79.4957 6.90367C79.7898 7.02408 80.0839 7.1445 80.336 7.26491C80.336 7.58601 80.5041 7.70642 80.7982 7.62615C81.0503 7.82684 81.1343 7.82684 81.3864 8.18807C81.9747 9.03096 82.5209 9.67317 83.2772 10.3956C86.4705 13.6869 87.4789 18.3028 86.2604 22.5573ZM87.2688 8.79014C85.7982 6.90367 83.6974 4.73624 81.8486 3.57225C80.8822 2.97018 79.5797 1.88647 78.4033 1.56537C78.1091 1.48509 77.857 1.48509 77.5629 1.40482C77.3528 1.32454 77.2268 1.12385 77.0167 1.08372C76.8486 1.04358 76.8486 1.40482 76.6385 1.36468C76.2604 1.2844 76.0503 0.963302 75.7562 0.722477C75.21 1.64564 74.8738 0.0802748 74.0755 1.12385C73.1091 -0.361239 70.7982 -0.0401381 69.2016 0.0401371C68.7394 0.0802747 68.5293 0.200688 68.1091 0.3211C67.731 0.441513 67.689 0.401376 67.2688 0.401376C66.2184 0.401376 65.294 0.521789 64.3276 0.963302C62.689 1.68578 61.2184 2.84977 59.6638 3.7328C57.9411 4.73624 56.3864 5.98051 55.0839 7.42546C50.336 12.6433 49.0755 20.3096 52.857 26.3704C58.8654 36.0034 74.4117 37.047 83.2352 30.5046C90.0419 25.4874 92.6469 15.6537 87.2688 8.79014Z" fill="#FFAB00"/>
<path fill-rule="evenodd" clip-rule="evenodd" d="M143.025 18.9048C143.151 18.5837 143.319 18.2626 143.445 17.9415C143.655 18.5034 143.697 18.7844 143.025 18.9048ZM143.193 20.3899C142.899 20.43 142.983 19.5069 142.983 19.3463C143.571 19.6273 143.109 19.9885 143.193 20.3899ZM142.731 17.6606C142.983 17.5 143.277 17.3395 143.529 17.219C143.151 17.8612 143.319 17.4599 143.445 17.9014C143.151 17.9817 142.899 17.9014 142.731 17.6606ZM141.134 22.8383C140.126 26.3303 136.933 29.0596 133.571 30.5046C131.639 31.3073 129.706 31.5482 127.647 31.4278C126.849 31.3876 125.882 31.1468 125.126 31.1869C124.538 31.2271 124.538 31.2672 124.076 31.7489C123.865 31.3475 124.034 31.1067 123.571 30.8658C123.025 30.5849 122.773 30.906 122.521 31.3073C122.185 30.9461 122.017 30.7856 121.555 30.5447C121.555 30.5447 121.092 30.5447 121.134 30.5447C121.05 30.5046 120.546 30.2236 120.42 30.1434C119.79 29.9025 119.034 29.8223 118.445 29.5011C117.941 29.2202 117.521 28.4174 116.933 29.0195C116.933 27.9759 115.462 27.5745 114.79 27.0126C113.739 26.1697 112.857 24.9255 112.353 23.7213C111.807 22.4369 111.597 21.1927 111.345 19.8681C111.176 18.945 109.958 17.5803 110.672 16.6571C110.84 17.0585 110.756 17.4599 111.05 17.8211C111.302 17.3395 111.471 16.8177 111.555 16.2959C111.597 16.055 111.933 15.2924 111.891 15.0516C111.807 14.6101 111.218 14.57 111.555 14.008C112.227 14.7305 112.773 13.4862 112.269 12.9645C112.017 13.2454 111.933 13.5665 111.807 13.8876C111.134 12.6032 112.983 13.0046 112.605 11.8406C113.277 11.7202 113.655 11.5596 113.908 10.9174C114.202 10.195 113.992 10.0344 114.622 9.59289C114.832 9.43234 115.462 9.19151 115.588 8.95069C115.798 8.4289 115.252 8.26835 115.756 7.7867C115.924 8.06766 116.597 8.62959 116.933 8.1078C117.017 7.98739 116.723 7.90711 116.933 7.66629C117.269 7.30505 117.605 6.94381 118.193 7.02408C117.773 5.98051 120.546 5.90023 121.26 5.6594C121.975 5.41858 122.563 5.25803 123.319 5.17775C124.076 5.13762 124.118 4.89679 124.748 4.45528C124.79 5.09748 124.958 4.93693 125.42 5.05734C125.546 4.85665 125.63 4.85665 125.756 4.97706C125.882 5.09748 126.008 5.13762 126.176 5.13762C126.429 5.13762 126.723 5.13762 126.975 5.13762C127.605 5.13762 128.235 5.09748 128.866 5.09748C129.034 5.05734 129.16 5.0172 129.328 4.93693C129.37 5.05734 129.454 5.13762 129.496 5.25803C129.832 5.29817 129.832 5.69954 130.252 5.25803C130.378 5.77982 130.714 5.49885 131.05 5.6594C131.387 5.77982 131.429 6.02064 131.723 6.14106C131.933 6.30161 132.143 6.30161 132.353 6.22133C132.563 6.38188 132.773 6.54243 133.025 6.66284C133.445 6.90367 133.908 7.02408 134.37 7.18463C134.664 7.30505 134.958 7.42546 135.21 7.54587C135.21 7.86697 135.378 7.98739 135.672 7.90711C135.924 8.1078 136.008 8.1078 136.26 8.46904C136.849 9.31193 137.395 9.95413 138.151 10.6766C141.344 14.008 142.353 18.5837 141.134 22.8383ZM142.143 9.0711C140.672 7.18463 138.571 5.0172 136.723 3.85321C135.756 3.25115 134.454 2.16743 133.277 1.84633C132.983 1.76606 132.731 1.76606 132.437 1.68578C132.227 1.6055 132.101 1.40482 131.891 1.36468C131.723 1.32454 131.723 1.68578 131.513 1.64564C131.134 1.56537 130.924 1.24427 130.63 1.00344C130.084 1.92661 129.748 0.361239 128.95 1.40482C127.983 -0.0802752 125.672 0.240826 124.076 0.321101C123.613 0.361239 123.403 0.481651 122.983 0.602064C122.605 0.722477 122.563 0.68234 122.143 0.68234C121.092 0.68234 120.168 0.802752 119.202 1.24427C117.563 1.96674 116.092 3.13073 114.538 4.01376C112.815 5.0172 111.26 6.26147 109.958 7.70642C105.21 12.9243 103.95 20.5906 107.731 26.6514C113.739 36.2844 129.286 37.328 138.109 30.7856C144.916 25.8085 147.521 15.9748 142.143 9.0711Z" fill="#FFAB00"/>
</svg>
