<svg width="193" height="144" viewBox="0 0 193 144" fill="none" xmlns="http://www.w3.org/2000/svg">
<g clip-path="url(#clip0)">
<path fill-rule="evenodd" clip-rule="evenodd" d="M150.028 17.3748C150.096 17.9611 150.828 17.5133 150.896 17.8311C150.939 18.0308 150.186 18.5264 150.024 18.6629C150.548 18.9775 151.218 18.2526 151.612 17.9489C151.814 18.1677 151.883 18.2826 151.697 18.5329C151.368 18.9749 151.383 18.3893 150.993 18.6968C151.155 18.9687 151.298 18.8129 151.505 18.7398C151.415 19.2629 151.616 18.9318 151.774 19.2631C151.902 19.5325 151.887 19.7316 151.925 20.0326C151.739 20.4563 151.554 20.8803 151.369 21.304C151.146 21.8138 151.212 21.9777 150.666 21.8073C150.728 21.7015 151.136 21.1844 151.103 21.0573C151.065 20.9119 150.507 20.7109 150.36 20.5889C150.1 20.3742 150.103 20.1901 149.938 19.9594C150.003 19.7449 149.952 19.6446 149.784 19.6591L149.598 20.1561C149.614 20.5088 149.913 20.4758 150.09 20.8128C150.36 21.3284 150.209 21.0241 149.988 21.439C149.771 21.8466 149.746 22.3669 149.389 22.5719C149.581 22.6557 149.773 22.7395 149.965 22.8231C149.517 23.3121 150.448 23.074 150.602 23.0266C150.445 23.3594 150.287 23.6922 150.13 24.025C149.658 23.7621 149.425 23.2638 149.11 22.8522L148.392 24.1801C148.631 24.1581 148.869 24.1364 149.107 24.1144C149.073 24.1769 148.769 24.6051 148.795 24.7004C148.901 25.0887 149.711 24.8697 149.622 25.3776C149.61 25.4427 148.884 26.1715 148.759 26.2418C149.124 26.4049 149.289 26.3373 149.159 26.7657L148.65 26.4599C148.506 26.7177 148.339 26.9695 148.247 27.2519C148.264 27.4366 148.231 27.6115 148.147 27.7769C148.047 27.9248 147.935 28.0628 147.81 28.1907C147.71 28.4504 147.679 29.8679 147.798 30.0991C148.065 29.7565 148.66 30.3612 147.655 30.3612C147.215 30.3612 147.244 30.2701 147.076 30.6548C146.944 30.9576 146.872 31.2218 147.247 31.2509C146.965 31.8038 147.025 32.2298 147 32.8191C146.979 33.2965 146.845 33.7711 146.745 34.2394C146.834 34.1118 146.924 33.9843 147.013 33.8566C147.254 34.3673 147.07 34.7974 146.956 35.344C146.706 35.0157 146.675 35.6014 146.462 35.5409C146.026 35.4171 146.352 35.326 146.175 35.0416C146.021 34.7952 146.037 34.7245 145.753 34.5739C145.377 34.3743 144.717 34.3668 144.291 34.2963C143.575 34.1774 142.858 34.1476 142.133 34.1163C139.421 33.9993 136.718 33.9693 134.006 34.1176C131.511 34.2541 128.956 34.6021 126.51 35.0734C123.905 35.5752 121.358 36.0379 118.835 36.8868C118.348 37.0508 117.86 37.393 117.372 37.5132C116.91 37.6274 116.447 37.6259 115.965 37.7924C114.811 38.191 113.617 38.4933 112.454 38.8737C111.201 39.2838 109.845 39.6258 108.652 40.1933C108.134 40.4399 107.664 40.7742 107.146 41.0239C106.658 41.2593 105.838 41.4739 105.58 42.0173C105.48 42.2292 105.497 42.3828 105.559 42.6023C105.684 43.0429 105.783 42.9953 106.123 42.9655C106.596 42.9239 107.208 42.5577 107.668 42.4137C108.925 42.0196 110.198 41.704 111.477 41.3883C113.773 40.8211 116.079 39.8168 118.345 39.424C119.689 39.1911 120.962 38.5578 122.314 38.3185C122.61 38.2662 123.469 37.8453 123.712 37.9908C123.776 38.0292 123.934 38.4912 123.99 38.6016C124.189 38.9984 124.418 39.3814 124.686 39.7368C125.494 40.8081 126.578 41.671 127.545 42.5943C128.649 43.6489 129.609 44.8124 130.629 45.9445C130.717 45.8423 130.806 45.7401 130.894 45.6381C130.801 46.3531 131.339 46.8687 131.779 47.3541C132.302 47.9309 132.722 48.4729 133.133 49.1305C133.471 49.6698 133.904 50.1419 134.286 50.6331C134.661 51.1165 134.911 51.6998 135.256 52.2207C136.05 53.4171 136.83 54.6366 137.63 55.8169C138.007 56.3725 138.304 56.9976 138.602 57.6301C138.838 58.132 139.55 59.1584 139.55 59.6453C139.499 59.8838 140.019 61.3186 139.463 60.6424C139.375 60.7789 139.286 60.9154 139.197 61.0519C139.349 60.9886 139.501 60.9252 139.653 60.8618C139.191 61.2775 140.053 61.3309 140.072 61.5633C139.995 61.6369 139.919 61.7106 139.842 61.7843C139.711 62.0532 139.54 62.0881 139.33 61.8889C139.099 61.903 139.053 61.7744 138.795 61.8601C139.041 62.2424 139.358 62.0007 139.483 62.5291C139.593 62.9946 139.245 63.0945 138.878 63.3698L138.855 63.3871L138.847 63.4146C138.767 63.6527 138.54 63.5513 138.287 63.4994C137.682 63.3754 137.013 63.1379 136.424 62.9551C135.15 62.56 133.867 62.227 132.55 61.9568C129.546 61.3401 126.566 61.3692 123.534 61.1742C123.614 60.8438 123.614 60.8729 123.52 60.6681C123.641 60.9306 122.909 60.5879 123.461 61.1678C122.052 61.3969 120.531 61.2246 119.102 61.3009C119.168 61.1536 119.321 60.9841 119.178 60.8774C118.502 61.8503 116.242 61.4331 115.125 61.5724C114.469 61.6544 113.82 61.8113 113.167 61.9146L112.891 61.9576C112.662 61.9938 112.432 62.0337 112.208 62.0941C111.919 62.1715 111.438 62.4897 111.164 62.4158C111.565 61.6118 111.102 62.3078 111.039 62.317C110.849 62.3449 110.521 62.4087 110.248 62.4087C110.56 61.1635 111.094 60.0162 111.31 58.7337C111.444 57.9342 111.813 56.6464 111.019 56.0798C110.583 55.7693 109.87 55.702 109.365 55.5964C108.813 55.4808 107.847 55.4854 107.366 55.1748C106.991 54.9319 106.912 54.7088 106.42 54.5232C105.853 54.3091 105.591 54.0964 105.018 54.2695C105.251 53.9791 105.578 53.7672 105.12 53.4704C104.932 53.3491 104.565 53.5124 104.499 53.2469C104.16 53.4856 104.24 53.6783 104.149 54.0055C104.157 54.1439 104.194 54.2759 104.259 54.4011C104.079 54.4731 103.9 54.5451 103.72 54.6171C103.834 54.3117 103.499 54.4938 103.432 54.3436C103.332 54.1191 103.391 53.7766 103.391 53.533C103.021 53.6494 102.633 53.7934 102.471 54.1771C102.018 53.908 102.198 53.8896 102.43 53.4859C102.05 53.3963 101.969 53.5913 101.911 53.9052C101.71 53.8433 101.509 53.7816 101.308 53.7199C101.761 53.7168 101.87 53.3646 101.88 52.9821C101.704 53.0391 101.528 53.0963 101.352 53.1533C101.315 53.3384 101.279 53.5234 101.243 53.7085C100.965 53.9425 100.243 53.5199 100.009 53.3989C99.192 52.9776 98.8931 52.8558 99.0083 51.8984C99.1046 51.0959 99.3177 50.2894 99.365 49.4828C99.4176 48.5868 99.3125 47.6284 99.2335 46.7352C99.0804 45.0066 98.8341 43.3032 98.7478 41.5675C98.7012 40.6278 98.6492 39.6878 98.6121 38.7475C98.5827 38.0001 98.3233 37.1778 99.2606 37.1114C99.146 36.7495 99.4893 36.331 99.8434 36.1328C99.9672 35.8521 100.103 35.827 100.25 36.0578C100.378 36.0978 100.496 36.079 100.606 36.0012C101.122 35.8848 101.741 35.1563 102.204 34.8936C102.659 34.6362 103.649 34.2619 103.973 33.8284C104.287 33.409 103.813 33.4563 103.909 33.0719C104.039 32.5465 104.516 33.301 104.589 33.406C104.749 33.2468 105.357 32.9483 105.35 32.7169C105.201 32.6905 105.052 32.6641 104.903 32.6376C105.066 32.5441 105.427 32.2647 105.616 32.2278C105.938 32.1649 105.817 32.0838 106.075 32.4368C106.165 32.2984 106.383 31.8438 106.52 31.7517C106.585 31.7076 106.973 31.6784 107.054 31.6499C107.476 31.5016 107.433 31.1751 107.743 31.0199C107.894 30.9447 108.079 31.0602 108.205 31.0054C108.407 30.9177 108.407 30.6183 108.59 30.5097C108.749 30.4156 109.15 30.4938 109.339 30.4253C109.652 30.3115 109.639 30.2056 109.872 29.9978C110.2 29.7066 110.502 29.7488 110.867 29.5281C111.245 29.2994 111.187 28.7843 111.531 28.6861C111.989 28.555 112.107 28.987 112.356 28.5603C112.412 28.4644 112.158 28.3212 112.317 28.1674C112.514 27.9781 112.596 28.204 112.686 28.3512L112.997 27.7668C113.496 28.0386 113.287 27.688 113.668 27.5013C113.837 27.4184 113.976 27.5821 114.161 27.4819C114.297 27.4084 114.321 27.2483 114.419 27.1491C114.607 26.9584 114.711 26.6967 115.002 26.6059C114.897 26.6386 115.76 26.6138 115.683 26.5771C115.599 26.4544 115.515 26.3318 115.431 26.2092C115.883 26.2092 116.277 26.2538 116.715 26.1188C116.869 26.0712 117.111 25.9977 117.24 25.8998C117.594 25.6308 117.514 25.6964 117.514 25.2021C118.002 25.5111 118.623 25.4031 119.105 25.0448C119.356 24.8577 119.517 24.6338 119.793 24.4647C119.911 24.4038 120.032 24.3468 120.154 24.2939C120.307 24.1364 120.46 24.1349 120.614 24.2896C120.831 24.2316 120.828 24.1917 120.997 24.0869C121.045 23.992 121.096 23.8988 121.151 23.8075C121.332 23.7888 121.51 23.7563 121.685 23.7102C122.367 23.5278 122.779 23.0751 123.411 23.4762C123.492 23.3121 123.573 23.1479 123.654 22.9836C123.923 23.4021 124.107 23.0024 124.465 22.8329C124.615 22.7618 124.809 22.7442 124.945 22.6793L125.173 22.7331C125.238 22.5344 125.302 22.3356 125.367 22.1369C125.497 22.1873 126.013 22.4631 126.168 22.4485C126.391 22.4277 126.657 22.0533 126.872 21.9826C127.201 21.8748 127.083 22.0173 127.406 22.0195C127.654 22.0212 127.771 22.0563 127.986 21.8489C127.261 21.6616 128.175 21.5733 128.481 21.5099C128.957 21.4113 129.202 21.5166 129.532 21.1426H129.189C129.528 20.836 129.414 20.9442 129.77 20.9742C129.883 20.9834 130.371 21.2502 130.372 20.8943C130.833 21.1645 130.838 21.1651 131.313 21.0432C131.524 20.9892 131.703 20.8135 131.934 20.8094C132.16 20.8054 132.321 20.9069 132.523 20.8851C132.643 20.8724 133.065 20.7151 133.207 20.6635C133.433 20.5816 133.582 20.4066 133.798 20.3389C134.036 20.2641 134.339 20.353 134.589 20.2984C135.332 20.1357 135.768 19.6932 136.573 19.9328C136.659 19.2164 137.556 19.3758 138.039 19.4496C138.375 19.5012 138.547 19.6366 138.895 19.4727C139.178 19.3394 139.34 19.1279 139.655 19.0214C139.897 18.9396 140.223 18.8802 140.476 18.8281C140.632 18.7789 140.792 18.7632 140.955 18.781C141.119 18.8039 141.256 18.8748 141.367 18.9935L141.387 19.0169C141.413 18.9577 141.793 18.6772 141.749 18.7118C142.034 18.4855 142.167 18.5719 142.342 18.1313L141.733 18.0034C142.046 17.9824 142.282 17.9464 142.561 18.0678C142.753 18.1516 143.077 18.5958 143.271 18.5961C143.62 18.5965 143.742 18.1069 143.707 17.8521C144 18.5311 144.251 18.6441 144.909 18.2971C144.986 18.2562 145.063 18.2155 145.141 18.1746C145.297 18.0113 145.453 18.0143 145.608 18.1838L145.884 18.3333C145.995 18.1501 146.105 17.9671 146.216 17.7839C146.451 18.1056 146.674 18.1214 147.057 18.0462C147.321 17.9943 147.863 17.5182 148.058 17.5184C148.17 17.5184 148.315 17.7921 148.503 17.8456C148.815 17.9344 149.299 17.7109 149.41 17.4143C149.469 17.5381 149.528 17.662 149.587 17.7859C149.734 17.6491 149.881 17.5126 150.028 17.3748ZM138.845 63.3848L138.844 63.3953L138.855 63.3871L138.855 63.3867L138.845 63.3848ZM138.462 62.7389V63.3154L138.659 63.3511L138.845 63.3848L138.847 63.3532C138.855 63.0759 138.712 62.8705 138.462 62.7389ZM121.119 60.445C121.058 60.6318 120.997 60.8187 120.935 61.0054C121.141 61.0221 121.348 61.0388 121.554 61.0557C121.409 60.8521 121.264 60.6486 121.119 60.445ZM96.9133 45.6712C97.3639 45.802 97.3577 45.7861 97.4482 46.2008C97.9629 48.5615 96.3703 51.269 97.5396 53.513C94.1214 53.4854 90.6962 53.5533 87.298 53.9517C87.298 52.6662 87.3404 51.3835 87.2427 50.1001C87.1984 49.5175 87.1323 48.937 87.0725 48.356C86.997 47.6185 87.0209 47.6617 87.6276 47.5347C87.9463 47.468 88.0603 47.267 88.3649 47.1445C88.5935 47.0525 88.6961 47.1657 88.9215 47.1972C89.3246 47.2538 89.3295 47.1865 89.699 47.1081C90.4919 46.94 91.1653 47 91.7918 46.411C92.1165 46.3831 92.0114 46.6823 92.2377 46.6531C92.4023 46.6317 92.5071 46.3261 92.675 46.2531C93.1973 46.0257 94.0667 46.0812 94.6382 46.0101C95.2219 45.9378 95.7385 45.6758 96.2973 45.5982C96.5275 45.5663 96.6952 45.6078 96.9133 45.6712ZM103.507 52.4841C103.397 52.8923 102.913 52.3609 102.905 52.6811L102.906 52.7103L102.907 52.7031C102.932 52.6483 103.422 53.2927 103.393 53.2713C103.656 53.4683 103.809 53.4498 104.107 53.2236C103.574 53.2036 103.632 52.8762 103.507 52.4841ZM104.993 53.0609C105.188 53.1674 105.248 52.8949 105.348 52.7286C105.131 52.6208 105.099 52.8717 104.993 53.0609ZM104.391 51.2851C104.467 51.5502 104.461 51.7534 104.461 52.0272C104.911 51.9638 105.053 51.9312 105.061 51.4548L104.821 51.6053C104.694 51.3565 104.666 51.3372 104.391 51.2851ZM100.906 51.7289C101.008 51.6636 101.11 51.5982 101.212 51.5328C101.062 51.3175 100.794 51.5734 100.906 51.7289ZM102.045 47.7678C102.175 47.6999 102.305 47.632 102.436 47.5641C102.098 47.1357 102.073 47.2795 102.045 47.7678ZM101.574 44.3695H101.062C101.163 44.6969 101.574 44.7674 101.574 44.3695ZM151.728 25.3229C151.845 25.3907 151.962 25.4586 152.079 25.5263C151.775 25.8017 151.402 26.0794 151.698 26.4023C151.933 26.6586 153.03 26.7809 153.359 26.8742C153.245 27.0047 153.01 27.3614 152.854 27.4512C152.731 27.5222 152.618 27.2408 152.37 27.5211C152.782 27.7337 152.672 27.5727 152.565 28.0236C152.501 28.2897 152.275 28.5754 152.148 28.8141C151.838 29.3948 151.521 29.9717 151.196 30.5442C150.529 31.7181 149.827 32.8725 149.089 34.0039C148.964 33.3649 149.32 32.6489 149.505 32.0324C149.737 31.2565 149.969 30.481 150.203 29.7057C150.654 28.2117 151.059 26.7332 151.728 25.3229ZM133.826 27.2723C133.492 27.3569 133.274 27.412 132.929 27.4994C133.43 27.658 133.43 27.658 133.826 27.2723ZM148.588 24.3925C148.163 24.5905 148.118 24.7343 148.462 24.9766C148.502 24.7881 148.532 24.6499 148.588 24.3925ZM148.537 19.7071C148.479 19.9585 148.121 19.7166 148.042 19.9004C147.861 20.3208 148.437 20.2638 148.645 20.2384C148.609 20.0613 148.573 19.8843 148.537 19.7071ZM150.946 19.3879C150.832 19.9255 150.832 19.9255 151.359 20.0063C151.221 19.7993 151.105 19.6257 150.946 19.3879ZM141.387 19.0169L141.386 19.0226C141.387 19.0259 141.39 19.0274 141.396 19.027L141.387 19.0169Z" fill="#FFAB00"/>
<path fill-rule="evenodd" clip-rule="evenodd" d="M74.7503 75.3217C74.6704 75.731 74.4706 75.9238 74.68 76.2997C74.8577 76.619 75.3673 76.8281 75.7094 76.7473L74.7503 75.3217ZM65.4821 60.7631L63.7947 61.3385C64.2559 61.7887 64.6954 62.262 65.2039 62.6617L65.4821 60.7631ZM93.3162 62.2368C92.5114 61.8333 91.6099 61.7878 90.7276 61.736C90.8616 62.4566 90.996 63.1773 91.1304 63.8979C91.8589 63.3442 92.5877 62.7905 93.3162 62.2368ZM73.9911 118.017C73.8305 117.734 72.7351 115.548 72.5074 115.66C72.3866 115.72 72.3772 116.937 72.3595 117.11C72.2967 117.726 72.2337 118.341 72.171 118.957C72.819 118.729 73.511 118.541 73.9911 118.017ZM66.3374 100.345C66.5031 100.828 66.669 101.311 66.8346 101.794C66.9134 102.024 66.9596 102.362 67.0991 102.565C67.2802 102.828 67.1436 102.983 67.3854 102.695C67.6451 102.386 67.7227 101.561 67.8355 101.182C68.0068 100.607 68.1779 100.032 68.349 99.4565C67.5422 99.4498 67.0531 100.111 66.3374 100.345ZM49.3817 71.8933C48.3896 72.5679 47.3852 73.2371 46.522 74.0756C47.2813 74.0285 48.3387 74.5483 49.054 74.3041C49.3842 74.3743 49.4933 74.2496 49.3817 73.9297V73.2652V71.8933ZM64.0927 76.6655V80.6043C65.019 79.8191 65.994 79.0897 66.8853 78.264C65.9545 77.7311 65.0238 77.1984 64.0927 76.6655ZM97.2082 86.8713C96.9159 88.6248 96.8997 90.4293 96.8196 92.2038C96.8054 92.5188 96.6835 92.993 96.8944 93.2688C97.106 93.5454 97.709 93.6986 98.0154 93.8463C98.8777 94.2622 99.7342 94.6899 100.594 95.1108C99.4654 92.3643 98.3368 89.6178 97.2082 86.8713ZM119.1 76.0876C121.227 75.0474 123.354 74.0071 125.482 72.9667C123.396 72.0883 121.31 71.21 119.225 70.3316C119.183 72.2503 119.141 74.1691 119.1 76.0876ZM97.2037 80.9853C97.5925 81.0131 97.654 79.5399 97.7182 79.1503C97.8407 78.4108 97.9663 77.6718 98.095 76.9333C98.3526 75.4569 98.6233 73.9828 98.9083 72.5115C99.4782 69.5692 100.107 66.638 100.803 63.723C100.055 63.5887 99.367 63.4921 98.6359 63.2754C98.0454 63.1003 97.3422 63.1955 96.815 62.8314C96.7466 64.1973 97.0895 65.6495 97.2163 67.0155C97.3633 68.5959 97.4423 70.1681 97.4293 71.7556C97.4037 74.8323 97.2862 77.9098 97.2037 80.9853ZM48.2409 122.67C48.6095 122.572 48.1076 117.545 48.0852 116.82C48.0211 114.721 48.0087 112.62 48.0464 110.521C46.0602 111.76 44.0279 112.901 41.9297 113.93C42.469 114.626 42.9743 115.376 43.571 116.024C44.1858 116.691 44.8911 117.237 45.4608 117.956C46.6079 119.402 47.3937 121.044 48.2409 122.67ZM96.0361 92.9293C96.1284 91.4171 96.214 89.9081 96.3674 88.4004C96.4328 87.7588 97.0561 84.3494 96.0581 84.4295C95.4904 84.4751 94.4947 85.3016 93.9741 85.5913C93.2866 85.9738 92.5981 86.3551 91.9071 86.7318C90.5437 87.4751 89.1712 88.2018 87.8028 88.9363C90.5472 90.2673 93.2917 91.5984 96.0361 92.9293ZM90.1107 61.4857C88.974 61.4013 87.8752 61.3173 86.754 61.1068C86.1493 60.9931 85.5447 61.0089 84.9369 60.9322C84.5015 60.8773 83.6505 60.5216 83.2449 60.638C82.7353 60.7843 82.5502 63.3251 82.4801 63.9628C82.3672 64.9899 82.291 66.236 82.7522 67.2009C83.6411 69.0609 86.0361 67.6091 87.2012 66.8289C88.2 66.1599 89.3314 65.4825 90.2172 64.6704C91.0019 63.951 90.2975 62.4153 90.1107 61.4857ZM96.0057 81.7123C96.8622 81.3676 96.8486 80.9349 96.8859 80.0435C96.9311 78.9605 96.9575 77.8762 96.9886 76.7926C97.044 74.8618 97.0964 72.93 97.0791 70.998C97.0623 69.1108 96.9694 67.2266 96.7523 65.351C96.6756 64.6878 96.7519 63.5551 96.4006 62.9895C96.08 62.4735 95.0848 62.468 94.5418 62.4999C93.9297 62.5357 93.4338 63.1141 92.982 63.4798C92.4816 63.885 91.4534 64.4553 91.3715 65.0595C91.2795 65.7341 91.6521 66.6967 91.7965 67.3511C92.3244 69.7393 92.9667 72.104 93.6434 74.4541C94.3452 76.8924 95.0566 79.3552 96.0057 81.7123ZM74.2465 75.9958C74.3017 75.4591 74.5024 75.011 74.231 74.4999C73.9979 74.0604 73.6183 73.6188 73.3331 73.2028C72.517 72.011 71.6018 70.8695 70.7127 69.731C69.8985 68.6883 69.0643 67.6567 68.2109 66.6455C67.7356 66.0825 67.2455 65.5316 66.7585 64.9785C66.4017 64.5736 66.0636 64.0048 65.559 63.7929C65.1872 66.1173 64.88 68.4519 64.6402 70.7936C64.5245 71.9255 64.4246 73.0591 64.3407 74.1939C64.317 74.5141 64.0672 75.5958 64.2269 75.8941C64.3948 76.2075 65.4211 76.6267 65.7353 76.8187C66.6136 77.3557 67.296 78.1648 68.1314 77.282C68.7064 76.6741 69.1695 75.8173 69.8122 75.2868C70.1471 75.0105 70.4624 75.0234 70.8381 74.8593C71.2748 74.6688 71.2885 74.4853 71.8104 74.7446C72.6897 75.1813 73.2238 75.8266 74.2465 75.9958ZM30.228 87.9555C30.228 89.5648 30.1173 90.8878 31.2139 92.1905C32.1721 93.329 33.1678 93.5924 34.5156 94.0417C35.3093 94.3061 35.3647 94.0623 36.0078 93.6157C36.619 93.1916 37.2845 92.8513 37.8873 92.4136C39.1865 91.4705 40.4847 90.4978 41.7473 89.5057C42.1717 89.1721 42.1092 89.286 42.0447 88.8856C41.9857 88.521 41.7226 88.0567 41.5788 87.7098C41.3187 87.0823 41.0122 86.475 40.7056 85.8688C40.3575 85.181 40.0542 84.434 39.6218 83.7928C39.4424 83.5267 39.2294 83.286 39.02 83.0433C38.5792 82.5324 38.5948 82.5513 38.0677 82.9689C36.9547 83.8507 35.9192 84.8053 34.6666 85.4947C33.1846 86.3107 31.7062 87.1321 30.228 87.9555ZM63.786 75.4895C63.9468 73.1791 64.1281 70.8815 64.4065 68.5816C64.5496 67.4008 64.716 66.2231 64.8779 65.0446C64.9438 64.5648 65.1983 63.7595 65.0566 63.2934C64.9173 62.8346 64.3025 62.3979 63.9651 62.066C63.8744 61.9768 63.5957 61.6023 63.4758 61.5855C63.3474 61.5676 62.8644 61.9196 62.7251 61.9989C62.2324 62.28 61.7486 62.5755 61.2721 62.883C60.3742 63.4625 59.5042 64.0845 58.6529 64.7296C56.8676 66.0825 55.1651 67.5382 53.4178 68.9385C55.0187 70.3342 56.9892 71.4181 58.7792 72.5486C59.8374 73.217 60.9012 73.8781 61.9787 74.5155C62.5251 74.8383 63.1588 75.332 63.786 75.4895ZM41.9013 116.804C40.6085 117.654 39.374 118.552 37.912 119.097C36.4566 119.641 35.0181 119.85 33.5139 120.172C32.7553 120.335 32.0423 120.514 31.268 120.628C30.8341 120.691 30.1626 120.667 29.767 120.849C29.4147 120.774 29.2892 120.894 29.3908 121.207C29.3945 121.305 29.3983 121.402 29.4021 121.5C29.5018 122.856 30.378 124.488 31.1423 125.591C31.5884 126.235 32.1568 126.834 32.7217 127.375C33.3595 127.986 33.7272 128.417 34.6163 128.161C36.1149 127.729 37.4374 126.86 38.9563 126.477C40.1579 126.174 41.1558 125.539 42.3276 125.211C43.7727 124.805 45.2026 124.343 46.6677 124.005C46.0133 122.748 45.428 121.44 44.5903 120.289C43.731 119.107 42.7835 117.972 41.9013 116.804ZM49.8299 74.519C52.5334 75.0543 55.4637 75.5499 57.8833 76.9383C58.8276 77.4802 60.0246 78.3178 60.3011 79.4385C60.6317 80.778 59.332 81.6076 58.2463 82.0258C56.9428 82.5277 55.524 82.7201 54.1428 82.8783C53.4117 82.9621 52.6772 83.0079 51.9427 83.0493C51.3483 83.0831 50.3401 82.9531 49.7967 83.1875C49.4564 83.12 49.3384 83.2573 49.4428 83.5994C49.4364 83.7223 49.4302 83.8453 49.4239 83.9681L49.3676 85.0725C49.3301 85.8078 49.2926 86.5434 49.2549 87.2788C49.1733 88.8808 49.0915 90.4829 49.0099 92.0849C50.4259 91.2121 51.5671 89.9624 52.9511 89.0313C53.6091 88.5886 54.2623 88.145 54.9176 87.7038C55.1924 87.519 55.3604 87.2596 55.6308 87.0873C55.9895 86.8588 56.3075 86.7213 56.6439 86.4219C58.0179 85.1994 59.5459 84.1426 61.0032 83.0205C61.6651 82.5105 62.3898 82.0417 63.0197 81.4948C63.6794 80.9218 63.5881 80.45 63.5719 79.6263C63.555 78.7543 63.8767 77.6715 63.7274 76.8305C63.8528 76.5451 63.7564 76.3676 63.4389 76.2978C63.2266 76.1628 63.0146 76.0278 62.8024 75.8928C62.3792 75.6236 61.9561 75.3543 61.533 75.0853C59.8497 74.0145 58.1666 72.9435 56.4833 71.8726C55.6425 71.3377 54.8017 70.8028 53.9608 70.2678C53.7259 70.1186 52.9599 69.4436 52.6965 69.4635C52.4277 69.4837 51.9614 70.0057 51.7599 70.1718C51.4508 70.4265 51.1508 70.6944 50.8168 70.9173C50.6503 71.0321 50.4766 71.1345 50.2956 71.2246C50.0063 71.2524 49.9059 71.4105 49.9939 71.6986C49.7398 72.5094 49.8795 73.6674 49.8299 74.519ZM87.3202 112.74C86.708 109.893 85.9185 106.522 83.5306 104.585C81.1089 102.621 77.5684 103.38 75.674 105.686C74.7252 106.842 74.137 108.208 73.7001 109.623C73.2515 111.076 72.5905 112.969 72.7115 114.505C72.7645 115.178 73.3446 115.902 73.6762 116.49C74.0182 117.097 74.2454 117.967 75.0517 117.757C76.3018 117.431 77.5733 116.682 78.7432 116.147C79.9264 115.605 81.1722 115.159 82.3992 114.635C83.2138 114.288 84.0595 114.023 84.872 113.671C85.6425 113.337 86.6592 113.256 87.3202 112.74ZM123.495 95.7821C125.202 96.3901 126.09 95.4168 127.291 94.3211C128.43 93.2831 129.663 92.2848 130.711 91.1566C131.792 89.9934 132.647 88.6186 133.478 87.275C134.318 85.9171 135.454 84.4505 135.971 82.9381C136.234 82.1688 136.346 81.3165 136.512 80.5213C136.552 80.3298 136.82 79.6175 136.735 79.4565C136.618 79.235 135.872 79.2116 135.668 79.1793C134.038 78.923 132.312 78.9103 130.677 79.1394C127.515 79.5826 124.871 81.3468 123.871 84.4316C122.7 88.0477 123.263 92.067 123.495 95.7821ZM112.423 64.4167C112.397 65.0428 113.905 65.2168 114.296 65.3628C115.2 65.7 116.098 66.056 116.976 66.455C118.783 67.2766 120.709 67.812 122.44 68.8053C126.169 70.9468 130.218 72.4563 133.986 74.5046C134.573 74.8239 135.721 75.5928 136.391 75.5278C136.748 75.4933 136.482 75.7786 136.713 75.215C136.797 75.0121 136.824 74.7483 136.871 74.531C137.01 73.8798 137.118 73.2226 137.275 72.575C137.533 71.5091 137.797 70.5202 137.906 69.4246C137.952 68.9604 138.002 68.4967 138.008 68.0298C138.013 67.5566 138.123 66.3708 137.908 65.9611C137.766 65.6895 137.737 65.7826 137.381 65.706C137.177 65.6621 136.964 65.5708 136.767 65.5098C136.305 65.367 135.843 65.2297 135.359 65.1877C134.881 65.1461 134.576 65.0013 134.128 64.9173C133.657 64.8292 133.174 64.9361 132.695 64.8131C132.177 64.6801 131.93 64.5588 131.39 64.6096C130.866 64.6588 130.715 64.5433 130.202 64.4011C129.773 64.2826 129.263 64.3655 128.816 64.3295C128.276 64.2856 127.737 64.2185 127.197 64.176C124.765 63.9845 122.305 64.2684 119.868 64.2459C118.543 64.2337 117.246 64.4283 115.923 64.3681C114.766 64.3156 113.571 64.328 112.423 64.4167ZM118.748 77.1646C117.565 77.6128 116.469 78.3406 115.372 78.9675C114.108 79.6903 112.897 80.4583 111.727 81.3251C109.76 82.7827 107.464 84.5304 106.946 87.0738C106.414 89.6842 108.693 91.823 110.829 92.891C113.266 94.1088 116.1 94.7386 118.769 95.2038C118.484 89.1946 118.551 83.1755 118.748 77.1646ZM83.365 91.3119C82.6474 91.5091 82.04 91.9316 81.3743 92.2441C80.7781 92.5241 80.2012 92.7352 79.6443 93.0956C78.7367 93.683 77.6847 94.1859 76.7359 94.6402C74.3882 95.7639 72.109 97.1594 69.7847 98.4048C69.1687 98.735 68.9669 98.9435 68.7582 99.623C68.5317 100.361 68.3181 101.104 68.0999 101.845C67.8963 102.535 67.5714 103.274 67.657 104.003C67.7316 104.638 68.0614 105.236 68.31 105.814C68.9362 107.271 69.6149 108.703 70.3162 110.125C70.9455 111.401 71.5198 112.755 72.3276 113.928C72.9554 110.67 73.5188 107.02 75.9526 104.538C78.3845 102.058 82.2643 102.022 84.6078 104.583C85.7211 105.799 86.3987 107.331 86.9313 108.87C87.211 109.679 87.3989 110.503 87.5789 111.338C87.7712 112.23 87.7239 112.704 88.7134 112.433C89.4991 112.219 90.3322 112.047 91.1025 111.802C91.5021 111.675 91.8918 111.533 91.9099 111.219C91.9329 110.822 91.3961 110.01 91.2376 109.637C90.4191 107.711 89.6003 105.785 88.7816 103.859C87.8926 101.768 87.0033 99.677 86.1139 97.586C85.6702 96.5426 85.2264 95.4993 84.7825 94.4561C84.3777 93.5051 84.0405 92.0928 83.365 91.3119ZM118.815 75.0495C118.828 74.0986 118.844 73.1478 118.856 72.1968C118.864 71.6302 119.117 70.5345 118.621 70.1296C118.314 69.8788 117.401 69.6864 117.012 69.5146C116.245 69.176 115.414 69.0249 114.641 68.6885C111.617 67.3706 108.47 66.273 105.356 65.2108C104.684 64.9816 103.998 64.7941 103.322 64.5686C102.957 64.4469 101.606 63.7318 101.268 63.9189C100.973 64.0826 100.75 66.0326 100.655 66.4374C100.431 67.3959 100.217 68.3568 100.011 69.3195C99.2115 73.0567 98.5411 76.8202 97.9176 80.5901C99.574 79.9644 101.161 78.8803 102.726 78.0421C104.352 77.1716 105.972 76.3031 107.609 75.4526C108.071 75.2124 109.696 74.1088 110.076 74.5419C110.686 75.237 109.233 76.0522 108.851 76.35C107.375 77.5018 105.815 78.5058 104.237 79.5105C102.601 80.5518 100.899 81.4717 99.2543 82.494C98.6608 82.863 97.7133 83.3122 97.48 83.9355C97.1799 84.7372 97.3965 85.7116 97.6698 86.4776C98.3408 88.3599 99.0756 90.219 99.8527 92.0602C100.206 92.8974 100.569 93.7308 100.938 94.5611C101.377 95.5499 101.954 95.759 102.912 96.2141C106.994 98.1528 111.233 99.9928 115.153 102.236C114.497 102.988 112.898 101.753 112.251 101.44C111.051 100.861 109.851 100.284 108.653 99.7025C106.421 98.6201 104.2 97.5161 101.955 96.4597C103.394 99.7149 105.092 102.851 106.974 105.873C106.499 106.033 106.615 106.041 106.317 105.757C106.065 105.517 105.897 105.048 105.726 104.748C105.375 104.126 105.027 103.503 104.673 102.883C103.937 101.597 103.175 100.33 102.504 99.0093C101.999 98.0159 101.607 96.2793 100.569 95.7785C99.2756 95.1541 97.9649 94.5464 96.6714 93.9133C96.6714 98.8623 97.029 103.702 97.5537 108.62C97.5802 108.868 97.8192 109.6 97.3373 109.528C97.12 109.496 97.0467 108.139 97.0086 107.856C96.8333 106.556 96.6846 105.254 96.563 103.949C96.3209 101.345 96.1891 98.7301 96.1721 96.1149C95.8617 98.6576 95.5513 101.2 95.2409 103.743L94.7997 107.357C94.7224 107.99 94.6451 108.623 94.5678 109.256C94.5324 109.547 94.5548 109.927 94.4521 110.204C94.2906 110.64 94.3449 110.607 93.8384 110.806C94.3226 107.495 94.7699 104.178 95.1655 100.855C95.3587 99.2341 95.5396 97.6115 95.7064 95.9874C95.7513 95.5507 95.7952 95.1136 95.8382 94.6768C95.8598 94.454 96.053 93.7378 95.9458 93.5527C95.8397 93.3693 95.1361 93.1781 94.9335 93.0845C94.49 92.8798 94.0465 92.6752 93.6034 92.4693C92.1649 91.8005 90.7276 91.1263 89.305 90.4248C88.6827 90.1179 88.03 89.6437 87.3531 89.48C86.6793 89.3171 86.1893 89.7836 85.6131 90.0802C85.1647 90.311 84.1083 90.6183 83.8088 91.0104C83.5301 91.3753 84.3958 92.8355 84.6232 93.3738C85.2646 94.8926 85.9062 96.4115 86.5478 97.9303C87.8485 101.01 89.1493 104.089 90.4502 107.169C90.7681 107.922 91.0861 108.674 91.4041 109.427C91.6078 109.91 91.948 111.284 92.4424 111.338C92.6612 111.362 93.0204 111.125 93.2319 111.057C93.5474 110.956 93.8388 110.957 94.1554 110.904C94.7356 110.806 95.3379 110.508 95.9077 110.299C97.372 109.762 98.89 109.416 100.366 108.914C101.849 108.41 103.308 107.844 104.785 107.34C106.127 106.883 107.48 106.361 108.769 105.765C110.13 105.136 111.526 104.581 112.852 103.883C115.267 102.612 117.657 101.425 119.791 99.866C120.293 99.4995 120.827 99.1314 121.324 98.7389C121.759 98.3945 122.589 97.9693 122.886 97.5165C122.999 97.3438 123.096 97.0051 122.964 96.8002C122.822 96.5801 122.195 96.6001 121.902 96.5609C120.979 96.4376 120.055 96.314 119.132 96.1906C119.202 96.795 119.274 97.3987 119.326 98.0053C119.362 98.4333 119.616 99.5647 119.273 99.9001C118.801 99.4543 118.953 98.1209 118.911 97.5269C118.888 97.2095 118.969 96.5881 118.826 96.3065C118.67 95.9979 118.237 96.002 117.845 95.9176C116.182 95.5597 114.534 95.2593 112.924 94.6921C110.206 93.7342 106.956 92.1166 106.348 88.9966C105.715 85.7441 108.497 82.9259 110.839 81.1119C112.242 80.0259 113.734 79.0856 115.277 78.2126C115.998 77.8048 116.719 77.3968 117.445 76.9976C117.709 76.8525 118.576 76.5534 118.715 76.2995C118.857 76.0398 118.784 75.3453 118.815 75.0495ZM60.6471 125C60.5152 125.065 60.3831 125.129 60.2513 125.193C61.7186 121.033 63.1724 116.892 64.3991 112.654C64.9913 110.609 65.5913 108.565 66.2036 106.526C66.4681 105.646 67.1174 104.434 66.937 103.523C66.7417 102.537 66.2735 101.487 65.9113 100.549C63.5925 101.999 61.225 103.375 58.8675 104.759C56.7542 106.001 54.605 107.105 52.4767 108.333C51.3862 108.962 50.2611 109.387 49.1229 109.902C48.1981 110.32 48.5571 111.597 48.5705 112.45C48.6173 115.463 48.615 118.486 48.7988 121.495C48.8657 122.591 48.7793 123.849 49.4807 124.761C50.3776 125.928 51.2096 127.116 52.0275 128.344C52.334 128.804 53.6215 131.294 54.1015 131.24C54.415 131.204 54.7035 130.196 54.8604 129.957C55.1983 129.442 55.6923 128.998 56.142 128.583C58.0841 126.791 60.2391 125.528 62.4788 124.218C64.7542 122.887 67.0829 121.648 69.4013 120.386C69.9251 120.101 70.4892 119.895 71.0096 119.604C71.2152 119.489 71.6229 119.306 71.7524 119.1C71.9459 118.792 71.8803 117.939 71.9207 117.571C72.0032 116.82 72.1516 116.038 72.1596 115.281C72.1672 114.533 71.7151 113.89 71.3873 113.238C69.9485 110.373 68.5505 107.501 67.2987 104.55C66.3116 107.977 65.2754 111.388 64.3072 114.82C63.8017 116.612 63.1923 118.375 62.599 120.14C62.2961 121.041 61.9914 121.942 61.6889 122.843C61.4533 123.545 61.3309 124.573 60.6471 125ZM81.3119 60.4128C80.5491 60.4213 79.8578 60.3097 79.1118 60.1513C78.8381 60.0933 78.5977 60.0688 78.3202 60.0444C78.0056 60.0168 77.7199 59.8473 77.4442 59.8141C77.2357 59.7892 76.8718 59.8762 76.6727 59.9426C76.2114 60.0963 76.2261 60.0187 76.2068 60.5516C76.1767 61.3749 76.1541 62.1984 76.1086 63.021C75.9298 66.2589 75.5841 69.4653 75.1105 72.672C75.0145 73.3201 74.7461 74.1703 74.8937 74.814C75.0268 75.3943 75.5308 76.0141 75.8636 76.5009C76.5483 77.502 78.1609 77.9966 79.2954 78.2805C80.4916 78.5799 81.7337 78.6901 82.8702 78.9571C83.1852 79.0312 83.5467 78.9007 83.8823 78.975C84.1928 79.0436 84.4338 79.2131 84.7207 79.3357C85.4235 79.6359 86.2087 79.6912 86.9345 79.923C88.3737 80.3825 89.9147 80.355 91.3553 80.7963C91.7235 80.909 92.0417 81.1933 92.396 81.2906C92.72 81.3795 93.0536 81.2748 93.3927 81.3245C94.1112 81.4297 94.781 81.674 94.9467 82.4413C95.386 82.0953 95.4471 82.1863 95.3711 81.6511C95.3225 81.308 95.1304 80.8903 95.0253 80.5595C94.7573 79.7161 94.4877 78.8733 94.2199 78.03C93.6901 76.361 93.1635 74.6908 92.6752 73.0095C92.2381 71.5055 91.8408 69.9901 91.4936 68.4631C91.317 67.6867 91.1694 66.9069 91.0181 66.1263C90.974 65.8998 91.0177 65.5398 90.7889 65.3891C90.5814 65.2524 90.097 65.7429 89.8778 65.901C88.3468 67.0042 84.8353 70.2673 82.9211 68.3424C81.8903 67.3059 81.9506 65.4836 82.0626 64.1445C82.1312 63.3213 82.2765 62.5089 82.439 61.6996C82.4795 61.4977 82.7277 60.849 82.6369 60.7051C82.5387 60.5505 81.5168 60.4582 81.3119 60.4128ZM135.107 78.4231C135.514 78.4685 135.922 78.5141 136.329 78.5596C136.292 78.2321 136.325 77.7395 136.201 77.4345C136.028 77.0128 135.606 76.9657 135.142 76.791C134.408 76.5148 133.659 76.2746 132.933 75.9772C131.357 75.332 129.788 74.6776 128.211 74.0325C127.52 73.7495 126.708 73.2866 125.957 73.5176C125.148 73.767 124.349 74.2747 123.593 74.6465C122.736 75.0676 121.88 75.4897 121.024 75.9118C120.622 76.1098 120.221 76.3076 119.819 76.5056C119.188 76.8165 119.104 76.848 119.055 77.558C118.801 81.1903 118.82 84.9635 118.93 88.6006C118.987 90.4567 118.924 92.3229 119.058 94.1758C119.068 94.3183 119.057 95.1224 119.147 95.2321C119.273 95.3866 120.162 95.4388 120.375 95.4776C121.203 95.6281 122.037 95.6782 122.874 95.7526C122.676 91.5279 121.952 86.5335 124.133 82.6691C126.324 78.7867 131.006 77.9458 135.107 78.4231ZM97.0239 36.86C97.2695 36.3035 97.6924 35.8337 98.0539 35.3454C98.2494 35.0814 98.5875 34.7658 98.7126 34.457C98.8907 34.0175 98.8898 34.1117 98.6237 33.7267C98.372 33.363 98.3771 33.3356 97.9881 33.2705C97.6605 33.2158 97.3117 33.3088 96.9771 33.2492C96.6388 33.1888 95.7091 32.9053 95.9222 32.3698C95.913 32.3932 96.4509 32.1294 96.4927 32.0837C96.6279 31.9372 96.6707 31.625 96.7374 31.448C96.9522 30.8807 97.0276 30.5133 96.7883 29.9092C96.4305 29.0072 95.0166 28.7402 94.1364 29.0437C93.6963 29.1952 93.4455 29.5166 93.2477 29.9205C93.122 30.177 93.0928 30.5477 92.9304 30.771C92.6853 31.1072 92.6703 31.0698 92.1623 31.0104C91.5156 30.9348 90.9853 30.6877 90.3725 30.5154C89.7051 30.3275 89.2711 30.7097 88.6879 31.0177C87.6351 31.5742 86.6183 31.7673 85.439 31.8557C84.1257 31.9541 82.9085 31.6391 81.6082 31.5579C81.9456 33.1038 82.818 34.359 83.5154 35.7588C83.6379 36.005 83.836 36.2567 83.8407 36.5415C83.8456 36.8098 83.4551 37.1748 83.499 37.3968C83.593 37.8705 84.6408 38.2496 85.0377 38.3829C86.1605 38.7596 87.4389 39.497 88.6745 39.2008C89.3521 39.0384 89.7166 37.9742 90.3543 37.896C91.2096 37.7906 90.5697 38.8863 90.4108 39.2632C91.6248 39.4468 93.1635 39.2912 94.3254 38.8817C94.9078 38.6765 95.4013 38.3703 95.9328 38.0668C96.5947 37.6888 96.7323 37.5849 97.0239 36.86ZM75.7797 59.8681C73.6155 59.904 71.4195 59.594 69.2503 59.8788C68.7479 59.9446 68.252 60.0508 67.7582 60.1636C67.4033 60.2448 66.276 60.3135 66.0393 60.576C65.8237 60.8154 65.8221 61.9177 65.7777 62.2284C65.6787 62.9203 65.7051 63.1591 66.1486 63.6941C67.6078 65.4543 69.1275 67.1621 70.5653 68.9418C71.9465 70.6515 73.0802 72.5617 74.4762 74.2471C75.2218 72.0881 75.2665 69.497 75.4712 67.2331C75.5803 66.026 75.6797 64.818 75.773 63.6097C75.8617 62.4588 76.1637 60.9654 75.7797 59.8681ZM47.7667 82.6226C48.017 82.6226 48.4162 82.7006 48.6595 82.6226C48.994 82.7285 49.1058 82.6036 48.9952 82.2481C49.0004 82.1238 49.0057 81.9993 49.0112 81.8748C49.046 81.0729 49.0845 80.2711 49.1218 79.4692C49.1561 78.7361 49.1895 78.0028 49.2185 77.2695C49.2385 76.7688 49.4927 75.5278 49.2894 75.0757C49.1527 74.7718 48.8291 74.8408 48.4354 74.7963C48.0609 74.7541 47.6852 74.7151 47.3128 74.6574C46.8401 74.5841 46.3161 74.4157 45.8352 74.5211C45.3519 74.627 45.0006 75.0708 44.6214 75.3532C44.0213 75.7996 43.4081 76.2296 42.8029 76.6691C41.703 77.4682 40.6142 78.282 39.5235 79.0933C39.073 79.4281 38.9865 79.3119 39.2061 79.7934C39.3419 80.0908 39.6509 80.4273 39.839 80.696C40.2135 81.2311 40.5865 82.0423 41.0669 82.4765C41.7659 83.1084 43.7056 82.7071 44.6342 82.7026C45.693 82.6974 46.7138 82.7137 47.7667 82.6226ZM50.5075 82.5703C51.4257 82.4808 52.3534 82.5195 53.266 82.3966C54.2582 82.263 55.2431 82.0651 56.2334 81.9168C57.2206 81.7693 60.224 81.1721 59.9275 79.7062C59.6143 78.1567 57.3151 77.2286 56.0429 76.7077C54.0559 75.8941 51.9816 75.4586 49.8915 74.9986C49.6294 76.3876 49.6671 77.8788 49.6192 79.2864C49.5932 80.0508 49.5704 80.8162 49.5708 81.5814C49.5708 81.7655 49.5072 82.1476 49.5828 82.3188C49.7604 82.7218 49.9669 82.5703 50.5075 82.5703ZM47.4877 83.2359H41.6269C42.4942 85.022 43.3141 86.8415 44.2491 88.5939C45.1804 90.3395 46.3795 91.9843 47.4361 93.6598C47.7037 93.3701 48.1306 93.0558 48.3125 92.711C48.514 92.3296 48.5083 91.7684 48.5413 91.3269C48.6269 90.1809 48.6659 89.0248 48.6949 87.8761C48.7204 86.8702 48.7648 85.871 48.8425 84.8675C48.8594 84.6474 49.1035 83.5042 48.9639 83.3163C48.8393 83.1491 47.744 83.2376 47.4877 83.2359ZM71.625 48.1663C72.6137 48.1661 73.6036 48.1537 74.5921 48.1702C75.4893 48.1854 76.6582 48.03 77.48 48.4895C79.1542 49.4255 75.8074 51.8295 75.1287 52.4345C76.226 52.8301 77.9387 52.0449 79.0131 51.6851C80.3414 51.2403 81.696 50.9416 83.051 50.5933C83.3895 50.5063 84.8426 50.3358 85.0262 50.0778C85.2083 49.8219 84.8004 48.2778 84.7595 47.9521C84.7213 47.646 84.7535 47.1686 84.6253 46.8806C84.7039 46.5346 84.5818 46.4133 84.2589 46.5172C84.1473 46.5168 84.0361 46.5163 83.9246 46.5159C83.1002 46.5225 82.275 46.5605 81.4512 46.5877C78.6195 46.6815 75.8566 46.8065 73.0491 47.2462C71.7439 47.4506 70.4272 47.702 69.1288 47.9529C68.0358 48.164 68.2198 48.3412 69.2405 48.3438C70.0389 48.3459 70.8305 48.228 71.625 48.1663ZM152.854 27.4513C153.023 27.2591 153.191 27.0667 153.359 26.8743C152.949 26.7579 152.539 26.6413 152.129 26.5248C151.693 26.4011 151.459 26.4294 151.653 25.9449C151.895 25.338 153.004 25.2684 153.537 25.2455C155.373 25.1666 157.3 25.7475 159.044 26.2592C159.894 26.5089 160.561 26.8953 161.281 27.4093C161.595 27.6337 161.958 27.8445 162.233 28.1141C162.519 28.3942 162.638 28.7531 162.917 29.034C163.375 29.4945 163.962 29.7238 164.186 30.3885C164.444 31.1514 164.136 32.0248 163.755 32.69C163.367 33.3652 162.792 33.8758 162.325 34.4893C161.955 34.976 161.181 36.306 162.39 36.1518C163.03 36.0703 163.86 34.985 164.32 34.5527C164.98 33.9326 165.629 33.2983 166.328 32.7208C166.948 32.2087 167.661 31.6837 168.49 31.5937C169.364 31.4988 169.8 32.055 170.226 32.7313C170.627 33.3692 170.692 33.9918 170.974 34.6447C171.11 34.9595 171.284 35.135 171.364 35.4782C171.487 36.006 171.5 36.5818 171.562 37.1199C171.661 37.965 171.754 38.6295 171.59 39.4575C171.435 40.2324 171.393 41.0555 171.263 41.844C171.116 42.7368 170.994 43.6338 170.849 44.5271C170.726 45.2838 170.26 46.3616 170.718 47.0653C171.818 48.7563 173.138 46.2669 173.486 45.3369C174.097 43.7026 174.408 41.9162 174.947 40.2483C175.236 39.3564 175.488 38.456 175.653 37.5326C175.79 36.7689 175.723 35.8385 176.143 35.1583C176.47 34.6299 177.052 34.2287 177.69 34.3899C178.489 34.5918 178.796 35.7405 179.031 36.4387C179.651 38.2803 179.423 39.939 179.17 41.8171C179.054 42.6868 178.942 43.5577 178.741 44.4129C178.606 44.9898 178.045 46.1576 178.879 46.4713C180.062 46.9164 181.315 43.541 181.652 42.7788C182.535 40.7825 182.872 38.8027 183.236 36.6637C183.32 36.1719 183.384 35.6696 183.509 35.1862C183.617 34.7655 183.942 34.3402 183.971 33.9195C184.001 33.4983 183.72 33.2045 184.008 32.7911C184.247 32.447 184.678 32.4262 185.069 32.4232C185.985 32.4161 186.862 32.8164 187.714 33.1068C188.508 33.377 189.681 33.9699 190.536 33.779C187.853 31.0683 185.176 28.3884 181.975 26.2773C180.488 25.2969 179.001 24.3547 177.394 23.5552C175.767 22.7454 173.902 22.1985 172.159 21.7085C171.212 21.4419 170.269 21.1398 169.333 20.834C168.5 20.5618 167.661 20.5102 166.845 20.2014C165.073 19.5307 163.092 19.2708 161.256 18.7953C160.446 18.5855 159.627 18.4055 158.814 18.2111C157.961 18.0067 156.761 17.6518 155.891 17.6863C155.148 17.7157 154.898 18.5627 154.54 19.1518C154.021 20.007 153.579 20.8955 153.171 21.8077C152.335 23.6767 151.453 25.6076 150.855 27.5602C150.527 28.6323 150.203 29.7056 149.88 30.7794C149.601 31.709 148.904 33.05 149.089 34.004C150.464 31.8967 151.744 29.7082 152.854 27.4513ZM88.8604 46.4795C88.1312 46.5125 87.4018 46.5453 86.6726 46.5783C87.3997 48.9558 87.2983 51.4875 87.2983 53.9518C90.6963 53.5533 94.1217 53.4855 97.5399 53.513C96.9119 52.3078 97.1554 50.7442 97.3343 49.4536C97.4391 48.6982 97.4975 47.9705 97.4822 47.2083C97.4679 46.4934 97.6751 45.8923 96.9136 45.6712C96.3095 45.4959 95.9277 45.788 95.3523 45.9213C94.663 46.0809 93.9123 46.1002 93.2106 46.187C91.7501 46.3676 90.3418 46.4735 88.8604 46.4795ZM69.2797 51.1096C71.4697 50.5053 73.7968 50.7281 75.9976 50.2687C75.497 49.8142 74.5539 50.0835 73.8891 50.1213C73.1333 50.1641 72.3781 50.1954 71.6223 50.232C70.8852 50.2678 68.8406 50.2123 68.5747 51.1453C68.8095 51.1335 69.0447 51.1215 69.2797 51.1096ZM149.409 17.4197C146.543 17.6698 143.542 17.631 140.697 18.1284C137.439 18.698 134.043 19.0554 130.883 20.0593C127.785 21.0442 124.624 21.7337 121.57 22.8902C118.6 24.0144 115.74 25.2105 112.943 26.7142C111.574 27.4502 110.242 28.2303 108.937 29.0756C107.664 29.9008 106.268 30.5773 105.033 31.452C103.935 32.2307 102.987 32.9448 102.028 33.8988C101.004 34.9188 100.008 35.9664 98.9827 36.9847C98.127 37.8343 98.6687 39.9114 98.723 41.042C98.7982 42.6095 98.928 44.1549 99.1212 45.7121C99.305 47.196 99.4942 48.7908 99.2513 50.2715C99.1493 50.894 98.7973 51.9693 98.9654 52.5907C99.0998 53.0883 99.992 53.4532 100.447 53.6154C101.004 53.8138 101.573 53.7302 102.144 53.9825C102.782 54.2647 103.32 54.6165 103.997 54.7648C104.832 54.9476 105.771 55.1013 106.63 55.107C107.423 55.112 108.22 55.3678 109.011 55.5253C110.298 55.7818 111.555 55.8616 111.475 57.4061C111.382 59.1881 110.672 60.7171 110.248 62.4088C110.821 62.4088 111.22 62.4451 111.744 62.2432C112.355 62.0077 113.008 61.9451 113.651 61.8435C115.071 61.6186 116.456 61.5466 117.886 61.4032C120.505 61.1403 123.17 61.1718 125.791 61.1996C127.118 61.2135 128.557 61.3155 129.866 61.521C131.209 61.7319 132.599 61.8637 133.901 62.2681C134.998 62.6094 136.132 62.8419 137.252 63.1434C137.756 63.2791 138.361 63.3894 138.838 63.5413C139.529 63.7616 139.898 64.2313 140.696 64.2208C140.471 62.7506 139.944 61.3869 139.626 59.9291C139.293 58.4066 138.631 57.0596 137.9 55.6233C137.573 54.9826 137.332 54.3028 137.017 53.6567C136.667 52.938 136.176 52.3426 135.753 51.6706C134.889 50.2961 133.967 48.9738 133.118 47.5895C132.377 46.3809 131.53 45.2223 130.719 44.0557C129.827 42.773 128.587 41.805 127.575 40.6282C127.148 40.1312 126.741 39.6693 126.262 39.2131C125.822 38.7931 125.196 37.8635 124.521 37.82C124.133 37.7949 123.461 38.012 123.091 38.1285C122.406 38.3443 121.68 38.4849 120.972 38.6748C120.198 38.8828 119.437 39.1533 118.662 39.351C118.352 39.4299 117.983 39.3924 117.689 39.4818C117.382 39.5756 117.136 39.782 116.8 39.8767C115.14 40.3451 113.49 40.8768 111.818 41.3032C110.097 41.7423 108.349 42.1162 106.681 42.7381C106.363 42.8568 106.009 43.1373 105.764 42.953C105.582 42.8154 105.464 42.4267 105.512 42.1998C105.672 41.4446 106.887 41.1718 107.472 40.8686C109.038 40.056 110.595 39.483 112.279 38.9312C113.108 38.6597 113.935 38.3698 114.776 38.1352C115.479 37.9393 116.21 37.6078 116.929 37.5075C117.569 37.4182 118.023 37.1677 118.657 36.9459C119.592 36.6191 120.553 36.3508 121.504 36.0716C123.127 35.5942 124.848 35.3936 126.51 35.0735C130.359 34.332 134.355 33.9607 138.283 34.0067C140.263 34.0299 142.334 33.9723 144.291 34.2963C144.763 34.3743 145.755 34.3593 146.081 34.7807C146.255 35.0068 146.161 35.3433 146.206 35.5884C146.281 36.002 146.508 36.1948 146.705 36.5717C147.122 34.5324 147.602 32.5365 148.142 30.527C148.63 28.7085 149.081 26.8569 149.733 25.0638C150.422 23.1667 151.259 21.1552 152.289 19.419C152.502 19.0616 153.031 18.4938 153.076 18.0941C153.123 17.6816 152.542 17.3621 152.143 17.3162C151.247 17.2132 150.288 17.3895 149.409 17.4197ZM168.659 46.5581C168.951 43.7293 169.803 40.7703 169.327 37.9303C169.125 36.728 168.968 35.5803 168.364 34.4951C168.058 33.9463 167.935 33.5432 167.352 33.8668C166.761 34.1943 166.217 35.0034 165.728 35.4723C164.828 36.3343 163.885 37.2219 162.807 37.862C161.959 38.366 160.272 38.8438 159.634 37.7535C159.026 36.7143 159.837 35.2642 160.419 34.407C161.086 33.4262 162.348 32.5177 161.639 31.3076C161.335 30.7867 160.896 30.6502 160.435 30.3084C160.036 30.0125 159.702 29.6293 159.303 29.3282C158.146 28.4553 156.878 28.0815 155.542 27.5827C154.926 27.3523 154.845 27.1355 154.488 27.6622C154.102 28.2343 153.89 29.036 153.61 29.6687C153.05 30.936 152.453 32.1367 151.73 33.3183C151.001 34.5108 150.356 35.7566 149.667 36.9727C149.407 37.4315 149.162 37.8978 148.855 38.3285C148.688 38.5629 148.481 38.7718 148.345 39.0283C148.144 39.4076 148.233 39.7533 148.108 40.131C147.568 41.7603 146.78 39.4858 146.629 38.954C146.458 38.3492 146.045 37.8776 145.778 37.3134C145.557 36.8475 145.406 36.155 144.872 35.9357C144.435 35.756 143.871 36.0026 143.425 36.0266C142.605 36.0708 141.779 36.0048 140.956 36.0558C140.186 36.1035 139.418 36.177 138.648 36.2238C137.877 36.2709 137.108 36.1413 136.348 36.222C134.983 36.3667 133.588 36.3435 132.227 36.5441C130.629 36.7792 129.048 37.0301 127.446 37.2258C127.818 37.9262 128.59 38.2299 129.2 38.7296C129.745 39.1762 130.177 39.6917 130.726 40.1165C131.284 40.5478 131.615 41.1857 132.076 41.7039C132.528 42.2115 132.947 42.6371 133.343 43.205C135.254 45.9474 137.225 48.5885 138.801 51.5525C139.599 53.0527 140.36 54.6577 140.906 56.2672C141.49 57.9935 141.777 59.8449 142.124 61.6299C142.297 62.5196 142.388 63.2705 142.198 64.1653C142.149 64.3783 142.097 64.5909 142.043 64.803C141.877 65.0568 141.938 65.2215 142.228 65.297C142.397 65.5425 142.628 65.6345 142.643 65.9701C142.654 66.2251 142.512 66.5206 142.291 66.6645C141.865 66.942 141.865 66.5671 141.425 66.6502C141.261 66.7389 141.096 66.8274 140.931 66.9159C140.844 66.7843 140.755 66.6541 140.663 66.5259C140.383 66.261 140.16 66.2851 139.794 66.2206C139.98 68.352 139.684 70.2549 139.212 72.3339C138.985 73.3336 138.596 74.3122 138.4 75.3136C138.181 76.4325 138.66 76.9421 139.4 77.6883C139.212 77.7858 138.883 77.8918 138.728 78.0375C138.482 78.2698 138.544 78.2983 138.545 78.6618C138.545 79.3275 138.417 79.9835 138.312 80.6381C138.117 81.8503 137.939 83.1046 137.52 84.2653C136.758 86.3733 135.526 88.5626 134.271 90.4194C133.569 91.4585 132.865 92.639 131.985 93.5356C131.101 94.4353 130.226 95.3431 129.344 96.2456C127.61 98.0219 125.714 99.2491 123.636 100.579C122.813 101.106 121.947 101.683 121.239 102.339C120.52 103.005 119.563 103.472 118.704 103.956C118.32 104.172 118.047 104.482 117.633 104.659C117.244 104.826 116.972 104.88 116.646 105.098C115.836 105.64 114.962 106.103 114.071 106.511C112.984 107.009 111.914 107.589 110.797 108.014C110.289 108.207 109.81 108.418 109.317 108.645C108.784 108.89 108.209 109.051 107.662 109.312C107.2 109.533 106.732 109.661 106.261 109.841C105.877 109.989 105.576 110.227 105.184 110.381C104.37 110.701 103.63 110.873 102.839 111.25C101.789 111.751 100.544 111.985 99.4379 112.345C98.2026 112.747 96.9212 113.148 95.6535 113.433C95.114 113.555 94.6545 113.714 94.1336 113.898C93.7941 114.017 93.4049 114.083 93.0289 114.197C91.9898 114.512 90.9513 114.816 89.9068 115.084C87.866 115.607 85.7811 116.236 83.8019 116.947C82.7641 117.32 81.7115 117.768 80.7159 118.243C79.5905 118.779 78.3779 119.089 77.2483 119.62C75.0664 120.645 72.8917 121.701 70.735 122.777C69.6024 123.343 68.4857 123.925 67.3799 124.54C66.9786 124.763 66.5399 124.855 66.1412 125.074C65.6199 125.361 65.1921 125.781 64.6581 126.064C62.6 127.158 60.4994 128.188 58.609 129.572C57.6196 130.296 56.5566 131.037 55.7017 131.919C55.4196 132.21 54.9307 132.66 54.8796 133.082C54.8044 133.707 54.8749 133.132 55.0922 133.517C55.3932 133.554 55.4612 133.669 55.297 133.862C55.2213 133.953 55.1242 133.999 55.006 134.001C54.6259 134.078 53.9148 133.677 53.6092 133.509C53.0798 133.219 52.7988 132.852 52.4588 132.365C51.7203 131.308 50.9998 130.241 50.2393 129.199C49.5553 128.261 48.8858 127.229 48.1076 126.369C47.5799 125.785 47.5403 126.04 46.9534 126.369C46.5167 126.614 46.0095 126.718 45.557 126.949C43.8326 127.827 41.9371 128.476 40.1684 129.089C39.7656 129.228 39.551 129.449 39.197 129.642C38.7462 129.887 38.1751 130.007 37.693 130.182C36.3648 130.662 35.0432 131.161 33.7244 131.666C32.7063 132.057 31.7279 132.365 30.9308 133.085C30.6136 133.372 30.2297 133.578 29.9021 133.868C29.5206 134.205 29.0048 134.754 28.5245 134.945L28.232 135.172C28.0341 135.035 27.836 134.898 27.6376 134.762C27.4408 134.627 27.2438 134.492 27.0474 134.356C26.5542 134.015 26.0645 133.669 25.5743 133.323C24.4625 132.539 23.3435 131.763 22.3093 130.878C20.4722 129.307 18.566 127.819 16.645 126.348C14.6289 124.803 12.6633 123.186 10.578 121.734C8.68794 120.418 6.62582 119.307 4.79326 117.918C3.87085 117.218 2.95071 116.515 2.00889 115.837C1.95763 115.801 1.19128 115.333 1.18359 115.281C1.17055 115.185 1.42273 114.936 1.49718 114.856C1.84963 114.474 2.24015 114.135 2.59129 113.75C4.22783 111.954 6.36459 112.017 8.6231 111.932C9.64728 111.894 10.758 112.364 11.7307 112.684C12.9202 113.075 14.0676 113.649 15.2166 114.145C17.5844 115.166 20.0282 116.039 22.42 116.985C23.3605 117.357 24.2974 117.539 25.2535 117.795C26.2236 118.054 27.2229 117.807 28.2605 117.826C28.799 117.835 29.308 117.866 29.8503 117.836C30.1722 117.818 30.5431 117.757 30.8611 117.763C31.1187 117.767 31.3862 117.873 31.6233 117.846C32.6612 117.729 33.7576 117.565 34.8281 117.431C35.8909 117.297 36.9877 117.231 38.0366 117.023C38.5647 116.918 39.0858 116.769 39.5939 116.591C40.035 116.436 40.8368 116.261 41.1986 115.947C41.5224 115.667 41.3809 115.663 41.2003 115.206C41.1289 115.025 41.055 114.751 40.9491 114.577C40.6628 114.106 40.3861 113.958 40.5527 113.369C40.8462 112.331 41.8464 111.669 42.7027 111.157C44.6315 110.006 46.3957 108.529 48.4267 107.553C52.6116 105.541 56.4256 102.927 60.5069 100.717C64.993 98.2876 69.2368 95.4373 73.7853 93.1108C78.0192 90.9453 82.2337 88.7671 86.5027 86.6698C88.5873 85.646 90.9449 84.7091 92.8363 83.3668C91.7884 83.2374 90.7374 83.0703 89.6859 82.9777C89.1981 82.9348 88.7045 82.9745 88.2196 82.8975C87.6771 82.8112 87.1643 82.593 86.623 82.5022C85.6921 82.3458 84.8551 82.0284 83.9234 81.9114C82.9245 81.7858 81.9461 81.4936 80.9425 81.4119C78.843 81.2407 76.9483 80.4705 75.1078 79.4998C74.6523 79.2594 74.278 79.3968 73.8414 79.2333C73.601 79.1435 73.3456 78.7843 73.0755 78.5913C72.3316 78.06 71.693 77.4326 70.986 76.8521C69.4997 80.1705 66.5811 82.4274 63.796 84.6534C62.3853 85.7806 60.8541 86.7363 59.4288 87.8424C58.324 88.7 57.3205 89.4676 56.1411 90.1496C55.0085 90.804 53.9445 91.6878 52.8648 92.474C52.1329 93.0069 51.2752 93.4091 50.4969 93.8718C49.861 94.2498 48.6195 94.8136 48.4461 95.4993C48.3042 96.0596 48.5811 96.7263 47.7216 96.4687C46.9521 96.2383 46.3942 95.3883 45.946 94.7896C44.7868 93.2405 43.7056 91.6389 42.6294 90.0328C42.0513 91.1551 41.0543 91.9635 40.1326 92.7956C39.5726 93.3013 38.9914 93.7704 38.3866 94.2217C38.0933 94.4407 37.7966 94.6554 37.5028 94.8738C37.3871 94.9601 37.1247 95.0926 37.0497 95.2141C36.8744 95.4984 36.9809 95.3696 37.0082 95.7133C37.0508 96.2516 37.2314 96.6751 36.9251 97.1909C36.6375 97.6753 36.0104 97.8821 35.5709 98.2128C34.5252 99.0001 33.4257 99.8369 32.2656 100.452C32.0023 100.591 31.7533 100.712 31.5081 100.883C31.0987 101.168 31.1736 101.271 30.761 100.998C30.1158 100.571 29.5585 99.8615 28.9763 99.3463C27.7565 98.2666 26.5231 97.2007 25.2739 96.155C22.8932 94.1619 20.4423 92.2679 18.0912 90.2392C15.857 88.3113 13.4619 86.6518 11.1553 84.819C10.5226 84.3163 9.89758 83.8033 9.27316 83.2903C8.71715 82.8337 7.81491 82.3305 7.40366 81.7462C6.80638 80.8976 9.14273 79.7379 9.84763 79.5652C11.0631 79.2676 12.6348 79.4379 13.8522 79.6818C15.1301 79.9378 16.4313 80.7939 17.6246 81.3271C18.9695 81.9281 20.3394 82.4476 21.6943 83.015C22.2986 83.268 22.9392 83.4699 23.5001 83.8108C24.0953 84.1725 24.6266 84.5848 25.2595 84.8881C25.989 85.2373 26.7468 85.5631 27.5139 85.8215C27.8615 85.9385 28.2356 86.0561 28.6009 86.1033C29.118 86.1703 29.0479 85.9333 29.4775 85.8009C29.8425 85.6884 29.9292 85.9856 30.2576 86.0683C30.5667 86.1463 30.7977 86.0673 31.0654 85.902C31.6621 85.5335 32.1932 85.0254 32.7901 84.6418C33.3439 84.2857 33.9543 83.9531 34.4734 83.55C34.7049 83.3703 34.876 83.1241 35.1041 82.9417C35.4695 82.6492 35.6145 82.7653 36.0412 82.5639C36.39 82.3991 36.7065 82.0923 37.0384 81.8891C37.2444 81.7629 37.744 81.6035 37.8769 81.3993C38.226 80.8633 37.6302 80.4909 37.0966 80.649C37.0167 80.186 36.6064 79.0869 36.7836 78.6528C36.9404 78.2688 37.352 78.3406 37.6982 78.1374C38.9995 77.3731 39.9598 75.9845 41.1771 75.0866C42.3248 74.24 43.3373 73.2294 44.4742 72.3673C45.448 71.6287 46.5124 70.9076 47.3991 70.1111C48.4476 69.1695 49.79 68.4369 50.9299 67.5963C52.1075 66.7282 53.2018 65.7622 54.3667 64.8841C55.4876 64.0395 56.5885 63.1571 57.7403 62.3529C58.7754 61.6301 59.8604 60.9701 60.8741 60.2373C61.4293 59.8361 62.0364 59.4836 62.6703 59.2201C63.3005 58.958 63.8518 58.6507 64.4672 58.3685C65.6902 57.8077 67.2828 57.4201 68.6127 57.2595C70.0749 57.0828 71.5432 56.9244 73.0193 56.9231C73.8056 56.9225 74.5693 57.0714 75.351 57.1186C76.0691 57.1618 76.8456 57.3425 77.5586 57.3187C77.8814 57.308 78.1621 57.1721 78.4748 57.216C78.7358 57.2525 78.9629 57.4093 79.243 57.4366C79.8667 57.4978 80.4937 57.4368 81.1244 57.5171C82.5732 57.7012 84.0239 57.9637 85.4757 58.11C87.0226 58.2658 88.556 58.2952 90.0947 58.5577C91.5984 58.814 93.1115 59.0797 94.6065 59.3761C97.7836 60.0061 100.994 60.6213 104.121 61.5568C104.852 61.7754 105.587 61.9833 106.29 62.2831C106.631 62.4285 106.958 62.6047 107.314 62.7135C107.823 62.8691 107.923 62.9281 108.186 62.5031C108.637 61.7715 108.886 60.8038 109.214 60.0078C109.538 59.2201 109.931 58.4263 110.119 57.6037C109.573 57.5176 108.884 57.6849 108.32 57.704C107.631 57.7276 106.949 57.7128 106.26 57.7087C104.873 57.7005 103.788 57.2926 102.474 56.8646C101.368 56.5036 99.8942 56.2966 99.05 55.4701C98.5973 55.0271 98.4467 54.9491 97.7663 55.0286C97.0799 55.1086 96.4019 55.2466 95.7089 55.2695C93.097 55.3558 90.4969 55.8091 87.8731 55.8988C87.1633 55.923 85.3881 56.2576 85.5044 55.0601C85.5285 54.8115 85.72 54.5958 85.7573 54.3399C85.7973 54.0656 85.7283 53.7871 85.6851 53.519C85.5824 52.8847 85.4752 52.2508 85.3728 51.6163C82.9803 52.3801 80.5576 52.9991 78.1195 53.6042C77.1085 53.855 75.4842 54.432 74.4395 54.1156C73.4294 53.8098 74.0145 52.3942 74.329 51.7166C72.3223 52.1722 70.182 52.9173 68.1357 53.0883C67.5132 53.1405 66.9072 53.2775 66.7623 52.5288C66.6469 51.9322 67.08 51.2026 67.3009 50.6786C65.7305 50.5391 64.1044 50.5524 64.3999 48.5499C64.6707 46.7126 66.2049 46.3468 67.8385 46.0111C69.8546 45.5966 71.9137 45.4584 73.943 45.123C75.7087 44.831 77.6351 44.5055 79.4383 44.6529C80.3929 44.7307 81.3532 44.7485 82.3074 44.8365C82.7577 44.8779 83.1906 44.9473 83.6264 45.0695C84.0284 45.182 84.5906 45.531 85.0026 45.5372C85.6246 45.5469 86.3744 44.7103 87.0433 44.517C87.8718 44.2773 88.7646 44.2338 89.6207 44.1751C90.591 44.109 91.5628 44.072 92.5323 43.9938C92.7534 43.976 93.5889 44.0304 93.7634 43.9016C94.0175 43.7139 93.8484 42.7513 93.8307 42.3558C93.8141 41.99 93.885 41.3049 93.6302 41.1615C93.3908 41.0268 92.6931 41.2115 92.4575 41.249C91.481 41.4046 90.5531 41.3868 89.5802 41.3473C89.1309 41.3291 88.6992 41.4482 88.2542 41.3895C87.7768 41.3267 87.2962 41.1669 86.8207 41.078C85.7907 40.8855 84.8522 40.6458 83.9647 40.0717C83.1855 39.5679 82.2635 39.2268 81.8281 38.3445C81.5092 37.6983 81.3796 36.4515 82.3172 36.2677C81.6787 35.3514 81.238 34.322 80.8995 33.2632C80.8381 33.0712 80.7974 32.7821 80.7056 32.6147C80.3814 32.0225 80.6822 32.5477 80.2197 32.3109C79.7626 32.0771 79.4332 31.892 79.076 31.4853C78.5066 30.8368 78.2669 30.0386 78.1949 29.1935C78.0972 28.0458 77.9148 26.7517 78.0833 25.6098C78.3749 23.6319 79.828 22.1458 81.3045 20.9495C82.1061 20.3 83.1614 20.0582 84.1015 19.664C85.0091 19.2834 86.0229 18.8844 86.979 18.7952C87.842 18.7145 88.6834 18.4342 89.5474 18.3212C90.7348 18.1655 91.9235 18.2237 93.1168 18.1764C93.666 18.1547 94.2139 18.0776 94.7606 18.0189C95.0694 17.9857 95.5914 18.0212 95.8742 17.8995C96.3369 17.7 96.087 18.1188 96.2522 17.5087C96.5666 16.3481 96.8233 15.2597 97.2996 14.1318C97.7433 13.0811 98.2821 12.0765 98.9944 11.1782C99.6624 10.3355 100.529 9.71922 101.315 8.99941C101.899 8.46616 102.56 7.98447 103.225 7.55322C103.605 7.30666 104.029 7.17335 104.401 6.95566C104.862 6.68566 105.269 6.48091 105.788 6.31554C106.902 5.96079 108.008 5.5841 109.191 5.60266C110.466 5.62254 111.745 5.32722 112.986 5.70166C115.292 6.3971 116.422 8.88297 116.383 11.1658C117.172 10.97 117.861 10.5932 118.696 10.5609C119.466 10.5313 120.38 10.5977 121.135 10.7398C122.602 11.0156 124.111 11.8267 124.985 13.056C125.82 14.2284 125.944 15.785 125.432 17.1152C125.186 17.7519 124.797 18.3183 124.382 18.8563C124.079 19.2508 123.4 19.6875 123.368 20.216C129.045 18.5088 134.746 17.3055 140.618 16.5266C143.595 16.1319 146.577 16.3295 149.557 16.104C150.83 16.0076 152.214 16.1424 153.53 16.1475C154.085 16.1497 154.518 16.0728 154.92 15.7151C155.328 15.3532 155.654 14.91 156.13 15.4323C156.251 15.5657 156.276 15.8882 156.44 15.9885C156.637 16.11 157.213 16.0265 157.45 16.041C158.277 16.0912 159.085 16.2309 159.897 16.3918C161.388 16.6871 162.869 16.9856 164.343 17.3604C167.148 18.0742 169.915 18.7646 172.68 19.6119C175.5 20.4765 178.351 21.5432 180.952 22.9427C182.211 23.6205 183.47 24.4667 184.628 25.3052C185.166 25.6952 185.649 26.117 186.117 26.5873C186.618 27.09 187.23 27.4292 187.726 27.9356C188.805 29.0372 189.879 30.2057 190.858 31.3991C191.369 32.0222 191.837 32.6793 192.292 33.3435C192.611 33.8094 193.453 34.6625 193.259 35.2644C193.156 35.5858 192.795 35.8106 192.465 35.7318C192.354 35.7056 192.262 35.5631 192.168 35.5496C191.849 35.5046 192.139 35.3928 191.767 35.543C191.027 35.8417 190.791 36.4408 189.851 36.3045C188.253 36.0725 186.75 35.3218 185.296 34.6672C184.881 36.246 184.823 37.8827 184.459 39.4803C184.105 41.039 183.514 42.5255 182.801 43.9552C182.175 45.2096 181.371 46.5465 180.264 47.4429C179.419 48.1269 177.333 48.9766 176.712 47.5203C176.448 46.9018 176.84 45.9406 176.951 45.3041C177.101 44.4498 177.265 43.5932 177.355 42.7303C177.427 42.0292 177.464 41.324 177.532 40.6222C177.591 40.0185 177.753 38.7223 177.411 38.189C177.206 37.8677 177.188 38.183 177.068 38.5038C176.923 38.8929 176.802 39.2788 176.696 39.6795C176.471 40.5309 176.267 41.3881 176.053 42.2426C175.672 43.7692 175.252 45.2625 174.457 46.6351C173.751 47.8541 172.757 49.1913 171.247 49.391C170.54 49.4844 169.618 49.1628 169.079 48.689C168.473 48.1575 168.654 47.2807 168.659 46.5581Z" fill="#3B247B"/>
<path fill-rule="evenodd" clip-rule="evenodd" d="M134.178 108.898C135.007 108.735 135.706 108.076 136.384 107.581C137.248 106.95 138.068 106.262 138.907 105.599C140.489 104.349 141.924 102.978 143.288 101.488C145.981 98.547 148.008 94.7616 148.929 90.894C149.395 88.9371 149.972 86.6442 149.707 84.6218C149.615 83.9192 149.475 83.7904 148.783 83.7105C148.47 83.6745 147.676 83.5851 147.395 83.7073C146.665 84.0246 146.271 85.3744 146.055 86.0528C145.415 88.0557 145.039 90.13 144.461 92.1493C143.895 94.1286 142.983 96.1369 142.08 97.9877C140.072 102.106 137.281 105.551 134.178 108.898ZM150.64 86.1612C150.143 91.7691 148.578 97.1121 145.069 101.628C143.401 103.775 141.439 105.643 139.313 107.339C137.118 109.091 134.876 110.741 132.385 112.047C131.722 112.395 131.058 112.742 130.387 113.073C130.015 113.257 129.075 113.934 128.646 113.827C128.303 113.741 128.213 113.477 128.159 113.132C128.039 112.36 128.543 111.974 129.054 111.478C131.103 109.484 133.159 107.484 135.076 105.363C138.861 101.175 141.704 96.1602 143.284 90.7489C143.771 89.0828 144.205 87.3981 144.731 85.7438C145.051 84.736 145.505 82.942 146.569 82.4395C147.139 82.17 147.804 82.4322 148.403 82.2707C148.966 82.1192 149.339 81.8102 149.818 82.3285C150.66 83.2378 150.697 85.0215 150.64 86.1612Z" fill="#3B247B"/>
<path fill-rule="evenodd" clip-rule="evenodd" d="M0.699275 118.518C0.279161 118.667 0.261633 118.813 0.0691982 118.383C-0.0276788 118.167 -0.00148053 117.87 0.0213251 117.645C0.0759833 117.105 0.361337 116.607 0.595802 116.129C2.80249 117.94 5.09379 119.572 7.45993 121.172C9.99042 122.883 12.4065 124.785 14.7998 126.681C16.9429 128.378 19.1119 130.025 21.2327 131.744C22.2555 132.573 23.4216 133.215 24.394 134.069C25.1797 134.76 26.4829 135.069 27.1527 135.881C26.0912 136.512 24.6741 137.02 23.4978 136.474C22.2001 135.872 21.2048 135.087 20.05 134.271C19.455 133.85 18.8362 133.469 18.2317 133.062C17.7004 132.704 17.3252 132.181 16.7873 131.846C15.6568 131.14 14.4971 130.363 13.4245 129.557C12.3226 128.73 11.1047 128.071 10.0417 127.192C8.95191 126.29 7.73209 125.693 6.59426 124.872C4.18289 123.133 2.05951 121.176 0.699275 118.518Z" fill="#3B247B"/>
<path fill-rule="evenodd" clip-rule="evenodd" d="M65.7581 26.1512C65.7281 26.3113 65.6981 26.4714 65.6682 26.6318C65.6865 26.6359 67.1294 23.8628 67.3684 23.5279C68.1792 22.3926 69.2343 21.4479 70.2515 20.4998C72.4062 18.4913 74.928 16.8701 77.0395 14.8258C77.7342 14.1533 78.9789 13.1342 78.7041 11.997C78.431 10.8668 76.1256 11.0964 75.3361 11.4234C74.0983 11.9363 73.093 13.0088 72.1706 13.9433C71.1645 14.9627 70.1503 15.9707 69.2977 17.1244C68.3783 18.3684 67.5054 19.7158 66.9421 21.1596C66.3109 22.7769 66.0643 24.4508 65.7581 26.1512ZM66.2319 31.1132C65.2528 31.4136 66.4803 31.6165 66.0968 32.137C65.6761 32.7077 64.9689 30.9491 64.8632 30.6171C64.2399 28.6553 64.5187 26.2719 64.859 24.2801C65.0309 23.2753 65.1419 22.254 65.3738 21.2601C65.5999 20.2909 66.0924 19.3699 66.5474 18.4883C67.4583 16.7243 68.6646 15.0808 70.0335 13.6425C71.4065 12.1995 72.937 10.7558 74.7488 9.86738C76.2459 9.13369 78.6188 9.64276 79.3195 11.2453C80.0355 12.8829 79.0672 14.6668 77.922 15.8183C76.4281 17.3199 74.8004 18.8115 73.1224 20.1064C72.2601 20.772 71.5373 21.5769 70.6996 22.2714C69.8079 23.0108 69.0364 23.7544 68.3771 24.7104C67.7386 25.6369 67.0814 26.5626 66.6663 27.6143C66.2119 28.7659 66.2319 29.8948 66.2319 31.1132Z" fill="#3B247B"/>
<path fill-rule="evenodd" clip-rule="evenodd" d="M27.0673 101.734C24.8173 100.292 22.5597 99.027 20.6003 97.1889C18.6658 95.3741 16.9756 93.3276 14.8224 91.7529C13.7481 90.9673 12.6393 90.2299 11.584 89.4186C10.5824 88.6485 9.43121 87.9889 8.52596 87.1106C7.31933 85.9395 5.06025 83.7636 6.6018 82.0176C8.51522 84.2814 11.1405 86.0659 13.534 87.7845C16.0577 89.5967 18.3741 91.7108 20.7679 93.6851C23.0739 95.5869 25.3722 97.5064 27.6224 99.4586C28.2133 99.9714 28.7832 100.51 29.3811 101.015C29.4542 101.076 30.0739 101.467 30.0739 101.571C30.0739 101.82 29.5937 101.976 29.4226 102.045C29.1525 102.155 28.4219 102.427 28.1157 102.335C27.9551 102.286 27.9522 102.156 27.8365 102.079C27.77 101.954 27.6923 101.837 27.6041 101.726C27.4251 101.729 27.2462 101.731 27.0673 101.734Z" fill="#3B247B"/>
<path fill-rule="evenodd" clip-rule="evenodd" d="M159.525 76.6038C157.921 76.5627 155.48 76.5581 155.57 78.737C155.614 79.8159 156.202 80.6082 156.685 81.5311C157.193 82.5009 157.569 83.5027 157.718 84.5898C158.32 88.9899 156.704 93.2885 155.243 97.3561C158.381 94.8363 160.648 91.3301 161.838 87.4869C162.415 85.6231 162.639 83.2276 162.453 81.287C162.359 80.3159 161.999 79.4454 161.566 78.5802C161.348 78.1456 161.13 77.6493 160.783 77.2976C160.436 76.9451 159.953 76.8277 159.525 76.6038ZM153.93 99.8763C152.894 98.1811 154.525 95.6851 155.059 94.0321C155.697 92.0559 156.285 89.9982 156.558 87.9371C156.843 85.778 156.475 84.0993 155.469 82.1922C154.569 80.4873 154.035 78.2167 155.035 76.4127C155.438 75.6867 156.033 75.5975 156.74 75.3078C157.607 74.9525 157.846 74.3514 158.911 74.4466C160.811 74.6163 161.69 76.409 162.397 77.9364C164.045 81.497 163.597 86.0921 162.192 89.6675C161.383 91.7247 160.46 93.8609 159.087 95.6127C158.413 96.4717 157.622 97.2162 156.8 97.9329C155.912 98.7078 155.115 99.6419 153.93 99.8763Z" fill="#3B247B"/>
<path fill-rule="evenodd" clip-rule="evenodd" d="M45.4286 38.0575C42.9238 38.5583 40.6379 39.6814 40.2366 42.4819C39.8719 45.027 41.6146 47.3817 43.7546 48.573C46.0691 49.8619 48.9691 50.076 51.2753 48.6477C53.7031 47.1439 54.2538 44.1304 52.7762 41.7662C51.1274 39.1279 48.3653 38.3492 45.4286 38.0575ZM47.0384 36.8365C50.0212 37.2713 52.7901 39.3831 53.7949 42.2273C54.8308 45.1592 53.879 48.3827 51.1366 49.9892C45.5945 53.2362 38.1872 47.8251 39.5248 41.6057C39.8644 40.0266 40.8288 38.8037 42.1391 37.8792C43.5857 36.8582 45.3349 36.8305 47.0384 36.8365Z" fill="#3B247B"/>
<path fill-rule="evenodd" clip-rule="evenodd" d="M153.09 7.06219C149.496 5.44556 145.902 3.82894 142.308 2.21231C142.161 3.83306 142.013 5.45362 141.866 7.07437C141.826 7.51294 141.663 8.10956 141.732 8.54231C141.807 9.00413 141.648 8.95481 142.253 8.88919C143.027 8.805 143.803 8.61488 144.569 8.47894C145.946 8.23444 147.411 8.16469 148.759 7.80506C149.446 7.6215 150.105 7.59844 150.803 7.48744C151.57 7.36556 152.316 7.13981 153.09 7.06219ZM140.933 10.1953C140.933 8.36962 141.137 6.5685 141.304 4.75125C141.456 3.11625 141.514 1.55775 142.05 0C142.551 0.905437 143.939 1.26731 144.798 1.73325C145.981 2.37525 147.241 2.84794 148.452 3.43275C149.642 4.00706 150.788 4.6665 151.979 5.2395C152.583 5.53013 153.196 5.80125 153.799 6.09412C154.176 6.2775 155.071 6.57262 155.306 6.91312C156.018 7.94662 153.579 8.04656 153.108 8.13769C151.697 8.41163 150.268 8.56594 148.859 8.84756C147.545 9.11044 146.229 9.35437 144.91 9.59269C143.605 9.82856 142.261 10.1953 140.933 10.1953Z" fill="#3B247B"/>
<path fill-rule="evenodd" clip-rule="evenodd" d="M30.1123 55.392C31.5273 55.2455 32.9366 55.0348 34.3502 54.8957C35.6887 54.7639 36.8727 54.6236 38.0956 54.0135C36.4255 53.5125 34.7516 53.0381 33.0674 52.5855C32.2321 52.361 31.3984 52.1235 30.5593 51.9139C29.9102 51.7515 29.3444 51.6581 29.0949 50.9533C28.8044 50.1328 29.6121 50.2571 30.1155 50.4656C30.8098 50.753 31.5662 50.9317 32.2858 51.1708C33.892 51.7042 35.508 52.1949 37.1293 52.68C37.6332 52.8307 40.5535 53.3884 39.5012 54.3575C39.051 54.7725 38.0462 55.0003 37.4956 55.2982C36.7894 55.6804 36.0206 55.8326 35.2351 55.9847C33.5978 56.3015 31.8986 56.4232 30.2412 56.6981C29.3947 56.8385 28.5485 56.979 27.7022 57.1194C27.2063 57.2015 27.0154 57.1935 26.8859 56.6434C26.7917 56.2436 26.9146 55.8437 27.005 55.4565C27.2346 54.4727 27.49 53.4939 27.7427 52.5159C27.8389 52.1428 28.0091 50.5025 28.3436 50.3231C29.1026 49.916 28.517 52.1869 28.4606 52.4649C28.2477 53.5138 27.9947 54.5554 27.8809 55.6198C28.6263 55.5527 29.3697 55.4831 30.1123 55.392Z" fill="#3B247B"/>
<path fill-rule="evenodd" clip-rule="evenodd" d="M50.1768 63.7427C50.4576 64.4441 49.9913 64.6011 49.4255 64.8441C48.6916 65.1592 47.9697 65.4919 47.2224 65.7757C45.6503 66.3726 44.0669 66.9268 42.5324 67.6174C39.6055 68.9342 36.6391 70.1987 33.7576 71.6087C33.0416 71.9591 32.325 72.3082 31.6026 72.6457C30.8555 72.9949 29.9987 73.5823 29.1993 73.7818C28.5022 73.9558 28.4294 73.4619 28.8425 73.0071C29.3752 72.4204 30.1986 71.9824 30.8675 71.5746C33.6204 69.8959 36.6249 68.5294 39.6317 67.3746C43.107 66.0396 46.5918 64.7587 50.1768 63.7427Z" fill="#3B247B"/>
<path fill-rule="evenodd" clip-rule="evenodd" d="M57.8182 23.95C57.7176 21.8174 58.0042 19.6789 57.8333 17.5519C54.8938 20.1443 56.3421 24.1506 58.0331 26.9635L57.8182 23.95ZM59.0906 23.8281C59.1093 24.8699 59.1686 25.9111 59.0669 26.9476C58.96 28.0356 59.473 28.5961 60.1417 29.3974C59.5739 29.9708 58.2707 28.6339 57.9109 28.2398C57.17 27.4283 56.6187 26.3502 56.1281 25.3757C55.0832 23.2999 54.3636 21.0775 55.1999 18.7984C55.5099 17.9537 55.8891 16.8053 56.71 16.3135C57.6113 15.7735 58.3007 16.5351 58.6746 17.3185C59.5876 19.2299 58.8916 21.7765 59.0906 23.8281Z" fill="#3B247B"/>
<path fill-rule="evenodd" clip-rule="evenodd" d="M90.2312 129.837C91.5866 129.944 92.9217 130.049 94.2773 130.134C94.0434 128.286 93.8093 126.437 93.5754 124.589C92.7911 124.77 92.0069 124.95 91.2226 125.13C90.8519 125.216 90.2832 125.238 89.9551 125.422C89.8324 125.451 89.7095 125.479 89.587 125.507C89.5836 125.747 89.581 125.987 89.5787 126.227C89.5695 126.937 89.5489 127.646 89.5193 128.355C89.5069 128.652 89.4027 129.088 89.4741 129.382C89.3473 129.68 89.4279 129.806 89.7169 129.762C89.8884 129.787 90.0597 129.812 90.2312 129.837ZM89.2981 131.173C88.2356 130.647 88.5261 129.039 88.5278 128.015C88.5291 127.364 88.5753 126.717 88.5924 126.067C88.6043 125.62 88.5016 125.067 88.6561 124.635C88.9311 123.867 90.2766 123.888 90.9685 123.941C91.4816 123.981 91.9109 123.955 92.4368 123.922C92.6959 123.905 92.9851 123.954 93.2397 123.878C93.2947 123.862 93.8128 123.502 93.7899 123.501C94.7192 123.537 94.7317 125.754 94.792 126.316C94.9411 127.703 95.076 129.092 95.1974 130.481C95.2296 130.849 95.367 131.265 95.0159 131.474C94.6992 131.664 93.86 131.477 93.5098 131.466C92.0981 131.424 90.6943 131.205 89.2981 131.173Z" fill="#3B247B"/>
<path fill-rule="evenodd" clip-rule="evenodd" d="M155.619 48.8013C156.234 49.3512 155.938 49.9186 155.737 50.6056C155.616 51.0179 154.952 52.3716 155.135 52.7573C155.347 53.2032 156.343 53.3129 156.768 53.4537C157.51 53.6989 158.255 53.9453 158.957 54.2911C159.268 54.4446 160.391 54.7975 160.602 55.084C160.722 55.2483 160.766 55.3769 160.675 55.5886C160.516 55.9602 160.289 55.7635 159.901 55.6838C158.128 55.3193 156.369 54.8532 154.725 54.0845C154.266 55.1433 153.878 56.2246 153.49 57.3109C153.376 57.6293 153.268 58.3527 152.836 58.4043C152.309 58.4669 152.302 57.7653 152.337 57.3867C152.388 56.8339 152.676 56.2446 152.85 55.7213C152.993 55.2893 153.496 54.3899 153.434 53.9448C153.392 53.6384 153.204 53.6598 152.87 53.5394C152.554 53.4258 152.237 53.3127 151.921 53.1978C151.415 53.0135 150.911 52.8286 150.418 52.6099C150.147 52.4899 149.581 52.3497 149.385 52.1007C149.272 51.9563 149.145 51.436 149.289 51.292C149.624 50.9547 151.854 51.8626 152.313 51.9865C152.617 52.0688 152.922 52.1316 153.218 52.2395C153.329 52.2805 153.462 52.447 153.582 52.4532C154.096 52.4791 154.136 52.0866 154.295 51.6657C154.665 50.6875 155.066 49.6896 155.619 48.8013Z" fill="#3B247B"/>
<path fill-rule="evenodd" clip-rule="evenodd" d="M27.7608 68.263C27.4873 67.5961 30.3901 66.7904 30.9289 66.5658C32.2441 66.0181 33.6531 65.6868 35.0149 65.2685C36.354 64.8571 37.6873 64.4142 39.0044 63.9381C39.4117 63.7908 42.3447 62.3701 42.4982 62.5778C43.0065 63.2652 36.8516 65.4245 36.2519 65.6393C33.4669 66.6368 30.5913 67.4028 27.7608 68.263Z" fill="#3B247B"/>
<path fill-rule="evenodd" clip-rule="evenodd" d="M152.608 16.1069C151.855 16.1144 150.77 16.3267 150.08 16.0229C150.922 16.0509 151.765 16.079 152.608 16.1069Z" fill="#3B247B"/>
<path fill-rule="evenodd" clip-rule="evenodd" d="M47.0383 36.8365L45.3652 36.8305C45.9235 36.7017 46.4814 36.6239 47.0383 36.8365Z" fill="#3B247B"/>
<path fill-rule="evenodd" clip-rule="evenodd" d="M134.166 36.3919C134.56 36.3898 134.955 36.3877 135.347 36.3855C134.952 36.3877 134.559 36.3898 134.166 36.3919Z" fill="#3B247B"/>
<path fill-rule="evenodd" clip-rule="evenodd" d="M168.659 46.5581C168.656 46.9779 168.653 47.3977 168.65 47.8158C168.653 47.3955 168.656 46.9768 168.659 46.5581Z" fill="#3B247B"/>
<path fill-rule="evenodd" clip-rule="evenodd" d="M90.9685 123.941C90.5495 123.971 90.1305 124.001 89.7119 124.031C90.1311 124.001 90.5497 123.971 90.9685 123.941Z" fill="#3B247B"/>
<path fill-rule="evenodd" clip-rule="evenodd" d="M93.3299 43.9292C92.9043 43.9635 92.4787 43.998 92.0537 44.0323C92.4791 43.9978 92.9045 43.9635 93.3299 43.9292Z" fill="#3B247B"/>
<path fill-rule="evenodd" clip-rule="evenodd" d="M137.363 36.2536C137.664 36.2531 137.965 36.2525 138.264 36.252C137.962 36.2527 137.663 36.2533 137.363 36.2536Z" fill="#3B247B"/>
<path fill-rule="evenodd" clip-rule="evenodd" d="M76.7754 44.7485C76.4013 44.7821 76.0268 44.8157 75.6528 44.8492C76.027 44.8157 76.4013 44.7821 76.7754 44.7485Z" fill="#3B247B"/>
<path fill-rule="evenodd" clip-rule="evenodd" d="M93.3034 18.1752C92.9291 18.1775 92.5548 18.1797 92.1807 18.182C92.5539 17.9851 92.9284 18.0359 93.3034 18.1752Z" fill="#3B247B"/>
<path fill-rule="evenodd" clip-rule="evenodd" d="M24.9868 82.5719C24.6754 82.5554 24.4218 82.7058 24.2461 82.4103C24.5335 82.1874 24.6994 82.4442 24.9868 82.5719Z" fill="#3B247B"/>
<path fill-rule="evenodd" clip-rule="evenodd" d="M82.733 57.7067L81.7612 57.5979L82.733 57.7067Z" fill="#3B247B"/>
<path fill-rule="evenodd" clip-rule="evenodd" d="M89.2983 131.173C89.513 131.178 89.7275 131.183 89.9397 131.188C89.7243 131.182 89.5113 131.178 89.2983 131.173Z" fill="#3B247B"/>
<path fill-rule="evenodd" clip-rule="evenodd" d="M139.165 16.7146C138.831 16.7444 138.496 16.7742 138.162 16.804C138.496 16.774 138.831 16.7444 139.165 16.7146Z" fill="#3B247B"/>
<path fill-rule="evenodd" clip-rule="evenodd" d="M33.1473 117.672C32.8259 117.674 32.5048 117.675 32.1836 117.676C32.5049 117.675 32.8261 117.674 33.1473 117.672Z" fill="#3B247B"/>
<path fill-rule="evenodd" clip-rule="evenodd" d="M7.31843 112.006C6.99406 112.007 6.66988 112.007 6.3457 112.008C6.67007 112.007 6.99406 112.007 7.31843 112.006Z" fill="#3B247B"/>
<path fill-rule="evenodd" clip-rule="evenodd" d="M89.273 44.1956C88.9437 44.2278 88.6144 44.2599 88.2852 44.2921C88.6146 44.2599 88.9437 44.2278 89.273 44.1956Z" fill="#3B247B"/>
<path fill-rule="evenodd" clip-rule="evenodd" d="M80.0858 44.727C79.7619 44.6899 79.4381 44.6528 79.1143 44.6156C79.4352 44.6781 79.7918 44.4315 80.0858 44.727Z" fill="#3B247B"/>
<path fill-rule="evenodd" clip-rule="evenodd" d="M109.427 57.664C109.628 57.6413 109.912 57.571 110.119 57.6038C110.092 57.7219 109.504 57.6636 109.427 57.664Z" fill="#3B247B"/>
<path fill-rule="evenodd" clip-rule="evenodd" d="M88.8765 82.946C89.0938 82.9502 89.3113 82.9543 89.5263 82.9579C89.3083 82.9539 89.0925 82.95 88.8765 82.946Z" fill="#3B247B"/>
<path fill-rule="evenodd" clip-rule="evenodd" d="M69.2469 57.1982C68.9295 57.2288 68.6123 57.2594 68.2949 57.2898C68.6125 57.2592 68.9295 57.2288 69.2469 57.1982Z" fill="#3B247B"/>
<path fill-rule="evenodd" clip-rule="evenodd" d="M33.7124 56.1223C33.8854 56.127 34.0584 56.1317 34.2292 56.1364C34.0554 56.1317 33.8839 56.127 33.7124 56.1223Z" fill="#3B247B"/>
<path fill-rule="evenodd" clip-rule="evenodd" d="M80.4871 57.436C80.2157 57.4306 79.9441 57.4252 79.6729 57.4199C79.9443 57.4252 80.2157 57.4306 80.4871 57.436Z" fill="#3B247B"/>
<path fill-rule="evenodd" clip-rule="evenodd" d="M30.1119 55.3921C29.8375 55.4258 29.5631 55.4594 29.2891 55.493C29.5637 55.4592 29.8377 55.4256 30.1119 55.3921Z" fill="#3B247B"/>
<path fill-rule="evenodd" clip-rule="evenodd" d="M67.7559 53.0728C67.9253 53.0795 68.0947 53.0863 68.2621 53.0936C68.0917 53.0872 67.9238 53.0801 67.7559 53.0728Z" fill="#3B247B"/>
<path fill-rule="evenodd" clip-rule="evenodd" d="M80.6846 81.4285C80.8566 81.4173 81.0285 81.4062 81.1983 81.3948C81.0257 81.4058 80.8551 81.4173 80.6846 81.4285Z" fill="#3B247B"/>
<path fill-rule="evenodd" clip-rule="evenodd" d="M93.8484 59.2245C93.5717 59.1902 93.2949 59.1559 93.0186 59.1216C93.2951 59.1559 93.5717 59.1902 93.8484 59.2245Z" fill="#3B247B"/>
<path fill-rule="evenodd" clip-rule="evenodd" d="M27.0674 101.734C27.247 101.731 27.4266 101.729 27.6042 101.726C27.424 101.729 27.2455 101.731 27.0674 101.734Z" fill="#3B247B"/>
<path fill-rule="evenodd" clip-rule="evenodd" d="M12.3199 79.5303C12.0338 79.5016 11.7477 79.4728 11.4614 79.4441C11.7475 79.4728 12.0336 79.5016 12.3199 79.5303Z" fill="#3B247B"/>
<path fill-rule="evenodd" clip-rule="evenodd" d="M6.2149 112.045C5.9337 112.077 5.65249 112.11 5.37109 112.142C5.65268 112.109 5.9337 112.077 6.2149 112.045Z" fill="#3B247B"/>
<path fill-rule="evenodd" clip-rule="evenodd" d="M159.511 36.3464C159.489 36.5883 159.466 36.8302 159.444 37.0711C159.466 36.8289 159.488 36.5877 159.511 36.3464Z" fill="#3B247B"/>
<path fill-rule="evenodd" clip-rule="evenodd" d="M34.828 117.431C34.5451 117.463 34.2622 117.495 33.9795 117.528C34.2624 117.495 34.5453 117.463 34.828 117.431Z" fill="#3B247B"/>
<path fill-rule="evenodd" clip-rule="evenodd" d="M32.0522 117.71C31.766 117.909 31.4798 117.92 31.1934 117.71C31.4797 117.71 31.766 117.71 32.0522 117.71Z" fill="#3B247B"/>
<path fill-rule="evenodd" clip-rule="evenodd" d="M26.624 117.948C26.3464 117.948 26.0689 117.948 25.7915 117.948C26.0691 117.948 26.3466 117.948 26.624 117.948Z" fill="#3B247B"/>
<path fill-rule="evenodd" clip-rule="evenodd" d="M59.0908 23.8281C59.067 23.583 59.0433 23.3381 59.0195 23.094C59.0433 23.3394 59.067 23.5837 59.0908 23.8281Z" fill="#3B247B"/>
<path fill-rule="evenodd" clip-rule="evenodd" d="M89.4089 18.356C89.13 18.3903 88.851 18.4244 88.5723 18.4585C88.8512 18.4244 89.1302 18.3903 89.4089 18.356Z" fill="#3B247B"/>
<path fill-rule="evenodd" clip-rule="evenodd" d="M90.3978 18.2261C90.1143 18.2576 89.8306 18.2893 89.5474 18.321C89.8308 18.2893 90.1143 18.2576 90.3978 18.2261Z" fill="#3B247B"/>
<path fill-rule="evenodd" clip-rule="evenodd" d="M46.3691 50.8802C46.5437 50.8776 46.7182 50.8749 46.8903 50.8723C46.715 50.8749 46.5422 50.8776 46.3691 50.8802Z" fill="#3B247B"/>
<path fill-rule="evenodd" clip-rule="evenodd" d="M71.625 48.1664C72.5508 48.0145 73.4764 47.9639 74.4018 48.1658L71.625 48.1664Z" fill="#3B247B"/>
<path fill-rule="evenodd" clip-rule="evenodd" d="M96.313 37.8075C96.5056 37.3069 96.5535 37.119 97.0239 36.8599C96.8281 37.3464 96.7974 37.6067 96.313 37.8075Z" fill="#3B247B"/>
<path fill-rule="evenodd" clip-rule="evenodd" d="M118.886 87.3523C118.904 87.8728 118.923 88.3933 118.941 88.9132C118.923 88.3926 118.904 87.8724 118.886 87.3523Z" fill="#3B247B"/>
<path fill-rule="evenodd" clip-rule="evenodd" d="M152.456 17.3091C152.037 17.3185 151.619 17.328 151.202 17.3374C151.621 17.328 152.039 17.3185 152.456 17.3091Z" fill="#3B247B"/>
<path fill-rule="evenodd" clip-rule="evenodd" d="M96.6714 96.6033C96.6861 97.0371 96.7006 97.4712 96.7151 97.9047C96.7004 97.4705 96.6859 97.037 96.6714 96.6033Z" fill="#3B247B"/>
<path fill-rule="evenodd" clip-rule="evenodd" d="M45.356 82.7014C45.7789 82.7044 46.202 82.7074 46.625 82.7104C46.2018 82.7074 45.7789 82.7044 45.356 82.7014Z" fill="#3B247B"/>
<path fill-rule="evenodd" clip-rule="evenodd" d="M81.3118 60.4126C81.0568 60.415 80.8022 60.4173 80.5498 60.4205C80.8054 60.4182 81.0585 60.4154 81.3118 60.4126Z" fill="#3B247B"/>
<path fill-rule="evenodd" clip-rule="evenodd" d="M80.4817 46.6198C80.2721 46.6126 80.0623 46.6055 79.855 46.5991C80.0655 46.6064 80.2736 46.613 80.4817 46.6198Z" fill="#3B247B"/>
<path fill-rule="evenodd" clip-rule="evenodd" d="M50.5073 82.5702C50.8381 82.5381 51.1687 82.5059 51.4995 82.4736C51.1687 82.5059 50.8381 82.5381 50.5073 82.5702Z" fill="#3B247B"/>
<path fill-rule="evenodd" clip-rule="evenodd" d="M43.3013 82.7179C43.6253 82.713 43.9493 82.7079 44.2731 82.7029C43.9493 82.7079 43.6253 82.713 43.3013 82.7179Z" fill="#3B247B"/>
<path fill-rule="evenodd" clip-rule="evenodd" d="M46.7603 82.7098C47.0957 82.6807 47.4312 82.6516 47.7669 82.6226C47.4314 82.6514 47.0957 82.6807 46.7603 82.7098Z" fill="#3B247B"/>
<path fill-rule="evenodd" clip-rule="evenodd" d="M47.983 83.2388C47.8162 83.2379 47.6494 83.2368 47.4849 83.2358C47.6524 83.237 47.8177 83.2379 47.983 83.2388Z" fill="#3B247B"/>
<path fill-rule="evenodd" clip-rule="evenodd" d="M118.74 75.7815C118.765 75.5368 118.79 75.2923 118.815 75.0486C118.79 75.2935 118.765 75.5374 118.74 75.7815Z" fill="#3B247B"/>
<path fill-rule="evenodd" clip-rule="evenodd" d="M68.6482 51.0559C68.8586 51.0737 69.0691 51.0915 69.2798 51.1095C69.0448 51.1215 68.8095 51.1333 68.5747 51.1453C68.576 51.0973 68.6005 51.0675 68.6482 51.0559Z" fill="#3B247B"/>
<path fill-rule="evenodd" clip-rule="evenodd" d="M122.707 92.1967C122.694 91.9739 122.68 91.751 122.667 91.5295C122.681 91.7529 122.694 91.9749 122.707 92.1967Z" fill="#3B247B"/>
<path fill-rule="evenodd" clip-rule="evenodd" d="M72.4247 50.2061C72.2558 50.2094 72.0867 50.2126 71.9199 50.2158C72.0897 50.2124 72.2571 50.2092 72.4247 50.2061Z" fill="#3B247B"/>
<path fill-rule="evenodd" clip-rule="evenodd" d="M134.262 78.3247C134.543 78.3575 134.825 78.3903 135.106 78.4229C134.825 78.3903 134.543 78.3575 134.262 78.3247Z" fill="#3B247B"/>
<path fill-rule="evenodd" clip-rule="evenodd" d="M75.779 59.8679C75.6056 59.8705 75.4324 59.873 75.2612 59.876C75.4352 59.8735 75.6071 59.8707 75.779 59.8679Z" fill="#3B247B"/>
<path fill-rule="evenodd" clip-rule="evenodd" d="M65.7579 26.1511C65.9397 26.2477 65.8453 26.6722 65.668 26.6317C65.6979 26.4714 65.7279 26.3112 65.7579 26.1511Z" fill="#3B247B"/>
<path fill-rule="evenodd" clip-rule="evenodd" d="M159.525 76.6038C159.358 76.5994 159.191 76.5951 159.026 76.5908C159.194 76.5953 159.36 76.5996 159.525 76.6038Z" fill="#3B247B"/>
<path fill-rule="evenodd" clip-rule="evenodd" d="M57.8184 23.95C57.8007 23.5759 57.7832 23.202 57.7656 22.8291C57.7832 23.2035 57.8009 23.5767 57.8184 23.95Z" fill="#3B247B"/>
<path fill-rule="evenodd" clip-rule="evenodd" d="M89.4595 129.724C89.7169 129.762 89.9742 129.799 90.2315 129.837C89.9738 129.799 89.7167 129.762 89.4595 129.724Z" fill="#3B247B"/>
<path fill-rule="evenodd" clip-rule="evenodd" d="M87.7581 33.4271C86.8505 33.613 85.9185 33.7101 85.0323 33.9836C84.8112 34.0519 84.0856 34.4711 83.8208 34.3607C83.4184 34.1925 83.6219 33.7611 83.7914 33.5308C84.2448 32.9151 85.0561 32.5701 85.8 32.5778C86.5424 32.5856 87.5617 32.5586 87.7581 33.4271Z" fill="#3B247B"/>
<path fill-rule="evenodd" clip-rule="evenodd" d="M85.2368 35.0791C86.2361 35.7749 86.9994 36.1176 87.0841 34.5537C88.1671 34.7005 87.6817 36.4356 86.8622 36.5665C85.9704 36.7088 85.3753 35.8225 85.2368 35.0791Z" fill="#3B247B"/>
</g>
<defs>
<clipPath id="clip0">
<rect width="193" height="144" fill="white"/>
</clipPath>
</defs>
</svg>
