<svg width="293" height="221" viewBox="0 0 293 221" fill="none" xmlns="http://www.w3.org/2000/svg">
<path fill-rule="evenodd" clip-rule="evenodd" d="M292.866 141.799C292.398 139.032 290.192 136.266 288.388 134.166C286.416 131.899 283.809 129.866 281.269 128.266C270.407 121.499 251.992 115.066 247.481 113.799C244.606 112.999 240.529 112.532 238.023 112.299C236.953 112.232 235.917 112.132 234.881 112.032C228.832 111.466 222.816 108.566 217.402 105.966C216.399 105.499 215.029 105.232 214.227 104.466C213.458 103.766 213.258 102.632 212.623 101.832C211.019 99.8658 209.983 98.1991 207.643 96.9991C205.237 95.7991 202.797 94.6658 200.424 93.3325C197.517 91.6991 194.843 89.5991 192.069 87.7658C186.889 84.3658 181.775 80.5991 176.294 77.6991C173.754 76.3658 170.914 76.1325 168.24 75.0325C165.667 73.9658 162.492 73.9658 159.818 74.6325C158.515 74.9658 157.612 75.7325 156.409 76.2658C155.005 76.8658 153.836 76.1991 152.599 75.4991C150.694 74.3991 148.822 72.6325 151.53 71.4325C152.432 71.0325 153.602 70.8658 154.404 70.2658C155.273 69.5991 155.941 68.3658 156.643 67.4991C158.18 65.6325 159.116 63.4658 161.355 62.2991C163.862 60.9991 166.803 60.6658 169.477 59.8325C172.351 58.9325 175.191 57.8325 177.999 56.7658C183.112 54.8658 188.393 52.7991 192.069 48.5658C195.244 44.9325 196.614 40.2325 196.481 35.4658C196.213 25.7325 191 15.8325 183.48 9.73247C174.222 2.3658 162.492 -0.134196 150.861 -0.000862269C145.414 0.0658044 138.897 0.765804 134.318 4.0658C130.374 6.93247 129.739 11.9325 130.307 16.4325C130.541 18.2658 131.343 20.6658 130.073 22.2991C129.338 23.1991 128.035 23.4325 127.066 23.9991C125.829 24.6991 124.76 25.3991 123.356 25.7658C117.44 27.3658 111.258 26.7991 105.208 26.6991C95.1487 26.5658 84.8551 29.2658 77.3688 36.3325C71.3197 42.0325 69.515 52.7991 76.8675 58.3325C82.8164 62.8325 92.1743 62.3325 99.226 61.5325C101.398 61.2991 102.902 60.9325 102.902 63.5991C102.902 66.4991 102.434 69.5325 103.17 72.3991C104.339 76.8991 108.684 76.9991 112.494 76.0325C114.499 75.5325 116.471 74.7658 118.376 73.9658C121.184 72.7991 123.757 71.0658 126.564 69.8658C128.436 69.0658 129.873 71.6325 131.544 69.8658C131.845 69.5325 131.912 69.0325 132.379 68.8658C133.115 68.5991 134.318 69.5325 134.986 69.8325C135.955 70.2658 136.925 70.5991 137.292 71.6658C137.66 72.6658 137.493 74.2325 137.159 75.1991C136.423 77.3325 134.418 76.8991 132.58 76.7658C129.372 76.5325 126.197 75.9991 123.022 75.7658C120.147 75.5658 117.474 76.4325 115.001 77.8325C109.82 80.7991 105.543 85.4991 101.064 89.3658C98.7582 91.3658 96.519 93.4991 93.979 95.2658C92.8761 96.0325 91.7064 96.6991 90.7372 97.6658C89.8014 98.5991 89.7011 99.4325 89.3669 100.666C88.7988 102.866 85.9246 103.966 84.1533 105.099C81.6133 106.732 75.6978 102.499 72.4894 101.466C68.1781 100.066 64.034 99.1991 57.7843 100.332C54.7096 100.866 51.6683 101.232 48.5601 101.532C45.8865 101.799 43.0457 102.599 40.372 101.932C41.1407 100.699 42.511 99.9325 43.5804 98.9658C44.9507 97.7325 46.1204 96.2658 47.1565 94.7325C49.1617 91.7658 50.5988 88.5991 50.8996 84.9991C51.2004 81.7658 50.8662 77.8991 48.8943 75.1658C45.8865 72.3325 42.7115 74.4658 40.8065 76.3658C40.1381 77.0325 39.8039 77.9325 39.8373 78.8658C39.8373 78.9991 39.8373 79.0991 39.8707 79.0991C40.0378 81.8325 40.6394 84.7658 39.5699 87.3991C38.701 89.5325 36.9965 91.9325 35.1584 93.2991C31.3819 96.1325 30.8471 88.0658 32.585 83.1658C33.1197 81.6991 34.5902 75.0991 35.0247 73.5991C35.6931 71.3325 35.9939 68.8658 36.0942 66.6658C36.2279 64.0658 33.8884 62.0325 31.315 62.4658C30.0116 62.6991 28.8419 62.9658 28.0398 63.1991C22.9598 64.7325 23.2606 68.3658 20.9211 72.7658C19.6512 70.0991 21.7901 66.1325 19.2835 63.9658C17.178 62.1325 15.5404 65.6991 14.8386 67.2325C11.5299 74.3991 10.7946 81.9991 9.4244 89.6658C8.85624 89.0991 9.15703 87.6991 9.19045 87.0325C9.29071 85.7991 9.29071 84.5991 9.29071 83.3658C9.29071 80.2658 9.89229 77.1325 9.62492 74.0325C9.45782 72.2325 8.88966 68.4658 6.28284 69.0325C4.04365 69.5658 2.6734 72.6658 1.97156 74.5658C0.968939 77.2991 0.734994 80.0325 0.801835 82.9325C0.868677 86.1325 0.267103 89.2991 0.099999 92.4991C-0.200788 98.6991 0.0999989 104.866 1.8713 110.866C4.81233 120.699 11.5299 128.832 20.5201 133.766C25.4664 136.466 30.9474 138.199 36.5955 138.566C39.6702 138.766 42.6112 138.399 45.6525 138.099C48.6604 137.799 51.6683 137.632 54.6427 137.266C61.2935 136.466 66.975 140.432 72.9907 141.399C76.266 141.932 80.0091 141.532 83.1506 139.966C84.4206 139.332 85.2562 138.532 86.3256 137.632C87.3951 136.766 87.6959 136.699 88.899 136.699C88.5314 135.766 89.5674 135.466 90.0353 134.866C90.0019 135.166 89.9685 135.432 89.9685 135.732C90.3361 134.966 90.6369 134.966 90.9377 135.766C91.2385 134.899 91.4724 133.999 91.8066 133.166C93.1769 133.866 93.0766 135.532 94.9148 134.299C96.4187 133.299 97.8224 132.132 99.3931 131.166C102.936 128.932 105.977 126.066 109.52 123.866C109.52 125.999 109.687 128.166 109.386 130.299C109.119 132.332 108.35 134.199 107.748 136.166C106.645 139.732 106.545 143.566 105.342 147.099C104.841 148.566 103.504 149.799 103.136 151.232C102.735 152.699 103.638 153.866 102.134 154.799C101.064 155.466 99.7608 155.766 98.5911 156.166C96.7863 156.799 95.1153 157.666 93.3774 158.399C85.2227 161.899 77.2352 165.432 69.6821 170.132C62.4966 174.599 55.2109 179.199 48.627 184.466C42.912 189.066 37.1302 194.999 35.7266 202.466C34.3897 209.732 37.9657 217.532 45.2181 219.899C48.9946 221.132 53.239 220.999 57.1493 221.032C61.3603 221.099 65.8387 220.066 69.9829 219.332C74.361 218.566 78.6723 217.332 83.0504 216.666C87.2614 215.999 91.1382 214.532 95.249 213.599C99.6605 212.632 104.172 212.099 108.617 211.232C110.623 210.832 112.561 210.266 114.566 209.899C116.772 209.499 118.978 209.366 121.15 208.832C125.361 207.799 129.405 206.166 133.616 205.199C135.521 204.766 137.393 204.199 139.298 203.799C141.035 203.432 142.406 202.432 144.177 203.266C145.581 203.932 146.717 205.032 148.054 205.799C149.792 206.799 151.63 207.699 153.435 208.566C157.077 210.299 160.854 211.532 164.664 212.832C168.674 214.199 172.585 215.766 176.762 216.699C181.007 217.632 185.351 217.899 189.629 218.632C198.386 220.132 207.108 220.832 215.998 220.866C220.51 220.899 224.988 220.366 229.5 220.432C233.477 220.499 236.92 221.366 240.563 219.266C246.378 215.899 253.095 210.832 252.962 203.466C252.828 196.799 248.817 190.432 245.041 185.166C240.462 178.766 233.945 174.266 227.562 169.866C220.744 165.166 213.124 161.932 205.939 157.832C202.296 155.732 198.92 153.466 194.943 151.999C193.038 151.299 191.2 150.466 189.328 149.699C187.825 149.099 185.652 148.732 184.349 147.732C183.547 147.099 183.48 146.132 183.246 145.166C182.778 143.066 182.043 141.066 181.307 139.066C179.937 135.166 179.001 131.166 178.4 127.066C177.832 123.166 176.562 119.099 177.23 115.132C181.508 119.266 185.92 123.266 190.331 127.266C191.969 128.766 193.606 130.332 195.244 131.832C196.481 132.966 198.051 134.632 199.756 134.966C201.962 135.399 201.159 132.966 202.663 132.566C203.599 132.332 206.373 134.699 207.108 135.166C211.754 138.099 216.901 139.966 222.014 141.966C227.161 143.999 232.04 144.866 237.555 145.466C237.555 145.466 244.339 146.632 247.547 146.932C249.887 147.166 252.26 147.099 253.964 148.866C255.669 150.632 256.471 153.166 257.507 155.299C259.512 159.366 262.754 166.266 268.335 166.099C274.05 165.932 271.042 154.866 270.608 151.799C272.747 153.799 278.729 159.999 281.971 157.132C285.112 154.366 281.503 148.266 280.3 145.399C283.107 146.832 286.416 148.766 289.691 148.732C292.966 148.632 293.267 144.266 292.866 141.799ZM105.242 30.9325C105.309 30.5991 106.278 30.4658 106.512 30.5658C107.113 30.8325 106.879 31.1991 106.779 31.7658C106.345 31.5658 105.91 31.3658 105.476 31.1325C106.111 32.1658 104.941 32.3325 105.242 30.9325ZM95.1821 31.3325C95.884 31.3991 95.0484 33.3991 94.0458 31.4658C94.4135 31.3658 94.7811 31.3325 95.1821 31.3325ZM90.1356 32.4658C90.5366 32.1658 91.0379 32.5658 91.5058 32.4658C92.1408 32.3325 92.5085 31.7991 93.2103 31.7325C93.0098 32.3658 92.6421 32.2991 92.3414 32.7991C92.2411 32.9658 92.2745 33.3658 92.2077 33.4658C91.4056 34.2658 91.1382 33.5991 90.3361 32.9991C90.403 33.7325 90.5366 33.9658 89.8682 34.1658C89.2332 34.3325 88.1972 33.6991 87.863 33.1658C88.0969 32.6325 89.6343 32.8325 90.1356 32.4658ZM100.429 58.1991C93.0766 58.7325 82.783 60.2658 76.901 54.6325C73.0576 50.9658 73.2915 45.2658 76.3662 41.1991C78.1375 38.8658 80.5438 37.2325 82.9501 35.6991C83.8859 35.0991 84.688 34.6991 85.6906 34.3658C85.8577 34.3325 86.0248 34.3991 86.1585 34.4658C86.2254 34.2325 86.359 34.0325 86.593 33.9325C86.994 33.7325 87.5622 33.6325 87.7961 33.1991C87.5622 34.0325 87.4285 34.8658 87.3282 35.7325C87.1277 35.4991 86.9272 35.2658 86.7267 35.0325C86.5596 36.5991 84.9219 35.6325 83.9527 35.8325C84.5877 36.6991 85.0556 37.0325 85.0891 38.1991C84.6212 37.3325 83.6185 36.7325 82.6828 36.4658C83.1841 37.9325 83.5517 38.8325 83.0504 40.4658C82.4488 40.1325 82.4154 39.2991 81.6467 39.0991C81.4462 40.0658 81.4128 41.1325 81.1788 42.0658C79.2738 41.1991 79.4744 43.5325 80.243 44.6658C80.6441 45.2658 80.8446 45.9991 81.2122 46.5658C82.1146 47.9991 81.4128 45.8658 82.4154 45.9658C82.1814 47.4991 82.1146 47.6325 83.2175 48.7325C84.3204 49.8325 84.8551 51.3325 86.0248 52.3325C86.359 51.8991 85.8243 51.4658 85.7909 51.0325C86.8604 51.1991 87.3951 52.2991 88.4311 51.3325C88.899 52.1991 89.3669 53.1991 90.4698 53.3658C89.768 51.9991 91.8401 52.9325 92.3748 53.1325C92.7758 53.2658 93.5111 53.3991 93.6782 53.4658C94.5806 53.7991 93.9456 53.1991 94.4803 54.2658C95.2824 54.0325 95.5832 53.3658 96.519 53.9325C97.2876 54.3658 97.2876 55.1658 97.4547 55.9325C97.6218 55.4325 97.8224 54.8991 98.0229 54.3991C98.2234 54.4991 99.0924 55.4325 98.9921 55.4325C101.098 55.3325 101.031 56.5991 100.429 58.1991ZM101.031 32.1325C100.496 32.0991 99.6605 30.7325 100.329 32.2325C99.9279 32.0991 99.46 31.7991 99.0255 31.8658C98.5242 31.9325 98.2568 32.4325 97.789 32.4991C96.7529 32.6658 96.5858 31.6658 95.9174 31.1325C96.8532 31.0658 97.7889 31.1325 98.7247 30.9325C99.7942 30.6991 103.404 29.6991 103.805 31.3658C103.872 31.3325 104.139 30.3658 104.273 30.4991C104.774 30.9658 104.841 31.5658 104.774 32.2325C104.172 30.9658 104.373 32.0658 103.972 31.9991C103.872 31.9658 103.704 32.1658 103.437 32.0991C103.069 31.9991 102.835 31.2325 102.602 30.9991C102.234 31.4991 101.766 32.1658 101.031 32.1325ZM101.098 58.0658C101.164 57.3325 101.699 56.2658 102.1 57.5991C102.267 57.1991 102.368 56.6991 102.769 56.4325C103.404 58.4325 106.579 59.5325 104.607 61.6658C104.44 61.0658 104.273 60.4991 104.139 59.8991C103.738 58.4991 102.501 57.9991 101.098 58.0658ZM105.543 67.3991C105.543 67.6325 105.242 67.8325 105.108 68.1658C104.841 68.8991 105.309 69.3991 104.54 69.9325C104.54 68.3325 103.47 64.0991 105.543 63.3325C104.54 62.5325 105.375 61.6325 106.144 62.5658C106.913 63.4658 106.412 65.8991 105.175 66.1991C104.74 66.3325 105.543 67.0658 105.543 67.3991ZM107.347 69.1658C106.913 68.8658 106.579 69.0325 106.445 69.5325C106.445 69.0325 106.712 67.8991 107.08 67.7658C107.347 67.6658 106.244 66.3658 106.545 66.0325C107.347 66.4991 106.846 66.8991 107.08 67.4991C107.18 67.7658 107.481 67.9991 107.581 68.1991C107.682 68.5325 108.149 69.6991 107.347 69.1658ZM108.818 31.5991C108.584 31.7991 108.35 31.9991 108.083 32.1991C107.849 31.8325 107.615 31.4658 107.381 31.0991C107.815 30.8991 109.82 30.7325 108.818 31.5991ZM110.79 31.0991C110.823 31.0991 108.751 32.2991 109.419 31.3325C109.687 30.9325 110.756 30.6658 111.191 30.6658L110.79 31.0991ZM164.631 80.3991C165.266 79.8325 165.065 80.5991 165.466 80.4991C165.8 80.4325 165.867 80.1658 166.201 80.0658C167.572 79.7325 169.644 80.1658 171.081 80.0658C172.752 79.9991 175.626 80.3325 176.428 82.2991C176.896 83.4658 176.161 83.0658 175.359 82.9991C174.724 82.9325 174.189 83.0658 173.554 83.0658C173.253 83.0991 172.952 83.0991 172.651 83.0658C172.518 82.9658 172.418 82.8325 172.384 82.6658C171.515 82.5325 170.613 83.0325 169.644 83.0658C168.374 83.0991 167.237 82.8658 166.268 81.9991C165.867 82.5658 165.633 82.8658 164.931 82.9325C164.898 82.9325 164.229 82.6658 164.129 82.6325C163.996 82.5991 163.628 82.8991 163.361 82.7991C163.862 81.9991 163.929 80.9991 164.631 80.3991ZM163.594 4.69914C170.446 6.13247 177.197 8.79914 182.678 13.1991C187.657 17.1991 191.2 22.8991 193.172 28.9325C195.211 35.1991 194.542 42.1658 189.663 46.9991C187.089 49.5325 183.714 51.0658 180.472 52.5325C178.935 53.2325 177.33 53.8325 175.76 54.5325C174.657 55.0325 173.287 55.8325 172.017 55.6991C172.652 55.0325 173.621 54.9991 174.389 54.5991C175.325 54.0991 176.127 53.1325 176.929 52.4325C177.731 51.7325 179.536 49.5658 180.806 50.0991C180.639 48.9325 181.942 48.3991 182.544 47.6658C183.179 46.8658 183.212 45.9325 184.382 45.6658C183.146 44.6991 183.513 42.8658 183.781 41.5658C184.115 39.8658 184.282 38.3325 184.416 36.5991C184.65 33.4991 184.85 29.5658 183.146 26.8325C182.577 25.9325 181.876 25.1325 181.374 24.2325C180.773 23.1325 180.906 22.1658 180.906 20.9325C179.804 21.6658 179.57 20.1658 179.135 19.4325C178.801 18.8991 178.333 18.5658 178.233 17.8991C178.166 17.3991 178.701 17.2991 178.4 16.7991C178.032 17.0658 177.899 17.4991 177.698 17.8991C177.364 17.7658 177.765 17.2991 177.564 17.1325C177.564 17.1325 176.896 16.8325 176.929 16.8991C176.495 16.3658 176.361 15.4991 176.161 14.8658C175.392 15.2658 175.526 15.1991 174.69 14.5658C174.523 14.4658 173.788 13.9325 173.721 13.7658C173.387 12.9658 173.955 13.4325 173.821 12.9325C173.353 11.4991 170.747 11.7658 170.513 9.63247C169.243 10.4325 168.741 9.29914 168.006 8.4658C167.237 7.63247 165.934 7.29914 166.001 5.99914C165.6 6.13247 165.199 6.2658 164.798 6.39914C164.998 5.1658 163.193 5.2658 162.525 4.63247C162.859 4.59914 163.227 4.63247 163.594 4.69914ZM134.953 8.29914C135.32 8.09914 135.387 7.73247 135.688 7.4658C136.423 6.79914 135.922 8.53247 135.788 8.79914C135.554 8.63247 135.287 8.49914 135.053 8.33247C135.22 8.6658 135.32 10.2658 135.087 10.5991C134.552 9.79914 133.649 8.59914 134.953 8.29914ZM131.744 24.6325C132.146 23.5991 132.58 22.5991 132.781 21.4991C132.881 20.7991 132.68 20.0325 133.616 19.9325C132.379 19.3991 132.379 17.2991 132.313 16.1991C132.212 14.6991 131.744 12.6991 132.413 11.2991C133.081 9.8658 134.017 9.89914 134.284 11.5991C134.385 12.2658 133.984 12.4991 133.917 12.9658C133.75 13.8991 134.084 13.6991 134.652 12.9991C134.886 13.6991 134.986 14.7991 135.989 14.7325C135.922 14.5325 135.554 14.0991 135.655 13.8658C135.855 13.4991 136.824 14.0658 136.925 14.1325C137.794 14.7325 137.994 15.2991 137.359 16.0658C138.228 16.1658 137.493 16.9325 138.061 17.0991C138.93 17.3991 138.328 15.9658 138.262 15.7325C138.796 15.9325 138.963 16.1658 139.298 16.5658C139.498 16.8325 139.665 17.1325 139.832 17.4325C139.999 17.9991 140.367 18.1325 140.935 17.8658C142.038 18.1991 143.575 18.1658 144.578 18.7658C145.046 19.0325 145.18 19.6325 145.581 19.8658C146.015 20.1325 146.583 19.9991 147.051 20.1658C146.884 20.5325 147.018 20.7658 147.452 20.7658C147.786 20.7991 148.121 20.8658 148.455 20.9991C148.689 20.8325 148.956 20.6658 149.224 20.5658C149.424 20.8991 149.691 20.9658 150.026 20.7991C151.062 20.9991 151.53 21.3658 152.198 21.9658C152.766 22.4658 152.298 22.5325 152.933 22.4658C153.201 22.4325 153.635 21.9991 154.237 22.0991C154.571 22.1658 154.905 22.2658 155.206 22.3991C155.54 22.6991 155.908 22.7325 156.275 22.4991C156.877 22.7991 156.944 23.3325 157.712 23.3991C158.548 23.4658 158.281 22.4325 158.849 23.8991C159.617 22.3658 159.918 24.8325 160.687 25.0325C161.522 25.2325 161.589 24.5658 162.291 25.2991C162.492 25.5325 162.492 25.8658 162.726 26.0991C163.127 26.4658 163.628 26.3991 163.996 26.9325C163.795 26.6325 164.029 27.9658 164.029 27.8991C164.096 28.4658 163.561 29.1325 164.631 29.0658C164.631 29.1325 164.096 29.8658 164.029 29.7658C163.996 29.6658 163.996 29.5991 163.962 29.4991C163.862 29.5325 163.795 30.2658 163.828 30.3658C163.862 30.3658 163.862 30.3658 163.895 30.3658C163.895 30.2991 163.929 30.2325 163.929 30.1658C163.929 30.2658 163.929 30.3325 163.895 30.3658C163.828 30.7991 163.996 31.1325 163.695 31.5658C163.494 31.8991 162.893 32.1325 162.592 32.3325C161.857 32.8325 161.121 33.2991 160.386 33.8325C158.682 35.0325 156.777 36.4991 154.638 36.7658C155.707 35.6991 161.923 31.7325 158.815 30.5658C158.247 30.3658 157.178 30.1658 156.576 30.0991C155.841 30.0325 155.039 30.4658 154.237 30.1991C153.234 29.8658 153.602 28.9325 153 28.5991C151.697 27.8991 151.997 29.5658 151.596 29.9991C151.162 29.5658 151.262 29.3325 150.594 29.2991C149.892 29.2658 149.758 29.8991 148.956 29.4991C147.853 28.9658 148.421 27.8658 146.884 27.8658C146.918 27.6325 147.151 26.9658 146.851 26.7658C146.45 27.2991 146.75 27.8658 146.383 28.3658C146.182 28.6325 145.781 28.8325 145.48 28.8991C144.779 29.0991 144.678 29.4658 144.812 28.3991C144.311 29.3325 142.706 28.9325 141.771 28.8658C140.233 28.6991 138.629 28.4325 137.159 27.9325C135.822 27.4658 135.087 26.6991 133.984 25.9991C133.549 25.7325 133.349 25.8325 132.747 25.6658C132.045 25.6658 131.444 25.3658 131.744 24.6325ZM153 30.2658C152.699 30.0325 151.797 30.1325 152.432 29.2325C152.666 29.6325 152.833 29.9658 153 30.2658ZM149.925 44.4991C149.691 44.6658 148.355 45.0325 148.388 44.4991C148.488 43.7991 149.691 44.0658 149.925 44.4991ZM148.187 29.4991C148.187 29.5658 148.187 29.5325 148.187 29.4991V29.4991ZM133.817 65.0325C133.081 64.3991 132.58 63.4658 131.978 62.7325C131.678 62.3658 131.444 62.2325 131.143 62.0658C130.842 61.8658 130.642 62.1325 130.408 61.6991C129.739 60.4991 131.811 58.8325 129.606 58.3658C128.87 58.1991 127.066 58.7991 126.865 57.7325C126.564 56.2325 129.438 56.1325 130.107 55.3658C131.444 53.8325 130.541 51.2658 131.377 49.5325C132.146 47.8658 134.151 47.5658 135.755 47.0658C137.961 46.3658 140.2 45.9658 142.439 45.3991C144.01 44.9991 146.617 43.4325 148.054 44.8325C145.815 45.3325 147.118 46.0991 148.622 46.5325C150.326 47.0325 152.098 47.2325 153.869 47.3658C155.674 47.4991 157.512 47.5325 159.283 47.1658C160.921 46.8325 162.759 45.3991 164.497 45.7658C163.528 47.4325 160.687 48.3325 158.949 48.7658C158.08 48.9991 157.512 48.9325 157.612 50.0325C157.712 51.0991 158.648 52.1658 158.882 53.2658C159.15 54.7325 158.916 56.0991 158.381 57.4658C157.88 58.8325 157.746 58.9991 158.18 60.2991C158.882 62.3325 157.378 64.5658 155.975 66.0325C150.293 72.0325 139.498 69.7658 133.817 65.0325ZM134.251 78.5325C134.552 80.0991 135.421 80.0325 136.791 79.3325C138.796 78.2658 139.13 76.5325 139.298 74.4658C139.431 72.4991 139.665 71.7325 141.737 72.1325C143.174 72.4325 144.378 72.1658 145.815 72.1325C147.352 72.0991 147.887 72.3325 148.02 73.8991C148.154 75.4658 148.421 76.6658 149.591 77.8991C150.761 79.1325 152.332 79.8658 153.836 80.5325C154.604 80.8991 155.34 81.2658 156.208 81.3325C156.543 81.3658 158.281 81.1325 158.314 81.6991C158.347 82.0991 155.941 83.2658 155.674 83.4325C154.537 84.0325 153.435 84.5991 152.198 84.9658C149.391 85.7991 146.416 85.8658 143.475 85.7991C138.763 85.7325 132.279 83.7325 129.472 79.5658C131.043 79.2325 132.647 78.8658 134.251 78.5325ZM126.464 81.9325C127.366 82.5325 125.194 82.0658 125.194 82.0658C125.595 81.6991 126.03 81.6325 126.464 81.9325ZM123.69 81.5658C124.125 81.7658 124.626 82.1325 125.027 81.6325C125.294 82.4325 123.289 83.4991 123.69 81.5658ZM123.155 82.1325C123.222 82.2325 123.289 82.3325 123.356 82.4325C122.453 82.8991 122.253 82.6325 122.153 81.6991C122.587 81.6991 122.654 82.4658 123.155 82.1325ZM109.687 91.0658C109.921 90.2991 109.954 89.1325 110.856 90.1991C111.224 88.8991 115.235 89.0325 116.204 88.9658C119.379 88.7991 122.587 88.6991 125.729 88.3658C132.246 87.7325 138.863 88.0658 145.38 88.0325C146.784 88.0325 148.221 87.9658 149.625 88.1658C150.995 88.3658 152.399 88.9325 153.769 88.6991C155.005 88.5325 155.807 88.1658 157.077 88.3325C158.581 88.4991 160.052 88.6325 161.589 88.6325C168.34 88.5991 175.091 88.8658 181.842 88.8991C183.146 88.8991 184.75 88.6325 185.953 89.1991C186.421 89.3991 186.922 90.0991 187.256 90.1658C187.657 90.2658 187.424 89.6325 187.958 89.8991C188.66 90.2658 188.159 91.3658 187.691 91.5991C187.825 91.4991 187.156 91.3991 187.223 91.3991C186.855 91.4325 186.521 91.6991 186.12 91.6991C185.519 91.6658 184.984 91.2991 184.482 90.9658C184.482 91.0991 184.75 91.9991 184.449 92.0325C184.182 92.0658 183.914 91.1991 183.914 90.9658C182.41 92.2991 180.806 91.5658 178.935 91.7325C177.598 91.8658 174.824 92.7325 173.922 91.3658C173.888 91.6658 173.754 91.9325 173.554 92.1325C173.286 92.5325 173.053 92.4991 172.852 92.0325C172.785 92.0325 172.15 92.1658 172.117 92.1658C171.649 92.1325 171.081 91.9658 170.613 91.9325C169.911 91.8658 170.045 92.3991 169.443 92.3991C169.142 92.3991 168.34 91.9658 167.805 91.9325C166.87 91.8991 165.901 92.2658 164.965 92.1658C164.33 92.0991 163.762 91.5658 163.127 91.5325C162.358 91.4991 162.091 92.0991 161.489 91.2658C161.355 91.2325 161.288 91.7325 161.222 91.7325C161.222 91.7325 160.62 91.8325 160.553 91.8325C160.419 91.8658 159.952 92.0991 159.818 92.0991C159.517 92.0991 159.317 91.8658 158.982 91.8658C158.414 91.8658 156.676 92.3325 156.71 91.3325C154.738 92.0658 153.034 91.7658 151.028 91.9658C150.092 92.0325 149.524 91.9325 148.622 91.7658C147.519 91.5658 146.784 91.8325 145.681 91.8658C144.611 91.9325 144.277 91.4658 143.375 91.0658C143.007 90.8991 142.773 90.6991 142.339 90.7991C142.105 90.8658 142.272 91.2658 142.205 91.2991C141.838 91.4325 141.57 91.2991 141.035 91.3325C140.066 91.3991 139.699 92.1991 138.696 91.4325C139.03 91.3991 139.364 91.3658 139.699 91.2991C138.763 90.8991 137.493 90.6991 137.727 92.1658C136.925 92.0658 137.627 91.4991 137.225 91.2991C136.824 91.0991 136.39 91.4325 135.889 91.5991C134.552 92.0325 133.449 91.7991 132.079 91.7325C130.508 91.6325 126.832 92.9325 125.729 91.2658C125.695 91.5991 125.328 92.5991 124.826 92.5325C124.659 92.5325 125.127 91.4991 125.161 91.3658C124.893 91.8991 123.723 92.0325 123.155 92.2991C123.222 91.9991 123.289 91.6991 123.356 91.4325C122.821 91.9991 122.554 91.6658 121.919 91.8325C121.651 91.9325 121.25 92.4991 121.016 92.5325C120.749 92.1991 120.381 92.0658 119.98 92.1325C119.713 92.0658 119.412 92.0658 119.145 92.0991C118.042 92.1658 117.039 92.7991 115.936 92.3658C114.967 91.9991 114.6 91.0658 114.031 92.5658C113.898 92.2991 113.731 92.0325 113.597 91.7658C113.396 92.0658 113.229 92.3325 113.029 92.6325C112.294 92.1658 112.26 91.8991 111.425 92.0658C111.224 92.1325 111.024 92.1325 110.823 92.0325C110.79 92.1658 110.723 92.3325 110.689 92.4658C110.656 92.8325 110.556 92.9658 110.355 92.8325C110.188 92.7658 110.054 92.6658 109.921 92.5658C109.386 92.5991 108.684 92.7658 108.083 92.6658C107.849 92.6325 106.412 91.8991 106.311 91.9991C107.047 91.1658 109.052 89.2325 109.687 91.0658ZM90.1356 129.032C89.4672 129.366 88.7988 129.566 88.2306 129.999C88.0301 130.166 87.9632 130.499 87.7627 130.632C87.3617 130.866 86.8269 130.699 86.4259 130.899C85.7575 131.232 85.2896 131.699 84.4875 131.999C83.3177 132.432 82.2817 133.066 81.1788 133.632C79.3407 134.599 77.3354 135.432 75.397 136.199C74.4278 136.599 71.0523 132.866 71.0523 134.432C70.6513 134.166 69.2476 133.999 68.7463 133.932C68.1781 133.832 67.7771 132.699 67.3426 132.899C66.8079 133.132 65.3708 131.399 64.8361 131.632C64.6021 131.866 62.6303 130.099 62.3295 130.266C62.1624 130.299 59.7895 130.099 58.0182 130.232C58.1185 130.366 57.9848 130.532 57.6172 130.666C57.4166 130.766 57.3832 130.532 57.4166 130.299C56.5477 130.432 55.9795 130.666 56.1467 131.099C54.9435 131.332 54.6427 130.066 53.3059 130.532C51.6348 131.099 50.0975 131.499 48.3596 131.866C47.4907 132.032 46.5549 132.432 45.6525 132.532C45.0175 132.599 44.416 132.366 43.781 132.432C43.0123 132.532 42.4107 132.866 41.642 132.866C40.9068 132.866 40.1381 132.732 39.4028 132.632C39.5031 132.932 39.6368 133.199 39.8039 133.466C39.3026 133.366 39.0686 132.766 38.6342 132.666C38.1997 132.566 37.7986 133.032 37.3976 132.932C37.2305 132.899 37.3308 132.399 37.0634 132.299C36.796 132.199 36.6958 132.299 36.4284 132.266C36.3281 132.266 35.2587 132.199 35.0916 132.299C34.7908 132.466 35.0916 132.766 35.0247 132.799C34.0221 133.532 33.9887 133.132 33.5542 132.366C32.8858 131.232 32.0837 131.932 30.8805 131.732C29.5437 131.499 28.4742 132.099 27.1708 131.999C25.7337 131.899 24.0961 130.832 22.8261 130.232C20.119 128.899 17.4788 127.632 15.2062 125.599C10.7612 121.632 7.11836 116.766 4.97943 111.199C2.6734 105.199 2.23893 98.9658 2.43945 92.5991C2.53972 88.7658 2.8405 84.9658 3.4755 81.1991C3.87655 78.5991 3.97681 73.9991 6.91784 72.7991C7.41915 78.8658 5.81495 85.0658 6.851 91.1325C7.15178 92.9658 7.88704 95.3658 9.29071 96.7325C11.3628 98.7325 11.8307 95.8325 12.0312 94.2658C12.3654 91.2991 13.0338 88.3658 13.4683 85.4325C13.9362 82.4991 14.237 79.4991 14.872 76.5991C15.1059 75.5325 16.9775 67.7658 18.3477 68.1325C18.0804 73.7991 17.3451 79.3658 17.3117 85.0325C17.3117 87.2991 17.1112 89.6991 17.412 91.9658C17.5791 93.1325 18.6485 96.5325 20.4867 96.2658C22.1911 95.9991 20.3196 93.5991 20.1525 92.6658C19.718 90.1991 20.2527 87.1658 20.6538 84.6991C21.389 80.0991 21.7232 75.7325 24.3969 71.8658C26.8032 68.3991 27.9395 64.6991 32.4179 65.2991C34.3229 65.5658 31.4153 72.8325 30.7469 74.8991C29.4769 78.7658 29.0424 82.2325 28.4742 85.7991C27.7056 90.6325 26.5693 100.732 34.1224 97.8991C39.1355 96.0325 42.912 89.2325 42.4776 84.0658C42.3104 81.9991 41.5083 78.0658 44.3825 77.4991C48.0588 76.7658 48.5936 80.8325 48.2259 83.4658C47.6912 87.2991 45.6525 90.8658 43.3131 93.8991C41.2744 96.5325 38.9349 98.1991 36.4952 100.366C35.76 100.999 33.9218 102.466 34.256 103.666C34.5902 104.966 37.4979 105.366 38.6342 105.566C44.3491 106.632 50.8327 105.666 56.5477 104.899C68.3118 103.366 79.9088 112.899 89.534 105.966C89.9351 110.266 90.403 114.566 90.6035 118.866C90.7037 120.966 90.7037 123.099 90.9377 125.166C91.0714 126.499 91.6061 128.299 90.1356 129.032ZM109.419 120.599C108.517 121.599 107.849 121.166 106.879 121.032C106.779 120.666 106.579 120.632 106.345 120.899C106.044 121.066 105.743 121.166 105.409 121.232C104.607 121.432 103.771 121.332 102.969 121.632C103.003 121.366 103.27 120.899 103.103 120.632C102.267 121.199 101.766 121.566 100.73 121.599C99.8945 121.599 98.4574 120.966 97.7555 121.732C97.7221 121.432 97.7221 121.132 97.6887 120.866C97.3545 121.032 97.0537 121.266 96.8198 121.532C96.7863 121.099 96.7529 120.766 96.4521 120.399C95.9174 121.532 95.3158 121.566 94.2463 121.132C94.38 121.199 93.1769 120.466 93.2103 120.666C92.8427 119.066 98.8918 119.199 99.5268 119.132C101.131 118.966 102.702 118.866 104.306 118.732C105.81 118.599 106.946 118.366 107.982 119.632C107.481 117.766 111.893 117.866 109.419 120.599ZM177.464 152.866C178.233 152.166 178.701 151.066 179.436 150.432C180.372 149.599 181.909 149.999 182.945 150.432C186.053 151.732 188.727 153.932 191.802 155.299C195.211 156.799 198.185 158.832 201.293 160.932C204.1 162.832 207.175 164.432 210.049 166.232C212.99 168.099 216.266 169.299 219.24 171.099C222.281 172.932 225.289 174.732 228.197 176.766C233.377 180.332 238.791 184.032 242.635 189.099C244.606 191.699 246.445 194.666 247.915 197.632C249.219 200.299 250.656 203.999 248.951 206.799C247.314 209.466 244.506 211.566 242.167 213.566C241.264 214.332 240.429 215.232 239.259 215.566C237.855 215.966 236.184 215.866 234.747 215.966C226.994 216.599 219.741 215.999 212.121 214.632C204.735 213.299 197.349 212.566 189.897 211.632C185.719 211.099 181.508 210.499 177.364 209.632C175.593 209.266 173.788 208.832 172.083 208.332C170.579 207.899 169.309 206.899 167.739 206.532C161.155 204.899 153.602 204.266 147.085 201.499C152.866 199.099 158.982 197.666 164.931 195.666C171.148 193.566 177.23 191.799 183.814 191.232C187.19 190.932 190.231 190.066 193.473 189.166C196.581 188.299 199.789 188.032 202.998 187.666C204.401 187.499 208.445 187.766 208.913 185.899C209.615 183.166 205.638 182.832 203.967 183.066C201.56 183.399 199.589 183.999 197.751 182.032C195.879 180.032 194.041 177.966 192.136 175.999C188.593 172.332 184.95 168.099 179.937 166.432C173.821 164.432 166.769 166.332 160.653 167.466C154.237 168.666 147.786 169.832 141.47 171.566C138.863 172.299 135.488 173.899 132.781 173.632C130.107 173.366 127.066 172.932 124.492 172.166C123.322 171.832 122.353 171.166 121.317 170.566C119.947 169.799 118.476 169.299 117.039 168.666C114.132 167.432 111.291 166.299 108.116 165.832C105.476 165.432 102.635 165.199 100.062 166.099C97.555 166.999 95.3158 168.866 93.5445 170.832C91.6395 172.966 90.0687 175.399 88.498 177.799C87.7293 178.966 86.8269 179.966 86.0583 181.099C85.3898 182.032 85.0222 183.099 84.3204 184.032C82.783 186.099 81.7135 188.732 80.7778 191.132C79.7417 193.799 78.572 196.966 78.8394 199.832C78.9396 200.932 79.0399 202.366 79.4409 203.399C79.9757 204.699 80.7443 204.666 81.8472 205.132C83.7522 205.966 84.287 208.266 86.7601 207.832C89.0661 207.399 91.0714 205.499 92.7424 203.999C94.9482 202.032 97.0537 199.966 99.1258 197.866C101.298 195.732 103.404 193.399 105.108 190.899C105.777 189.899 106.311 188.799 107.113 187.899C108.116 186.766 109.286 186.632 110.656 186.166C122.721 182.199 134.853 178.366 147.285 175.732C150.26 175.099 153.267 174.299 156.208 173.466C159.317 172.566 160.921 173.532 163.494 175.199C168.842 178.732 175.191 181.232 181.14 183.532C183.012 184.266 186.02 184.299 187.49 185.732C178.801 187.066 170.513 189.599 162.124 192.132C157.98 193.366 153.802 194.466 149.658 195.666C145.514 196.866 141.503 198.399 137.426 199.766C133.349 201.099 129.037 201.666 124.927 202.899C120.716 204.166 116.538 205.032 112.227 205.799C107.882 206.566 103.537 207.466 99.1592 208.166C97.154 208.499 95.1487 208.799 93.1769 209.266C91.2385 209.699 89.3669 210.732 87.4285 210.966C78.7391 212.032 70.2168 214.399 61.5608 215.732C55.1106 216.732 43.8478 218.132 39.6702 211.666C35.4592 205.166 40.6394 197.566 45.2515 192.932C48.1257 190.032 51.3341 187.499 54.7096 185.232C58.319 182.799 61.7948 180.199 65.4376 177.766C73.6257 172.299 82.5157 167.832 91.3053 163.432C95.5163 161.332 99.5937 159.066 103.704 156.732C105.743 155.599 106.879 157.432 108.484 158.699C109.754 159.699 112.093 162.132 113.864 160.999C113.931 161.399 113.998 161.799 114.065 162.232C114.6 161.999 115.101 161.766 115.636 161.532C115.97 162.432 115.936 162.999 116.906 163.499C117.507 163.799 118.777 164.132 119.345 163.632C119.446 163.999 119.579 164.366 119.68 164.699C120.181 164.666 120.281 163.232 120.381 162.899C121.25 164.132 122.42 165.199 123.924 165.532C123.924 165.466 123.69 164.432 123.69 164.432C124.158 164.132 124.76 165.399 125.027 165.666C125.862 166.532 126.364 166.399 127.3 165.699C127.366 165.766 127.667 166.599 127.734 166.566C127.935 166.499 128.302 165.766 128.369 165.732C128.302 166.666 130.14 166.866 130.809 166.666C130.675 166.399 130.508 166.099 130.374 165.832C132.647 165.532 133.516 167.932 135.688 167.799C137.292 167.699 135.989 167.366 136.925 166.666C137.727 166.066 137.86 167.366 137.927 167.332C138.094 167.166 138.195 166.999 138.295 166.799C138.596 167.932 140.935 168.932 140.668 167.066C141.57 167.432 142.239 168.032 143.241 168.166C144.478 168.332 145.781 168.066 147.018 167.966C149.658 167.732 152.165 167.199 154.571 165.999C155.975 165.266 157.512 164.632 158.849 163.766C159.952 163.032 162.091 160.832 163.561 161.799C163.193 160.666 164.965 161.732 165.032 160.266C165.332 160.466 165.6 160.699 165.901 160.899C166.068 160.532 166.034 159.932 166.268 159.599C166.569 159.132 166.736 159.399 167.003 159.166C167.304 158.866 167.572 158.132 167.939 157.899C168.307 157.666 168.741 157.932 169.142 157.732C169.744 157.432 172.384 154.532 171.95 157.032C173.086 156.632 172.217 156.299 172.351 155.532C172.652 154.032 173.32 155.099 174.022 155.232C175.158 155.432 175.125 154.532 175.76 153.832C176.328 153.199 177.431 152.932 177.03 151.866C177.33 151.966 177.431 152.432 177.464 152.866ZM190.298 183.299C189.262 182.432 188.125 181.899 186.855 181.466C181.775 179.766 177.03 177.232 172.083 175.199C171.214 174.832 164.53 172.666 164.664 171.599C169.343 170.732 174.189 169.266 178.868 170.866C183.146 172.332 186.621 175.832 189.93 178.732C190.799 179.499 196.113 182.966 195.645 184.066C195.311 184.832 192.737 184.632 192.136 184.466C191.367 184.299 190.899 183.799 190.298 183.299ZM126.197 175.432C124.826 176.166 123.256 176.332 121.818 176.799C120.582 177.199 119.412 177.932 118.075 177.999C119.312 177.099 120.348 175.832 121.718 175.132C123.222 174.332 124.626 174.932 126.197 175.432ZM116.638 173.966C113.597 175.999 111.057 178.766 108.283 181.132C105.476 183.499 103.237 186.099 100.73 188.732C98.3905 191.132 96.2516 193.432 93.4443 195.266C91.673 196.432 90.0688 197.832 88.2306 198.932C86.8604 199.732 84.7883 200.832 85.4567 198.332C86.1585 195.766 87.3951 193.199 88.498 190.799C90.0687 187.399 91.6395 184.032 93.344 180.732C93.979 179.499 94.3466 178.232 95.3492 177.232C96.4521 176.132 97.2208 174.732 98.4239 173.699C103.437 169.366 111.057 172.699 116.638 173.966ZM112.026 148.166C111.458 147.366 112.995 147.066 113.463 146.999C114.265 146.866 115.335 147.099 115.87 146.999C116.672 146.799 117.474 146.332 118.376 146.232C119.546 146.066 120.682 146.066 121.852 145.966C122.253 145.932 122.721 145.799 123.088 145.832C123.657 145.866 123.891 146.166 124.325 146.166C125.094 146.166 126.063 145.699 126.832 145.599C127.834 145.499 128.87 145.432 129.873 145.366C132.012 145.266 134.117 145.299 136.29 145.299C137.259 145.299 139.866 144.299 140.367 145.432C141.035 144.566 142.773 144.699 143.743 144.666C145.447 144.632 147.118 144.466 148.822 144.366C150.293 144.299 151.897 144.599 153.334 144.399C154.136 144.266 154.37 144.032 155.273 144.132C155.941 144.232 156.944 143.866 157.512 144.032C157.478 144.032 158.214 144.499 157.98 144.499C158.247 144.499 158.214 144.666 158.515 144.566C158.882 144.466 158.715 143.999 159.484 143.832C160.687 143.566 162.258 143.866 163.494 143.799C164.697 143.732 165.901 143.699 167.104 143.699C167.672 143.699 168.34 143.566 168.875 143.666C169.142 143.732 169.71 144.066 169.911 144.032C170.546 143.932 170.88 143.499 171.716 143.532C172.685 143.566 173.554 143.566 174.523 143.466C175.459 143.399 175.626 143.266 176.06 144.032C176.528 144.799 176.662 145.799 175.793 146.332C176.328 146.299 177.03 147.032 176.361 147.432C175.96 147.699 175.158 147.132 174.69 147.166C174.089 147.232 173.621 147.532 172.986 147.532C172.317 147.566 171.615 147.732 170.947 147.732C170.245 147.732 169.744 147.432 169.075 147.566C168.507 147.666 168.44 148.166 167.739 147.732C167.404 147.532 167.338 146.766 166.87 146.766C166.235 146.766 166.502 147.566 166.134 147.966C166.034 146.799 165.132 148.732 164.764 147.299C164.43 147.766 163.193 148.432 162.625 148.066C162.091 147.732 162.258 146.932 162.024 146.366C161.656 147.366 160.653 148.432 160.72 146.599C160.219 147.199 158.916 147.099 159.25 148.166C158.849 148.166 158.748 147.599 158.414 147.532C158.113 147.499 157.88 147.732 157.846 147.699C157.98 147.699 157.579 147.866 157.412 147.899C157.412 147.899 157.378 147.899 157.345 147.932C157.345 147.932 157.378 147.932 157.412 147.899C157.545 147.832 156.376 147.699 156.376 147.699C156.008 147.699 155.54 147.999 155.106 147.999C154.705 147.999 154.27 147.832 153.869 147.799C152.8 147.666 153.034 147.899 152.365 148.232C152.131 148.366 152.064 148.566 151.697 148.532C151.429 148.499 151.329 148.166 151.329 148.166C150.961 148.132 151.229 147.999 150.661 148.066C150.594 148.166 150.527 148.299 150.46 148.399C150.26 148.666 149.992 148.732 149.658 148.599C148.822 148.766 146.082 149.532 146.349 148.132C145.915 148.332 145.514 148.532 145.079 148.732C144.912 147.599 142.606 149.099 142.105 149.199C141.436 149.299 141.403 149.032 140.768 148.899C140.668 148.866 140.434 149.232 140.167 149.199C139.498 149.066 139.364 148.999 139.264 148.266C138.763 149.166 138.362 148.766 137.493 148.899C137.292 148.932 137.159 149.299 136.891 149.232C136.691 149.199 136.691 148.832 136.557 148.766C136.423 148.732 136.457 148.432 136.256 148.399C136.056 148.366 135.32 148.932 135.12 149.032C134.652 149.232 133.883 149.566 133.449 149.466C132.881 149.332 133.148 148.932 132.346 148.966C131.076 149.032 130.575 150.099 129.806 148.432C129.438 149.099 129.505 149.299 128.937 149.499C128.503 149.666 127.467 149.499 126.898 149.466C124.559 149.366 122.253 150.166 119.914 149.966C118.877 149.866 118.042 149.666 117.006 149.832C115.936 149.999 114.867 150.266 113.764 150.366C113.196 150.432 112.026 150.566 111.759 149.866C111.625 149.332 112.528 148.899 112.026 148.166ZM114.7 132.966C114.466 131.866 123.857 131.266 124.793 131.199C126.731 131.032 128.703 130.932 130.675 130.899C132.279 130.866 133.783 131.166 135.387 130.932C136.891 130.699 138.696 130.232 139.999 131.299C140.2 129.832 145.848 130.566 146.918 130.566C151.596 130.599 156.075 130.599 160.587 130.299C163.16 130.132 165.901 129.899 168.507 130.032C169.677 130.099 170.613 130.399 171.783 130.132C172.551 129.966 173.353 129.599 174.089 130.099C174.924 130.699 175.292 132.766 174.724 133.599C174.289 134.232 173.922 134.166 173.253 134.032C172.217 133.866 171.448 133.632 170.379 134.066C170.546 133.999 169.677 134.199 169.744 134.199C168.541 134.299 166.903 135.132 165.867 134.166C166.268 134.232 166.903 133.499 166.368 133.432C165.967 133.399 165.733 133.799 165.433 133.932C164.397 134.399 163.828 134.266 163.227 133.266C161.957 134.366 161.823 134.066 161.255 132.699C160.821 133.032 160.72 133.799 160.386 134.066C160.353 134.099 160.553 134.566 160.286 134.566C160.052 134.532 159.985 134.166 159.818 134.166C159.718 134.132 159.651 133.832 159.551 133.799C159.45 133.766 159.317 133.999 159.183 133.966C158.849 133.966 157.846 134.699 158.214 133.666C157.679 134.332 157.445 133.899 157.278 133.299C156.676 133.766 156.075 134.232 155.44 134.666C155.172 133.866 154.671 134.099 154.07 134.366C154.27 133.832 154.136 133.299 153.668 133.699C153.401 133.932 153.234 134.599 152.933 134.899C151.83 133.766 151.429 134.099 149.892 134.232C149.29 134.299 148.589 134.399 148.054 134.032C147.586 133.732 147.319 132.599 146.55 133.499C146.717 133.299 146.45 134.866 146.416 135.099C146.082 134.866 145.781 134.566 145.547 134.232C145.079 135.132 143.91 134.332 142.94 134.499C141.403 134.799 139.832 135.266 138.462 134.132C138.362 134.499 137.259 134.966 137.259 134.966C137.326 134.299 137.727 134.532 136.891 134.432C136.724 134.399 136.557 134.699 136.423 134.732C135.922 134.832 135.32 134.732 134.819 134.732C132.714 134.666 130.809 135.132 128.737 135.299C128.035 135.366 127.199 135.466 126.564 135.199C125.896 134.932 125.896 134.632 125.227 134.799C125.428 134.732 124.793 135.432 124.826 135.399C124.726 135.466 124.358 135.132 124.225 135.166C124.191 135.299 124.158 135.466 124.091 135.599C123.924 135.566 123.757 135.566 123.59 135.532C123.155 135.599 122.721 135.132 122.32 135.132C122.387 135.132 121.184 135.599 121.217 135.632C120.348 135.199 120.615 135.332 119.512 135.599C118.476 135.832 117.474 135.799 116.438 135.932C113.263 136.366 115.101 134.832 114.7 132.966ZM162.525 118.599C161.188 117.899 159.751 118.132 158.615 118.366C158.047 118.499 156.275 119.332 155.674 118.966C155.239 118.699 156.008 118.299 155.273 118.066C154.905 117.966 154.237 118.566 153.769 118.532C152.499 118.432 152.866 117.599 151.596 118.666C151.162 118.299 151.028 117.666 151.095 117.132C150.193 117.899 150.26 119.199 148.622 118.966C148.02 118.866 147.887 118.266 147.586 118.132C146.918 117.899 146.851 118.332 146.249 118.666C146.015 118.799 145.748 118.999 145.514 119.032C144.979 119.099 144.912 118.832 144.812 118.866C144.444 118.899 144.01 119.099 143.575 118.966C143.208 118.866 143.074 118.199 142.406 118.332C141.771 118.466 141.771 118.899 141.871 119.566C141.236 119.499 140.868 119.166 140.4 118.766C139.933 119.866 138.93 118.966 138.362 119.899C137.627 119.032 137.192 119.266 136.29 118.432C136.323 118.766 136.39 119.132 136.423 119.466C135.722 119.332 135.421 118.832 134.819 119.499C134.251 118.432 132.48 119.966 131.577 118.932C131.176 120.232 128.536 119.932 127.4 119.966C126.397 119.999 125.662 119.899 124.693 120.132C123.824 120.332 122.654 120.532 121.852 120.466C121.317 120.399 120.749 120.299 120.081 120.366C119.145 120.466 118.309 120.966 117.34 120.732C115.87 120.399 114.967 118.466 116.605 117.599C117.741 117.032 119.746 117.232 120.983 117.132C123.022 116.966 125.328 116.566 127.4 116.766C129.004 116.899 130.474 116.532 132.079 116.366C133.315 116.232 135.32 116.032 136.123 117.232C136.423 116.866 136.39 116.132 137.058 116.332C137.961 116.566 138.796 116.032 139.665 116.199C139.966 116.266 140.534 116.766 140.668 116.799C140.902 116.832 141.604 116.299 141.904 116.232C143.809 115.799 146.115 115.832 148.02 116.099C149.023 116.232 149.19 115.766 150.059 115.566C150.961 115.332 152.265 115.499 153.234 115.432C155.507 115.266 157.779 115.399 160.018 115.232C162.324 115.066 164.631 114.966 166.937 114.866C168.507 114.799 172.284 113.899 173.587 115.066C174.657 116.032 173.286 117.699 172.217 118.066C171.415 118.366 171.014 117.766 170.446 117.799C169.777 117.866 170.011 118.666 169.41 117.932C169.042 118.666 166.669 118.366 166.001 118.399C164.53 118.499 163.26 118.799 162.258 117.432C162.391 117.799 162.458 118.199 162.525 118.599ZM201.327 116.166C200.959 117.166 197.851 116.599 197.116 116.499C196.146 116.366 195.077 116.132 194.208 116.032C194.108 115.899 193.974 115.766 193.84 115.666C193.74 115.832 193.606 115.932 193.406 115.999C193.005 116.099 193.005 116.499 192.47 116.399C192.437 116.999 192.871 116.666 193.205 116.899C192.37 117.466 192.771 116.799 192.303 116.832C192.203 116.666 192.036 116.599 191.835 116.632C191.568 116.699 191.334 116.799 191.1 116.966C190.899 117.199 190.732 117.199 190.565 116.999C190.431 116.866 190.264 116.766 190.064 116.732C189.262 116.866 189.028 117.232 188.092 117.166C186.788 117.066 185.385 117.432 184.081 117.232C183.279 117.132 181.942 115.866 181.575 117.099C181.007 116.199 180.138 115.566 179.603 114.666C182.076 114.532 184.516 114.366 186.989 114.266C189.161 114.199 191.501 114.432 193.506 114.332C195.378 114.232 197.383 114.032 199.321 113.866C201.393 113.666 202.062 114.132 201.327 116.166ZM202.797 105.832C202.563 105.766 201.627 105.666 201.393 105.666C201.126 105.632 201.427 105.132 200.758 105.266C200.892 105.599 201.126 105.799 201.46 105.899C200.458 106.232 199.722 105.399 199.021 105.299C198.352 105.199 198.319 105.299 197.684 105.999C196.982 105.132 197.116 105.666 196.547 105.666C196.347 105.666 196.313 105.999 195.979 105.932C195.678 105.899 195.645 105.432 195.478 105.399C194.509 105.099 193.539 106.566 192.437 105.299C192.169 106.632 189.128 104.966 187.992 105.199C186.755 105.432 187.29 105.866 186.321 105.132C185.385 104.432 185.652 104.899 184.549 105.466C184.583 105.466 183.948 105.899 183.981 105.899C183.212 105.799 183.279 105.032 182.31 105.066C181.307 105.099 180.873 105.899 179.937 104.932C179.737 105.666 179.703 105.332 179.202 105.532C178.935 105.599 178.701 105.532 178.5 105.332C178.433 105.532 178.3 105.666 178.099 105.699C177.564 105.732 176.595 105.832 176.127 105.566C175.425 105.199 175.994 105.032 175.492 104.632C175.258 105.799 174.79 105.532 173.788 105.666C173.019 105.732 172.852 105.499 172.117 105.399C171.382 105.299 170.446 105.566 169.744 105.699C169.443 105.732 169.042 105.966 168.775 105.866C168.507 105.799 168.374 105.599 168.24 105.532C168.039 105.466 168.073 105.299 167.739 105.199C167.505 105.132 167.104 105.366 166.87 105.399C165.199 105.666 163.628 105.666 162.057 105.032C162.826 106.399 160.252 105.666 159.785 105.099C159.216 105.999 158.515 105.366 157.345 105.432C156.208 105.499 154.537 105.832 154.07 104.432C153.969 104.732 153.334 105.532 153.1 105.666C152.365 106.032 152.265 105.499 151.596 105.266C150.661 104.966 150.861 105.532 150.293 105.632C149.324 105.832 148.789 105.132 147.92 104.766C147.887 105.332 147.853 105.666 147.385 106.032C146.951 104.466 145.414 106.166 145.681 104.066C145.079 104.432 144.244 104.732 144.077 105.532C145.079 105.266 144.177 105.899 144.144 105.932C144.01 105.999 143.575 105.399 143.475 105.299C143.442 105.599 143.408 105.866 143.408 106.166C143.007 105.966 142.64 105.632 142.339 105.432C142.038 105.266 142.473 104.932 141.971 104.932C141.704 104.932 141.436 105.466 141.169 105.532C140.768 105.599 140.969 105.032 140.768 105.032C140.501 105.066 140.066 105.432 139.866 105.432C139.231 105.399 139.665 105.099 139.164 104.966C138.262 104.732 138.328 105.299 137.693 105.499C136.223 105.966 136.39 103.766 134.886 105.232C134.518 105.599 134.318 106.132 133.817 106.099C132.847 106.032 133.148 104.899 133.349 104.299C133.048 104.632 129.706 106.332 129.706 106.266C129.739 105.799 130.341 105.432 129.806 104.999C129.372 105.966 128.904 105.966 127.868 106.166C127.366 106.266 127.266 106.366 126.731 106.166C126.397 106.032 126.163 105.499 125.829 105.466C125.862 105.466 125.261 105.932 125.161 105.999C124.592 106.266 124.258 105.966 123.69 106.066C123.222 106.166 123.055 106.566 122.587 106.432C121.952 106.299 122.32 105.566 121.484 105.766C121.184 105.832 121.016 106.399 120.549 106.499C119.847 106.666 118.944 106.332 118.209 106.532C117.607 106.666 117.173 106.732 116.638 106.766C116.204 106.799 116.404 106.466 115.602 106.832L115.268 105.999C114.867 106.366 114.499 106.699 114.098 107.066C114.031 106.766 113.965 106.432 113.965 106.099C113.396 106.666 112.661 106.766 111.859 106.832C111.024 106.899 110.389 107.066 109.553 107.232C109.286 107.266 108.617 107.366 108.417 107.266C108.45 107.266 108.016 107.099 108.149 107.132C108.083 107.032 108.049 106.899 107.982 106.799C107.915 106.466 107.682 106.466 107.28 106.766C107.08 106.732 106.679 106.466 106.478 106.532C105.944 106.699 106.01 107.132 105.476 107.066C105.142 107.032 104.941 106.532 104.607 106.499C104.206 106.466 103.838 106.799 103.47 107.032C103.504 107.066 103.437 107.132 103.103 107.199C103.237 107.166 103.337 107.099 103.47 107.032C103.303 106.932 101.398 107.132 102.234 107.132C101.532 107.099 100.797 107.066 100.162 107.399C99.7942 107.166 100.229 106.666 99.861 106.466C99.5268 106.266 99.4934 106.766 99.46 106.766C99.6605 106.699 99.5602 107.132 99.3597 107.199C98.7247 107.432 98.19 106.832 98.1566 106.266C97.6219 107.099 97.4547 106.766 96.6526 106.799C95.8506 106.866 95.1821 107.266 94.38 107.266C92.8093 107.266 91.7398 106.699 91.2051 105.299C92.8761 105.499 94.5806 104.432 96.2182 104.666C96.7529 104.766 97.0871 105.166 97.555 105.066C98.1232 104.966 98.5576 104.332 99.2929 104.266C100.931 104.099 102.568 104.266 104.239 103.999C106.211 103.699 108.283 103.532 110.288 103.666C111.826 103.766 113.096 103.199 114.666 103.066C116.705 102.932 118.744 102.899 120.782 102.799C122.855 102.699 125.127 102.366 127.199 102.466C127.834 102.499 128.402 102.566 129.037 102.532C129.305 102.532 129.572 102.332 129.839 102.366C130.207 102.399 130.374 102.766 130.775 102.766C131.444 102.732 132.146 102.199 132.914 102.199C134.184 102.166 135.488 102.166 136.758 102.099C137.894 102.032 139.097 101.766 140.233 101.799C141.035 101.799 141.236 102.499 141.704 102.566C142.539 102.699 146.75 100.299 147.118 102.432C149.324 100.932 152.265 102.199 154.705 101.932C157.846 101.566 161.054 101.899 164.196 101.766C167.404 101.632 170.713 101.766 173.922 102.066C175.258 102.199 176.528 102.299 177.865 102.232C178.467 102.199 179.135 102.032 179.737 102.199C179.87 102.232 180.973 102.999 180.84 103.032C181.441 102.499 181.04 102.399 182.076 102.399C182.878 102.366 183.647 102.566 184.482 102.599C185.953 102.699 187.39 102.499 188.861 102.532C190.064 102.566 191.267 102.732 192.47 102.766C193.773 102.766 195.344 102.799 196.28 103.866C196.18 103.532 196.079 103.199 195.979 102.866C197.45 102.966 198.887 103.499 200.391 103.266C200.023 103.632 199.622 103.932 199.488 104.432C200.291 104.332 200.825 103.766 201.661 103.766C202.363 103.766 202.53 104.099 203.265 103.666C203.365 104.232 203.432 104.799 203.532 105.332C204.568 105.099 203.9 104.332 203.967 103.632C204.802 103.899 205.504 103.599 205.203 104.799C204.836 105.632 203.666 106.099 202.797 105.832ZM289.725 144.099C288.822 144.766 287.185 144.232 286.249 143.932C283.441 143.099 280.768 141.666 278.395 139.966C276.59 138.666 275.053 137.032 273.315 135.699C271.276 134.166 270.708 136.532 271.377 138.266C272.245 140.566 274.585 142.399 275.955 144.399C277.559 146.732 278.662 149.299 279.631 151.966C277.559 152.232 276.089 150.899 274.585 149.699C272.78 148.232 271.209 146.632 269.572 144.966C268.837 144.199 266.831 141.399 265.561 141.699C263.79 142.099 264.458 145.066 264.793 146.166C265.929 149.899 267.466 153.266 268.001 157.166C268.168 158.332 268.669 160.599 266.965 160.799C265.929 160.932 264.692 159.832 263.957 159.199C261.116 156.666 259.813 152.299 258.209 148.966C257.373 147.232 256.504 145.399 255.234 143.932C253.998 142.466 252.527 142.166 250.756 141.599C248.65 140.932 246.445 140.932 244.239 140.832C242.434 140.766 234.914 139.732 233.444 139.366C229.233 138.266 224.888 137.266 220.811 135.732C218.872 135.032 217.135 134.032 215.33 133.099C213.492 132.132 211.553 131.532 209.682 130.632C208.211 129.932 205.705 129.032 204.669 127.699C203.566 126.299 205.103 123.299 205.538 121.832C207.008 116.766 208.779 111.766 209.882 106.599C213.726 111.032 219.073 113.799 224.587 115.566C227.595 116.532 230.67 117.232 233.778 117.666C235.148 117.866 236.552 118.066 237.989 118.166C239.928 118.299 243.47 118.899 245.576 119.399C248.116 120.032 250.255 121.032 252.828 121.499C255.702 122.032 260.582 123.999 262.988 125.332C272.245 130.499 281.971 131.432 288.956 140.032C289.691 141.032 291.061 143.099 289.725 144.099Z" fill="#FFAB00"/>
</svg>
