<svg width="162" height="137" viewBox="0 0 162 137" fill="none" xmlns="http://www.w3.org/2000/svg">
<g clip-path="url(#clip0)">
<path d="M1.70419 59.9832C1.70419 66.7967 2.19104 73.5494 3.10388 80.3628C4.01673 87.298 4.68615 100.986 5.78157 107.982C6.26842 110.963 6.51185 114.248 8.33754 116.985C9.7981 119.236 11.7455 121.609 14.4232 122.461C25.1339 125.928 37.5487 128.848 58.3616 131.16C73.8191 132.863 89.2767 137.426 104.673 137H112.341C125.304 134.749 139.118 133.167 149.89 126.171C151.107 125.381 152.081 124.407 153.602 124.164C154.88 123.921 156.097 124.042 157.375 123.556C160.479 122.4 161.513 120.088 161.696 117.229C162.122 110.902 162.304 104.818 161.513 98.4308C161.148 95.6324 161.452 92.834 161.148 89.9747C160.844 87.2372 160.235 84.5605 159.688 81.8837C158.47 75.9827 157.679 70.0209 156.401 64.12C153.845 52.2572 150.985 40.3944 146.603 28.8966C144.473 23.2998 142.465 17.0338 139.179 11.8628C137.718 9.55113 135.467 8.03026 132.667 7.48274C129.746 6.87439 123.295 5.11018 118.549 6.32688C112.646 7.78692 104.065 10.2203 97.8574 10.8895C84.895 12.3495 73.3323 11.6803 60.2481 9.67279C47.7725 7.72608 35.4795 9.36862 22.2128 4.92768C18.9266 3.71098 8.33754 0.182564 6.14671 5.9785e-05C3.04303 -0.182445 3.28645 2.49429 3.10388 4.68434C2.86046 7.84775 2.61703 11.0112 2.43446 14.1746C1.64333 26.0982 2.7996 38.5085 0.24363 50.0671C-0.182365 49.7629 0.121917 56.3331 0.669625 56.7589C1.8259 57.6106 1.70419 58.7665 1.70419 59.9832ZM15.336 58.2798C14.7275 43.5578 14.0581 28.8358 13.3278 14.1137C17.4052 15.9996 23.1865 15.0263 27.3248 16.7905C31.2196 18.433 33.9581 17.703 38.1572 18.2505C48.1377 19.5889 56.9619 20.2581 66.2121 21.4139C83.0085 23.4823 93.6583 23.7256 109.42 21.4139C128.833 18.5547 130.477 23.239 131.998 23.8473C134.067 24.6382 134.371 29.0183 134.736 30.6C135.528 33.9459 136.197 37.2918 136.866 40.5769C138.327 47.6337 140.031 54.6906 141.248 61.7474C141.796 64.9716 141.857 68.1351 142.161 71.3593C142.526 74.766 143.256 78.1728 143.987 81.5795C145.447 88.6972 146.36 95.8149 147.09 102.933C147.334 105.123 147.516 107.313 147.76 109.503C147.942 111.206 148.551 113.396 148.247 114.978C147.821 117.533 144.413 118.506 142.161 119.662C130.111 125.806 114.471 127.936 100.353 127.814C92.6238 127.753 85.0776 126.415 77.4096 125.259C69.5592 124.103 61.8304 123.008 54.2233 120.696C46.4946 118.324 36.3924 118.263 28.7245 115.525C25.8642 114.491 20.5088 113.335 18.4397 111.145C16.3097 108.894 16.7357 105.123 16.4923 102.568C15.336 88.2714 15.8837 72.3935 15.336 58.2798Z" fill="#FFAB00"/>
<path fill-rule="evenodd" clip-rule="evenodd" d="M32.9843 91.1917C30.0632 90.9483 24.8296 91.1308 24.7687 95.0243C24.7078 98.431 29.0895 101.473 31.7672 102.324C38.9483 104.697 50.0241 101.594 47.8942 95.4501C43.5733 91.1308 38.7048 91.7392 32.9843 91.1917Z" fill="#3B247B"/>
<path fill-rule="evenodd" clip-rule="evenodd" d="M53.0669 95.1457C55.0143 104.636 77.6529 110.05 75.3403 97.2141C74.1841 90.8264 67.2464 94.1115 62.743 93.1382C59.8828 92.469 51.6672 88.4539 53.0669 95.1457Z" fill="#3B247B"/>
<path fill-rule="evenodd" clip-rule="evenodd" d="M54.1623 76.5304C56.1097 86.0207 78.7483 91.435 76.4357 78.5988C75.2795 72.2112 66.8813 72.7587 62.3779 71.7245C59.5176 71.0553 52.8234 69.8386 54.1623 76.5304Z" fill="#3B247B"/>
<path fill-rule="evenodd" clip-rule="evenodd" d="M55.3187 57.9147C57.2661 67.4049 79.9047 72.8192 77.5922 59.9831C76.4359 53.5954 69.62 58.7664 65.1774 57.793C62.2563 57.1238 53.919 51.2229 55.3187 57.9147Z" fill="#3B247B"/>
<path fill-rule="evenodd" clip-rule="evenodd" d="M86.2944 93.8684C83.3733 93.6251 78.1396 93.8076 78.0788 97.701C78.0179 101.108 82.3996 104.149 85.0773 105.001C92.2583 107.374 101.265 106.4 102.847 98.1269C103.943 93.1384 92.0149 94.4159 86.2944 93.8684Z" fill="#3B247B"/>
<path fill-rule="evenodd" clip-rule="evenodd" d="M87.39 75.3134C84.4689 75.0701 81.0609 75.5568 81.0001 79.3894C80.9392 82.7961 83.556 85.5945 86.2337 86.4462C93.4148 88.8188 102.422 87.8454 104.004 79.5719C98.405 78.2943 93.1105 75.8001 87.39 75.3134Z" fill="#3B247B"/>
<path fill-rule="evenodd" clip-rule="evenodd" d="M108.933 81.397C110.881 90.8872 131.45 94.5981 129.138 81.762C127.981 75.3743 121.409 78.6594 116.966 77.6252C114.045 77.0169 107.534 74.7051 108.933 81.397Z" fill="#3B247B"/>
<path fill-rule="evenodd" clip-rule="evenodd" d="M107.959 61.0783C109.907 70.5685 132.545 75.9828 130.233 63.1467C129.076 56.759 125.486 59.8616 121.043 58.8274C118.122 58.2191 106.56 54.3865 107.959 61.0783Z" fill="#3B247B"/>
<path fill-rule="evenodd" clip-rule="evenodd" d="M109.055 42.5237C111.002 52.0139 133.641 57.4282 131.329 44.5921C130.172 38.2044 123.356 43.3754 118.914 42.402C116.054 41.7328 107.716 35.771 109.055 42.5237Z" fill="#3B247B"/>
<path fill-rule="evenodd" clip-rule="evenodd" d="M113.619 95.5715C110.698 95.3282 105.464 95.5107 105.403 99.4041C105.343 102.811 109.724 105.853 112.402 106.704C119.583 109.077 126.277 107.069 130.172 99.83C133.397 93.8073 119.34 96.0582 113.619 95.5715Z" fill="#3B247B"/>
</g>
<defs>
<clipPath id="clip0">
<rect width="162" height="137" fill="white"/>
</clipPath>
</defs>
</svg>
