<svg width="282" height="150" viewBox="0 0 282 150" fill="none" xmlns="http://www.w3.org/2000/svg">
<path fill-rule="evenodd" clip-rule="evenodd" d="M51.3906 91.5402L52.1537 101.142L66.6526 104.599L77.7175 109.592L86.4931 117.273L90.6902 113.817L96.0318 101.91L102.137 100.758L124.266 103.062L131.897 105.367L129.227 118.425L126.556 128.027L170.815 125.339L169.289 103.062L160.132 82.7065L123.885 65.0391L96.7949 68.4957L77.7175 89.6199L69.3234 94.2288L54.443 93.4606" fill="#FFAB00"/>
<path fill-rule="evenodd" clip-rule="evenodd" d="M233.887 3.28429C236.869 6.92129 232.476 12.0645 229.985 14.6023C228.776 15.8344 227.774 17.2583 226.592 18.5211C225.424 19.7689 223.959 20.751 222.91 21.9555C221.809 23.2206 220.539 24.6051 219.618 26.0283C219.035 26.93 218.171 27.9369 217.882 28.9834C217.466 30.4881 217.814 29.6189 218.363 30.4697C218.925 31.3385 219.114 31.3886 219.305 32.5997C219.489 33.777 219.753 34.6385 220.386 35.6444C221.431 37.3011 222.558 38.8587 223.295 40.6904C224.274 43.1266 224.966 45.6001 225.746 48.1064C226.051 49.0839 226.255 50.2035 226.746 51.104C227.443 52.3832 227.541 52.276 228.578 51.4781C231.675 49.0966 234.807 46.5791 238.035 44.3094C239.884 43.0091 241.805 41.736 243.757 40.5969C245.096 39.8151 247.974 38.4237 248.645 36.9726C249.534 35.0482 248.15 33.2824 250.055 31.5104C251.295 30.3564 253.317 29.7166 254.933 29.4363C257.217 29.0404 259.74 29.6059 262.022 29.8108C264.329 30.0175 266.584 29.7924 268.847 29.3188C272.31 28.594 278.962 24.5833 281.207 29.4015C282.189 31.5096 281.525 33.8456 281.34 36.0066C281.18 37.89 280.629 39.8894 279.459 41.4385C278.123 43.2086 276.178 43.3012 274.154 43.7714C271.764 44.3262 269.312 44.5284 266.919 45.0698C265.74 45.3363 264.577 45.4661 263.367 45.522C262.29 45.5721 260.737 45.1341 259.791 45.2723C258.895 45.4033 259.201 45.9711 258.572 46.3647C258.316 46.5244 257.796 46.4099 257.636 46.5385C257.199 46.8915 257.072 47.199 256.753 47.8384C255.739 49.8696 254.206 51.8495 252.903 53.7103C251.805 55.2778 250.533 57.1972 249.242 58.5959C246.505 61.5617 243.846 64.8296 241.144 67.9286C239.77 69.5053 238.121 71.1827 236.524 72.5381C236.031 72.9566 235.034 73.333 234.782 73.9188C234.423 74.7539 235.401 76.5917 235.629 77.431C236.171 79.4266 236.245 81.4876 236.821 83.453C237.371 85.3325 237.572 87.3821 237.694 89.3413C237.97 93.7697 238.573 97.97 238.432 102.401C238.309 106.222 238.17 109.887 236.847 113.639C235.643 117.054 232.037 120.771 228.683 122.03C226.687 122.779 224.832 123.46 222.823 123.866C220.839 124.267 218.748 124.678 216.778 125.243C213.123 126.29 209.27 127.022 205.474 127.381C200.615 127.84 195.546 127.884 190.7 127.715C188.49 127.638 186.219 127.633 184.038 127.64C181.778 127.647 179.649 128.094 177.39 128.331C169.417 129.17 160.991 128.496 153.023 129.317C149.084 129.722 145.152 130.503 141.145 130.549C137.558 130.591 133.921 130.353 130.413 130.338C129.3 130.333 128.331 130.422 127.219 130.166C126.633 130.031 125.809 129.505 125.217 129.808C124.7 130.072 124.31 131.188 123.989 131.664C123.289 132.703 122.435 133.538 121.534 134.4C117.957 137.821 114.412 138.973 109.717 140.226C107.561 140.802 106.497 141.103 104.688 142.42C103.213 143.493 101.722 144.264 100.025 144.896C96.6969 146.137 92.7722 145.177 89.6442 144.101C88.1297 143.58 86.5381 143.106 84.9907 142.487C82.8829 141.645 81.1434 140.246 79.0661 139.385C79.3044 141.609 76.9004 142.356 76.1711 143.85C75.6999 144.816 75.9855 146.332 75.483 147.423C75.0172 148.436 74.2966 149.393 73.1732 149.658C71.6422 150.019 68.9054 148.31 67.83 147.313C67.233 146.759 66.7 145.285 65.9689 145.04C65.0154 144.719 63.2675 146.135 62.3652 146.454C58.0463 147.984 53.6699 148.705 49.0327 148.096C44.3342 147.478 40.0271 145.804 35.621 144.217C26.9916 141.108 19.4804 135.991 12.7233 129.828C12.3474 129.485 11.8018 129.18 11.5426 128.73C11.3162 128.338 11.336 127.411 11.1881 127.192C10.7478 126.54 10.0883 126.656 9.26253 126.593C6.71139 126.4 4.68482 125.782 2.70742 124.066C-0.404868 121.366 -1.55616 115.071 3.21483 113.399C4.43436 112.972 5.77664 112.887 7.03734 113.15C7.55733 113.259 9.49164 114.435 9.98571 114.356C10.7348 114.237 10.5892 113.269 10.7882 112.752C11.2929 111.442 12.0031 110.289 12.8594 109.178C14.2825 107.33 16.0166 105.473 17.7962 103.969C19.7293 102.335 21.8581 101.61 24.1595 100.705C25.71 100.095 28.7365 99.0489 30.3788 99.5942C32.5174 100.304 31.4706 102.65 30.123 103.47C28.1982 104.642 25.8884 105.122 23.938 106.308C21.7857 107.616 19.8197 109.409 17.8499 110.981C16.2648 112.247 14.8913 113.809 13.281 115.023C12.854 115.345 12.1568 115.908 12.0241 116.085C11.978 116.147 12.0348 116.647 11.8236 116.87C10.8869 117.857 11.1061 117.745 9.6956 117.399C8.03271 116.991 4.06305 116.068 2.94188 118.136C1.93278 119.998 6.06294 121.675 7.41894 122.243C9.40968 123.076 9.87477 123.913 11.2971 125.501C12.7541 127.129 15.1745 128.235 16.9998 129.448C20.9451 132.07 25.3798 133.931 29.6049 136.014C33.7164 138.041 38.1363 139.5 42.4204 140.918C45.007 141.774 48.1067 142.693 50.8214 142.957C53.5567 143.223 56.1219 142.775 58.8057 142.251C59.8789 142.042 60.6889 141.882 61.8113 141.485C62.311 141.308 63.1265 141.282 63.5233 140.972C64.1386 140.492 63.8828 140.109 63.9918 139.29C64.4684 135.697 66.9524 139.708 68.0519 140.904C68.9001 141.827 69.7353 142.962 70.8519 143.547C72.2514 144.28 72.4942 143.934 72.9528 142.726C73.8114 140.464 74.1342 137.892 77.3784 138.225C74.817 136.026 72.3761 134.158 70.1836 131.515C68.0206 128.909 65.9982 126.108 63.924 123.429C62.2237 121.233 60.7431 118.203 58.5362 116.47C57.8385 115.923 55.7178 114.661 54.9104 114.688C53.7023 114.727 52.6295 116.708 51.328 116.872C49.8905 117.055 49.2287 116.551 48.8181 115.38C48.3923 114.165 49.4101 112.767 49.0663 111.884C48.9706 111.638 48.3587 111.343 48.1696 110.986C47.8852 110.45 47.8646 109.745 47.9497 109.152C48.0766 108.266 48.3888 107.904 48.3221 107.013C48.2447 105.977 47.7922 105.22 48.1487 104.137C48.5226 102.999 49.6735 102.375 50.3918 101.535C51.479 100.263 50.9236 99.3039 50.4875 97.6698C49.5535 94.1733 48.4643 90.7166 47.5166 87.2221C45.3371 87.9139 43.2061 88.6985 41.0152 89.3432C38.9078 89.9639 36.2999 90.5206 34.3446 91.4992C33.1697 92.0874 33.496 91.5471 33.5829 92.8531C33.6386 93.6985 33.9947 94.6435 34.1601 95.477C34.4655 97.017 34.5985 100.991 35.8005 101.726C36.5283 102.172 37.6994 101.524 38.4996 102.424C39.1736 103.181 38.9715 104.281 39.3771 105.123C39.6291 105.646 40.1167 105.845 40.4202 106.325C41.0537 107.33 40.9863 108.175 41.098 109.301C41.1681 110.009 41.0595 112.133 41.4109 112.684C41.8799 113.418 42.8089 113.291 43.5923 113.52C45.5663 114.097 47.3843 115.1 49.0605 116.269C49.9305 117.337 56.1566 123.587 53.4526 124.382C52.1469 124.766 49.8367 121.815 48.897 121.012C47.4403 119.769 45.9147 118.952 44.1386 118.267C39.8037 116.593 35.8817 115.089 31.161 115.784C29.1371 116.081 26.6786 116.981 24.6456 116.783C22.5996 116.584 23.1295 114.752 24.4088 113.731C25.5529 112.817 27.1453 113.074 27.6473 111.542C28.154 109.994 27.61 108.039 28.4231 106.488C29.1173 105.164 30.7539 103.789 32.0173 103.022C32.5681 102.687 33.5124 102.454 33.8002 101.961C34.0362 101.557 33.0637 99.2392 32.9288 98.7576C32.2685 96.3975 31.5487 94.0351 30.9895 91.6493C30.471 89.4382 30.3361 88.2922 32.6573 87.4897C36.2 86.2645 39.9143 85.6917 43.4585 84.5653C42.8302 82.9231 40.8666 84.3049 39.456 84.2478C37.7283 84.1782 35.7292 83.6077 34.0839 83.0751C30.3487 81.8655 27.8071 78.85 27.2299 74.9614C27.1029 74.1083 27.5028 72.3976 27.1933 71.6434C26.9013 70.9308 26.0755 70.5843 25.4721 70.0766C23.9167 68.7687 22.539 66.973 21.6999 65.1144C20.8589 63.2517 20.8002 61.1593 21.2889 59.1936C21.5581 58.1104 21.7102 57.9614 21.3297 56.9372C20.889 55.7526 20.1704 54.6977 19.764 53.4802C19.0984 51.4861 18.7355 49.3362 18.7717 47.2304C18.8129 44.868 19.7572 43.8082 20.3828 41.7253C20.8764 40.0812 20.2028 37.8088 20.3157 35.9844C20.4602 33.6499 21.0556 31.7746 22.0838 29.6967C23.6636 26.5042 26.1651 23.082 29.4211 21.408C30.065 21.0768 31.1233 21.0573 31.6986 20.6725C32.4134 20.1943 32.4694 19.4894 32.7492 18.6517C33.4167 16.6538 34.2501 15.0353 35.6934 13.508C40.3744 8.55467 48.5772 6.8003 55.1555 7.21841C56.3369 7.29383 57.463 7.85476 58.5827 7.52509C59.3585 7.29651 60.1804 6.48557 60.9802 6.14978C61.9923 5.72478 63.0064 5.47629 64.0955 5.36755C66.2464 5.15237 67.9958 5.3798 69.9782 6.10843C70.7265 6.38372 71.4432 6.68428 72.1809 6.98293C73.3455 7.45502 73.2792 7.23027 74.3744 7.01126C76.5573 6.57516 77.8115 6.89793 79.7454 7.83255C80.2609 8.08142 81.0763 8.26635 81.5193 8.61516C82.1468 9.10946 82.4026 10.6115 83.101 10.8918C83.4883 11.0476 84.6861 10.4744 85.1855 10.3929C86.0669 10.2485 86.9299 10.3757 87.8068 10.3661C89.3595 10.3492 91.0006 10.4071 92.4184 11.1437C93.4862 11.6981 94.7713 12.7679 95.6908 13.4804C96.9629 14.466 97.7578 16.3295 99.3463 16.8456C99.9685 17.0478 100.642 16.8433 101.277 17.0156C102.105 17.24 102.9 17.8419 103.571 18.3733C104.724 19.2872 105.7 21.4119 106.875 21.7833C107.659 22.0314 108.878 21.7725 109.776 22.0294C110.902 22.3518 111.836 22.8189 112.67 23.6739C114.263 25.305 114.713 27.716 114.781 29.9275C114.799 30.5237 114.433 32.2045 114.789 32.7337C115.105 33.2031 116.296 33.4738 116.781 33.9555C118.296 35.4613 118.981 37.9708 119.134 40.0337C119.31 42.3877 118.704 44.0467 118.287 46.2992C118.027 47.7032 117.691 46.8039 118.872 47.6309C119.683 48.1987 120.243 48.5957 120.769 49.4871C121.868 51.3506 122.145 53.5476 121.963 55.6714C121.736 58.3213 120.397 60.2963 119.795 62.8034C122.57 62.8034 125.56 63.5393 128.271 64.0527C129.271 64.2422 130.046 64.794 130.934 65.2366C131.7 65.6183 132.272 65.6627 132.995 65.9158C134.744 66.528 134.406 66.4258 135.623 65.173C140.472 60.1825 147.374 57.1696 154.334 57.2676C158.216 57.322 161.971 57.8362 165.6 59.2383C167.105 59.8192 168.777 60.4456 170.111 61.3568C171.657 62.4128 171.887 62.4006 173.931 62.4435C181.331 62.5974 188.513 66.5855 193.898 71.4194C194.38 68.1771 199.628 66.2328 202.169 64.8889C203.038 64.4299 203.836 64.1905 204.263 63.3302C204.663 62.525 204.639 60.8687 204.907 59.9203C205.397 58.1785 205.964 56.0474 205.92 54.2107C205.793 48.8929 204.567 43.5995 204.408 38.2694C204.368 36.9309 204.216 35.4284 204.393 34.1029C204.536 33.035 205.022 32.3692 204.324 31.3806C202.998 29.5041 200.553 29.0354 199.731 26.5651C198.406 22.5842 200.682 18.5134 203.789 16.1457C205.578 14.7826 207.326 14.4939 208.76 12.583C210.051 10.8611 211.142 8.82498 212.614 7.25976C213.849 5.94762 214.973 4.18942 216.387 3.09744C217.838 1.97789 219.967 1.22093 221.699 0.689109C225.857 -0.588187 230.962 -0.283409 233.887 3.28429ZM103.932 103.288C102.965 103.329 101.991 103.438 101.022 103.437C100.433 103.436 99.0631 103.117 98.532 103.342C97.4707 103.793 96.6118 106.259 96.1159 107.243C94.509 110.433 93.2437 113.778 91.6762 116.98C90.8607 118.646 89.6431 119.741 87.7191 119.768C85.5633 119.798 84.5488 118.412 83.1806 116.99C80.4526 114.153 76.7803 111.715 73.3939 109.742C69.7361 107.611 65.3745 105.546 61.2101 104.794C58.4367 104.293 52.0829 102.133 50.3956 105.623C51.2579 105.507 54.549 105.002 54.6885 106.466C54.7934 107.564 50.7448 107.751 50.2446 109.473C51.3033 109.391 54.9573 108.367 55.2142 109.946C55.3507 110.785 53.8239 111.208 53.2868 111.491C52.2224 112.052 51.5816 112.636 50.7436 113.48C52.0364 113.48 53.3108 112.378 54.5383 112.493C55.0446 112.541 55.6534 113.3 56.1139 113.532C56.7673 113.86 57.4726 114.023 58.1931 114.113C59.7618 114.308 60.7114 113.864 61.9622 114.889C63.0853 115.81 64.253 117.025 65.2876 118.049C67.4957 120.237 69.3133 123.013 71.2076 125.471C73.5464 128.506 75.9752 130.915 79.0863 133.188C81.6188 135.038 84.1855 136.236 87.055 137.598C89.8699 138.934 93.4103 140.484 96.6038 140.557C99.1511 140.616 102.335 139.796 104.653 138.705C106.002 138.071 106.492 138.072 107.841 137.82C109.935 137.431 112.359 136.303 114.297 135.418C120.385 132.639 124.242 126.582 126.987 120.654C128.549 117.28 129.525 113.984 130.176 110.333C130.531 108.345 130.84 107.878 128.909 107.055C126.959 106.225 124.851 105.711 122.821 105.125C116.867 103.405 110.08 103.025 103.932 103.288ZM118.477 67.3026C117.87 67.5771 117.547 70.5077 117.274 71.1605C116.058 74.0739 113.899 75.8918 110.735 76.1951C109.752 76.2892 108.15 75.3918 107.446 75.816C106.503 76.3842 106.333 79.1 105.318 79.9909C104.384 80.8115 102.438 81.6787 101.241 81.9942C100.316 82.2377 99.3986 82.1707 98.4772 81.9563C97.9515 81.8341 96.9488 81.1825 96.4342 81.4283C95.5578 81.8472 95.1449 84.0775 94.1446 84.834C92.6818 85.9402 90.359 86.7595 88.5684 86.7389C86.7218 86.7174 84.4959 85.2537 82.8516 85.604C80.8998 86.0198 81.1564 87.8416 80.3043 89.2655C78.4947 92.2895 76.4383 94.8943 73.185 96.3381C69.6659 97.8995 64.6216 98.0982 60.9306 97.3038C58.9243 96.8719 56.9107 96.2612 55.2173 95.1071C53.8682 94.1876 52.8554 92.963 51.606 91.9241L51.4017 91.7579L51.412 91.7946C51.4397 91.8914 51.4679 91.9859 51.4965 92.0778C52.0916 93.9815 52.3558 97.3593 53.538 98.9119C54.5959 100.301 58.269 100.379 60.0374 100.566C64.7764 101.067 68.8517 102.18 73.0321 104.565C77.0334 106.849 80.6882 109.612 84.1524 112.589C84.8641 113.201 85.4329 114.181 86.2937 114.575C87.6996 115.217 87.586 114.467 87.9577 113.211C88.7206 110.635 89.5295 108.09 90.6918 105.661C91.1893 104.62 92.3219 103.33 92.5648 102.225C92.7973 101.164 92.3197 100.007 92.4821 98.8686C92.8919 95.992 94.1861 93.5392 95.8082 91.2129C96.9343 89.5982 100.304 86.8491 99.8732 90.9131C99.5553 93.9141 97.3716 96.5728 96.8345 99.5214C98.4901 99.2116 99.5293 99.302 101.02 99.3966C103.054 99.5256 105.367 98.7269 107.463 98.72C111.483 98.7074 115.442 98.9704 119.393 99.6891C121.223 100.022 122.965 100.399 124.73 101.027C126.116 101.52 127.959 103.093 129.436 103.212C130.506 103.299 130.133 103.44 130.424 102.524C130.695 101.673 130.404 100.143 130.35 99.2511C130.227 97.2321 129.745 95.2672 129.495 93.2617C129.388 92.4009 128.364 88.8133 129.444 88.118C131.097 87.054 131.788 91.2289 131.998 91.9767C133.076 95.8101 133.77 99.5869 133.738 103.595C133.71 107.061 133.48 110.393 132.834 113.839C132.452 115.874 131.751 117.829 130.965 119.738C130.551 120.743 128.122 124.555 128.46 125.226C128.731 125.764 132.858 124.827 133.493 124.773C135.752 124.579 138.017 124.714 140.278 124.579C143.621 124.38 146.989 124.421 150.19 123.829C152.099 123.476 154.124 123.814 156.031 123.826C158.135 123.84 160.167 123.645 162.284 123.846C163.892 123.999 166.304 124.85 167.855 124.496C169.443 124.134 168.974 123.068 168.985 121.446C169.011 117.527 168.663 113.018 167.791 109.207C167.331 107.198 166.712 105.254 166.382 103.211C166.052 101.168 166.069 98.9601 165.455 96.9817C164.365 93.4715 161.37 90.4245 158.889 87.8305C156.336 85.161 153.497 83.2229 150.364 81.3085C147.702 79.6816 144.889 78.1539 142.005 76.8812C138.544 75.3535 134.613 74.4116 131.405 72.4003C128.735 70.7267 124.874 69.0765 121.794 68.3016C121.306 68.179 118.822 67.1472 118.477 67.3026ZM213.565 34.861C211.344 35.1742 207.192 34.0857 207.194 37.1583C207.195 38.8437 207.752 40.6111 207.911 42.2973C208.097 44.2872 207.968 46.2896 208.27 48.2718C208.759 51.4804 209.477 54.4435 209.237 57.7401C208.975 61.3235 208.23 64.7668 208.3 68.4015C208.365 71.8604 208.18 75.1957 209.818 78.3698C210.509 79.7099 211.07 81.2843 211.83 82.5383C212.722 84.0078 213.494 84.4381 215.087 85.0301C216.084 85.4007 218.541 85.8831 219.187 86.8821C220.12 88.324 218.874 88.9071 217.647 88.8581C213.857 88.7069 209.965 87.01 206.412 85.7706C204.74 85.1871 203.131 84.4523 201.488 83.8156C200.175 83.3067 199.104 83.131 197.91 82.263C195.001 80.1476 192.754 77.2239 189.885 75.0541C184.456 70.9492 177.947 68.4984 171.129 67.7713C169.374 67.584 168.016 67.6683 166.259 67.8176C165.287 67.9003 164.324 67.9267 163.362 68.1059C162.806 68.2097 160.715 69.2063 160.281 68.9992C157.461 67.6537 165.447 63.558 166.346 63.334C165.211 62.5319 162.854 62.6701 161.493 62.4917C159.755 62.2635 158.065 62.041 156.31 62.1372C153.856 62.2719 151.247 62.1992 148.838 62.7306C145.821 63.3961 142.964 64.418 140.238 65.8519C139.327 66.3305 138.047 66.9125 138.056 68.2464C138.064 69.5 138.561 69.2948 139.778 69.5723C143.055 70.3209 146.088 72.5002 149.008 74.1608C152.112 75.9259 155.204 77.9092 158.085 80.0243C163.608 84.0794 166.76 89.9134 169.213 96.255C170.482 99.5348 171.401 103.365 171.783 106.861C172.208 110.75 171.854 114.662 172.157 118.547C172.228 119.465 172.351 123.129 173.041 123.7C173.565 124.133 176.164 123.359 176.897 123.308C179.96 123.096 183.042 123.117 186.047 122.943C192.398 122.576 198.908 123.089 205.317 122.711C208.541 122.52 211.661 122.066 214.823 121.413C217.761 120.806 221.423 120.734 224.103 119.333C229.263 116.635 232.409 110.132 232.635 104.626C232.881 98.6572 232.474 92.162 231.225 86.2159C230.57 83.098 230.002 80.1307 229.231 77.0496C228.369 73.6003 227.4 70.1658 226.453 66.7589C224.822 60.8947 222.283 55.4313 221.067 49.4209C220.399 46.1147 219.451 42.658 218.462 39.4311C218.098 38.2418 217.379 35.9824 216.531 35.0788C215.64 34.1301 214.892 34.6741 213.565 34.861ZM32.5193 106.283C31.1816 107.142 30.2171 109.072 30.2781 110.664C30.2781 112.766 32.0165 111.871 33.6546 111.947C34.6519 111.993 38.3398 113.02 38.9883 112.029C39.7625 110.845 37.434 111.374 37.1394 110.739C36.5435 109.455 39.2757 108.913 38.9418 107.8C38.6078 106.688 35.8318 109.255 35.2367 107.963C34.6858 106.767 37.4901 105.733 37.0597 104.91C36.6945 104.212 32.9921 105.979 32.5193 106.283ZM38.3282 95.3346C38.3213 96.2302 38.0137 97.4213 36.904 97.2387C35.5182 97.0105 35.0981 94.341 34.9715 93.331C35.859 90.0053 38.3431 93.2946 38.3282 95.3346ZM78.5656 66.7513C76.9633 67.0032 76.7826 67.723 76.0335 68.8276C75.6915 68.5543 75.4796 68.1917 75.398 67.7399C71.6098 69.4521 67.6684 70.7899 63.5595 71.4228C58.9815 72.1285 54.2059 71.0606 49.5542 70.6257C48.9523 70.5694 47.1045 69.8228 46.6139 70.1191C46.2079 70.3645 46.2147 72.4244 46.1816 72.8226C45.9555 75.5365 46.4713 77.9341 46.8685 80.5902C46.9745 81.2973 46.8704 82.8289 47.4259 83.4323C47.8166 83.8565 48.512 83.7022 49.0068 84.3428C50.3406 86.0711 50.7567 89.4188 51.3708 91.6477L51.386 91.7019L51.3889 91.6621C51.579 89.3896 53.3494 90.557 54.6668 91.1527C56.6472 92.0487 58.7226 92.5277 60.8651 92.829C62.5878 93.0714 64.5423 93.6507 66.3097 93.558C68.1658 93.4611 70.449 92.7237 72.256 92.193C73.968 91.6907 74.9127 90.6033 76.0945 89.2031C77.2233 87.8657 78.4516 86.9498 79.67 85.7564C82.7388 82.75 81.8986 76.5209 79.2327 73.5784C81.3897 72.4677 85.1302 70.0261 81.8498 67.5496C81.002 66.909 79.588 66.5905 78.5656 66.7513ZM51.386 91.7019L51.3829 91.7428L51.4017 91.7579L51.386 91.7019ZM61.8948 86.5408C62.7453 86.6055 63.3564 87.2472 63.1327 88.1317C62.8498 89.2489 60.9139 89.9488 59.946 90.0109C57.3808 90.3187 59.8073 86.3827 61.8948 86.5408ZM53.7936 82.242C53.8855 82.8906 53.7944 83.2949 54.3548 83.5055C54.7833 83.6667 55.593 83.3351 56.1199 83.5591C56.6456 83.7831 56.6623 83.9186 56.9852 84.4447C56.6196 85.5926 54.9419 86.8909 53.5958 86.2006C51.9218 85.3422 51.7659 81.9563 52.2249 80.5113C53.0026 78.0624 53.6564 81.2744 53.7936 82.242ZM202.636 69.3108C201.938 69.5655 201.322 70.2872 200.698 70.68C199.036 71.7249 197.219 72.2797 195.628 73.4238C196.764 74.654 197.359 76.3222 198.469 77.506C199.163 78.2469 200.008 78.3292 200.843 78.7313C203.284 79.9063 206.156 81.5592 208.852 82.1209C207.274 80.2678 206.272 78.5911 205.335 76.3394C205 75.5342 204.579 74.6827 204.328 73.8465C203.968 72.6488 204.162 71.3815 203.857 70.1995C203.528 68.9237 203.982 68.8207 202.636 69.3108ZM49.1889 76.3266C49.8987 77.1675 50.4442 79.0623 50.5045 80.1359C49.7557 83.7347 47.2488 78.7694 47.3251 77.1579C47.396 75.6715 48.1737 75.1252 49.1889 76.3266ZM55.9807 74.3575C57.1971 75.3985 57.5944 77.1372 57.7206 78.5738C57.8578 80.1309 57.5033 80.7929 55.9574 79.7921C54.6041 78.9157 53.927 76.5824 53.8569 75.2151C53.8569 73.6568 54.8019 73.3486 55.9807 74.3575ZM80.4533 69.9004C80.7572 71.5253 77.1706 73.1954 77.7562 70.6508C77.6388 69.027 80.1308 68.1789 80.4533 69.9004ZM249.793 40.4932C247.084 43.8116 243.804 45.9186 240.414 48.4261C237.411 50.6476 234.552 53.0475 231.301 54.8915C230.346 55.4333 228.783 55.7484 228.61 56.7546C228.448 57.7007 230.198 60.2415 230.602 61.2672C231.968 64.7266 232.976 68.2767 234.043 71.8463C237.225 66.8703 240.434 61.8117 244.334 57.3124C247.776 53.342 251.306 49.1873 254.315 44.909C252.494 43.7959 250.985 42.261 249.793 40.4932ZM269.65 32.8405C266.633 33.7866 263.158 34.3192 260.013 33.9968C258.588 33.8506 257.184 33.7288 255.745 33.6396C254.667 33.573 252.845 33.0457 251.918 33.8789C251.042 34.6665 251.148 36.234 251.594 37.213C251.883 37.8459 252.283 37.9482 252.545 38.4723C252.629 38.6412 252.379 38.9329 252.596 39.33C253.193 40.4227 255.221 42.2487 256.314 42.805C257.716 43.5191 257.926 42.6886 259.019 41.9692C261.321 40.4549 265.187 40.4273 267.883 40.1547C267.937 40.7367 275.751 37.939 276.522 37.4255C277.964 36.4656 279.654 32.0476 278.12 30.7381C276.268 29.1576 271.442 32.2781 269.65 32.8405ZM217.106 11.7808C216.156 13.2993 214.893 14.9297 213.49 16.0657C211.906 17.3487 209.85 17.8468 208.038 18.7248C206.398 19.5197 204.939 20.316 203.915 21.8499C203.207 22.9108 201.908 24.3995 202.5 25.7668C203.106 27.1654 205.492 28.1464 206.529 29.362C207.956 31.0356 207.958 30.7071 210.096 30.2446C211.164 30.0133 212.178 29.9413 213.269 29.9796C213.711 29.9949 215.201 30.4291 215.593 30.1377C216.094 29.7644 215.601 28.2145 215.665 27.6115C215.762 26.6941 216.086 25.7476 216.394 24.8827C217.616 21.449 219.938 19.1846 222.196 16.581C224.618 13.7875 227.937 11.8268 230.325 9.02025C231.642 7.47072 231.042 6.3753 229.234 5.64973C228.315 5.2814 227.238 5.28293 226.295 4.98926C225.319 4.68564 224.451 4.08758 223.406 4.07571C218.965 3.8969 218.824 9.03288 217.106 11.7808Z" fill="#3B247B"/>
</svg>
