<svg width="143" height="160" viewBox="0 0 143 160" fill="none" xmlns="http://www.w3.org/2000/svg">
<g clip-path="url(#clip0)">
<path fill-rule="evenodd" clip-rule="evenodd" d="M10.3229 102.48C4.1612 64.7199 24.0067 37.3599 60.1769 27.0399C75.4611 22.6399 86.2642 25.9999 99.788 34.9599C111.871 42.9599 120.834 53.8399 123.555 68.7999C125.795 81.4399 124.035 95.9999 118.913 107.36C111.631 123.28 95.6268 132 79.3822 136.48C65.1383 140.4 47.6934 144.48 33.6895 138.16C18.8053 131.6 12.8036 117.52 10.3229 102.48ZM91.5457 154.56C126.996 144.4 148.282 102.4 141.88 66.9599C134.598 27.2799 94.7465 -1.9201 55.2155 9.3599C13.5238 21.2799 -4.32117 58.5599 0.880285 99.6799C3.68107 121.68 13.7639 138.64 31.6889 151.84C48.4936 164.24 72.1802 160.24 91.5457 154.56Z" fill="#FFAB00"/>
<path fill-rule="evenodd" clip-rule="evenodd" d="M56.8959 1.4401C60.2568 -0.7999 82.503 -0.1599 84.1035 1.4401C85.7039 3.0401 84.1035 55.8401 84.1035 61.4401C92.1057 61.4401 114.512 60.6401 112.912 63.0401C111.311 65.4401 72.9004 105.44 70.4997 105.44C68.099 105.44 27.2876 64.6401 27.2876 63.0401C27.2876 61.4401 49.6939 60.6401 56.0957 60.6401C56.8959 47.0401 54.4952 3.0401 56.8959 1.4401Z" fill="#3B247B"/>
<path fill-rule="evenodd" clip-rule="evenodd" d="M28.8883 117.44C38.491 117.44 106.51 118.24 109.711 117.44C112.912 116.64 116.913 123.04 112.912 122.24C108.911 121.44 40.1715 122 36.8905 122.24C26.4876 123.04 21.6863 117.44 28.8883 117.44Z" fill="#3B247B"/>
</g>
<defs>
<clipPath id="clip0">
<rect width="143" height="160" fill="white"/>
</clipPath>
</defs>
</svg>
