<svg width="302" height="227" viewBox="0 0 302 227" fill="none" xmlns="http://www.w3.org/2000/svg">
<g clip-path="url(#clip0)">
<path fill-rule="evenodd" clip-rule="evenodd" d="M234.759 27.3892C234.865 28.3134 236.01 27.6076 236.117 28.1086C236.185 28.4234 235.006 29.2046 234.752 29.4197C235.573 29.9157 236.621 28.773 237.237 28.2942C237.554 28.6391 237.661 28.8203 237.37 29.2149C236.856 29.9116 236.879 28.9885 236.268 29.4732C236.523 29.9018 236.746 29.6562 237.07 29.5409C236.929 30.3656 237.244 29.8436 237.491 30.3659C237.692 30.7906 237.667 31.1045 237.727 31.5789C237.437 32.2469 237.147 32.9152 236.857 33.5832C236.508 34.3868 236.612 34.6452 235.758 34.3765C235.854 34.2098 236.493 33.3946 236.441 33.1942C236.382 32.9651 235.509 32.6483 235.278 32.4559C234.872 32.1174 234.877 31.8272 234.618 31.4636C234.721 31.1255 234.641 30.9674 234.377 30.9901L234.087 31.7737C234.111 32.3297 234.579 32.2776 234.856 32.8088C235.279 33.6216 235.042 33.1419 234.696 33.796C234.356 34.4386 234.318 35.2588 233.76 35.5818C234.06 35.714 234.36 35.8461 234.66 35.9779C233.959 36.7488 235.417 36.3734 235.658 36.2986C235.411 36.8233 235.165 37.3479 234.919 37.8725C234.18 37.4581 233.815 36.6725 233.323 36.0237L232.2 38.117C232.572 38.0824 232.945 38.0481 233.317 38.0135C233.266 38.112 232.788 38.787 232.829 38.9372C232.996 39.5493 234.264 39.2041 234.124 40.0048C234.105 40.1074 232.969 41.2563 232.774 41.3671C233.345 41.6242 233.604 41.5175 233.399 42.1929L232.603 41.7109C232.377 42.1173 232.116 42.5142 231.972 42.9594C231.999 43.2505 231.948 43.5263 231.816 43.787C231.66 44.0202 231.484 44.2377 231.288 44.4393C231.133 44.8487 231.083 47.0832 231.27 47.4476C231.687 46.9076 232.619 47.8608 231.046 47.8608C230.357 47.8608 230.403 47.7172 230.14 48.3237C229.933 48.8011 229.821 49.2175 230.408 49.2633C229.966 50.135 230.061 50.8065 230.021 51.7355C229.988 52.488 229.778 53.2361 229.622 53.9745C229.762 53.7732 229.901 53.5722 230.041 53.3709C230.418 54.176 230.131 54.8541 229.952 55.7157C229.561 55.1981 229.513 56.1215 229.178 56.026C228.496 55.831 229.007 55.6873 228.73 55.2389C228.49 54.8505 228.515 54.7391 228.07 54.5018C227.481 54.187 226.448 54.1752 225.782 54.064C224.661 53.8766 223.539 53.8296 222.405 53.7803C218.161 53.5958 213.932 53.5485 209.689 53.7823C205.785 53.9975 201.786 54.5461 197.958 55.2892C193.883 56.0801 189.897 56.8096 185.949 58.1477C185.187 58.4063 184.423 58.9457 183.661 59.1352C182.937 59.3152 182.212 59.3128 181.458 59.5753C179.653 60.2037 177.784 60.6801 175.965 61.2798C174.004 61.9263 171.881 62.4654 170.015 63.3601C169.205 63.7488 168.469 64.2758 167.658 64.6695C166.895 65.0404 165.612 65.3789 165.208 66.2354C165.051 66.5694 165.078 66.8115 165.176 67.1576C165.372 67.8522 165.526 67.7771 166.058 67.7301C166.798 67.6645 167.756 67.0873 168.475 66.8603C170.443 66.239 172.434 65.7415 174.435 65.2438C178.029 64.3497 181.636 62.7666 185.183 62.1474C187.286 61.7803 189.278 60.7818 191.393 60.4047C191.857 60.3222 193.2 59.6586 193.581 59.888C193.681 59.9486 193.929 60.6769 194.016 60.851C194.328 61.4764 194.686 62.0803 195.105 62.6404C196.369 64.3293 198.065 65.6895 199.578 67.1449C201.307 68.8075 202.809 70.6415 204.404 72.4262C204.542 72.2651 204.681 72.104 204.819 71.9432C204.673 73.0703 205.515 73.8831 206.204 74.6483C207.021 75.5575 207.679 76.412 208.323 77.4486C208.852 78.2986 209.528 79.0429 210.126 79.8173C210.713 80.5793 211.104 81.4988 211.645 82.3199C212.886 84.206 214.107 86.1284 215.359 87.989C215.948 88.8648 216.414 89.8502 216.88 90.8472C217.25 91.6384 218.364 93.2564 218.364 94.024C218.284 94.4 219.097 96.6617 218.228 95.5959C218.089 95.811 217.95 96.0262 217.811 96.2414C218.049 96.1415 218.286 96.0416 218.524 95.9417C217.802 96.597 219.151 96.6812 219.181 97.0474C219.06 97.1636 218.94 97.2797 218.82 97.3959C218.615 97.8198 218.348 97.8747 218.02 97.5608C217.658 97.583 217.585 97.3802 217.182 97.5153C217.567 98.118 218.063 97.737 218.259 98.5699C218.43 99.3038 217.886 99.4612 217.312 99.8952L217.276 99.9225L217.263 99.9658C217.138 100.341 216.782 100.181 216.387 100.1C215.44 99.9041 214.394 99.5296 213.472 99.2415C211.479 98.6187 209.471 98.0937 207.411 97.6678C202.71 96.6957 198.046 96.7415 193.302 96.4341C193.427 95.9133 193.428 95.9591 193.28 95.6364C193.47 96.0502 192.324 95.5099 193.188 96.4241C190.983 96.7853 188.603 96.5136 186.367 96.6339C186.471 96.4016 186.71 96.1344 186.487 95.9662C185.428 97.4999 181.892 96.8423 180.143 97.0619C179.117 97.1911 178.103 97.4385 177.08 97.6013L176.649 97.669C176.29 97.7262 175.931 97.789 175.58 97.8842C175.128 98.0063 174.374 98.5078 173.946 98.3914C174.573 97.124 173.85 98.2211 173.751 98.2356C173.453 98.2797 172.94 98.3802 172.512 98.3802C173 96.4173 173.837 94.6086 174.174 92.5869C174.384 91.3266 174.962 89.2966 173.718 88.4034C173.037 87.9139 171.921 87.8078 171.132 87.6414C170.267 87.459 168.756 87.4664 168.004 86.9767C167.416 86.5939 167.292 86.2422 166.523 85.9495C165.635 85.612 165.226 85.2768 164.329 85.5496C164.694 85.0918 165.205 84.7578 164.489 84.2899C164.195 84.0987 163.62 84.3561 163.517 83.9376C162.986 84.3138 163.112 84.6177 162.969 85.1335C162.982 85.3516 163.04 85.5597 163.142 85.7571C162.86 85.8706 162.579 85.9841 162.298 86.0976C162.477 85.6161 161.952 85.9031 161.847 85.6664C161.691 85.3126 161.784 84.7726 161.784 84.3886C161.204 84.5722 160.598 84.7992 160.344 85.4039C159.634 84.9798 159.916 84.9508 160.28 84.3144C159.684 84.1732 159.558 84.4805 159.467 84.9753C159.153 84.8778 158.838 84.7806 158.523 84.6833C159.232 84.6783 159.403 84.1232 159.419 83.5202C159.144 83.6101 158.868 83.7002 158.592 83.7901C158.535 84.0818 158.479 84.3735 158.422 84.6653C157.988 85.0342 156.857 84.3679 156.491 84.1773C155.213 83.5131 154.745 83.321 154.925 81.8118C155.076 80.5468 155.409 79.2755 155.483 78.004C155.566 76.5914 155.401 75.0807 155.278 73.6726C155.038 70.9477 154.653 68.2625 154.518 65.5263C154.445 64.0449 154.363 62.5632 154.305 61.0809C154.259 59.9028 153.853 58.6064 155.32 58.5018C155.141 57.9313 155.678 57.2716 156.232 56.9592C156.426 56.5167 156.637 56.4771 156.868 56.8409C157.068 56.9039 157.254 56.8743 157.425 56.7517C158.233 56.5681 159.201 55.4198 159.926 55.0057C160.637 54.5999 162.187 54.0099 162.695 53.3266C163.185 52.6654 162.443 52.7399 162.593 52.1339C162.798 51.3057 163.544 52.4951 163.658 52.6606C163.907 52.4097 164.859 51.9392 164.848 51.5744C164.615 51.5327 164.382 51.4911 164.149 51.4494C164.403 51.3019 164.969 50.8615 165.265 50.8033C165.769 50.7042 165.58 50.5763 165.984 51.1328C166.124 50.9147 166.465 50.1979 166.679 50.0528C166.781 49.9833 167.388 49.9372 167.515 49.8923C168.175 49.6585 168.108 49.1439 168.593 48.8992C168.829 48.7807 169.118 48.9627 169.316 48.8764C169.631 48.7381 169.632 48.2661 169.919 48.0949C170.166 47.9466 170.795 48.0698 171.09 47.9619C171.581 47.7825 171.559 47.6155 171.925 47.288C172.438 46.829 172.91 46.8955 173.481 46.5476C174.073 46.187 173.982 45.3751 174.52 45.2202C175.237 45.0136 175.421 45.6946 175.811 45.0219C175.899 44.8708 175.501 44.645 175.751 44.4026C176.059 44.1041 176.186 44.4603 176.327 44.6923L176.815 43.771C177.595 44.1996 177.268 43.6469 177.864 43.3525C178.128 43.2218 178.346 43.4799 178.636 43.322C178.849 43.2062 178.886 42.9537 179.039 42.7974C179.333 42.4968 179.496 42.0842 179.952 41.9411C179.787 41.9925 181.138 41.9535 181.017 41.8956C180.886 41.7023 180.755 41.509 180.623 41.3157C181.33 41.3157 181.947 41.386 182.631 41.1732C182.873 41.0981 183.252 40.9823 183.453 40.828C184.007 40.4038 183.882 40.5073 183.882 39.7281C184.646 40.2152 185.618 40.045 186.371 39.4802C186.765 39.1852 187.017 38.8323 187.448 38.5657C187.633 38.4696 187.822 38.3797 188.013 38.2964C188.252 38.0481 188.492 38.0457 188.733 38.2896C189.072 38.1983 189.069 38.1353 189.332 37.9701C189.407 37.8205 189.488 37.6736 189.574 37.5297C189.856 37.5001 190.135 37.449 190.41 37.3763C191.476 37.0887 192.12 36.3752 193.11 37.0074C193.237 36.7488 193.364 36.4898 193.49 36.2309C193.911 36.8906 194.2 36.2605 194.759 35.9933C194.993 35.8813 195.298 35.8535 195.509 35.7512L195.867 35.836C195.969 35.5227 196.069 35.2094 196.17 34.8961C196.374 34.9756 197.182 35.4104 197.425 35.3874C197.773 35.3546 198.188 34.7643 198.525 34.6529C199.04 34.4829 198.856 34.7075 199.361 34.7111C199.749 34.7138 199.932 34.769 200.268 34.4421C199.134 34.1468 200.565 34.0076 201.043 33.9077C201.787 33.7523 202.171 33.9184 202.688 33.3287H202.151C202.681 32.8454 202.503 33.016 203.061 33.0633C203.237 33.0778 204.001 33.4984 204.002 32.9374C204.724 33.3633 204.732 33.3642 205.475 33.172C205.804 33.0869 206.084 32.81 206.446 32.8035C206.799 32.7973 207.052 32.9572 207.367 32.9229C207.556 32.9028 208.215 32.6548 208.438 32.5735C208.792 32.4443 209.025 32.1686 209.363 32.0619C209.735 31.9439 210.209 32.084 210.6 31.998C211.763 31.7415 212.446 31.0439 213.705 31.4217C213.839 30.2923 215.243 30.5435 215.999 30.66C216.525 30.7413 216.794 30.9547 217.338 30.6963C217.782 30.4862 218.035 30.1528 218.528 29.9849C218.907 29.856 219.417 29.7623 219.813 29.6801C220.057 29.6027 220.307 29.5779 220.562 29.606C220.818 29.642 221.033 29.7538 221.207 29.9409L221.238 29.9778C221.278 29.8846 221.874 29.4422 221.805 29.4969C222.25 29.1401 222.458 29.2764 222.732 28.5818L221.779 28.3802C222.269 28.3471 222.638 28.2904 223.074 28.4816C223.376 28.6137 223.883 29.3139 224.185 29.3145C224.732 29.3151 224.923 28.5434 224.869 28.1417C225.327 29.212 225.719 29.3902 226.749 28.8431C226.87 28.7786 226.991 28.7145 227.112 28.6501C227.357 28.3926 227.6 28.3974 227.843 28.6646L228.275 28.9001C228.448 28.6114 228.62 28.3229 228.794 28.0341C229.161 28.5413 229.511 28.5661 230.11 28.4476C230.523 28.3657 231.371 27.6153 231.676 27.6156C231.853 27.6156 232.078 28.0471 232.373 28.1313C232.86 28.2714 233.618 27.9191 233.792 27.4515C233.884 27.6466 233.976 27.842 234.068 28.0374C234.299 27.8216 234.53 27.6064 234.759 27.3892ZM217.26 99.9189L217.259 99.9355L217.276 99.9225L217.276 99.9219L217.26 99.9189ZM216.662 98.9007V99.8095L216.969 99.8657L217.26 99.9189L217.263 99.8691C217.276 99.4319 217.052 99.1081 216.662 98.9007ZM189.523 95.2846C189.427 95.579 189.332 95.8737 189.236 96.1681C189.558 96.1944 189.881 96.2207 190.204 96.2473C189.977 95.9263 189.75 95.6056 189.523 95.2846ZM151.647 71.9953C152.352 72.2016 152.342 72.1765 152.484 72.8303C153.289 76.5515 150.797 80.8196 152.627 84.357C147.278 84.3136 141.919 84.4206 136.601 85.0487C136.601 83.0222 136.668 81.0002 136.515 78.977C136.445 78.0587 136.342 77.1436 136.248 76.2276C136.13 75.0651 136.168 75.1331 137.117 74.933C137.616 74.8278 137.794 74.5109 138.271 74.3179C138.628 74.1728 138.789 74.3513 139.142 74.4009C139.772 74.4902 139.78 74.3841 140.358 74.2605C141.599 73.9954 142.653 74.09 143.633 73.1616C144.141 73.1176 143.977 73.5893 144.331 73.5432C144.588 73.5095 144.752 73.0277 145.015 72.9127C145.832 72.5542 147.193 72.6417 148.087 72.5297C149 72.4156 149.809 72.0027 150.683 71.8803C151.043 71.8301 151.306 71.8954 151.647 71.9953ZM161.965 82.7352C161.792 83.3786 161.035 82.541 161.023 83.0456L161.024 83.0916L161.025 83.0804C161.065 82.9939 161.831 84.0098 161.786 83.976C162.197 84.2866 162.437 84.2574 162.903 83.9009C162.069 83.8693 162.161 83.3532 161.965 82.7352ZM164.29 83.6444C164.595 83.8123 164.688 83.3828 164.846 83.1206C164.506 82.9507 164.456 83.3461 164.29 83.6444ZM163.348 80.845C163.466 81.2629 163.458 81.5833 163.458 82.0149C164.162 81.915 164.384 81.8635 164.397 81.1125L164.02 81.3498C163.822 80.9576 163.779 80.9272 163.348 80.845ZM157.895 81.5446C158.055 81.4418 158.214 81.3386 158.374 81.2354C158.138 80.8961 157.72 81.2996 157.895 81.5446ZM159.677 75.3003C159.88 75.1934 160.084 75.0864 160.288 74.9794C159.759 74.304 159.721 74.5307 159.677 75.3003ZM158.94 69.9434H158.139C158.296 70.4595 158.94 70.5706 158.94 69.9434ZM237.42 39.9185C237.603 40.0255 237.786 40.1325 237.969 40.2392C237.493 40.6734 236.909 41.1111 237.372 41.6201C237.74 42.0241 239.457 42.2168 239.971 42.364C239.793 42.5698 239.425 43.1319 239.182 43.2735C238.989 43.3855 238.813 42.9419 238.424 43.3838C239.069 43.7189 238.896 43.465 238.728 44.1759C238.629 44.5953 238.276 45.0458 238.077 45.422C237.592 46.3374 237.095 47.2469 236.587 48.1493C235.543 49.9999 234.444 51.8197 233.289 53.6032C233.095 52.5959 233.651 51.4671 233.94 50.4952C234.304 49.2722 234.667 48.0497 235.033 46.8275C235.739 44.4724 236.372 42.1418 237.42 39.9185ZM209.406 42.9916C208.885 43.1249 208.543 43.2118 208.003 43.3495C208.787 43.5996 208.787 43.5996 209.406 42.9916ZM232.506 38.4519C231.841 38.764 231.77 38.9907 232.308 39.3726C232.372 39.0755 232.419 38.8577 232.506 38.4519ZM232.425 31.0658C232.335 31.4622 231.776 31.0809 231.652 31.3705C231.368 32.0332 232.27 31.9433 232.595 31.9034C232.539 31.6241 232.482 31.3451 232.425 31.0658ZM236.196 30.5627C236.017 31.4101 236.017 31.4101 236.842 31.5375C236.626 31.2112 236.444 30.9375 236.196 30.5627ZM221.238 29.9778L221.237 29.9868C221.238 29.9919 221.243 29.9944 221.253 29.9937L221.238 29.9778Z" fill="#FFAB00"/>
<path fill-rule="evenodd" clip-rule="evenodd" d="M116.967 118.736C116.842 119.381 116.529 119.685 116.857 120.278C117.135 120.781 117.932 121.111 118.467 120.983L116.967 118.736ZM102.464 95.7862L99.8236 96.6933C100.545 97.403 101.233 98.149 102.029 98.7792L102.464 95.7862ZM146.018 98.1094C144.759 97.4733 143.348 97.4015 141.967 97.3199C142.177 98.4558 142.387 99.592 142.598 100.728C143.737 99.8551 144.878 98.9822 146.018 98.1094ZM115.779 186.041C115.527 185.595 113.813 182.149 113.457 182.326C113.268 182.42 113.253 184.338 113.225 184.611C113.127 185.582 113.029 186.552 112.931 187.523C113.944 187.164 115.027 186.866 115.779 186.041ZM103.802 158.182C104.062 158.943 104.321 159.705 104.58 160.467C104.704 160.829 104.776 161.363 104.994 161.682C105.278 162.097 105.064 162.341 105.442 161.887C105.849 161.4 105.97 160.1 106.146 159.503C106.415 158.595 106.682 157.689 106.95 156.782C105.688 156.771 104.922 157.813 103.802 158.182ZM77.2707 113.332C75.7182 114.395 74.1466 115.45 72.7958 116.772C73.9841 116.698 75.6386 117.517 76.7578 117.132C77.2745 117.243 77.4453 117.046 77.2707 116.542V115.494V113.332ZM100.29 120.855V127.064C101.739 125.826 103.265 124.676 104.66 123.374C103.203 122.534 101.747 121.695 100.29 120.855ZM152.108 136.943C151.651 139.707 151.625 142.552 151.5 145.349C151.478 145.846 151.287 146.593 151.617 147.028C151.948 147.464 152.892 147.705 153.371 147.938C154.72 148.594 156.061 149.268 157.406 149.932C155.64 145.602 153.874 141.273 152.108 136.943ZM186.363 119.944C189.692 118.304 193.021 116.664 196.349 115.024C193.086 113.639 189.822 112.255 186.559 110.87C186.494 113.894 186.428 116.919 186.363 119.944ZM152.101 127.664C152.709 127.708 152.805 125.386 152.906 124.772C153.098 123.606 153.294 122.441 153.496 121.277C153.899 118.949 154.322 116.626 154.768 114.306C155.66 109.668 156.644 105.047 157.734 100.452C156.562 100.24 155.486 100.088 154.342 99.7466C153.418 99.4705 152.318 99.6207 151.493 99.0467C151.386 101.2 151.922 103.489 152.121 105.642C152.351 108.134 152.474 110.612 152.454 113.115C152.414 117.965 152.23 122.816 152.101 127.664ZM75.4855 193.376C76.0624 193.222 75.277 185.297 75.2419 184.154C75.1416 180.845 75.1222 177.533 75.1811 174.224C72.0733 176.177 68.8931 177.976 65.61 179.598C66.4538 180.695 67.2445 181.878 68.1782 182.899C69.1403 183.95 70.2439 184.812 71.1354 185.944C72.9303 188.224 74.1598 190.813 75.4855 193.376ZM150.274 146.493C150.418 144.109 150.552 141.73 150.792 139.353C150.895 138.342 151.87 132.967 150.308 133.094C149.42 133.166 147.862 134.468 147.047 134.925C145.972 135.528 144.894 136.129 143.813 136.723C141.68 137.895 139.532 139.04 137.391 140.198C141.685 142.296 145.979 144.395 150.274 146.493ZM141.002 96.9253C139.223 96.7923 137.504 96.6599 135.75 96.328C134.803 96.1489 133.857 96.1737 132.906 96.0528C132.225 95.9662 130.893 95.4055 130.259 95.5891C129.461 95.8196 129.172 99.8249 129.062 100.83C128.885 102.449 128.766 104.414 129.488 105.935C130.879 108.867 134.626 106.578 136.449 105.348C138.012 104.294 139.783 103.226 141.169 101.946C142.396 100.812 141.294 98.3908 141.002 96.9253ZM150.226 128.81C151.566 128.267 151.545 127.585 151.604 126.18C151.674 124.472 151.716 122.763 151.764 121.055C151.851 118.011 151.933 114.966 151.906 111.92C151.88 108.945 151.734 105.975 151.395 103.019C151.275 101.973 151.394 100.188 150.844 99.2958C150.343 98.4824 148.785 98.4739 147.936 98.5241C146.978 98.5806 146.202 99.4924 145.495 100.069C144.712 100.707 143.103 101.607 142.975 102.559C142.831 103.622 143.414 105.14 143.64 106.171C144.466 109.936 145.471 113.664 146.53 117.369C147.628 121.212 148.741 125.095 150.226 128.81ZM116.178 119.799C116.265 118.953 116.579 118.246 116.154 117.441C115.789 116.748 115.195 116.052 114.749 115.396C113.472 113.517 112.04 111.718 110.649 109.923C109.375 108.279 108.069 106.653 106.734 105.059C105.99 104.172 105.223 103.303 104.461 102.431C103.903 101.793 103.374 100.896 102.584 100.562C102.003 104.227 101.522 107.907 101.147 111.598C100.966 113.383 100.809 115.17 100.678 116.958C100.641 117.463 100.25 119.168 100.5 119.639C100.763 120.133 102.369 120.793 102.86 121.096C104.234 121.943 105.302 123.218 106.609 121.826C107.509 120.868 108.234 119.517 109.24 118.681C109.764 118.246 110.257 118.266 110.845 118.007C111.528 117.707 111.55 117.418 112.366 117.826C113.742 118.515 114.578 119.532 116.178 119.799ZM47.2995 138.652C47.2995 141.189 47.1264 143.274 48.8423 145.328C50.3417 147.123 51.8997 147.538 54.0087 148.246C55.2506 148.663 55.3373 148.279 56.3436 147.575C57.3 146.906 58.3414 146.37 59.2846 145.68C61.3175 144.193 63.3489 142.66 65.3246 141.096C65.9887 140.57 65.8908 140.749 65.79 140.118C65.6976 139.543 65.2859 138.812 65.0609 138.265C64.6539 137.275 64.1744 136.318 63.6945 135.363C63.1498 134.278 62.6753 133.101 61.9987 132.09C61.718 131.671 61.3847 131.291 61.057 130.909C60.3672 130.103 60.3917 130.133 59.5668 130.791C57.8253 132.181 56.205 133.686 54.2449 134.773C51.926 136.059 49.6126 137.354 47.2995 138.652ZM99.8101 119.001C100.062 115.359 100.345 111.737 100.781 108.111C101.005 106.25 101.265 104.393 101.519 102.536C101.622 101.779 102.02 100.51 101.798 99.775C101.58 99.0517 100.618 98.3633 100.09 97.8401C99.9484 97.6995 99.5122 97.1092 99.3246 97.0826C99.1238 97.0545 98.3679 97.6093 98.15 97.7343C97.379 98.1774 96.622 98.6432 95.8764 99.128C94.4714 100.042 93.11 101.022 91.7779 102.039C88.9844 104.172 86.3203 106.466 83.5861 108.674C86.0912 110.874 89.1746 112.583 91.9755 114.365C93.6315 115.418 95.296 116.461 96.9821 117.465C97.837 117.974 98.8286 118.753 99.8101 119.001ZM65.5655 184.128C63.5426 185.468 61.6109 186.883 59.3232 187.743C57.0458 188.6 54.795 188.929 52.4412 189.438C51.2541 189.695 50.1385 189.976 48.9269 190.156C48.248 190.256 47.1972 190.218 46.5782 190.505C46.0269 190.387 45.8305 190.576 45.9895 191.07C45.9954 191.224 46.0013 191.377 46.0072 191.531C46.1632 193.669 47.5343 196.242 48.7302 197.98C49.4283 198.995 50.3178 199.939 51.2016 200.792C52.1997 201.755 52.7751 202.435 54.1662 202.031C56.5111 201.351 58.5806 199.981 60.9574 199.377C62.8375 198.9 64.3991 197.899 66.2326 197.381C68.4938 196.741 70.7314 196.013 73.0238 195.479C71.9998 193.498 71.0841 191.436 69.7732 189.621C68.4286 187.759 66.946 185.97 65.5655 184.128ZM77.972 117.471C82.2023 118.315 86.7875 119.096 90.5737 121.285C92.0513 122.139 93.9243 123.459 94.357 125.226C94.8743 127.337 92.8405 128.645 91.1417 129.304C89.102 130.096 86.8819 130.399 84.7207 130.648C83.5767 130.781 82.4274 130.853 81.2781 130.918C80.3479 130.971 78.7703 130.766 77.9201 131.136C77.3875 131.029 77.2028 131.246 77.3662 131.785C77.3562 131.979 77.3465 132.173 77.3367 132.366L77.2485 134.107C77.1899 135.266 77.1312 136.426 77.0722 137.585C76.9445 140.111 76.8165 142.636 76.6888 145.162C78.9045 143.786 80.6903 141.816 82.8559 140.348C83.8855 139.65 84.9077 138.951 85.9331 138.255C86.3631 137.964 86.6259 137.555 87.0491 137.283C87.6103 136.923 88.1079 136.706 88.6343 136.234C90.7843 134.307 93.1752 132.641 95.4555 130.872C96.4913 130.069 97.6253 129.33 98.6109 128.467C99.6431 127.564 99.5004 126.82 99.475 125.522C99.4485 124.147 99.9519 122.44 99.7183 121.115C99.9145 120.665 99.7638 120.385 99.2668 120.275C98.9347 120.062 98.603 119.849 98.2709 119.637C97.6088 119.212 96.9467 118.788 96.2846 118.364C93.6506 116.676 91.017 114.987 88.383 113.299C87.0674 112.456 85.7517 111.613 84.4358 110.769C84.0683 110.534 82.8698 109.47 82.4575 109.501C82.0369 109.533 81.3073 110.356 80.992 110.618C80.5083 111.019 80.0388 111.442 79.5162 111.793C79.2558 111.974 78.9839 112.136 78.7007 112.278C78.248 112.321 78.0908 112.571 78.2286 113.025C77.831 114.303 78.0496 116.128 77.972 117.471ZM136.635 177.722C135.678 173.234 134.442 167.919 130.706 164.866C126.916 161.77 121.376 162.966 118.412 166.603C116.927 168.424 116.007 170.577 115.323 172.808C114.621 175.098 113.587 178.082 113.776 180.504C113.859 181.566 114.767 182.707 115.286 183.633C115.821 184.59 116.176 185.962 117.438 185.631C119.394 185.117 121.384 183.937 123.214 183.092C125.066 182.238 127.015 181.535 128.935 180.71C130.21 180.162 131.533 179.745 132.805 179.189C134.01 178.663 135.601 178.536 136.635 177.722ZM193.24 150.99C195.912 151.948 197.301 150.414 199.181 148.687C200.962 147.05 202.892 145.477 204.532 143.698C206.223 141.865 207.561 139.697 208.861 137.579C210.176 135.439 211.953 133.127 212.763 130.743C213.174 129.53 213.35 128.186 213.61 126.933C213.672 126.631 214.091 125.508 213.958 125.254C213.775 124.905 212.608 124.868 212.288 124.817C209.738 124.413 207.037 124.393 204.479 124.754C199.531 125.453 195.393 128.234 193.829 133.097C191.996 138.797 192.877 145.133 193.24 150.99ZM175.916 101.546C175.874 102.533 178.235 102.807 178.847 103.037C180.261 103.569 181.667 104.13 183.039 104.759C185.867 106.054 188.882 106.898 191.589 108.464C197.425 111.84 203.761 114.219 209.657 117.448C210.576 117.952 212.371 119.164 213.42 119.061C213.978 119.007 213.563 119.457 213.924 118.568C214.055 118.248 214.098 117.832 214.171 117.49C214.389 116.463 214.558 115.427 214.804 114.406C215.207 112.726 215.62 111.167 215.79 109.44C215.862 108.708 215.941 107.977 215.95 107.241C215.959 106.495 216.13 104.626 215.794 103.98C215.571 103.552 215.526 103.699 214.97 103.578C214.651 103.509 214.316 103.365 214.008 103.269C213.286 103.044 212.563 102.827 211.806 102.761C211.058 102.696 210.58 102.467 209.878 102.335C209.142 102.196 208.386 102.364 207.636 102.171C206.827 101.961 206.44 101.77 205.594 101.85C204.774 101.927 204.538 101.745 203.735 101.521C203.065 101.334 202.266 101.465 201.568 101.408C200.722 101.339 199.879 101.233 199.033 101.166C195.228 100.864 191.379 101.312 187.566 101.276C185.492 101.257 183.463 101.564 181.392 101.469C179.583 101.386 177.712 101.406 175.916 101.546ZM185.813 121.641C183.962 122.348 182.246 123.495 180.53 124.483C178.552 125.623 176.658 126.833 174.827 128.2C171.748 130.498 168.155 133.253 167.345 137.262C166.513 141.377 170.079 144.749 173.422 146.432C177.234 148.352 181.67 149.345 185.846 150.078C185.399 140.605 185.504 131.117 185.813 121.641ZM130.447 143.943C129.324 144.254 128.373 144.92 127.332 145.413C126.399 145.854 125.496 146.187 124.624 146.755C123.204 147.681 121.558 148.474 120.074 149.19C116.4 150.961 112.834 153.161 109.197 155.124C108.233 155.645 107.917 155.973 107.59 157.045C107.236 158.208 106.902 159.379 106.56 160.547C106.242 161.636 105.733 162.8 105.867 163.949C105.984 164.949 106.5 165.893 106.889 166.805C107.869 169.1 108.931 171.359 110.028 173.6C111.013 175.611 111.912 177.746 113.176 179.595C114.158 174.459 115.04 168.706 118.848 164.792C122.653 160.882 128.724 160.827 132.391 164.863C134.133 166.781 135.194 169.196 136.027 171.622C136.465 172.897 136.759 174.196 137.04 175.512C137.341 176.919 137.267 177.665 138.816 177.239C140.045 176.9 141.349 176.63 142.554 176.244C143.179 176.044 143.789 175.819 143.817 175.324C143.853 174.699 143.013 173.419 142.765 172.831C141.485 169.795 140.203 166.759 138.922 163.723C137.531 160.426 136.14 157.13 134.748 153.833C134.054 152.189 133.359 150.544 132.665 148.899C132.031 147.4 131.504 145.174 130.447 143.943ZM185.917 118.307C185.938 116.808 185.962 115.309 185.982 113.81C185.994 112.917 186.391 111.19 185.615 110.552C185.133 110.156 183.706 109.853 183.097 109.582C181.896 109.048 180.595 108.81 179.387 108.28C174.654 106.202 169.73 104.472 164.857 102.797C163.807 102.436 162.733 102.141 161.675 101.785C161.104 101.593 158.989 100.466 158.461 100.761C157.998 101.019 157.65 104.093 157.501 104.731C157.151 106.242 156.816 107.757 156.493 109.274C155.243 115.166 154.194 121.098 153.218 127.041C155.81 126.055 158.294 124.346 160.743 123.025C163.286 121.652 165.821 120.283 168.382 118.943C169.105 118.564 171.648 116.824 172.243 117.507C173.198 118.603 170.923 119.888 170.326 120.357C168.016 122.173 165.576 123.756 163.106 125.339C160.546 126.981 157.883 128.431 155.31 130.043C154.381 130.624 152.898 131.332 152.533 132.315C152.064 133.579 152.403 135.115 152.83 136.322C153.88 139.29 155.03 142.22 156.246 145.123C156.799 146.442 157.366 147.756 157.944 149.065C158.632 150.624 159.535 150.953 161.034 151.671C167.42 154.727 174.053 157.627 180.187 161.164C179.161 162.35 176.659 160.403 175.646 159.91C173.769 158.996 171.891 158.086 170.017 157.17C166.524 155.464 163.049 153.723 159.536 152.058C161.787 157.189 164.444 162.133 167.39 166.897C166.646 167.149 166.827 167.162 166.36 166.714C165.967 166.336 165.703 165.597 165.437 165.123C164.886 164.144 164.343 163.161 163.788 162.184C162.638 160.156 161.445 158.16 160.394 156.077C159.604 154.511 158.991 151.774 157.367 150.984C155.343 150 153.292 149.042 151.268 148.044C151.268 155.845 151.827 163.474 152.649 171.227C152.69 171.618 153.064 172.772 152.31 172.659C151.97 172.608 151.855 170.469 151.796 170.022C151.521 167.974 151.289 165.921 151.098 163.864C150.719 159.759 150.513 155.637 150.487 151.514C150.001 155.523 149.515 159.531 149.03 163.539L148.339 169.237C148.218 170.235 148.097 171.232 147.976 172.23C147.921 172.688 147.956 173.287 147.795 173.724C147.543 174.412 147.628 174.36 146.835 174.673C147.593 169.454 148.293 164.225 148.912 158.987C149.214 156.432 149.497 153.874 149.758 151.313C149.828 150.625 149.897 149.936 149.964 149.247C149.998 148.896 150.3 147.767 150.133 147.475C149.967 147.186 148.866 146.885 148.549 146.737C147.855 146.415 147.161 146.092 146.467 145.768C144.216 144.713 141.967 143.65 139.741 142.545C138.767 142.061 137.746 141.313 136.687 141.055C135.633 140.798 134.866 141.534 133.964 142.001C133.263 142.365 131.61 142.85 131.141 143.468C130.705 144.043 132.059 146.345 132.415 147.193C133.419 149.588 134.423 151.982 135.427 154.376C137.462 159.231 139.498 164.085 141.533 168.94C142.031 170.126 142.528 171.313 143.026 172.5C143.345 173.26 143.877 175.427 144.651 175.512C144.993 175.55 145.555 175.176 145.886 175.069C146.38 174.909 146.836 174.912 147.331 174.827C148.239 174.673 149.181 174.204 150.073 173.874C152.364 173.028 154.74 172.481 157.049 171.691C159.37 170.897 161.653 170.004 163.964 169.21C166.063 168.489 168.181 167.667 170.198 166.727C172.328 165.735 174.512 164.86 176.587 163.76C180.366 161.756 184.105 159.885 187.445 157.428C188.23 156.85 189.066 156.27 189.843 155.651C190.524 155.108 191.824 154.438 192.287 153.724C192.464 153.452 192.616 152.918 192.409 152.595C192.188 152.248 191.207 152.279 190.749 152.218C189.303 152.023 187.858 151.828 186.413 151.634C186.524 152.586 186.636 153.538 186.716 154.494C186.773 155.169 187.171 156.953 186.634 157.481C185.896 156.779 186.133 154.677 186.067 153.74C186.032 153.24 186.159 152.26 185.935 151.816C185.69 151.33 185.013 151.336 184.4 151.203C181.797 150.639 179.218 150.166 176.7 149.272C172.446 147.762 167.36 145.212 166.41 140.293C165.42 135.166 169.773 130.724 173.438 127.864C175.632 126.152 177.967 124.67 180.381 123.293C181.51 122.651 182.638 122.007 183.773 121.378C184.187 121.149 185.543 120.678 185.761 120.278C185.984 119.868 185.87 118.774 185.917 118.307ZM94.8984 197.049C94.692 197.15 94.4853 197.251 94.2791 197.352C96.5751 190.795 98.8498 184.267 100.769 177.587C101.696 174.362 102.635 171.141 103.593 167.926C104.007 166.539 105.023 164.629 104.741 163.192C104.435 161.637 103.702 159.983 103.136 158.505C99.5072 160.791 95.8027 162.959 92.1138 165.141C88.8068 167.098 85.4438 168.839 82.1136 170.775C80.4072 171.767 78.6468 172.437 76.8657 173.248C75.4186 173.906 75.9804 175.92 76.0013 177.265C76.0745 182.015 76.0709 186.781 76.3585 191.523C76.4632 193.251 76.3281 195.234 77.4255 196.672C78.829 198.511 80.1308 200.385 81.4108 202.32C81.8903 203.045 83.9049 206.971 84.6561 206.885C85.1466 206.829 85.5981 205.24 85.8435 204.863C86.3722 204.05 87.1452 203.351 87.8489 202.697C90.8878 199.871 94.2599 197.881 97.7645 195.816C101.325 193.718 104.969 191.765 108.597 189.775C109.416 189.326 110.299 189.002 111.113 188.542C111.435 188.361 112.073 188.073 112.276 187.748C112.578 187.263 112.476 185.918 112.539 185.338C112.668 184.153 112.9 182.922 112.913 181.728C112.925 180.548 112.217 179.535 111.704 178.506C109.453 173.991 107.265 169.464 105.307 164.811C103.762 170.214 102.141 175.591 100.626 181.001C99.8345 183.826 98.8811 186.605 97.9526 189.387C97.4787 190.808 97.0018 192.227 96.5285 193.649C96.1598 194.755 95.9684 196.376 94.8984 197.049ZM127.234 95.2341C126.04 95.2474 124.959 95.0715 123.791 94.8218C123.363 94.7304 122.987 94.6917 122.553 94.6533C122.06 94.6098 121.613 94.3426 121.182 94.2903C120.856 94.251 120.286 94.3881 119.975 94.4928C119.253 94.7351 119.276 94.6128 119.246 95.4528C119.199 96.7507 119.163 98.0488 119.092 99.3455C118.812 104.45 118.271 109.504 117.53 114.559C117.38 115.581 116.96 116.921 117.191 117.936C117.399 118.851 118.188 119.828 118.709 120.595C119.78 122.173 122.303 122.953 124.079 123.4C125.95 123.872 127.894 124.046 129.672 124.467C130.165 124.584 130.731 124.378 131.256 124.495C131.742 124.603 132.119 124.871 132.568 125.064C133.668 125.537 134.896 125.624 136.032 125.99C138.284 126.714 140.695 126.671 142.949 127.366C143.526 127.544 144.024 127.992 144.578 128.146C145.085 128.286 145.607 128.121 146.138 128.199C147.262 128.365 148.31 128.75 148.569 129.959C149.257 129.414 149.352 129.557 149.233 128.714C149.157 128.173 148.857 127.514 148.692 126.993C148.273 125.664 147.851 124.335 147.432 123.006C146.603 120.375 145.779 117.742 145.015 115.091C144.331 112.72 143.709 110.332 143.166 107.924C142.89 106.701 142.659 105.471 142.422 104.241C142.353 103.884 142.421 103.316 142.063 103.079C141.739 102.863 140.981 103.636 140.638 103.885C138.242 105.625 132.747 110.769 129.752 107.734C128.139 106.1 128.233 103.228 128.409 101.117C128.516 99.819 128.743 98.5383 128.998 97.2626C129.061 96.9443 129.449 95.9216 129.307 95.6949C129.154 95.451 127.555 95.3056 127.234 95.2341ZM211.41 123.625C212.048 123.697 212.686 123.769 213.323 123.841C213.265 123.324 213.317 122.548 213.122 122.067C212.852 121.402 212.192 121.328 211.466 121.052C210.317 120.617 209.145 120.238 208.009 119.77C205.542 118.753 203.088 117.721 200.62 116.704C199.539 116.258 198.268 115.528 197.094 115.892C195.827 116.285 194.577 117.086 193.393 117.672C192.053 118.336 190.713 119.001 189.374 119.666C188.746 119.979 188.117 120.29 187.489 120.603C186.502 121.093 186.371 121.142 186.293 122.262C185.896 127.987 185.925 133.935 186.098 139.669C186.187 142.595 186.088 145.537 186.297 148.458C186.313 148.682 186.296 149.95 186.437 150.123C186.634 150.366 188.026 150.449 188.358 150.51C189.654 150.747 190.959 150.826 192.268 150.943C191.96 144.284 190.827 136.41 194.239 130.319C197.667 124.198 204.994 122.873 211.41 123.625ZM151.82 58.1057C152.204 57.2284 152.866 56.4877 153.431 55.718C153.737 55.3019 154.266 54.8044 154.462 54.3176C154.741 53.6248 154.739 53.7732 154.323 53.1664C153.929 52.593 153.937 52.5498 153.328 52.4472C152.816 52.3609 152.27 52.5075 151.746 52.4135C151.217 52.3184 149.762 51.8715 150.096 51.0273C150.081 51.0642 150.923 50.6484 150.988 50.5763C151.2 50.3454 151.267 49.8533 151.371 49.5743C151.707 48.6799 151.825 48.1008 151.451 47.1485C150.891 45.7265 148.679 45.3056 147.301 45.7841C146.613 46.023 146.22 46.5296 145.911 47.1662C145.714 47.5706 145.668 48.1549 145.414 48.507C145.031 49.0369 145.007 48.9781 144.212 48.8844C143.2 48.7653 142.371 48.3757 141.412 48.1041C140.367 47.8079 139.688 48.4103 138.776 48.8959C137.128 49.7732 135.537 50.0776 133.692 50.2168C131.637 50.372 129.732 49.8755 127.698 49.7475C128.225 52.1845 129.591 54.163 130.682 56.3698C130.874 56.7579 131.184 57.1545 131.191 57.6035C131.199 58.0265 130.588 58.602 130.656 58.9519C130.803 59.6985 132.443 60.2962 133.064 60.5063C134.821 61.1001 136.821 62.2626 138.755 61.7956C139.815 61.5397 140.385 59.862 141.383 59.7387C142.721 59.5726 141.72 61.2999 141.472 61.894C143.371 62.1834 145.779 61.9381 147.597 61.2926C148.508 60.9692 149.281 60.4865 150.112 60.008C151.148 59.4121 151.363 59.2484 151.82 58.1057ZM118.577 94.3754C115.191 94.4319 111.755 93.9433 108.36 94.3923C107.574 94.496 106.798 94.6633 106.026 94.8413C105.47 94.9692 103.706 95.0774 103.336 95.4912C102.998 95.8687 102.996 97.6063 102.927 98.0961C102.772 99.1868 102.813 99.5633 103.507 100.407C105.79 103.181 108.168 105.874 110.418 108.679C112.579 111.374 114.353 114.385 116.538 117.042C117.704 113.639 117.774 109.554 118.095 105.986C118.265 104.083 118.421 102.178 118.567 100.274C118.706 98.4594 119.178 96.1051 118.577 94.3754ZM74.7435 130.245C75.1351 130.245 75.7598 130.368 76.1405 130.245C76.664 130.412 76.8389 130.215 76.6658 129.655C76.674 129.459 76.6823 129.263 76.6909 129.067C76.7454 127.802 76.8056 126.538 76.864 125.274C76.9177 124.119 76.9699 122.963 77.0153 121.807C77.0465 121.017 77.4444 119.061 77.1262 118.348C76.9123 117.869 76.406 117.978 75.7899 117.908C75.2039 117.842 74.6161 117.78 74.0333 117.689C73.2936 117.573 72.4738 117.308 71.7211 117.474C70.9649 117.641 70.4152 118.341 69.8218 118.786C68.8828 119.49 67.9234 120.167 66.9764 120.86C65.2553 122.12 63.5515 123.403 61.8448 124.682C61.1399 125.21 61.0045 125.026 61.3481 125.785C61.5608 126.254 62.0441 126.785 62.3385 127.208C62.9245 128.052 63.5081 129.33 64.2599 130.015C65.3538 131.011 68.3888 130.379 69.8419 130.371C71.4988 130.363 73.096 130.389 74.7435 130.245ZM79.0322 130.163C80.4691 130.022 81.9207 130.083 83.3487 129.889C84.9012 129.678 86.4424 129.367 87.992 129.133C89.5368 128.9 94.2363 127.959 93.7724 125.648C93.2823 123.205 89.6845 121.742 87.6938 120.921C84.5847 119.639 81.3388 118.952 78.0684 118.227C77.6582 120.417 77.7172 122.767 77.6423 124.986C77.6016 126.191 77.5659 127.398 77.5665 128.604C77.5665 128.894 77.4671 129.497 77.5853 129.766C77.8632 130.402 78.1864 130.163 79.0322 130.163ZM74.307 131.212H65.1361C66.4933 134.028 67.7762 136.896 69.2394 139.658C70.6966 142.41 72.5729 145.003 74.2262 147.644C74.645 147.188 75.313 146.692 75.5976 146.149C75.9129 145.547 75.904 144.663 75.9556 143.967C76.0895 142.16 76.1506 140.338 76.196 138.527C76.2358 136.941 76.3054 135.366 76.4269 133.784C76.4534 133.437 76.8354 131.635 76.6168 131.339C76.4219 131.075 74.7081 131.215 74.307 131.212ZM112.076 75.9287C113.623 75.9284 115.172 75.9089 116.719 75.9349C118.123 75.9589 119.952 75.7138 121.238 76.4383C123.858 77.9138 118.621 81.7033 117.559 82.6572C119.276 83.2808 121.956 82.0429 123.637 81.4757C125.715 80.7746 127.835 80.3038 129.955 79.7546C130.485 79.6175 132.759 79.3488 133.046 78.9421C133.331 78.5386 132.693 76.1046 132.629 75.5912C132.569 75.1085 132.619 74.356 132.419 73.902C132.542 73.3567 132.351 73.1654 131.845 73.3292C131.671 73.3286 131.497 73.3277 131.322 73.3271C130.032 73.3374 128.741 73.3974 127.452 73.4403C123.021 73.5881 118.698 73.7852 114.305 74.4784C112.262 74.8005 110.202 75.1969 108.17 75.5924C106.46 75.9252 106.748 76.2045 108.345 76.2086C109.594 76.2119 110.833 76.026 112.076 75.9287ZM239.181 43.2738C239.444 42.9709 239.708 42.6676 239.971 42.3644C239.33 42.1808 238.688 41.997 238.047 41.8134C237.365 41.6183 236.997 41.663 237.301 40.8992C237.681 39.9424 239.416 39.8328 240.25 39.7967C243.122 39.6723 246.138 40.588 248.866 41.3946C250.197 41.7883 251.241 42.3975 252.367 43.2076C252.859 43.5614 253.426 43.8937 253.857 44.3187C254.304 44.7603 254.49 45.326 254.927 45.7688C255.644 46.4947 256.561 46.8562 256.913 47.904C257.316 49.1067 256.835 50.4835 256.237 51.5321C255.632 52.5965 254.732 53.4013 254.001 54.3685C253.421 55.1358 252.21 57.2323 254.103 56.9893C255.104 56.8607 256.402 55.15 257.122 54.4684C258.155 53.4909 259.17 52.491 260.264 51.5806C261.234 50.7734 262.351 49.9458 263.648 49.8039C265.014 49.6544 265.697 50.531 266.363 51.5972C266.992 52.6027 267.092 53.5843 267.534 54.6135C267.747 55.1098 268.019 55.3864 268.144 55.9273C268.337 56.7593 268.357 57.6671 268.455 58.5153C268.609 59.8475 268.755 60.895 268.497 62.2003C268.256 63.4219 268.19 64.7194 267.987 65.9623C267.757 67.3698 267.566 68.7838 267.339 70.192C267.147 71.3849 266.416 73.0838 267.133 74.1931C268.855 76.8589 270.92 72.9346 271.464 71.4685C272.42 68.8923 272.907 66.0761 273.751 63.447C274.203 62.0409 274.597 60.6216 274.856 59.1659C275.07 57.962 274.965 56.4954 275.623 55.4231C276.135 54.5901 277.045 53.9576 278.044 54.2118C279.294 54.5301 279.774 56.3408 280.141 57.4415C281.112 60.3446 280.755 62.9593 280.36 65.92C280.177 67.2909 280.002 68.6638 279.688 70.012C279.476 70.9214 278.598 72.7623 279.903 73.2568C281.754 73.9584 283.716 68.6375 284.243 67.436C285.624 64.2891 286.153 61.1681 286.722 57.7962C286.852 57.0209 286.952 56.2291 287.148 55.4671C287.318 54.8038 287.827 54.1335 287.872 53.4702C287.918 52.8064 287.479 52.3432 287.929 51.6915C288.303 51.1491 288.979 51.1163 289.589 51.1115C291.023 51.1003 292.395 51.7314 293.729 52.1892C294.97 52.6151 296.807 53.5497 298.145 53.2488C293.945 48.9757 289.757 44.7511 284.748 41.4233C282.422 39.8777 280.095 38.3925 277.581 37.1321C275.034 35.8555 272.116 34.9934 269.389 34.221C267.906 33.8007 266.431 33.3246 264.967 32.8425C263.663 32.4133 262.35 32.332 261.074 31.8452C258.3 30.788 255.201 30.3783 252.329 29.6287C251.06 29.298 249.778 29.0142 248.507 28.7077C247.171 28.3855 245.294 27.826 243.933 27.8804C242.771 27.9268 242.379 29.2619 241.819 30.1906C241.007 31.5387 240.315 32.9394 239.677 34.3774C238.369 37.3237 236.989 40.3675 236.053 43.4456C235.54 45.1356 235.032 46.8275 234.528 48.5203C234.091 49.9857 232.999 52.0996 233.289 53.6035C235.44 50.2816 237.443 46.8316 239.181 43.2738ZM139.046 73.2698C137.905 73.3218 136.763 73.3735 135.622 73.4255C136.76 77.1734 136.601 81.1642 136.601 85.0489C141.918 84.4208 147.278 84.3138 152.627 84.3573C151.644 82.4573 152.025 79.9926 152.305 77.9581C152.469 76.7673 152.561 75.6202 152.537 74.4186C152.514 73.2916 152.838 72.344 151.647 71.9955C150.702 71.7192 150.104 72.1797 149.204 72.3898C148.125 72.6414 146.951 72.6718 145.853 72.8087C143.567 73.0933 141.364 73.2603 139.046 73.2698ZM108.406 80.5686C111.833 79.616 115.475 79.9671 118.918 79.243C118.135 78.5265 116.659 78.951 115.619 79.0107C114.436 79.0781 113.255 79.1274 112.072 79.1851C110.919 79.2415 107.719 79.154 107.303 80.6248C107.671 80.6062 108.039 80.5873 108.406 80.5686ZM233.79 27.4601C229.306 27.8544 224.609 27.7932 220.158 28.5774C215.06 29.4753 209.745 30.0387 204.802 31.6212C199.953 33.1738 195.008 34.2606 190.228 36.0837C185.581 37.856 181.105 39.7414 176.729 42.1119C174.587 43.2721 172.503 44.5019 170.462 45.8344C168.468 47.1352 166.284 48.2016 164.353 49.5805C162.633 50.808 161.15 51.9338 159.651 53.4377C158.048 55.0456 156.489 56.697 154.885 58.3022C153.546 59.6415 154.393 62.9158 154.478 64.6981C154.596 67.1691 154.799 69.6052 155.101 72.06C155.389 74.3991 155.685 76.9133 155.305 79.2474C155.145 80.2287 154.594 81.9238 154.858 82.9034C155.068 83.6878 156.464 84.263 157.176 84.5187C158.047 84.8314 158.937 84.6996 159.831 85.0974C160.829 85.5422 161.671 86.0967 162.731 86.3305C164.038 86.6187 165.507 86.8611 166.851 86.87C168.092 86.8779 169.338 87.2811 170.577 87.5294C172.591 87.9337 174.557 88.0596 174.432 90.4943C174.287 93.3034 173.175 95.7138 172.513 98.3804C173.408 98.3804 174.033 98.4378 174.853 98.1195C175.81 97.7482 176.831 97.6495 177.837 97.4893C180.06 97.1349 182.227 97.0214 184.464 96.7953C188.562 96.3809 192.731 96.4306 196.833 96.4743C198.909 96.4962 201.162 96.657 203.21 96.9809C205.311 97.3134 207.487 97.5212 209.523 98.1588C211.241 98.6967 213.014 99.0632 214.766 99.5385C215.556 99.7525 216.502 99.9263 217.248 100.166C218.329 100.513 218.907 101.253 220.156 101.237C219.804 98.9193 218.979 96.7696 218.481 94.4715C217.962 92.0714 216.925 89.948 215.78 87.684C215.27 86.674 214.892 85.6022 214.4 84.5837C213.853 83.4508 213.083 82.5123 212.422 81.453C211.07 79.2861 209.627 77.2018 208.298 75.0195C207.139 73.1143 205.814 71.2879 204.544 69.4489C203.149 67.4269 201.209 65.9008 199.625 64.0458C198.957 63.2623 198.32 62.5343 197.571 61.8151C196.881 61.153 195.903 59.6876 194.847 59.619C194.24 59.5794 193.188 59.9217 192.609 60.1052C191.537 60.4454 190.4 60.6671 189.293 60.9665C188.082 61.2943 186.892 61.7208 185.678 62.0324C185.193 62.1568 184.616 62.0977 184.156 62.2387C183.675 62.3865 183.29 62.7119 182.764 62.8612C180.167 63.5995 177.585 64.4377 174.969 65.1099C172.276 65.8021 169.541 66.3915 166.93 67.3719C166.433 67.559 165.879 68.0012 165.496 67.7106C165.211 67.4937 165.027 66.8809 165.102 66.5233C165.353 65.3327 167.253 64.9027 168.168 64.4247C170.619 63.1437 173.055 62.2405 175.69 61.3706C176.988 60.9426 178.281 60.4856 179.597 60.1159C180.697 59.807 181.842 59.2844 182.967 59.1263C183.967 58.9856 184.678 58.5907 185.671 58.2411C187.133 57.7259 188.638 57.3029 190.125 56.8628C192.665 56.1103 195.359 55.794 197.958 55.2895C203.981 54.1205 210.234 53.5352 216.38 53.6077C219.479 53.6443 222.72 53.5536 225.782 54.0643C226.521 54.1873 228.073 54.1636 228.582 54.8278C228.855 55.1842 228.707 55.7148 228.777 56.1011C228.896 56.7531 229.251 57.057 229.558 57.6511C230.212 54.4364 230.963 51.2901 231.807 48.1224C232.571 45.2557 233.277 42.3369 234.297 39.5103C235.376 36.5197 236.684 33.3488 238.297 30.6118C238.629 30.0484 239.457 29.1534 239.528 28.5233C239.602 27.873 238.693 27.3694 238.068 27.2969C236.666 27.1347 235.166 27.4125 233.79 27.4601ZM263.912 73.3936C264.368 68.9343 265.702 64.2699 264.957 59.7928C264.642 57.8976 264.395 56.0884 263.45 54.3776C262.971 53.5125 262.779 52.877 261.866 53.3872C260.942 53.9035 260.091 55.1789 259.325 55.9182C257.917 57.2769 256.442 58.6761 254.756 59.6852C253.427 60.4797 250.789 61.2328 249.79 59.5141C248.839 57.876 250.108 55.5901 251.019 54.2387C252.061 52.6926 254.036 51.2605 252.928 49.3529C252.451 48.5318 251.765 48.3166 251.043 47.7778C250.419 47.3114 249.896 46.7072 249.271 46.2325C247.462 44.8566 245.477 44.2673 243.387 43.481C242.422 43.1178 242.296 42.7761 241.738 43.6064C241.133 44.5081 240.802 45.772 240.364 46.7693C239.487 48.7671 238.553 50.6599 237.422 52.5226C236.282 54.4025 235.271 56.3662 234.193 58.2833C233.787 59.0066 233.404 59.7417 232.923 60.4206C232.661 60.7901 232.337 61.1193 232.125 61.5237C231.81 62.1216 231.95 62.6667 231.754 63.262C230.909 65.8305 229.676 62.2449 229.441 61.4066C229.173 60.4531 228.527 59.7098 228.108 58.8204C227.762 58.0859 227.526 56.9943 226.691 56.6485C226.007 56.3654 225.125 56.754 224.427 56.7919C223.144 56.8616 221.851 56.7576 220.563 56.838C219.358 56.913 218.156 57.0289 216.952 57.1028C215.746 57.177 214.542 56.9728 213.352 57.0999C211.217 57.328 209.034 57.2914 206.904 57.6076C204.404 57.9783 201.93 58.3738 199.423 58.6823C200.006 59.7863 201.213 60.2651 202.168 61.0528C203.021 61.7569 203.697 62.5694 204.556 63.2392C205.428 63.919 205.947 64.9246 206.668 65.7415C207.375 66.5416 208.03 67.2126 208.65 68.1079C211.64 72.4309 214.724 76.5944 217.191 81.2668C218.439 83.6317 219.631 86.1618 220.484 88.699C221.399 91.4203 221.848 94.3388 222.391 97.1526C222.662 98.5551 222.804 99.7389 222.507 101.149C222.429 101.485 222.348 101.82 222.264 102.155C222.004 102.555 222.1 102.814 222.553 102.933C222.818 103.32 223.18 103.465 223.203 103.995C223.22 104.397 222.997 104.862 222.652 105.089C221.985 105.527 221.985 104.936 221.298 105.067C221.04 105.206 220.782 105.346 220.525 105.485C220.389 105.278 220.248 105.073 220.105 104.871C219.667 104.453 219.318 104.491 218.745 104.389C219.036 107.749 218.572 110.749 217.834 114.026C217.479 115.602 216.871 117.145 216.564 118.724C216.222 120.487 216.97 121.291 218.128 122.467C217.834 122.621 217.319 122.788 217.077 123.017C216.691 123.384 216.79 123.428 216.79 124.002C216.791 125.051 216.59 126.085 216.425 127.117C216.121 129.028 215.843 131.005 215.186 132.835C213.994 136.158 212.066 139.609 210.103 142.536C209.004 144.174 207.902 146.035 206.525 147.449C205.143 148.867 203.773 150.298 202.394 151.72C199.679 154.521 196.713 156.455 193.462 158.552C192.174 159.382 190.818 160.292 189.711 161.326C188.585 162.376 187.088 163.112 185.743 163.875C185.143 164.215 184.716 164.705 184.068 164.984C183.459 165.246 183.034 165.332 182.524 165.676C181.257 166.53 179.889 167.259 178.494 167.903C176.793 168.688 175.119 169.601 173.372 170.271C172.576 170.577 171.827 170.91 171.056 171.267C170.222 171.653 169.322 171.907 168.466 172.318C167.743 172.666 167.01 172.868 166.274 173.153C165.673 173.385 165.201 173.761 164.588 174.004C163.315 174.508 162.156 174.779 160.919 175.373C159.276 176.163 157.328 176.531 155.597 177.099C153.664 177.734 151.659 178.365 149.675 178.815C148.831 179.007 148.112 179.257 147.297 179.547C146.766 179.736 146.157 179.839 145.568 180.019C143.942 180.515 142.317 180.994 140.683 181.417C137.49 182.242 134.227 183.233 131.13 184.354C129.506 184.941 127.859 185.648 126.301 186.396C124.54 187.242 122.643 187.73 120.875 188.567C117.461 190.183 114.058 191.847 110.684 193.545C108.911 194.436 107.164 195.354 105.434 196.324C104.806 196.676 104.119 196.821 103.495 197.166C102.68 197.617 102.01 198.279 101.175 198.727C97.9541 200.45 94.6672 202.074 91.7092 204.255C90.1611 205.397 88.4977 206.566 87.16 207.956C86.7185 208.414 85.9535 209.124 85.8735 209.789C85.7559 210.774 85.8662 209.868 86.2062 210.475C86.6772 210.532 86.7837 210.714 86.5268 211.019C86.4082 211.162 86.2563 211.235 86.0714 211.238C85.4766 211.358 84.3638 210.727 83.8858 210.463C83.0573 210.005 82.6176 209.427 82.0856 208.658C80.9301 206.992 79.8026 205.31 78.6126 203.667C77.5423 202.19 76.4947 200.563 75.277 199.206C74.4512 198.286 74.3893 198.688 73.4709 199.207C72.7876 199.592 71.9939 199.757 71.2858 200.12C68.5876 201.506 65.6216 202.529 62.854 203.494C62.2238 203.714 61.8878 204.063 61.334 204.366C60.6285 204.753 59.7349 204.942 58.9805 205.217C56.9022 205.974 54.8342 206.761 52.7706 207.557C51.1775 208.173 49.6465 208.658 48.3993 209.794C47.9029 210.246 47.3022 210.57 46.7896 211.027C46.1927 211.559 45.3855 212.425 44.634 212.725L44.1763 213.084C43.8666 212.868 43.5567 212.652 43.2461 212.438C42.9382 212.224 42.63 212.011 42.3227 211.797C41.5509 211.259 40.7847 210.714 40.0176 210.169C38.2779 208.934 36.5269 207.71 34.9087 206.315C32.0341 203.838 29.0512 201.493 26.0454 199.173C22.8906 196.738 19.8149 194.189 16.5519 191.9C13.5944 189.826 10.3676 188.074 7.50012 185.884C6.05677 184.782 4.61697 183.672 3.14324 182.605C3.06302 182.547 1.86387 181.809 1.85184 181.728C1.83143 181.577 2.22603 181.183 2.34253 181.057C2.89403 180.456 3.50511 179.921 4.05455 179.314C6.61536 176.484 9.95888 176.582 13.4929 176.449C15.0955 176.388 16.8335 177.129 18.3556 177.633C20.2169 178.25 22.0123 179.155 23.8102 179.936C27.5153 181.547 31.3392 182.923 35.0818 184.415C36.5535 185.001 38.0195 185.287 39.5157 185.69C41.0336 186.1 42.5973 185.71 44.2208 185.739C45.0634 185.754 45.86 185.803 46.7085 185.755C47.2122 185.727 47.7926 185.631 48.2902 185.64C48.6933 185.647 49.1118 185.814 49.4828 185.771C51.107 185.587 52.8225 185.328 54.4977 185.117C56.1608 184.906 57.8769 184.802 59.5181 184.473C60.3445 184.308 61.16 184.074 61.9551 183.793C62.6452 183.549 63.8998 183.272 64.466 182.778C64.9727 182.336 64.7512 182.33 64.4687 181.609C64.3569 181.324 64.2413 180.892 64.0756 180.618C63.6276 179.876 63.1946 179.643 63.4553 178.714C63.9145 177.078 65.4797 176.033 66.8195 175.227C69.8378 173.413 72.5982 171.085 75.7763 169.545C82.3247 166.373 88.2928 162.252 94.679 158.769C101.699 154.94 108.339 150.446 115.457 146.779C122.082 143.365 128.676 139.931 135.356 136.625C138.618 135.011 142.307 133.534 145.267 131.418C143.627 131.214 141.983 130.951 140.337 130.805C139.574 130.737 138.802 130.8 138.043 130.679C137.194 130.543 136.392 130.199 135.545 130.056C134.088 129.809 132.778 129.309 131.32 129.124C129.757 128.926 128.226 128.466 126.656 128.337C123.371 128.067 120.406 126.853 117.526 125.323C116.813 124.944 116.227 125.16 115.544 124.903C115.168 124.761 114.769 124.195 114.346 123.89C113.182 123.053 112.183 122.064 111.076 121.149C108.751 126.38 104.184 129.938 99.8257 133.447C97.6182 135.224 95.2223 136.73 92.9921 138.474C91.2632 139.826 89.6931 141.036 87.8475 142.111C86.0753 143.142 84.4104 144.536 82.7208 145.775C81.5756 146.615 80.2334 147.249 79.0157 147.978C78.0207 148.574 76.078 149.463 75.8067 150.544C75.5846 151.427 76.0178 152.478 74.673 152.072C73.4688 151.709 72.5959 150.369 71.8945 149.425C70.0808 146.983 68.3888 144.458 66.7048 141.927C65.8003 143.696 64.2401 144.97 62.798 146.282C61.9218 147.079 61.0122 147.819 60.0658 148.53C59.6069 148.875 59.1427 149.214 58.6829 149.558C58.5018 149.694 58.0913 149.903 57.9739 150.094C57.6997 150.543 57.8663 150.34 57.909 150.881C57.9757 151.73 58.2582 152.398 57.779 153.211C57.3289 153.974 56.3477 154.3 55.66 154.822C54.0237 156.063 52.3032 157.382 50.4879 158.351C50.0759 158.571 49.6863 158.762 49.3026 159.031C48.6621 159.48 48.7792 159.643 48.1336 159.212C47.1241 158.539 46.252 157.421 45.341 156.608C43.4322 154.906 41.5022 153.226 39.5475 151.578C35.8223 148.436 31.9872 145.45 28.3083 142.252C24.8123 139.213 21.0645 136.597 17.4552 133.708C16.4652 132.915 15.4872 132.106 14.5101 131.298C13.6401 130.578 12.2283 129.785 11.5848 128.864C10.6502 127.526 14.306 125.698 15.409 125.426C17.311 124.957 19.7703 125.225 21.6752 125.61C23.6748 126.013 25.711 127.363 27.5781 128.203C29.6827 129.15 31.8262 129.97 33.9464 130.864C34.8919 131.263 35.8943 131.581 36.772 132.118C37.7034 132.688 38.5347 133.338 39.5251 133.817C40.6664 134.367 41.8523 134.881 43.0527 135.288C43.5965 135.472 44.1819 135.658 44.7535 135.732C45.5627 135.838 45.453 135.464 46.1252 135.256C46.6964 135.078 46.8321 135.547 47.3458 135.677C47.8295 135.8 48.1911 135.676 48.6099 135.415C49.5436 134.834 50.3747 134.033 51.3087 133.428C52.1752 132.867 53.1304 132.343 53.9426 131.707C54.3048 131.424 54.5726 131.036 54.9295 130.748C55.5013 130.287 55.7281 130.47 56.3958 130.153C56.9417 129.893 57.4369 129.409 57.9562 129.089C58.2786 128.89 59.0604 128.639 59.2683 128.317C59.8145 127.472 58.8823 126.885 58.0474 127.134C57.9223 126.404 57.2803 124.672 57.5575 123.987C57.8029 123.382 58.447 123.495 58.9888 123.175C61.0249 121.97 62.5275 119.781 64.4324 118.366C66.2282 117.031 67.8125 115.438 69.5915 114.079C71.1154 112.915 72.7808 111.778 74.1684 110.522C75.809 109.038 77.9095 107.883 79.6932 106.558C81.5358 105.19 83.2481 103.667 85.0711 102.283C86.825 100.951 88.5476 99.5601 90.3499 98.2924C91.9696 97.1529 93.6674 96.1125 95.2535 94.9574C96.1224 94.3249 97.0723 93.7692 98.0641 93.3539C99.0504 92.9407 99.913 92.4563 100.876 92.0114C102.79 91.1274 105.282 90.5164 107.363 90.2631C109.651 89.9847 111.948 89.7349 114.258 89.7329C115.488 89.732 116.683 89.9667 117.906 90.0412C119.03 90.1091 120.245 90.3941 121.361 90.3565C121.866 90.3397 122.305 90.1254 122.795 90.1946C123.203 90.2522 123.558 90.4993 123.997 90.5425C124.973 90.6388 125.954 90.5427 126.941 90.6692C129.208 90.9595 131.478 91.3733 133.749 91.6039C136.17 91.8495 138.569 91.8959 140.977 92.3097C143.33 92.7137 145.698 93.1326 148.037 93.5999C153.008 94.593 158.032 95.5628 162.925 97.0374C164.068 97.382 165.219 97.7098 166.318 98.1824C166.852 98.4115 167.364 98.6893 167.921 98.8608C168.718 99.1061 168.875 99.1992 169.285 98.5291C169.992 97.3758 170.381 95.8503 170.894 94.5956C171.401 93.3539 172.017 92.1025 172.311 90.8058C171.456 90.6701 170.377 90.9338 169.495 90.9639C168.417 91.0012 167.35 90.9778 166.272 90.9713C164.101 90.9583 162.403 90.3154 160.348 89.6407C158.617 89.0717 156.311 88.7454 154.99 87.4425C154.282 86.744 154.046 86.6211 152.981 86.7464C151.907 86.8726 150.846 87.0902 149.762 87.1262C145.675 87.2622 141.606 87.9769 137.501 88.1182C136.39 88.1563 133.612 88.6839 133.794 86.7961C133.832 86.4041 134.132 86.0642 134.19 85.6608C134.253 85.2283 134.145 84.7894 134.077 84.3667C133.916 83.3668 133.748 82.3675 133.588 81.3673C129.845 82.5714 126.054 83.5471 122.239 84.5009C120.657 84.8964 118.115 85.8059 116.48 85.3073C114.9 84.8252 115.815 82.5936 116.307 81.5254C113.167 82.2436 109.818 83.4183 106.616 83.6878C105.642 83.77 104.694 83.986 104.467 82.8058C104.287 81.8653 104.964 80.7152 105.31 79.8891C102.853 79.6692 100.308 79.6902 100.771 76.5335C101.194 73.6371 103.595 73.0605 106.151 72.5314C109.306 71.8779 112.528 71.6601 115.703 71.1313C118.466 70.6711 121.481 70.158 124.302 70.3903C125.796 70.5129 127.299 70.541 128.792 70.6796C129.496 70.745 130.174 70.8543 130.856 71.047C131.485 71.2244 132.364 71.7745 133.009 71.7842C133.982 71.7996 135.156 70.4807 136.202 70.176C137.499 69.7983 138.896 69.7297 140.235 69.6372C141.754 69.5328 143.274 69.4746 144.791 69.3513C145.137 69.3233 146.445 69.409 146.718 69.2059C147.115 68.9101 146.851 67.3926 146.823 66.7692C146.797 66.1926 146.908 65.1125 146.509 64.8864C146.135 64.6742 145.043 64.9653 144.674 65.0245C143.146 65.2698 141.694 65.2417 140.172 65.1793C139.469 65.1507 138.793 65.3384 138.097 65.2458C137.35 65.1468 136.598 64.895 135.854 64.7549C134.242 64.4513 132.774 64.0736 131.385 63.1686C130.166 62.3743 128.723 61.8367 128.042 60.4457C127.543 59.4272 127.34 57.4616 128.807 57.172C127.808 55.7275 127.118 54.1048 126.589 52.4357C126.493 52.133 126.429 51.6773 126.285 51.4133C125.778 50.4799 126.249 51.3078 125.525 50.9345C124.81 50.5659 124.294 50.2742 123.735 49.6331C122.844 48.6107 122.469 47.3524 122.357 46.0203C122.204 44.2111 121.918 42.1711 122.182 40.371C122.638 37.253 124.912 34.9103 127.222 33.0246C128.477 32.0007 130.128 31.6194 131.599 30.9981C133.019 30.3981 134.606 29.7691 136.102 29.6284C137.452 29.5013 138.769 29.0594 140.121 28.8812C141.979 28.6359 143.839 28.7275 145.706 28.653C146.565 28.6187 147.423 28.4973 148.278 28.4047C148.761 28.3524 149.578 28.4083 150.021 28.2165C150.745 27.902 150.353 28.5623 150.612 27.6005C151.104 25.7709 151.506 24.0551 152.251 22.2772C152.945 20.6208 153.788 19.0372 154.903 17.6211C155.948 16.2928 157.304 15.3212 158.535 14.1865C159.447 13.3459 160.482 12.5866 161.523 11.9068C162.118 11.5181 162.781 11.3079 163.362 10.9648C164.084 10.5391 164.721 10.2164 165.534 9.95568C167.277 9.39646 169.006 8.80265 170.858 8.83191C172.853 8.86324 174.854 8.39772 176.797 8.98797C180.405 10.0843 182.173 14.003 182.112 17.6016C183.346 17.293 184.425 16.6989 185.732 16.648C186.936 16.6013 188.366 16.706 189.549 16.93C191.844 17.3648 194.204 18.6435 195.573 20.5812C196.878 22.4294 197.073 24.8833 196.271 26.9801C195.887 27.9839 195.278 28.8768 194.629 29.7248C194.154 30.3467 193.093 31.0351 193.043 31.8683C201.926 29.1771 210.845 27.2801 220.035 26.0523C224.693 25.4301 229.359 25.7416 234.022 25.3861C236.014 25.2341 238.179 25.4467 240.238 25.4546C241.107 25.4582 241.784 25.337 242.414 24.773C243.052 24.2026 243.562 23.5039 244.306 24.3273C244.496 24.5375 244.536 25.0459 244.791 25.204C245.101 25.3955 246.001 25.264 246.372 25.2868C247.667 25.366 248.931 25.5862 250.202 25.8398C252.535 26.3053 254.853 26.7758 257.158 27.3667C261.547 28.4919 265.878 29.5802 270.203 30.9159C274.617 32.2788 279.077 33.9603 283.147 36.1665C285.118 37.235 287.087 38.5689 288.9 39.8907C289.742 40.5055 290.497 41.1705 291.23 41.9118C292.014 42.7043 292.972 43.239 293.748 44.0373C295.436 45.7738 297.116 47.6158 298.648 49.4971C299.447 50.4793 300.18 51.5153 300.892 52.5622C301.392 53.2967 302.708 54.6416 302.405 55.5904C302.244 56.097 301.679 56.4514 301.162 56.3272C300.99 56.2858 300.846 56.0612 300.698 56.0399C300.199 55.969 300.653 55.7928 300.071 56.0296C298.913 56.5004 298.543 57.4448 297.072 57.2299C294.572 56.8643 292.22 55.6808 289.946 54.649C289.296 57.1377 289.204 59.7177 288.636 62.2363C288.081 64.6934 287.157 67.0367 286.04 69.2905C285.061 71.2678 283.804 73.3753 282.071 74.7884C280.748 75.8667 277.484 77.2062 276.513 74.9105C276.1 73.9354 276.714 72.4203 276.888 71.4168C277.121 70.0702 277.378 68.7197 277.518 67.3595C277.632 66.2543 277.69 65.1427 277.796 64.0364C277.888 63.0846 278.141 61.0413 277.607 60.2007C277.285 59.6941 277.257 60.1912 277.07 60.697C276.843 61.3103 276.654 61.9186 276.488 62.5502C276.135 63.8924 275.816 65.2438 275.482 66.5907C274.885 68.9972 274.228 71.3512 272.984 73.5151C271.879 75.4366 270.324 77.5446 267.962 77.8594C266.855 78.0066 265.413 77.4997 264.569 76.7528C263.621 75.9148 263.904 74.5327 263.912 73.3936Z" fill="#3B247B"/>
<path fill-rule="evenodd" clip-rule="evenodd" d="M209.957 171.666C211.255 171.409 212.348 170.37 213.409 169.59C214.761 168.595 216.045 167.51 217.358 166.465C219.833 164.495 222.078 162.334 224.213 159.984C228.426 155.349 231.598 149.381 233.04 143.285C233.769 140.2 234.671 136.585 234.257 133.397C234.113 132.29 233.894 132.087 232.81 131.961C232.321 131.904 231.079 131.763 230.638 131.956C229.497 132.456 228.88 134.584 228.542 135.653C227.541 138.81 226.953 142.08 226.049 145.263C225.163 148.384 223.735 151.549 222.323 154.467C219.18 160.959 214.813 166.39 209.957 171.666ZM235.716 135.824C234.94 144.664 232.491 153.087 226.999 160.206C224.389 163.59 221.32 166.534 217.993 169.208C214.558 171.97 211.049 174.571 207.151 176.63C206.114 177.179 205.075 177.725 204.025 178.248C203.443 178.538 201.973 179.605 201.302 179.436C200.764 179.301 200.623 178.884 200.539 178.341C200.351 177.123 201.141 176.515 201.939 175.733C205.146 172.59 208.364 169.437 211.362 166.094C217.285 159.492 221.734 151.586 224.207 143.056C224.968 140.429 225.648 137.774 226.47 135.166C226.971 133.577 227.681 130.749 229.346 129.957C230.238 129.532 231.278 129.945 232.217 129.691C233.097 129.452 233.681 128.965 234.431 129.782C235.747 131.215 235.806 134.027 235.716 135.824Z" fill="#3B247B"/>
<path fill-rule="evenodd" clip-rule="evenodd" d="M1.0942 186.831C0.436822 187.064 0.409394 187.296 0.108279 186.618C-0.0433108 186.276 -0.00231669 185.809 0.0333689 185.454C0.118896 184.604 0.565408 183.818 0.932291 183.064C4.38524 185.919 7.9706 188.492 11.673 191.014C15.6327 193.711 19.4133 196.71 23.1582 199.698C26.5118 202.373 29.9057 204.97 33.2242 207.679C34.8247 208.986 36.6494 209.999 38.1709 211.345C39.4004 212.433 41.4395 212.921 42.4877 214.201C40.8267 215.196 38.6091 215.997 36.7685 215.136C34.738 214.187 33.1805 212.95 31.3735 211.663C30.4425 211 29.4742 210.398 28.5284 209.757C27.697 209.192 27.1099 208.369 26.2681 207.84C24.4992 206.728 22.6845 205.502 21.0061 204.232C19.282 202.928 17.3762 201.89 15.7129 200.504C14.0077 199.082 12.0989 198.141 10.3185 196.847C6.54524 194.105 3.22265 191.02 1.0942 186.831Z" fill="#3B247B"/>
<path fill-rule="evenodd" clip-rule="evenodd" d="M102.896 41.2246C102.849 41.477 102.802 41.7294 102.755 41.9821C102.784 41.9886 105.042 37.6171 105.416 37.0892C106.685 35.2995 108.336 33.8104 109.927 32.3157C113.299 29.1495 117.245 26.594 120.549 23.3714C121.636 22.3112 123.584 20.7047 123.154 18.9121C122.726 17.1304 119.119 17.4924 117.883 18.0079C115.947 18.8163 114.374 20.507 112.93 21.9801C111.356 23.5871 109.769 25.1761 108.435 26.9948C106.996 28.9559 105.63 31.0799 104.749 33.3558C103.761 35.9054 103.375 38.544 102.896 41.2246ZM103.638 49.0466C102.105 49.5201 104.026 49.8399 103.426 50.6605C102.768 51.5602 101.661 48.788 101.496 48.2645C100.52 45.172 100.957 41.4149 101.489 38.2751C101.758 36.6911 101.932 35.0811 102.295 33.5143C102.649 31.9864 103.419 30.5346 104.131 29.1448C105.557 26.3641 107.444 23.7734 109.586 21.506C111.735 19.2313 114.129 16.9554 116.964 15.5549C119.307 14.3984 123.02 15.2009 124.117 17.7271C125.237 20.3087 123.722 23.1207 121.93 24.9358C119.592 27.3031 117.045 29.6544 114.42 31.6956C113.07 32.7449 111.939 34.0138 110.628 35.1086C109.233 36.274 108.026 37.4463 106.994 38.9534C105.995 40.4138 104.967 41.8731 104.317 43.5309C103.606 45.3463 103.638 47.126 103.638 49.0466Z" fill="#3B247B"/>
<path fill-rule="evenodd" clip-rule="evenodd" d="M42.354 160.372C38.8332 158.1 35.3006 156.105 32.2346 153.208C29.2076 150.347 26.5627 147.121 23.1935 144.639C21.5125 143.4 19.7774 142.238 18.1262 140.959C16.5589 139.745 14.7576 138.705 13.3411 137.321C11.453 135.474 7.91803 132.044 10.3302 129.292C13.3242 132.861 17.4322 135.674 21.1774 138.383C25.1264 141.24 28.751 144.572 32.4968 147.685C36.1052 150.683 39.7015 153.708 43.2225 156.786C44.1471 157.594 45.039 158.443 45.9745 159.239C46.0889 159.336 47.0586 159.952 47.0586 160.115C47.0586 160.509 46.3071 160.754 46.0393 160.863C45.6167 161.036 44.4736 161.465 43.9944 161.32C43.7431 161.244 43.7387 161.039 43.5576 160.917C43.4535 160.72 43.332 160.535 43.1939 160.36C42.9138 160.365 42.6339 160.369 42.354 160.372Z" fill="#3B247B"/>
<path fill-rule="evenodd" clip-rule="evenodd" d="M249.62 120.757C247.11 120.693 243.289 120.685 243.43 124.12C243.5 125.821 244.42 127.07 245.176 128.525C245.969 130.053 246.558 131.633 246.791 133.346C247.733 140.283 245.205 147.059 242.918 153.471C247.829 149.499 251.376 143.972 253.238 137.913C254.14 134.975 254.492 131.199 254.2 128.14C254.054 126.609 253.491 125.237 252.812 123.873C252.472 123.188 252.131 122.405 251.588 121.851C251.044 121.295 250.289 121.11 249.62 120.757ZM240.865 157.444C239.243 154.772 241.796 150.837 242.631 148.231C243.629 145.116 244.549 141.872 244.976 138.623C245.423 135.219 244.846 132.573 243.272 129.567C241.864 126.879 241.028 123.3 242.593 120.456C243.224 119.312 244.154 119.171 245.26 118.714C246.618 118.154 246.992 117.207 248.658 117.357C251.632 117.624 253.007 120.45 254.113 122.858C256.692 128.471 255.991 135.714 253.792 141.351C252.526 144.594 251.082 147.961 248.933 150.723C247.879 152.077 246.641 153.251 245.355 154.38C243.965 155.602 242.719 157.074 240.865 157.444Z" fill="#3B247B"/>
<path fill-rule="evenodd" clip-rule="evenodd" d="M71.0851 59.9935C67.1656 60.783 63.5888 62.5534 62.9609 66.9681C62.3902 70.9802 65.1171 74.692 68.4656 76.5701C72.0873 78.6019 76.6252 78.9394 80.2339 76.6877C84.0328 74.3172 84.8945 69.5668 82.5823 65.8399C80.0024 61.6809 75.6803 60.4534 71.0851 59.9935ZM73.604 58.0687C78.2715 58.7541 82.6042 62.0832 84.1764 66.5667C85.7973 71.1886 84.3079 76.2701 80.0168 78.8026C71.3446 83.921 59.7539 75.3911 61.847 65.5869C62.3784 63.0976 63.8875 61.1699 65.9378 59.7124C68.2014 58.103 70.9385 58.0592 73.604 58.0687Z" fill="#3B247B"/>
<path fill-rule="evenodd" clip-rule="evenodd" d="M239.551 11.1328C233.927 8.58432 228.303 6.03589 222.679 3.48746C222.449 6.0424 222.218 8.59703 221.987 11.152C221.924 11.8433 221.669 12.7838 221.778 13.466C221.894 14.194 221.646 14.1163 222.593 14.0128C223.804 13.8801 225.019 13.5804 226.217 13.3661C228.372 12.9807 230.664 12.8707 232.773 12.3038C233.849 12.0144 234.88 11.9781 235.972 11.8031C237.172 11.611 238.339 11.2551 239.551 11.1328ZM220.527 16.0718C220.527 13.1938 220.846 10.3545 221.109 7.48982C221.345 4.91242 221.436 2.45562 222.276 0C223.06 1.42732 225.231 1.99778 226.575 2.73228C228.427 3.74432 230.398 4.48946 232.294 5.41135C234.155 6.31669 235.948 7.35622 237.812 8.25949C238.757 8.71763 239.716 9.14503 240.659 9.60671C241.25 9.89578 242.65 10.361 243.017 10.8978C244.132 12.527 240.316 12.6845 239.579 12.8282C237.37 13.26 235.135 13.5032 232.93 13.9472C230.874 14.3616 228.814 14.7461 226.751 15.1218C224.709 15.4936 222.605 16.0718 220.527 16.0718Z" fill="#3B247B"/>
<path fill-rule="evenodd" clip-rule="evenodd" d="M47.1186 87.3192C49.3328 87.0884 51.538 86.7562 53.7499 86.5368C55.8444 86.329 57.6971 86.108 59.6106 85.1462C56.9973 84.3564 54.3781 83.6086 51.7426 82.8951C50.4356 82.5413 49.1311 82.1668 47.8181 81.8364C46.8024 81.5804 45.9171 81.4332 45.5266 80.3221C45.0721 79.0287 46.3358 79.2247 47.1236 79.5534C48.2101 80.0065 49.3936 80.2881 50.5196 80.665C53.0329 81.5059 55.5616 82.2794 58.0985 83.0441C58.8871 83.2817 63.4567 84.1607 61.8101 85.6885C61.1055 86.3426 59.5333 86.7018 58.6718 87.1714C57.5668 87.7738 56.3638 88.0138 55.1345 88.2535C52.5726 88.753 49.9138 88.9449 47.3203 89.3782C45.9958 89.5996 44.6716 89.8209 43.3474 90.0423C42.5715 90.1718 42.2727 90.1591 42.0701 89.2919C41.9226 88.6617 42.1149 88.0313 42.2565 87.4209C42.6157 85.87 43.0153 84.3271 43.4108 82.7854C43.5612 82.1972 43.8275 79.6116 44.351 79.3287C45.5387 78.687 44.6223 82.2667 44.5342 82.705C44.2009 84.3585 43.8051 86.0004 43.627 87.6783C44.7934 87.5725 45.9566 87.4629 47.1186 87.3192Z" fill="#3B247B"/>
<path fill-rule="evenodd" clip-rule="evenodd" d="M78.5151 100.483C78.9546 101.589 78.2249 101.836 77.3396 102.219C76.1912 102.716 75.0616 103.24 73.8922 103.688C71.4323 104.629 68.9547 105.502 66.5534 106.591C61.9736 108.667 57.3318 110.66 52.823 112.883C51.7026 113.435 50.5813 113.986 49.4509 114.518C48.2818 115.068 46.9411 115.994 45.6903 116.308C44.5994 116.583 44.4856 115.804 45.1321 115.087C45.9655 114.162 47.254 113.472 48.3007 112.829C52.6083 110.183 57.3097 108.029 62.0146 106.208C67.4526 104.104 72.9054 102.085 78.5151 100.483Z" fill="#3B247B"/>
<path fill-rule="evenodd" clip-rule="evenodd" d="M90.4728 37.7541C90.3153 34.3923 90.7639 31.0213 90.4964 27.6683C85.8968 31.7549 88.163 38.0704 90.809 42.5046L90.4728 37.7541ZM92.4638 37.562C92.493 39.2042 92.5859 40.8455 92.4267 42.4795C92.2595 44.1947 93.0622 45.0781 94.1086 46.3414C93.22 47.2453 91.1809 45.1379 90.6179 44.5166C89.4586 43.2373 88.5959 41.5378 87.8283 40.0017C86.1932 36.7294 85.0672 33.226 86.3758 29.6333C86.8609 28.3017 87.4543 26.4913 88.7387 25.7161C90.149 24.8648 91.2278 26.0654 91.8129 27.3003C93.2416 30.3134 92.1524 34.3279 92.4638 37.562Z" fill="#3B247B"/>
<path fill-rule="evenodd" clip-rule="evenodd" d="M141.191 204.673C143.312 204.842 145.401 205.008 147.522 205.142C147.156 202.229 146.79 199.315 146.424 196.401C145.197 196.685 143.969 196.97 142.742 197.254C142.162 197.389 141.272 197.424 140.759 197.715C140.567 197.759 140.375 197.804 140.183 197.848C140.178 198.226 140.174 198.605 140.17 198.983C140.156 200.102 140.123 201.22 140.077 202.338C140.058 202.807 139.895 203.493 140.006 203.957C139.808 204.426 139.934 204.625 140.386 204.555C140.655 204.594 140.923 204.634 141.191 204.673ZM139.731 206.78C138.068 205.95 138.523 203.415 138.526 201.802C138.528 200.775 138.6 199.756 138.627 198.731C138.645 198.026 138.485 197.154 138.726 196.473C139.157 195.262 141.262 195.295 142.345 195.38C143.148 195.443 143.819 195.402 144.642 195.349C145.048 195.323 145.5 195.401 145.899 195.281C145.985 195.255 146.795 194.688 146.759 194.687C148.214 194.742 148.233 198.237 148.328 199.124C148.561 201.309 148.772 203.499 148.962 205.689C149.012 206.269 149.227 206.924 148.678 207.255C148.182 207.553 146.869 207.258 146.321 207.242C144.112 207.175 141.916 206.83 139.731 206.78Z" fill="#3B247B"/>
<path fill-rule="evenodd" clip-rule="evenodd" d="M243.509 76.9297C244.47 77.7966 244.008 78.691 243.693 79.774C243.504 80.424 242.464 82.558 242.751 83.166C243.083 83.8688 244.641 84.0417 245.307 84.2637C246.467 84.6503 247.633 85.0387 248.731 85.5838C249.218 85.8258 250.975 86.3821 251.305 86.8337C251.493 87.0927 251.562 87.2954 251.42 87.6291C251.171 88.2149 250.816 87.9049 250.208 87.7793C247.434 87.2047 244.682 86.4699 242.109 85.258C241.391 86.9271 240.784 88.6317 240.177 90.3442C239.999 90.8461 239.829 91.9864 239.153 92.0677C238.329 92.1665 238.318 91.0604 238.373 90.4637C238.453 89.5923 238.903 88.6633 239.175 87.8384C239.4 87.1574 240.187 85.7395 240.09 85.0378C240.023 84.5549 239.73 84.5886 239.206 84.3988C238.712 84.2197 238.217 84.0415 237.722 83.8603C236.93 83.5697 236.141 83.2783 235.369 82.9336C234.946 82.7445 234.061 82.5234 233.754 82.1309C233.576 81.9033 233.378 81.0831 233.603 80.8561C234.127 80.3243 237.617 81.7555 238.334 81.9509C238.81 82.0806 239.289 82.1796 239.751 82.3496C239.925 82.4143 240.132 82.6768 240.322 82.6866C241.124 82.7273 241.188 82.1087 241.437 81.4452C242.015 79.9031 242.643 78.3301 243.509 76.9297Z" fill="#3B247B"/>
<path fill-rule="evenodd" clip-rule="evenodd" d="M43.4395 107.609C43.0116 106.558 47.5537 105.288 48.3968 104.933C50.4548 104.07 52.6596 103.548 54.7905 102.888C56.8859 102.24 58.9722 101.542 61.0331 100.791C61.6704 100.559 66.26 98.3194 66.5 98.6469C67.2954 99.7305 57.6645 103.134 56.726 103.473C52.3683 105.045 47.8686 106.253 43.4395 107.609Z" fill="#3B247B"/>
<path fill-rule="evenodd" clip-rule="evenodd" d="M238.795 25.3907C237.617 25.4025 235.919 25.7371 234.839 25.2583C236.157 25.3023 237.476 25.3467 238.795 25.3907Z" fill="#3B247B"/>
<path fill-rule="evenodd" clip-rule="evenodd" d="M73.6041 58.0686L70.9861 58.0591C71.8596 57.8561 72.7326 57.7334 73.6041 58.0686Z" fill="#3B247B"/>
<path fill-rule="evenodd" clip-rule="evenodd" d="M209.938 57.3675C210.556 57.3642 211.173 57.361 211.786 57.3574C211.168 57.361 210.553 57.3642 209.938 57.3675Z" fill="#3B247B"/>
<path fill-rule="evenodd" clip-rule="evenodd" d="M263.912 73.3936C263.907 74.0553 263.903 74.7171 263.897 75.3762C263.902 74.7136 263.907 74.0536 263.912 73.3936Z" fill="#3B247B"/>
<path fill-rule="evenodd" clip-rule="evenodd" d="M142.345 195.379C141.689 195.427 141.033 195.474 140.378 195.522C141.034 195.474 141.689 195.427 142.345 195.379Z" fill="#3B247B"/>
<path fill-rule="evenodd" clip-rule="evenodd" d="M146.039 69.2495C145.373 69.3036 144.708 69.358 144.042 69.4121C144.708 69.3577 145.374 69.3036 146.039 69.2495Z" fill="#3B247B"/>
<path fill-rule="evenodd" clip-rule="evenodd" d="M214.941 57.1501C215.412 57.1492 215.883 57.1483 216.351 57.1475C215.878 57.1486 215.41 57.1495 214.941 57.1501Z" fill="#3B247B"/>
<path fill-rule="evenodd" clip-rule="evenodd" d="M120.135 70.541C119.55 70.5939 118.964 70.6468 118.379 70.6997C118.964 70.6468 119.55 70.5939 120.135 70.541Z" fill="#3B247B"/>
<path fill-rule="evenodd" clip-rule="evenodd" d="M145.999 28.6513C145.413 28.6548 144.827 28.6584 144.242 28.6619C144.826 28.3516 145.412 28.4317 145.999 28.6513Z" fill="#3B247B"/>
<path fill-rule="evenodd" clip-rule="evenodd" d="M39.0985 130.165C38.6113 130.139 38.2143 130.376 37.9395 129.91C38.3892 129.559 38.6487 129.964 39.0985 130.165Z" fill="#3B247B"/>
<path fill-rule="evenodd" clip-rule="evenodd" d="M129.458 90.9683L127.938 90.7969L129.458 90.9683Z" fill="#3B247B"/>
<path fill-rule="evenodd" clip-rule="evenodd" d="M139.731 206.78C140.067 206.787 140.403 206.795 140.735 206.803C140.397 206.795 140.064 206.787 139.731 206.78Z" fill="#3B247B"/>
<path fill-rule="evenodd" clip-rule="evenodd" d="M217.761 26.3486C217.237 26.3956 216.714 26.4426 216.19 26.4896C216.714 26.4423 217.237 26.3956 217.761 26.3486Z" fill="#3B247B"/>
<path fill-rule="evenodd" clip-rule="evenodd" d="M51.8678 185.498C51.365 185.5 50.8624 185.502 50.3599 185.504C50.8627 185.502 51.3653 185.5 51.8678 185.498Z" fill="#3B247B"/>
<path fill-rule="evenodd" clip-rule="evenodd" d="M11.4515 176.565C10.944 176.566 10.4367 176.567 9.92944 176.568C10.437 176.567 10.944 176.566 11.4515 176.565Z" fill="#3B247B"/>
<path fill-rule="evenodd" clip-rule="evenodd" d="M139.691 69.6694C139.176 69.7203 138.661 69.7708 138.146 69.8217C138.661 69.7708 139.176 69.7203 139.691 69.6694Z" fill="#3B247B"/>
<path fill-rule="evenodd" clip-rule="evenodd" d="M125.316 70.5072C124.809 70.4486 124.302 70.3901 123.795 70.3316C124.298 70.43 124.856 70.0414 125.316 70.5072Z" fill="#3B247B"/>
<path fill-rule="evenodd" clip-rule="evenodd" d="M171.227 90.9009C171.543 90.8651 171.986 90.7543 172.311 90.806C172.268 90.9922 171.348 90.9003 171.227 90.9009Z" fill="#3B247B"/>
<path fill-rule="evenodd" clip-rule="evenodd" d="M139.07 130.755C139.41 130.761 139.751 130.768 140.087 130.774C139.746 130.767 139.408 130.761 139.07 130.755Z" fill="#3B247B"/>
<path fill-rule="evenodd" clip-rule="evenodd" d="M108.355 90.167C107.859 90.2152 107.362 90.2634 106.866 90.3112C107.363 90.2631 107.859 90.2152 108.355 90.167Z" fill="#3B247B"/>
<path fill-rule="evenodd" clip-rule="evenodd" d="M52.7524 88.4702C53.0232 88.4776 53.2939 88.485 53.5611 88.4924C53.2892 88.485 53.0208 88.4776 52.7524 88.4702Z" fill="#3B247B"/>
<path fill-rule="evenodd" clip-rule="evenodd" d="M125.943 90.5415C125.519 90.533 125.094 90.5244 124.669 90.5161C125.094 90.5244 125.519 90.533 125.943 90.5415Z" fill="#3B247B"/>
<path fill-rule="evenodd" clip-rule="evenodd" d="M47.1184 87.3193C46.689 87.3725 46.2596 87.4254 45.8308 87.4783C46.2605 87.4251 46.6893 87.3722 47.1184 87.3193Z" fill="#3B247B"/>
<path fill-rule="evenodd" clip-rule="evenodd" d="M106.022 83.6636C106.287 83.6742 106.552 83.6849 106.814 83.6964C106.548 83.6863 106.285 83.6751 106.022 83.6636Z" fill="#3B247B"/>
<path fill-rule="evenodd" clip-rule="evenodd" d="M126.253 128.363C126.522 128.346 126.791 128.328 127.057 128.31C126.787 128.327 126.52 128.346 126.253 128.363Z" fill="#3B247B"/>
<path fill-rule="evenodd" clip-rule="evenodd" d="M146.851 93.361C146.418 93.3069 145.985 93.2528 145.552 93.1987C145.985 93.2528 146.418 93.3069 146.851 93.361Z" fill="#3B247B"/>
<path fill-rule="evenodd" clip-rule="evenodd" d="M42.3538 160.372C42.6348 160.368 42.9159 160.365 43.1937 160.36C42.9117 160.364 42.6325 160.368 42.3538 160.372Z" fill="#3B247B"/>
<path fill-rule="evenodd" clip-rule="evenodd" d="M19.2775 125.371C18.8298 125.326 18.3821 125.28 17.9341 125.235C18.3818 125.28 18.8295 125.326 19.2775 125.371Z" fill="#3B247B"/>
<path fill-rule="evenodd" clip-rule="evenodd" d="M9.72466 176.626C9.28464 176.677 8.84462 176.728 8.4043 176.779C8.84491 176.728 9.28464 176.677 9.72466 176.626Z" fill="#3B247B"/>
<path fill-rule="evenodd" clip-rule="evenodd" d="M249.597 57.2959C249.563 57.6772 249.528 58.0585 249.493 58.4383C249.527 58.0564 249.562 57.6763 249.597 57.2959Z" fill="#3B247B"/>
<path fill-rule="evenodd" clip-rule="evenodd" d="M54.4974 185.116C54.0547 185.167 53.6121 185.218 53.1697 185.269C53.6124 185.218 54.055 185.167 54.4974 185.116Z" fill="#3B247B"/>
<path fill-rule="evenodd" clip-rule="evenodd" d="M50.1543 185.556C49.7063 185.87 49.2586 185.888 48.8103 185.557C49.2583 185.557 49.7063 185.556 50.1543 185.556Z" fill="#3B247B"/>
<path fill-rule="evenodd" clip-rule="evenodd" d="M41.6606 185.932C41.2262 185.932 40.792 185.932 40.3579 185.933C40.7923 185.932 41.2265 185.932 41.6606 185.932Z" fill="#3B247B"/>
<path fill-rule="evenodd" clip-rule="evenodd" d="M92.4635 37.5624C92.4264 37.1761 92.3892 36.7901 92.3521 36.4053C92.3892 36.7922 92.4264 37.1773 92.4635 37.5624Z" fill="#3B247B"/>
<path fill-rule="evenodd" clip-rule="evenodd" d="M139.904 28.936C139.468 28.9901 139.031 29.0439 138.595 29.0977C139.032 29.0439 139.468 28.9901 139.904 28.936Z" fill="#3B247B"/>
<path fill-rule="evenodd" clip-rule="evenodd" d="M141.451 28.7314C141.007 28.7811 140.563 28.8311 140.12 28.881C140.564 28.8311 141.007 28.7811 141.451 28.7314Z" fill="#3B247B"/>
<path fill-rule="evenodd" clip-rule="evenodd" d="M72.5574 80.2067C72.8305 80.2026 73.1036 80.1985 73.3728 80.1943C73.0986 80.1985 72.8281 80.2026 72.5574 80.2067Z" fill="#3B247B"/>
<path fill-rule="evenodd" clip-rule="evenodd" d="M112.076 75.9289C113.525 75.6895 114.973 75.6097 116.421 75.928L112.076 75.9289Z" fill="#3B247B"/>
<path fill-rule="evenodd" clip-rule="evenodd" d="M150.707 59.5993C151.008 58.8101 151.083 58.5139 151.82 58.1055C151.513 58.8725 151.465 59.2827 150.707 59.5993Z" fill="#3B247B"/>
<path fill-rule="evenodd" clip-rule="evenodd" d="M186.029 137.701C186.058 138.522 186.087 139.342 186.116 140.162C186.087 139.341 186.058 138.521 186.029 137.701Z" fill="#3B247B"/>
<path fill-rule="evenodd" clip-rule="evenodd" d="M238.558 27.2856C237.903 27.3004 237.248 27.3155 236.595 27.3303C237.251 27.3155 237.905 27.3004 238.558 27.2856Z" fill="#3B247B"/>
<path fill-rule="evenodd" clip-rule="evenodd" d="M151.268 152.285C151.291 152.969 151.314 153.653 151.336 154.336C151.313 153.652 151.291 152.968 151.268 152.285Z" fill="#3B247B"/>
<path fill-rule="evenodd" clip-rule="evenodd" d="M70.9722 130.37C71.634 130.374 72.2961 130.379 72.9579 130.384C72.2958 130.379 71.634 130.374 70.9722 130.37Z" fill="#3B247B"/>
<path fill-rule="evenodd" clip-rule="evenodd" d="M127.234 95.2339C126.835 95.2377 126.436 95.2413 126.042 95.2463C126.441 95.2428 126.837 95.2383 127.234 95.2339Z" fill="#3B247B"/>
<path fill-rule="evenodd" clip-rule="evenodd" d="M125.935 73.491C125.607 73.4798 125.279 73.4685 124.954 73.4585C125.284 73.47 125.609 73.4804 125.935 73.491Z" fill="#3B247B"/>
<path fill-rule="evenodd" clip-rule="evenodd" d="M79.0322 130.162C79.5498 130.112 80.0671 130.061 80.5847 130.01C80.0671 130.061 79.5498 130.112 79.0322 130.162Z" fill="#3B247B"/>
<path fill-rule="evenodd" clip-rule="evenodd" d="M67.7561 130.396C68.2631 130.388 68.77 130.38 69.2767 130.372C68.77 130.38 68.2631 130.388 67.7561 130.396Z" fill="#3B247B"/>
<path fill-rule="evenodd" clip-rule="evenodd" d="M73.1682 130.383C73.6932 130.337 74.2181 130.291 74.7434 130.245C74.2184 130.291 73.6932 130.337 73.1682 130.383Z" fill="#3B247B"/>
<path fill-rule="evenodd" clip-rule="evenodd" d="M75.0827 131.217C74.8217 131.215 74.5607 131.213 74.3032 131.212C74.5654 131.214 74.8241 131.215 75.0827 131.217Z" fill="#3B247B"/>
<path fill-rule="evenodd" clip-rule="evenodd" d="M185.8 119.461C185.839 119.075 185.878 118.69 185.917 118.306C185.878 118.692 185.839 119.076 185.8 119.461Z" fill="#3B247B"/>
<path fill-rule="evenodd" clip-rule="evenodd" d="M107.418 80.4839C107.747 80.512 108.077 80.54 108.407 80.5684C108.039 80.5873 107.671 80.6059 107.303 80.6249C107.305 80.5492 107.344 80.5022 107.418 80.4839Z" fill="#3B247B"/>
<path fill-rule="evenodd" clip-rule="evenodd" d="M192.009 145.338C191.988 144.987 191.967 144.635 191.946 144.286C191.967 144.638 191.988 144.988 192.009 145.338Z" fill="#3B247B"/>
<path fill-rule="evenodd" clip-rule="evenodd" d="M113.328 79.144C113.064 79.1494 112.799 79.1544 112.538 79.1594C112.804 79.1541 113.066 79.1491 113.328 79.144Z" fill="#3B247B"/>
<path fill-rule="evenodd" clip-rule="evenodd" d="M210.089 123.47C210.529 123.522 210.97 123.574 211.41 123.625C210.97 123.574 210.529 123.522 210.089 123.47Z" fill="#3B247B"/>
<path fill-rule="evenodd" clip-rule="evenodd" d="M118.577 94.375C118.306 94.3791 118.035 94.383 117.767 94.3877C118.039 94.3839 118.308 94.3794 118.577 94.375Z" fill="#3B247B"/>
<path fill-rule="evenodd" clip-rule="evenodd" d="M102.896 41.2246C103.181 41.3768 103.033 42.046 102.755 41.9822C102.802 41.7294 102.849 41.477 102.896 41.2246Z" fill="#3B247B"/>
<path fill-rule="evenodd" clip-rule="evenodd" d="M249.62 120.757C249.358 120.75 249.097 120.744 248.839 120.737C249.102 120.744 249.361 120.751 249.62 120.757Z" fill="#3B247B"/>
<path fill-rule="evenodd" clip-rule="evenodd" d="M90.4727 37.7542C90.445 37.1646 90.4176 36.5752 90.3901 35.9873C90.4176 36.5776 90.4453 37.1658 90.4727 37.7542Z" fill="#3B247B"/>
<path fill-rule="evenodd" clip-rule="evenodd" d="M139.983 204.496C140.386 204.555 140.789 204.614 141.191 204.673C140.788 204.614 140.386 204.555 139.983 204.496Z" fill="#3B247B"/>
<path fill-rule="evenodd" clip-rule="evenodd" d="M137.321 52.6941C135.901 52.987 134.443 53.1401 133.056 53.5714C132.71 53.679 131.575 54.3399 131.16 54.1658C130.531 53.9006 130.849 53.2205 131.114 52.8576C131.824 51.8869 133.093 51.3431 134.257 51.3552C135.419 51.3676 137.014 51.325 137.321 52.6941Z" fill="#3B247B"/>
<path fill-rule="evenodd" clip-rule="evenodd" d="M133.376 55.2979C134.94 56.3948 136.134 56.9351 136.267 54.4697C137.961 54.7012 137.202 57.4364 135.919 57.6427C134.524 57.867 133.593 56.4699 133.376 55.2979Z" fill="#3B247B"/>
</g>
<defs>
<clipPath id="clip0">
<rect width="302" height="227" fill="white"/>
</clipPath>
</defs>
</svg>
