<svg width="151" height="141" viewBox="0 0 151 141" fill="none" xmlns="http://www.w3.org/2000/svg">
<g clip-path="url(#clip0)">
<path fill-rule="evenodd" clip-rule="evenodd" d="M120.9 129.3C106 128.7 85.4 129.5 70.5 127.9C62 127 53.4 126 44.9 124.9C38.8 124.1 30.6 124.1 24.7 122.4C21 121.4 21.3 121.5 21 118.9C20.8 116.4 21 116 20.9 113.5C20.8 109 20.8 104.5 20.7 99.9999C20.5 89.8999 25.3 76.7999 24.6 66.5999C23.9 56.3999 23.6 46.2999 23.2 36.0999C23.1 31.3999 22.9 26.5999 22.4 21.8999C22 18.2999 18.5 11.2999 25 10.2999C31 9.29994 40.7 10.6999 47.1 10.8999C55 11.0999 62.9 11.2999 70.8 11.4999C85.6 11.7999 100.4 11.8999 115.2 12.1999C118.7 12.2999 121.4 15.0999 121.4 18.5999C121.2 30.7999 122.5 43.0999 123.9 55.3999C127.6 63.8999 130.2 104.1 126 113.4C126 119.7 126.7 129.5 120.9 129.3ZM147.9 99.1999C151.6 90.3999 151.4 59.4999 149.2 49.9999C147.8 43.7999 145 29.0999 141.4 22.9999C140.2 18.1999 138.3 14.0999 135.3 9.49994C132.4 5.09994 133.8 2.69994 124.9 2.09994C107.7 0.89994 90.2 1.09994 73.2 0.89994C57.3 0.69994 41.4 0.89994 25.4 0.09994C9.00002 -0.80006 2.70002 7.89994 1.10002 16.6999C-1.99998 33.2999 2.30002 50.6999 4.60002 67.2999C6.00002 77.6999 2.50002 91.0999 3.90002 101.5C5.20002 111.4 4.40002 121.8 7.80002 131.7C9.90002 138 22 136.7 29.8 137.2C39.4 137.7 48.9 138.1 58.4 138.6C78.3 139.7 101.3 139.4 123.8 140.7C146.3 142 144.2 108 147.9 99.1999Z" fill="#FFAB00"/>
<path fill-rule="evenodd" clip-rule="evenodd" d="M92.6999 22.6999C85.6999 19.6999 58.7 17.6999 58.7 28.6999C58.7 35.6999 58.7 44.6999 58.7 49.6999C51.7 49.6999 40.7 49.6999 38.7 49.6999C36.7 49.6999 35.7 50.6999 35.7 51.6999C35.7 52.6999 36.7 63.6999 36.7 64.6999C36.7 65.6999 35.7 66.6999 38.7 66.6999C41.7 66.6999 52.7 66.6999 58.7 66.6999C58.7 75.6999 58.7 84.6999 58.7 89.6999C58.7 94.6999 57.7 110.7 57.7 112.7C57.7 114.7 59.7 114.7 60.7 114.7C61.7 114.7 74.6999 114.7 75.6999 114.7C76.6999 114.7 77.6999 113.7 77.6999 111.7C77.6999 109.7 77.6999 69.6999 77.6999 69.6999C77.6999 66.6999 78.6999 65.6999 82.6999 65.6999C86.6999 65.6999 94.6999 65.6999 97.6999 65.6999C99.6999 62.6999 102.7 53.6999 104.7 50.6999C93.7 50.6999 79.6999 50.6999 77.6999 50.6999C77.6999 46.6999 76.6999 36.6999 79.6999 35.6999C82.6999 34.6999 90.6999 35.6999 92.6999 35.6999C94.6999 32.6999 96.4999 24.3999 92.6999 22.6999Z" fill="#3B247B"/>
</g>
<defs>
<clipPath id="clip0">
<rect width="150.7" height="140.7" fill="white"/>
</clipPath>
</defs>
</svg>
