<svg width="225" height="210" viewBox="0 0 225 210" fill="none" xmlns="http://www.w3.org/2000/svg">
<g clip-path="url(#clip0)">
<path d="M113.46 32.1206C99.3738 32.1206 68.6396 43.638 68.6396 73.0712C68.6396 112.742 104.496 125.539 107.057 149.854C107.826 157.532 116.022 160.091 117.302 149.854C118.583 139.616 153.159 101.225 157 80.7495C160.842 60.2742 141.633 32.1206 113.46 32.1206ZM113.46 94.8263C103.6 94.8263 95.5321 86.7641 95.5321 76.9104C95.5321 67.0566 103.6 58.9945 113.46 58.9945C123.321 58.9945 131.389 67.0566 131.389 76.9104C131.389 86.7641 123.321 94.8263 113.46 94.8263Z" fill="#3B247B"/>
<path d="M74.4022 133.985C60.4437 133.985 45.5889 124.26 45.5889 106.216C45.5889 93.5467 51.9918 87.0202 57.3703 83.6929C68.1273 77.0385 83.3663 78.0622 89.8973 81.2615C91.8182 82.1573 92.5866 84.4608 91.5621 86.3803C90.6657 88.2999 88.3606 89.0677 86.4398 88.0439C82.2138 85.9964 69.9201 84.8447 61.4682 90.0915C56.0897 93.4187 53.2724 98.7935 53.2724 106.088C53.2724 119.269 63.9013 126.179 74.4022 126.179C79.3965 126.179 84.0066 124.516 87.3362 121.572C90.1535 119.013 92.0744 115.558 92.7147 111.335H75.2986C73.1216 111.335 71.4568 109.671 71.4568 107.495C71.4568 105.32 73.1216 103.656 75.2986 103.656H100.654V107.495C100.654 115.686 97.837 122.468 92.4585 127.331C87.7203 131.682 81.3174 133.985 74.4022 133.985Z" fill="#FFAB00"/>
<path d="M84.0069 145.759C70.4326 149.726 53.2727 163.931 72.4816 167.386C91.6905 170.841 149.317 173.016 159.562 162.779C169.807 152.541 133.95 145.759 126.266 144.607C124.986 154.845 119.863 161.627 110.899 161.627C101.935 161.627 100.655 147.934 100.655 144.607C95.5322 144.735 87.8487 144.735 84.0069 145.759Z" fill="#FFAB00"/>
<path fill-rule="evenodd" clip-rule="evenodd" d="M31.5022 10.2372C56.6018 11.133 91.1777 9.98122 116.277 12.4127C130.62 13.8203 145.091 15.484 159.433 17.2756C169.678 18.5553 183.508 18.5553 193.369 21.2427C199.516 22.9063 199.132 22.6503 199.516 26.8734C199.9 30.8405 199.516 31.4803 199.644 35.4474C199.772 42.7417 199.9 49.9081 200.028 57.2024C200.412 73.4547 192.216 94.4419 193.497 110.822C194.778 127.202 195.162 143.455 195.802 159.707C196.058 167.257 196.314 174.936 197.211 182.486C197.851 188.244 203.87 199.378 192.857 201.042C182.74 202.577 166.348 200.402 155.592 200.146C142.273 199.89 128.955 199.506 115.765 199.122C90.7936 198.61 65.9501 198.482 40.9785 197.97C35.2159 197.842 30.4777 193.363 30.6057 187.733C30.9899 168.153 28.8129 148.446 26.5078 128.738C20.361 115.045 15.8789 50.5479 22.9222 35.5754C22.9222 25.7216 21.6416 9.98122 31.5022 10.2372ZM4.22554 62.0653C-1.281 75.2463 -1.02488 121.316 2.30465 135.393C4.3536 144.734 8.57956 166.617 13.958 175.703C15.7509 182.87 18.5682 189.012 23.1783 195.795C27.5323 202.449 25.4834 205.904 38.6735 206.8C64.2853 208.592 90.5374 208.336 115.893 208.592C139.712 208.848 163.275 208.464 187.222 209.744C211.681 210.895 220.902 198.098 223.463 184.917C228.073 160.091 221.67 134.113 218.212 109.414C216.035 93.93 221.286 73.9666 219.237 58.4821C217.316 43.6375 218.469 28.1531 213.346 13.4364C210.145 4.09457 192.088 5.88616 180.563 5.24631C166.22 4.47848 152.006 3.83863 137.791 3.0708C107.953 1.66313 73.7617 2.04704 40.2102 -0.000493416C6.53061 -1.92005 9.73209 48.8843 4.22554 62.0653Z" fill="#FFAB00"/>
</g>
<defs>
<clipPath id="clip0">
<rect width="225" height="210" fill="white"/>
</clipPath>
</defs>
</svg>
