<svg width="141" height="142" viewBox="0 0 141 142" fill="none" xmlns="http://www.w3.org/2000/svg">
<g clip-path="url(#clip0)">
<path fill-rule="evenodd" clip-rule="evenodd" d="M134.695 5.02019C131.447 2.41527 125.333 -0.761469 122.213 4.06717C122.34 0.382155 114.124 1.33518 111.832 1.97052C111.768 1.97052 112.596 4.25777 112.023 4.57544C112.214 4.44837 107.692 0.953968 106.482 0.826898C103.043 0.509225 98.9036 0.128017 95.4009 0.255086C92.2166 0.318621 89.2871 1.20811 86.0391 1.08104C82.1543 0.953968 78.2694 0.318621 74.3846 0.191552C70.6272 0.0644822 66.3602 -0.189657 62.6028 0.44569C59.3548 0.953968 56.8711 2.16113 53.4957 1.84345C49.3562 1.46225 45.9171 1.58931 41.7139 2.09759C38.0838 2.54233 33.3711 3.81303 29.8047 2.60587C29.1041 2.35173 26.5567 3.55889 25.7288 3.74949C23.6908 4.1307 23.1814 2.73294 21.7166 5.27433C21.5255 5.21079 21.2071 4.19424 21.0797 4.19424C21.016 4.19424 19.1692 4.57544 18.4686 4.51191C16.8128 4.44837 15.348 4.38484 13.6922 4.1307C11.9727 3.81303 9.93475 3.11415 8.15155 3.11415C7.38732 3.11415 6.68678 2.92354 5.92255 3.24122C4.01198 4.00363 5.22201 4.89312 3.82093 6.03674C2.92933 6.67209 1.59193 5.97321 0.636645 7.18037C-0.191268 8.19692 -0.000211128 10.0394 0.0634745 11.1195C0.190846 15.2493 0.827702 19.4426 0.955073 23.5723C1.78299 44.7929 1.01876 66.1405 2.22879 87.3611C2.80196 97.6537 3.18407 108.01 5.2857 118.048C6.75047 125.291 7.32364 136.791 14.8385 140.476C20.3155 143.145 27.2572 141.62 33.1163 141.048C41.9686 140.158 50.8846 140.54 59.7369 139.46C70.3087 138.189 80.7532 137.299 91.3887 136.6C95.9104 136.283 100.559 136.982 105.017 136.6C107.756 136.346 110.049 132.725 112.087 134.631C112.914 129.929 118.455 129.485 120.302 125.482C121.385 123.131 121.194 119.827 121.767 117.349C122.658 113.664 123.805 109.979 124.76 106.294C128.517 91.6179 131.32 76.9414 133.867 62.0743C136.287 47.8426 140.363 33.3567 141 18.9978C141.255 13.2162 139.153 8.57813 134.695 5.02019ZM123.614 30.9423C122.658 35.1356 121.958 39.3289 121.257 43.5857C118.328 63.0909 116.099 82.3419 111.895 101.72C111.322 104.452 111.322 115.189 107.756 113.728C107.374 114.3 106.928 114.808 106.291 115.189C104.317 116.269 102.215 116.841 100.305 116.46C97.1204 119.192 93.4266 119.764 89.5418 119.637C89.4144 119.891 89.2234 120.081 89.0323 120.081C88.3318 120.018 87.6312 119.827 86.9944 119.51C84.8927 119.319 74.6394 119.637 73.3656 119.7C73.2383 119.7 54.7694 121.67 49.6109 122.496C49.4835 122.496 41.7139 123.576 37.9564 123.195L38.0201 123.131C37.638 123.068 27.0025 122.369 26.6841 122.559C26.5567 122.623 22.4808 123.512 21.5892 122.75C20.6976 122.877 19.806 122.813 18.7234 122.496C17.8955 122.242 17.7681 123.068 16.8128 121.352C16.5581 120.907 16.4307 120.399 16.4307 119.954C13.3101 116.142 13.3738 111.123 14.6475 106.358C13.4375 100.576 10.4442 49.3674 10.4442 44.4117C10.4442 36.0251 11.9727 27.575 17.1949 20.5862C18.1502 19.3155 19.7423 18.2989 21.2708 18.3625C24.264 17.6001 27.8304 19.0613 30.6326 19.5061C35.409 20.332 40.2491 20.6497 45.0892 20.9674C64.4497 22.3016 84.0648 19.5061 103.425 19.5061C108.265 19.5061 122.149 17.3459 124.314 21.3486C125.843 23.5723 124.123 28.4645 123.614 30.9423Z" fill="#FFAB00"/>
<path fill-rule="evenodd" clip-rule="evenodd" d="M93.1721 67.347C93.4269 66.7752 93.6816 66.2034 93.8727 65.6316C94.1911 66.6481 94.3185 67.1564 93.1721 67.347ZM93.4905 69.9519C92.9811 70.0154 93.1721 68.4271 93.1721 68.1094C94.1274 68.6812 93.3632 69.253 93.4905 69.9519ZM92.7263 65.2503C93.1721 64.9962 93.6179 64.7421 94.0637 64.4879C93.4269 65.6316 93.6816 64.9327 93.9363 65.6951C93.4269 65.7586 92.9811 65.6316 92.7263 65.2503ZM90.0515 74.2087C88.3957 80.2445 83.0461 85.0096 77.4418 87.4875C74.1938 88.8852 71.0732 89.2665 67.5705 89.0758C66.2331 89.0123 64.6409 88.5676 63.3672 88.6311C62.3483 88.6946 62.412 88.7582 61.584 89.5841C61.2019 88.8852 61.4567 88.4405 60.7561 88.0593C59.8645 87.551 59.4824 88.1228 59.0366 88.8217C58.4634 88.1864 58.2087 87.8687 57.4445 87.551C57.4445 87.551 56.6802 87.551 56.7439 87.551C56.6166 87.4875 55.7886 86.9792 55.5339 86.8521C54.4512 86.4709 53.2412 86.2803 52.2859 85.7085C51.458 85.2002 50.6938 83.8025 49.7385 84.8826C49.7385 83.1036 47.3185 82.3412 46.1721 81.3882C44.3889 79.9269 42.9878 77.7667 42.0962 75.67C41.1409 73.4463 40.8225 71.2861 40.3767 68.9989C40.0583 67.4105 38.0204 65.0597 39.2941 63.4078C39.6125 64.1067 39.4214 64.8056 39.9309 65.3774C40.3767 64.5515 40.6315 63.5984 40.8225 62.709C40.9499 62.2642 41.4594 60.93 41.3957 60.5488C41.2683 59.7864 40.313 59.7228 40.8225 58.7698C41.9689 59.977 42.8605 57.8168 42.0325 56.9908C41.5867 57.4356 41.4594 58.0074 41.2683 58.5792C40.1857 56.3555 43.2426 57.0544 42.542 55.0213C43.6884 54.8307 44.3252 54.513 44.7073 53.4329C45.1531 52.2257 44.8347 51.9081 45.9174 51.1457C46.2995 50.8915 47.3185 50.4468 47.5095 50.002C47.8916 49.1125 46.9363 48.8584 47.7643 48.0324C48.019 48.5407 49.1653 49.4937 49.7385 48.5407C49.8659 48.3501 49.3564 48.2231 49.7385 47.7783C50.248 47.143 50.8849 46.5076 51.7765 46.6982C51.0759 44.9193 55.6613 44.7286 56.8713 44.3474C58.0813 43.9027 59.0366 43.6486 60.3103 43.5215C61.584 43.3944 61.6477 43.0767 62.6667 42.3143C62.7304 43.3944 63.0488 43.1403 63.813 43.3309C64.0041 43.0132 64.1951 42.9497 64.3862 43.2038C64.5773 43.3944 64.832 43.458 65.0867 43.458C65.5325 43.458 65.9784 43.3944 66.4241 43.458C67.4431 43.458 68.5258 43.3944 69.5447 43.3944C69.7995 43.3309 70.0542 43.2674 70.309 43.1403C70.4363 43.3309 70.5 43.5215 70.6274 43.7121C71.1369 43.7756 71.2006 44.4745 71.9011 43.7121C72.0922 44.6651 72.6653 44.1568 73.2385 44.411C73.8117 44.6651 73.8754 45.0463 74.3849 45.3005C74.7033 45.5546 75.0854 45.6181 75.4675 45.4275C75.8496 45.6817 76.168 45.9358 76.5502 46.1899C77.2507 46.5712 78.0149 46.8253 78.7792 47.143C79.2886 47.3336 79.7344 47.5242 80.1802 47.7783C80.1802 48.3501 80.435 48.5407 80.9445 48.3501C81.3903 48.7313 81.5176 48.7313 81.9634 49.3667C82.9824 50.828 83.8103 51.9081 85.084 53.2423C90.4336 58.8333 92.0895 66.7752 90.0515 74.2087ZM94.1274 49.3031C91.7073 46.0629 86.7399 41.2978 83.683 39.2647C82.0908 38.2481 79.0976 36.3421 77.187 35.8338C76.7412 35.7067 76.2317 35.7067 75.7859 35.5797C75.4675 35.4526 75.2764 35.1349 74.8307 35.0714C74.5759 35.0078 74.5122 35.6432 74.2575 35.5797C73.6206 35.4526 73.2385 34.8808 72.7927 34.4996C71.8374 36.0879 71.3279 33.4195 69.9905 35.1984C68.3347 32.6571 63.4309 33.6101 60.8198 33.7371C60.0556 33.8007 59.6735 34.0548 58.9729 34.2454C58.3361 34.436 58.2724 34.3725 57.5718 34.3725C55.8523 34.3725 52.4133 35.7067 50.7575 36.4691C48.0827 37.7398 45.5353 39.1376 42.9878 40.6624C40.122 42.3779 36.874 45.1099 34.7087 47.6512C26.8117 56.7367 24.519 72.6204 30.8239 83.1671C40.8225 99.8767 72.4106 102.799 86.9946 91.4266C98.3943 82.5318 103.043 61.1841 94.1274 49.3031Z" fill="#FFAB00"/>
<path fill-rule="evenodd" clip-rule="evenodd" d="M106.801 28.5904C99.8591 28.2092 94.1274 39.0101 104.381 38.1206C106.355 37.93 110.558 37.4853 111.705 35.3886C113.615 31.9578 109.921 28.7175 106.801 28.5904Z" fill="#FFAB00"/>
<path fill-rule="evenodd" clip-rule="evenodd" d="M93.1721 67.3466C93.4268 66.7748 93.6815 66.203 93.8726 65.6312C94.191 66.6477 94.3184 67.156 93.1721 67.3466ZM93.4905 69.9515C92.981 70.0151 93.1721 68.4267 93.1721 68.109C94.1273 68.6809 93.3631 69.2527 93.4905 69.9515ZM92.7263 65.25C93.1721 64.9958 93.6179 64.7417 94.0637 64.4876C93.4268 65.6312 93.6815 64.9323 93.9363 65.6947C93.4268 65.7583 92.981 65.6312 92.7263 65.25ZM90.0515 74.2084C88.3956 80.2442 83.046 85.0093 77.4417 87.4871C74.1937 88.8849 71.0731 89.2661 67.5704 89.0755C66.233 89.012 64.6409 88.5672 63.3672 88.6307C62.3482 88.6943 62.4119 88.7578 61.584 89.5838C61.2019 88.8849 61.4566 88.4401 60.7561 88.0589C59.8645 87.5507 59.4824 88.1225 59.0366 88.8214C58.4634 88.186 58.2086 87.8683 57.4444 87.5507C57.4444 87.5507 56.6802 87.5507 56.7439 87.5507C56.6165 87.4871 55.7886 86.9788 55.5338 86.8518C54.4512 86.4706 53.2412 86.28 52.2859 85.7081C51.458 85.1999 50.6937 83.8021 49.7384 84.8822C49.7384 83.1032 47.3184 82.3408 46.1721 81.3878C44.3889 79.9265 42.9878 77.7663 42.0962 75.6697C41.1409 73.446 40.8225 71.2858 40.3767 68.9985C40.0582 67.4102 38.0203 65.0594 39.294 63.4075C39.6124 64.1064 39.4214 64.8052 39.9309 65.3771C40.3767 64.5511 40.6314 63.5981 40.8225 62.7086C40.9498 62.2639 41.4593 60.9296 41.3956 60.5484C41.2683 59.786 40.313 59.7225 40.8225 58.7694C41.9688 59.9766 42.8604 57.8164 42.0325 56.9905C41.5867 57.4352 41.4593 58.007 41.2683 58.5788C40.1856 56.3551 43.2425 57.054 42.542 55.0209C43.6883 54.8303 44.3252 54.5126 44.7073 53.4325C45.1531 52.2254 44.8347 51.9077 45.9173 51.1453C46.2994 50.8911 47.3184 50.4464 47.5095 50.0017C47.8916 49.1122 46.9363 48.858 47.7642 48.0321C48.0189 48.5404 49.1653 49.4934 49.7384 48.5404C49.8658 48.3498 49.3563 48.2227 49.7384 47.7779C50.2479 47.1426 50.8848 46.5073 51.7764 46.6979C51.0759 44.9189 55.6612 44.7283 56.8712 44.3471C58.0813 43.9023 59.0366 43.6482 60.3103 43.5211C61.584 43.3941 61.6477 43.0764 62.6666 42.314C62.7303 43.3941 63.0487 43.1399 63.813 43.3305C64.004 43.0128 64.1951 42.9493 64.3861 43.2035C64.5772 43.3941 64.8319 43.4576 65.0867 43.4576C65.5325 43.4576 65.9783 43.3941 66.4241 43.4576C67.4431 43.4576 68.5257 43.3941 69.5447 43.3941C69.7994 43.3305 70.0542 43.267 70.3089 43.1399C70.4363 43.3305 70.5 43.5211 70.6273 43.7117C71.1368 43.7753 71.2005 44.4741 71.9011 43.7117C72.0921 44.6648 72.6653 44.1565 73.2385 44.4106C73.8116 44.6647 73.8753 45.046 74.3848 45.3001C74.7032 45.5542 75.0853 45.6178 75.4675 45.4272C75.8496 45.6813 76.168 45.9354 76.5501 46.1896C77.2506 46.5708 78.0149 46.8249 78.7791 47.1426C79.2886 47.3332 79.7344 47.5238 80.1802 47.7779C80.1802 48.3498 80.4349 48.5404 80.9444 48.3498C81.3902 48.731 81.5176 48.731 81.9634 49.3663C82.9824 50.8276 83.8103 51.9077 85.084 53.2419C90.4336 58.833 92.0894 66.7748 90.0515 74.2084Z" fill="#3B247B"/>
</g>
<defs>
<clipPath id="clip0">
<rect width="141" height="142" fill="white"/>
</clipPath>
</defs>
</svg>
