<svg width="322" height="241" viewBox="0 0 322 241" fill="none" xmlns="http://www.w3.org/2000/svg">
<path fill-rule="evenodd" clip-rule="evenodd" d="M141.188 105.272C138.326 107.342 138.782 111.416 139.643 114.375C140.912 118.733 143.438 122.767 146.321 126.244C151.434 132.413 160.115 139.339 168.116 133.924C175.242 129.101 179.736 119.369 181.288 111.171C181.767 108.638 182.406 104.863 180.153 102.959C176.822 100.144 170.947 100.656 166.926 101.018C164.278 101.257 161.723 102.067 159.106 101.686C153.026 100.802 146.259 101.603 141.188 105.272Z" fill="#3B247B"/>
<path fill-rule="evenodd" clip-rule="evenodd" d="M264.462 137.553C258.665 144.891 248.81 146.051 240.057 145.979C234.8 145.935 229.534 145.54 224.381 144.471C221.603 143.895 218.844 143.132 216.159 142.214C214.386 141.608 211.747 141.306 210.992 139.41C209.002 134.407 210.466 128.134 211.286 123.057C211.703 120.475 212.016 117.876 212.421 115.292C212.681 113.638 212.805 111.809 213.499 110.262C214.312 108.449 215.339 108.811 217.059 109.312C219.429 110.002 221.861 110.289 224.297 110.66C230.243 111.566 235.429 113.393 240.833 115.983C246.175 118.543 251.358 121.07 256.123 124.63C258.538 126.434 260.618 128.392 262.556 130.691C264.054 132.468 266.288 135.241 264.462 137.553ZM239.122 170.147C239.076 170.937 229.991 168.552 228.795 168.284C220.95 166.528 212.95 164.529 205.545 161.356C198.632 158.395 192.541 155.007 187.102 149.746C184.566 147.294 182.286 144.712 180.103 141.961C179.01 140.583 177.515 140.743 176.296 139.577C175.199 138.527 174.357 137.708 174.7 136.138C177.442 136.859 182.504 141.39 185.345 139.102C186.965 137.798 184.719 136.436 183.682 135.68C181.732 134.259 180.065 132.506 178.515 130.665C181.176 131.18 183.653 132.175 185.969 133.559C186.998 134.174 190.525 136.405 191.346 134.279C191.851 132.97 189.46 131.325 188.714 130.601C186.883 128.823 184.906 126.748 183.935 124.357C186.338 123.801 188.603 125.655 190.24 127.164C192.057 128.841 194.284 130.6 195.807 132.531C196.593 133.527 196.764 134.704 197.378 135.778C198.069 136.987 199.173 138.023 200.23 138.918C202.264 140.642 204.644 141.91 207.087 142.96C212.669 145.358 218.652 147.056 224.601 148.246C227.52 148.831 230.367 149.1 233.33 149.199C235.633 149.276 236.651 149.963 237.53 152.08C239.909 157.809 239.478 164.111 239.122 170.147ZM170.798 126.497C169.466 127.74 167.737 128.52 166.345 129.715C165.121 130.766 163.708 131.888 162.342 132.739C160.883 133.646 159.793 133.01 158.479 132.189C156.937 131.225 155.164 130.835 153.576 129.973C148.085 126.99 141.367 119.682 142.392 112.971C142.826 110.127 144.3 107.329 146.975 106.038C149.405 104.867 152.938 104.216 155.537 105.196C157.004 105.749 158.053 106.969 158.993 108.168C160.088 109.566 160.508 109.345 161.624 107.997C163.62 105.585 166.913 103.469 170.167 103.519C171.785 103.545 173.392 103.885 174.849 104.555C175.046 104.646 175.156 104.921 175.355 105.014C175.598 105.129 175.998 104.891 176.167 104.998C176.594 105.267 177.02 106.109 177.266 106.536C178.253 108.251 180.031 111.613 178.239 113.056C178.238 113.057 178.319 115.009 178.295 115.232C178.168 116.397 177.765 117.358 177.245 118.424C175.684 121.624 173.379 124.087 170.798 126.497ZM173.452 153.572C172.191 153.963 170.833 150.019 172.042 149.39C173.196 148.789 174.594 153.218 173.452 153.572ZM153.645 148.856C153.208 150.346 153.024 152.037 151.956 153.249C150.978 152.091 150.882 149.955 151.83 148.764C152.371 148.085 154.123 147.229 153.645 148.856ZM194.001 122.754C193.994 122.792 195.518 123.519 194.774 124.315C193.758 125.402 193.898 123.287 194.001 122.754ZM200.301 110.612C200.283 112.119 197.088 111.755 197.11 110.24C197.138 108.376 200.319 109.016 200.301 110.612ZM196.486 98.0231C196.803 96.6439 202.361 94.7255 202.209 97.129C202.133 98.3341 195.815 100.955 196.486 98.0231ZM139.506 144.794C138.883 145.541 137.998 145.836 137.251 146.41C136.468 147.011 135.908 147.791 135.224 148.497C133.346 150.435 131.084 152.028 129.058 153.808C125.332 157.081 121.763 160.599 117.632 163.375C110.251 168.335 101.69 171.047 93.1924 173.423C92.4885 173.619 90.4605 174.414 89.764 173.822C89.0128 173.184 89.3947 170.939 89.4294 170.09C89.5703 166.61 89.9768 163.088 89.9328 159.613C89.9146 158.186 89.4957 156.157 90.2421 154.851C91.0754 153.392 93.4019 152.965 94.841 152.417C99.2152 150.748 103.429 147.934 107.293 145.327C112.043 142.123 116.84 138.865 121.728 135.874C126.517 132.943 131.799 130.981 137.141 129.307C137.389 129.826 134.84 131.496 134.548 131.73C133.151 132.853 131.63 134.017 130.593 135.499C129.858 136.548 129.105 138.922 131.133 138.983C132.116 139.013 133.57 138.064 134.461 137.757C135.933 137.25 137.45 136.894 138.991 136.662C137.667 138.117 133.179 140.731 133.995 143.15C134.787 145.498 139.37 142.758 140.947 142.758C140.689 143.577 140.039 144.154 139.506 144.794ZM85.3682 151.346C82.4336 152.376 79.4256 152.962 76.3966 153.627C73.5097 154.261 70.8411 154.738 67.8842 154.367C63.8014 153.855 59.2834 152.167 58.7657 147.538C58.152 142.053 62.0339 137.012 65.3673 133.077C69.424 128.289 73.9793 124.008 78.9161 120.132C83.8474 116.26 89.17 112.846 94.7464 109.964C98.9887 107.772 103.78 106.441 108.265 104.795C109.119 104.483 111.479 103.382 112.277 104.294C112.922 105.031 112.045 106.259 111.75 106.944C111.177 108.278 111.098 109.621 110.95 111.054C110.289 117.452 109.493 123.848 109.126 130.273C109.024 132.064 108.845 133.937 108.949 135.729C109.007 136.721 109.525 137.985 109.18 138.954C108.517 140.817 105.483 142.05 103.875 142.882C100.996 144.372 97.9482 145.483 95.04 146.908C91.846 148.473 88.7363 150.164 85.3682 151.346ZM126.068 109.775C126.874 109.665 128.081 109.446 128.799 109.967C129.735 110.646 129.49 111.591 128.625 112.084C127.942 112.473 126.343 112.579 125.668 112.226C124.519 111.625 124.713 109.962 126.068 109.775ZM130.53 124.59C129.879 125.672 127.5 126.382 127.707 124.363C127.885 122.634 131.729 122.598 130.53 124.59ZM129.647 94.1109C130.693 94.5154 132.592 94.8617 132.903 96.2049C133.191 97.4553 132.004 97.3725 131.147 97.0284C130.443 96.746 127.303 94.0893 129.647 94.1109ZM293.601 141.805C292.99 139.432 293.455 136.804 293.118 134.373C292.791 132.017 292.202 129.851 291.357 127.63C289.486 122.714 287.343 118.288 284.311 113.973C278.6 105.847 271.974 98.6893 263.973 92.754C256.075 86.8947 247.328 82.1329 238.063 78.7955C228.238 75.2562 218.348 74.0244 207.987 73.346C204.893 73.1437 201.802 72.9035 198.726 72.5135C196.477 72.2284 193.658 71.8773 191.435 72.5647C190.038 72.9967 189.258 74.2122 190.779 75.0098C191.858 75.5754 193.271 75.643 194.462 75.7933C193.023 80.3562 190.681 84.9346 186.97 88.0764C183.347 91.1439 178.499 92.1954 173.926 92.9733C171.447 93.3949 168.67 93.7212 166.152 93.5393C164.56 93.4246 163.318 92.689 162.676 94.3254C162.23 95.4622 162.019 96.7096 161.432 94.9931C160.737 92.9637 160.396 92.9766 158.234 92.4003C153.812 91.2215 148.743 90.1459 144.886 87.5969C140.884 84.9521 139.492 80.6735 137.258 76.6896C136.705 75.705 135.039 73.7119 135.89 72.5836C136.669 71.5518 139.202 71.6546 140.362 71.547C141.585 71.4334 142.817 71.4286 144.044 71.3811C144.756 71.3536 146.187 71.6446 145.901 70.5843C145.469 68.9861 140.843 69.191 139.694 69.165C137.557 69.1171 135.391 69.1665 133.266 69.401C122.726 70.5642 112.092 72.715 101.893 75.5832C82.1049 81.1475 62.9402 91.4007 48.4992 106.172C34.6373 120.351 30.2456 143.946 38.7674 162.05C43.196 171.459 52.807 175.324 62.1237 178.446C67.0379 180.093 72.2416 181.38 77.4654 181.07C79.9722 180.921 82.3509 180.247 84.7958 179.74C85.862 179.518 87.0754 179.165 88.1706 179.254C88.9997 179.322 89.7961 180.081 90.5738 179.678C91.1257 179.391 91.3657 178.569 92.0402 178.219C92.85 177.798 93.8319 177.647 94.7065 177.435C97.1377 176.845 99.4917 175.89 101.868 175.106C104.325 174.296 106.644 173.252 109.002 172.197C110.193 171.664 112.948 169.497 113.724 171.081C114.077 171.804 113.927 173.198 114.013 173.957C114.164 175.283 114.341 176.606 114.535 177.927C114.962 180.834 115.473 183.729 115.997 186.62C116.943 191.837 118.162 196.832 120.199 201.74C121.826 205.658 123.255 210.1 126.276 213.217C127.595 214.578 129.394 215.19 131.286 214.762C133.437 214.276 134.508 212.326 135.814 210.749C138.688 207.278 143.433 204.619 147.814 203.662C153.179 202.49 158.405 204.204 163.526 205.662C168.943 207.203 174.458 208.672 179.775 210.524C184.729 212.251 190.079 214.801 195.452 214.579C200.138 214.386 204.515 210.58 207.894 207.68C211.288 204.766 215.532 200.5 220.412 200.843C222.835 201.014 225.044 202.18 227.404 202.655C229.995 203.175 232.753 203.249 235.388 203.443C238.659 203.684 245.977 202.833 247.187 198.906C247.367 198.323 247.368 197.124 246.597 196.891C245.888 196.676 245.525 197.504 244.853 197.466C243.487 197.389 242.419 195.011 241.668 194.09C238.637 190.373 234.48 187.6 231.08 184.242C227.24 180.451 223.962 175.857 221.069 171.327C222.377 170.988 223.788 171.551 225.054 171.819C226.592 172.144 228.091 172.537 229.607 172.953C231.277 173.412 232.972 173.728 234.667 174.078C235.933 174.338 237.612 174.417 238.754 175.05C239.75 175.603 240.307 176.197 241.544 176.357C242.803 176.52 244.095 176.383 245.359 176.374C248.779 176.351 252.191 176.288 255.594 175.927C267.62 174.652 280.368 169.576 287.599 159.502C289.566 156.762 291.151 153.726 292.152 150.505C292.933 147.99 294.281 144.446 293.601 141.805Z" fill="#FFAB00"/>
<path fill-rule="evenodd" clip-rule="evenodd" d="M180.807 25.7343C183.967 25.7789 186.93 26.7142 189.874 27.7773C192.464 28.7122 195.225 29.5771 197.319 31.443C201.085 34.7996 202.066 40.3573 202.683 45.1122C203.451 51.0456 200.893 56.0237 198.74 61.3916C196.726 66.4122 193.029 70.4792 188.636 73.5784C186.334 75.2018 183.79 76.1816 181.128 77.041C178.425 77.9137 175.806 79.0825 172.914 79.078C168.521 79.0717 162.897 76.9896 161.026 72.6707C160.174 70.7043 161.003 70.3513 162.708 71.42C165.181 72.9705 167.566 74.6438 170.456 75.3316C176.06 76.666 182.773 74.5988 187.688 71.8713C192.601 69.1445 195.899 65.0484 198.103 59.9479C200.327 54.8024 201.191 49.732 200.334 44.1848C199.607 39.4838 198.161 35.1898 193.916 32.6379C184.752 27.1297 172.405 27.5735 164.255 34.7319C163.138 35.7132 162.033 36.6681 160.881 37.6052C160.149 38.2008 159.287 38.9154 159.393 39.9455C159.484 40.8275 161.369 44.2283 159.099 43.1837C157.26 42.3367 156.26 40.6809 154.032 40.4759C151.66 40.2576 148.831 42.0759 148.121 44.3644C147.444 46.5481 148.651 49.5356 150.541 50.7882C151.712 51.5638 153 51.444 154.329 51.4127C154.989 51.3971 156.826 51.1832 157.262 51.8792C158.035 53.1102 155.309 54.404 154.43 54.6763C152.29 55.3388 149.76 54.5591 148.53 52.6526C147.279 50.7145 146.423 48.4713 146.251 46.1623C146.086 43.95 146.589 41.7102 147.897 39.8938C149.288 37.962 152.124 35.7962 154.666 36.4673C155.769 36.7585 156.656 37.8961 157.738 38.1122C158.422 38.2484 158.134 38.3459 158.701 37.8403C159.06 37.5196 159.4 36.9278 159.732 36.5476C161.639 34.3617 163.526 32.0289 165.861 30.2794C170.048 27.1423 175.613 25.6606 180.807 25.7343ZM169.229 69.0717C169.724 67.9133 170.634 69.9797 170.903 70.3253C171.435 71.0088 172.687 71.5406 172.633 72.5488C172.544 74.2132 170.271 73.9044 169.513 73.0362C168.65 72.0477 168.74 70.2157 169.229 69.0717ZM185.38 61.1913C186.606 63.0986 185.111 65.1573 184.142 66.8453C183.215 68.4593 182.354 70.2838 181.274 71.8012C179.483 74.3205 175.585 71.5952 175.469 69.006C175.38 67.0239 176.787 67.8867 177.69 68.627C178.62 69.3894 179.06 69.5793 180.035 68.7466C181.995 67.0705 182.875 64.2682 184.23 62.1463C184.499 61.7256 184.986 61.4725 185.38 61.1913ZM188.876 61.8046C189.192 62.7269 188.528 65.1709 190.373 64.9265C191.392 64.7916 191.609 63.3323 192.145 62.6954C193.947 60.5543 193.394 64.6039 192.924 65.6174C191.886 67.8512 188.982 69.3903 187.541 66.5565C187.005 65.5023 187.008 64.1718 187.28 63.0385C187.428 62.4214 188.292 60.1013 188.876 61.8046ZM172.429 57.4363C172.266 58.5125 171.252 60.6565 172.49 61.4264C173.579 62.1041 175.475 60.6324 176.314 60.018C177.185 59.3794 179.16 57.5477 179.237 59.8272C179.277 60.9892 178.111 62.3833 177.28 63.0527C175.505 64.4803 171.818 65.7608 170.51 63.0738C169.798 61.61 170.188 59.5262 170.659 58.0511C171.04 56.8557 172.824 54.8369 172.429 57.4363ZM195.703 51.5444C196.425 52.3812 198.137 54.2561 197.206 55.4479C196.118 56.8408 194.35 54.2851 193.653 53.5737C193.025 52.9329 191.704 51.1082 192.267 50.1403C193.2 48.5386 195.069 50.8097 195.703 51.5444ZM184.353 47.941C186.713 49.4756 183.61 50.5805 182.266 50.7179C180.638 50.8835 178.558 50.9934 177.063 50.1966C174.945 49.0671 175.651 47.3611 177.704 46.9526C179.81 46.5342 182.521 46.7499 184.353 47.941ZM153.667 43.0559C155.403 43.393 157.385 43.8316 157.977 45.7201C158.587 47.6718 157.71 48.3196 155.937 47.8802C154.297 47.4735 151.846 47.0643 150.919 45.4653C149.811 43.5548 152.057 42.7438 153.667 43.0559Z" fill="#FFAB00"/>
<path fill-rule="evenodd" clip-rule="evenodd" d="M58.157 84.9932C57.5745 86.8705 54.6262 88.1156 53.156 89.2567C48.0133 93.2492 42.988 97.4061 38.3387 101.963C35.9256 104.328 34.0991 107.189 32.0064 109.819C31.4959 110.461 30.5914 111.899 29.5899 111.764C28.4913 111.616 28.2692 109.728 28.3042 108.903C28.4242 106.091 30.998 103.375 32.8334 101.438C34.8981 99.2608 37.1055 97.1389 39.3599 95.1561C41.842 92.9735 44.5354 91.0973 47.2802 89.2604C49.9755 87.4568 52.5597 85.373 55.3626 83.7392C56.683 82.9697 58.8755 82.677 58.157 84.9932ZM237.922 67.1648C240.069 67.2324 242.164 67.935 244.188 68.5872C248.641 70.0223 252.882 72.0131 257.065 74.0937C264.397 77.7408 271.453 82.1536 277.921 87.1709C279.273 88.2194 280.659 89.069 282.129 89.9265C283.07 90.4758 284.412 91.1459 284.774 92.2654C285.695 95.111 281.047 92.2549 280.388 91.8463L279.46 91.2722C265.698 82.7608 251.953 74.4911 236.386 69.61C235.557 69.3499 235.299 68.6119 235.734 67.8801C236.206 67.0872 237.125 67.1398 237.922 67.1648ZM57.5307 73.1203C57.4312 73.9867 56.4478 74.1838 55.7846 74.4619C53.3098 75.4993 50.7733 76.384 48.3052 77.4386C43.7244 79.3957 39.5177 82.2361 34.7364 83.7215C33.6437 84.0615 33.4825 82.9611 33.775 82.2122C34.1009 81.3764 35.0794 80.7896 35.7871 80.3062C37.8288 78.9105 40.1442 77.9071 42.4114 76.9376C44.6592 75.9756 46.9735 75.2481 49.2781 74.4418C51.42 73.6922 53.906 72.2972 56.2062 72.1942L56.3067 72.1893C57.0387 72.1524 57.6466 72.1031 57.5307 73.1203ZM241.829 59.9579C239.641 59.3435 241.708 57.961 243.009 58.0581C244.46 58.1666 245.862 58.8502 247.238 59.2625C251.445 60.5231 255.345 61.9016 259.275 63.8582C259.861 64.1504 262.443 65.5352 260.735 66.1484C259.551 66.5732 256.787 64.7504 255.771 64.3131C251.304 62.3913 246.505 61.2701 241.829 59.9579Z" fill="#FFAB00"/>
<path fill-rule="evenodd" clip-rule="evenodd" d="M154.588 64.4334C154.861 63.6324 158.245 54.8767 156.92 54.6127C155.518 54.3327 153.642 59.4127 153.236 60.3305C151.733 63.7203 150.843 67.3574 150.146 70.9934C149.66 73.525 149.233 76.1186 149.403 78.707C149.534 80.6961 150.357 80.9972 151.714 82.2161C151.714 76.1742 152.634 70.1519 154.588 64.4334Z" fill="#FFAB00"/>
</svg>
