<svg width="125" height="134" viewBox="0 0 125 134" fill="none" xmlns="http://www.w3.org/2000/svg">
<g clip-path="url(#clip0)">
<path fill-rule="evenodd" clip-rule="evenodd" d="M11.2666 40.3861C-2.83912 43.3088 -5.58929 130.989 13.7507 132.494C36.2844 134.177 24.7514 37.6406 11.2666 40.3861Z" fill="#FFAB00"/>
<path fill-rule="evenodd" clip-rule="evenodd" d="M3.28226 9.38821C-2.57295 27.987 20.5818 40.5634 26.3483 20.1932C30.784 4.51709 9.40362 -10.1848 3.28226 9.38821Z" fill="#FFAB00"/>
<path fill-rule="evenodd" clip-rule="evenodd" d="M113.201 61.4647C103.265 57.125 91.1993 54.9108 80.6422 55.088C75.0531 55.1765 68.1333 55.6194 66.0929 52.7853C62.8104 48.2684 61.9232 39.9432 50.7451 46.6742C43.2043 51.2796 42.9381 63.5903 42.7607 69.8785C42.051 91.4885 36.9055 104.331 47.1965 125.321C51.2774 133.734 55.3583 138.074 61.9232 128.863C68.5769 119.475 64.0524 90.0715 63.1653 79.5321C73.1014 81.7463 98.6514 79.355 103.442 90.6028C107.789 100.788 95.4577 126.915 113.023 131.343C115.241 131.874 117.459 131.432 118.612 130.989C122.871 129.306 123.58 119.032 124.201 110.087C127.573 62.7932 120.121 64.4759 113.201 61.4647Z" fill="#FFAB00"/>
</g>
<defs>
<clipPath id="clip0">
<rect width="125" height="134" fill="white"/>
</clipPath>
</defs>
</svg>
