<svg width="75" height="118" viewBox="0 0 75 118" fill="none" xmlns="http://www.w3.org/2000/svg">
<g clip-path="url(#clip0)">
<path fill-rule="evenodd" clip-rule="evenodd" d="M16.7998 79.1C16.5998 86.2 21.2998 121.4 7.89984 116.7C0.399836 114 1.49984 65.9 1.19984 60.2C0.799836 52.5 -1.70016 41.1 1.99984 33.8C8.39984 21.1 6.19984 25.1 14.6998 29.7C31.2998 38.7 36.3998 70.4 50.5998 83C52.6998 55.1 52.1998 23.6 68.2998 0C81.5998 25.2 69.2998 63 65.9998 89.9C64.9998 98.1 63.3998 115 53.2998 117.3C41.8998 119.8 21.6998 85.3 16.7998 79.1Z" fill="#FFAB00"/>
</g>
<defs>
<clipPath id="clip0">
<rect width="74.4" height="117.4" fill="white"/>
</clipPath>
</defs>
</svg>
