<svg width="234" height="127" viewBox="0 0 234 127" fill="none" xmlns="http://www.w3.org/2000/svg">
<g clip-path="url(#clip0)">
<path fill-rule="evenodd" clip-rule="evenodd" d="M100.4 65.4C100.3 70.5 103.2 100.9 93.5999 97.5C88.1999 95.6 88.9999 60.9 88.7999 56.8C88.4999 51.3 86.6999 43 89.3999 37.8C93.9999 28.7 92.3999 31.5 98.4999 34.8C110.5 41.3 114.1 64.1 124.4 73.2C125.7 55.6 124.6 44 132.4 28C133.8 25.1 138.1 25.5 139 28.6C143.7 46.2 137.6 61.2 135.6 78.2C134.9 84.1 133.7 96.3 126.5 97.9C118.1 99.7 103.9 69.9 100.4 65.4Z" fill="#3B247B"/>
<path fill-rule="evenodd" clip-rule="evenodd" d="M171.3 2.29992C152.6 -2.30008 103.1 0.699917 86 4.99992C85.5 5.09992 85.1 5.19992 84.6 5.19992C60.9 6.89992 69.2 5.49992 45.7 5.09992C41 4.99992 37.1 8.69992 36.9 13.3999C36.4 30.9999 36.3 48.6999 35.7 66.2999C35.3 75.7999 34.9 85.3999 34.5 94.8999C34.2 102.7 31.7 114.4 33.4 121.7C35.3 129.6 48.3 125.2 55 124.8C63.8 124.2 72.6 124 81.4 123.8C100.3 123.4 87.2 126 106.2 125.1C125.1 124.2 132.9 126 151.8 125.8C160.2 125.7 160.6 124.6 169 124.5C173.6 124.4 178.1 124.7 182.7 124.4C187.5 124.1 187.2 124.4 189.2 120C192.3 112.9 192.4 102.9 193.8 95.5999C195.8 85.2999 197.8 73.8999 199.5 63.5999C202.4 45.5999 200.6 26.6999 201.6 8.69992C201.9 1.89992 184.8 2.49992 173.2 2.49992C172.6 2.59992 172 2.49992 171.3 2.29992ZM187.1 64.0999C185.6 72.2999 183.9 82.2999 182.1 90.4999C180.9 96.2999 180.8 103.2 178 108.7C176.3 112.2 176.5 112 172.3 112.2C168.2 112.4 162.3 112.4 154.9 112.5C138.3 112.7 123.8 111.9 107 112.6C90.3 113.3 73.4 111.2 65.6 111.7C59.7 112 48.3 115.5 46.5 109.3C45.2 104.6 47.8 56.9999 49.1 30.8999C49.5 22.6999 56.7 15.9999 65.2 15.4999C83.4 14.5999 137.5 10.1999 153.7 13.7999C154.3 13.8999 154.8 13.9999 155.4 13.9999C166 14.0999 188.4 15.4999 188.1 20.8999C187.4 34.9999 189.7 49.8999 187.1 64.0999Z" fill="#FFAB00"/>
<path fill-rule="evenodd" clip-rule="evenodd" d="M193.4 3.29995C210.4 3.99995 223.4 5.39995 228.4 5.39995C233.4 5.39995 235.4 18.3999 231.4 18.3999C227.4 18.3999 204.8 17.9999 201.3 19.7999C196.4 22.3999 190.4 3.19995 193.4 3.29995Z" fill="#FFAB00"/>
<path fill-rule="evenodd" clip-rule="evenodd" d="M40.4001 126.4C23.2001 125.9 9.50012 125.4 4.40012 125.4C-0.699879 125.4 -1.49988 113.7 2.60012 113.7C6.70012 113.7 32.4001 114.2 33.4001 110.4C35.4001 103.4 43.4001 126.5 40.4001 126.4Z" fill="#FFAB00"/>
<path fill-rule="evenodd" clip-rule="evenodd" d="M44.4001 5.09989C27.2001 5.59989 13.5001 6.09989 8.40012 6.09989C3.30012 6.09989 2.50012 17.7999 6.60012 17.7999C10.7001 17.7999 34.4001 16.3999 36.4001 24.3999C38.2001 31.4999 47.4001 4.99989 44.4001 5.09989Z" fill="#FFAB00"/>
<path fill-rule="evenodd" clip-rule="evenodd" d="M185 124.3C202.5 123.8 216.8 123.4 221.9 123.4C227 123.4 227.9 112.6 223.8 112.6C219.7 112.6 195.2 113.9 193.2 106.5C191.4 100 181.9 124.4 185 124.3Z" fill="#FFAB00"/>
</g>
<defs>
<clipPath id="clip0">
<rect width="233.5" height="126.4" fill="white"/>
</clipPath>
</defs>
</svg>
