<svg width="165" height="191" viewBox="0 0 165 191" fill="none" xmlns="http://www.w3.org/2000/svg">
<path fill-rule="evenodd" clip-rule="evenodd" d="M43.8408 43.6822C43.6459 46.8654 43.4508 50.0483 43.2559 53.2315C44.5102 52.8706 52.4895 50.5256 51.9967 52.9033C51.6431 54.6087 49.3997 56.4534 48.2567 57.6407C47.2048 58.7339 46.1215 59.7984 45.0107 60.8319C47.0524 60.0514 49.1109 59.3122 51.1844 58.6206C52.7533 58.0974 54.3336 57.5865 55.9413 57.1944C56.538 57.0486 58.1494 56.4543 58.7131 56.8596C60.1944 57.9244 52.1568 65.7675 51.0558 66.8731C52.6126 66.1499 54.2068 65.493 55.8282 64.9293C56.9987 64.5223 60.6152 62.967 61.6511 64.2951C62.7599 65.7162 60.013 68.9794 59.2513 70.0141C58.1597 71.4965 56.9769 72.9188 55.7358 74.2787C60.8942 78.9065 66.9559 83.0254 73.4071 85.5856C78.1373 87.4628 82.7837 87.9406 87.7751 86.9106C92.9028 85.8521 97.8204 83.8223 102.495 81.5017C105.241 80.1385 107.95 78.6638 110.531 77.007C109.467 75.7141 108.434 74.3946 107.43 73.0547C105.998 71.1417 104.237 69.0514 103.42 66.7741C102.621 64.5452 105.62 64.9804 107.058 65.1015C109.142 65.2767 111.219 65.6488 113.261 66.0937C111.817 65.0908 110.4 64.0478 109.011 62.971C107.201 61.5677 104.786 59.9808 103.601 57.962C102.56 56.1866 104.846 56.635 105.904 56.8676C108.425 57.4224 110.878 58.3676 113.282 59.2895C115.043 59.9648 116.793 60.6719 118.526 61.4165C117.45 60.4825 116.411 59.5038 115.411 58.4889C114.068 57.1249 112.257 55.4592 111.655 53.5809C110.429 49.7557 118.677 52.6411 120.086 53.2315C119.826 49.2689 119.566 45.3063 119.306 41.3438C108.383 44.2467 97.4605 47.1499 86.5377 50.0532C85.3575 50.367 83.8801 51.0503 82.6491 51.0867C81.534 51.12 80.1873 50.6186 79.1 50.4112L59.3342 46.639C54.1698 45.6534 49.0053 44.6678 43.8408 43.6822Z" fill="#FFAB00"/>
<path fill-rule="evenodd" clip-rule="evenodd" d="M161.236 179.976C160.057 180.65 158.675 181.17 157.365 181.519C156.596 181.725 155.325 182.358 154.649 181.777C154.324 181.499 154.25 180.865 154.058 180.499C153.755 179.918 153.325 179.416 152.921 178.902C151.943 177.658 150.926 176.458 149.861 175.287C149.356 174.733 148.434 173.438 147.545 173.523C146.437 173.629 146.464 175.161 146.741 175.944C147.626 178.436 150.302 180.608 152.051 182.486C151.606 183.169 149.165 183.088 148.487 182.928C147.452 182.684 147.347 181.948 146.875 181.106C145.77 179.138 143.528 178.037 141.685 176.88C141.014 176.457 139.586 175.288 138.71 175.583C137.881 175.861 137.917 176.92 138.181 177.611C138.58 178.656 139.716 179.381 140.555 180.041C141.675 180.921 142.699 181.879 143.632 182.956C142.287 183.066 140.947 183.255 139.605 183.366C137.983 183.5 136.631 182.61 135.137 182.106C133.749 181.638 132.366 181.242 131.001 180.702C129.469 180.096 127.864 179.885 126.318 179.353C120.252 177.266 114.309 174.642 108.463 171.996C105.678 170.736 102.95 169.474 100.048 168.488C97.9327 167.769 94.6089 166.335 94.1033 163.819C93.8364 162.489 94.8089 161.06 94.9522 159.731C95.1203 158.168 94.988 156.449 94.5114 154.949C94.0912 153.628 93.395 152.405 92.8463 151.137C92.2072 149.659 92.7794 149.683 94.0212 149.515C95.5075 149.313 97.2419 148.478 98.639 147.933C100.248 147.306 101.844 146.43 103.318 145.529C104.651 144.714 105.811 143.663 106.872 142.522C107.952 141.362 108.651 139.986 109.695 138.797C113.547 143.529 117.208 148.334 121.302 152.861C123.234 154.998 125.335 156.766 127.716 158.39C128.71 159.069 129.696 159.844 130.779 160.381C132.134 161.052 133.648 161.469 135.04 162.081C140.378 164.431 145.472 166.999 150.451 170.03C152.861 171.496 154.882 173.177 157.004 175.016C157.664 175.589 163.073 178.926 161.236 179.976ZM98.6203 141.208C97.7577 141.599 96.9355 142.106 96.0151 142.356C96.276 140.771 97.7574 138.379 99.6566 138.642C100.382 138.743 100.93 139.305 100.611 140.081C100.321 140.786 99.2347 140.931 98.6203 141.208ZM38.5787 98.2031C37.6007 98.7424 36.6896 99.0565 36.1162 97.899C36.5409 97.8138 38.4703 97.5571 38.5787 98.2031ZM36.9504 94.9308C36.1948 94.7019 36.7992 94.4612 37.0592 94.1849C37.2618 93.9701 37.9325 93.2159 38.1672 93.0914C39.2038 92.5429 40.005 94.5837 40.5006 95.2461C39.3272 95.1419 38.0929 95.2768 36.9504 94.9308ZM45.0306 101.997C43.5983 102.239 43.7573 100.449 43.8 99.5425C44.1022 99.9108 46.1475 101.808 45.0306 101.997ZM49.7775 98.9051C48.0312 99.1994 46.8773 96.1858 47.1904 94.8677C47.4659 93.7065 48.8193 93.0581 49.8966 92.8869C50.9409 92.7208 52.3947 92.9474 52.705 94.1502C52.979 95.2134 50.9415 98.7088 49.7775 98.9051ZM91.1147 144.398C89.8597 144.783 88.63 144.831 87.3688 145.209C85.9376 145.639 84.6132 145.6 83.1792 145.892C82.5957 146.011 81.0219 146.86 80.4529 146.67C79.8892 146.482 79.0734 144.735 78.7494 144.281C81.2865 143.227 83.4509 141.867 85.1232 139.648C86.453 137.883 87.879 135.238 87.0425 132.96C86.0989 130.392 82.8465 129.834 80.6781 130.907C79.6522 131.415 78.6354 132.045 77.7897 132.818C76.8226 133.702 76.4423 134.667 75.8159 135.757C75.1822 136.86 74.7377 136.247 74.1046 135.31C73.5637 134.51 73.6343 133.702 72.9581 132.912C72.6132 132.509 72.0791 132.121 71.8992 131.6C71.785 131.271 72.0255 130.686 71.8091 130.426C71.5046 130.061 71.1344 130.49 70.8793 130.164C70.6942 129.927 70.7547 129.388 70.5633 129.091C70.3974 128.923 70.2129 128.779 70.0089 128.66C69.7612 128.538 69.7162 128.385 69.8731 128.201C69.6763 127.837 69.866 127.715 69.4444 127.272C68.7872 126.581 68.188 125.92 67.7202 125.105C67.5064 124.732 67.5277 124.179 67.2619 123.856C66.8975 123.413 66.2902 123.48 65.9768 122.931C65.6976 122.442 65.8844 121.588 65.4241 121.144C65.1813 121.075 64.9385 121.007 64.6955 120.94C64.5127 120.762 64.4062 120.547 64.3758 120.294C64.1201 119.901 64.0693 119.439 63.7464 119.023C63.1286 118.229 62.2975 117.495 61.7516 116.657C61.178 115.777 61.4822 115.629 62.4789 115.314C63.3777 115.029 64.1984 114.765 65.0315 114.281C68.8833 112.042 72.5351 106.103 66.4214 104.288C64.1525 103.615 62.2886 101.804 59.7729 102.516C58.6824 102.825 57.6479 103.482 56.8343 104.261C56.2721 104.8 55.7515 106.241 55.0613 106.518C53.8204 107.014 54.345 105.774 53.9929 105.204C53.8247 104.932 53.1478 104.619 52.8969 104.371C52.6025 104.081 52.3178 103.715 52.1135 103.356C51.7341 102.69 51.5019 102.319 50.9547 101.776C50.7483 101.571 49.7184 100.514 50.6473 100.652C50.2711 99.5066 50.8201 99.3345 51.5788 98.4977C52.4699 97.5152 53.39 96.15 53.3951 94.7733C53.4055 92.1301 50.2697 90.9459 48.3004 92.5148C47.8998 92.8341 45.5296 95.9159 46.0146 93.9506C46.2761 92.8906 48.697 90.1235 49.8194 90.8395C48.5616 89.0084 45.6723 93.4543 44.9979 94.3639C44.4236 93.308 44.3829 92.4818 43.4327 91.6642C42.6593 92.9035 43.0677 91.5492 42.8972 91.2738C42.5287 90.6794 42.731 91.3593 42.5313 91.1482C42.2825 90.8851 41.8908 90.6777 41.6262 90.3295C41.1727 90.9439 41.3538 90.2827 41.2149 90.0532C40.8901 89.5165 41.0158 89.2055 40.459 88.7388C40.0538 88.3994 39.2557 87.8724 38.7105 87.8242C38.0817 87.7686 37.9075 88.0093 37.267 87.8311C36.4519 87.6048 35.4263 87.2571 35.8209 88.6186C36.1073 89.608 37.2718 90.1702 37.527 91.1812C37.7838 92.1987 36.7765 93.2242 36.2878 94.0584C35.6602 95.1287 35.1471 95.0412 34.01 95.2825C33.2834 95.4368 32.3137 95.7667 32.9367 96.6471C33.3819 97.2762 34.4247 97.1437 35.0122 97.5163C35.8358 98.0387 35.8243 99.3267 36.8758 99.5508C38.0338 99.7975 38.6973 98.5097 39.6736 98.1988C40.3678 97.9776 42.5184 98.0023 43.0648 98.5229C43.8095 99.2324 43.1661 100.588 43.3535 101.469C43.6321 102.776 44.5175 102.856 45.637 102.898C47.0153 102.949 47.4997 104.271 48.241 105.319C49.9772 107.775 51.4862 110.393 53.2646 112.816C54.0517 113.889 55.2034 114.844 55.8479 116.008C56.644 117.446 55.5389 118.275 54.5852 119.308C53.3392 120.656 52.4088 122.191 51.328 123.665C50.3675 124.976 49.174 124.649 47.6392 124.649C47.9813 123.945 48.3928 123.506 49.2342 123.591C48.3544 122.518 47.6507 123.746 47.0799 124.426C46.2543 125.409 45.1778 125.646 44.1171 126.293C43.7418 126.521 41.6979 128.004 42.3189 128.511C42.3895 128.568 45.7727 126.345 46.1581 126.141C46.1581 126.962 45.9785 127.814 46.0935 128.63C46.1779 129.229 46.5992 129.853 46.5094 130.475C46.3392 131.65 44.8197 132.575 44.1674 133.49C43.6763 134.179 43.7949 134.722 43.5449 135.461C43.317 136.136 43.4367 135.932 42.8688 136.14C41.7123 136.564 39.766 136.335 38.7188 135.732C38.0688 135.358 37.5703 134.766 37.0423 134.244C36.6445 133.851 35.6441 133.18 35.5336 132.629C35.3439 131.682 37.2268 129.922 37.5996 128.945C38.6519 126.187 36.8471 124.044 34.0387 123.887C34.9043 123.22 35.9773 123.723 36.8896 123.977C35.3299 121.819 32.6661 123.595 31.3432 125.062C30.4392 122.78 30.0033 120.372 29.4511 117.991C29.0749 116.371 27.6431 113.478 28.2817 111.809C28.5905 111.003 29.462 110.553 30.065 109.994C30.75 109.358 31.3366 108.598 31.8373 107.811C33.0174 105.958 33.6987 103.618 32.0741 101.792C32.5677 101.71 33.0616 101.629 33.5552 101.548C32.7522 100.795 31.4855 101.162 30.4435 100.938C29.7823 100.797 27.8799 100.888 27.4385 100.515C26.9076 100.065 27.248 97.9977 27.2669 97.3858C27.3105 95.9558 27.4302 94.5808 27.5883 93.1594C27.7381 91.8166 27.708 90.3659 27.9858 89.0466C28.2114 87.976 28.932 87.6498 29.7636 87.019C31.7512 85.5104 33.3709 83.6756 32.6922 81.076C32.9327 81.0378 33.1732 80.9997 33.4137 80.9615C32.636 80.3998 31.6296 80.6041 30.7646 80.3072C31.559 78.0739 33.3158 74.1482 36.1684 73.9367C36.2666 74.935 36.1994 76.1224 36.8738 76.9488C37.6415 77.8895 38.9891 77.9844 40.0291 77.4867C40.9727 77.0346 41.8586 76.0768 42.2937 75.1304C42.5878 74.4898 42.5347 73.4066 43.0513 72.8989C43.7441 72.2178 48.5199 72.6286 48.3736 73.7781C48.2875 74.454 47.0104 75.5899 46.6534 76.1889C46.0003 77.285 45.4774 78.4707 45.2375 79.7297C44.8733 81.6414 45.0842 84.1653 47.0279 85.1704C49.2385 86.3139 51.9327 84.8601 53.7455 83.6042C54.7411 82.9145 55.7053 82.1535 56.6147 81.3543C57.0992 80.9291 57.5859 80.4908 58.0129 80.0071C58.328 79.65 58.58 79.0742 58.968 78.8069C59.8846 78.1752 60.7831 79.2469 61.5588 79.7882C62.8224 80.6701 64.0796 81.5074 65.4359 82.2412C68.188 83.7304 70.7045 85.7029 73.1378 87.6613C75.5854 89.6315 78.1091 91.6582 80.0918 94.1127C78.8908 94.8505 79.1052 95.0421 78.5709 96.3582C78.1918 97.2923 77.6695 98.0872 77.6092 99.1251C77.505 100.916 78.6561 102.442 80.4032 102.839C81.3804 103.061 82.3113 102.883 83.2165 102.484C83.9198 102.174 84.6212 101.411 85.3562 101.221C86.7225 100.869 87.8159 103.447 88.5818 104.355C91.9834 108.389 95.5789 112.262 98.7819 116.46C99.1366 116.925 100.19 117.834 100.276 118.449C100.399 119.333 99.0066 120.176 98.4292 120.683C98.1258 120.948 94.91 123.97 95.9899 124.45C96.2975 124.587 97.1986 122.733 97.4239 122.575C98.2673 121.981 97.6294 123.145 97.5791 123.733C97.4535 125.195 98.4587 125.991 99.8718 125.806C101.38 125.608 102.722 124.419 103.656 123.296C104.825 124.649 106.653 126.694 106.991 128.501C107.207 129.656 106.207 132.482 108.074 132.717C108.359 132.753 109.391 131.989 109.583 132.423C109.743 132.785 108.628 133.404 108.467 133.524C107.78 134.036 107.365 134.585 106.811 135.205C106.16 135.934 105.27 136.547 104.537 137.245C103.765 137.981 102.238 139.977 101.22 139.013C100.708 138.528 100.842 137.894 100.022 137.609C99.2758 137.35 98.3299 137.679 97.636 137.966C96.8548 138.29 94.2821 139.47 93.9965 140.442C93.6028 141.782 95.7293 140.171 96.1072 139.935C95.6762 141.029 95.4377 142.611 94.3397 143.249C93.4274 143.779 92.1154 144.09 91.1147 144.398ZM76.531 136.129C77.2611 133.785 81.5669 129.606 84.2883 130.913C81.1166 131.577 78.5998 133.745 76.531 136.129ZM78.1413 142.842C77.08 142.251 77.1371 140.535 76.7666 139.531C76.554 138.955 76.1287 138.534 76.2538 137.895C76.4002 137.146 77.357 136.313 77.8663 135.772C79.4694 134.071 82.2904 131.747 84.8706 132.137C88.1548 132.633 85.9284 137.037 84.8101 138.553C83.857 139.846 80.1843 143.979 78.1413 142.842ZM70.4798 139.975C66.9282 139.738 63.3886 139.421 59.8854 138.77C58.6434 138.539 57.6028 138.573 58.3134 137.147C58.5481 136.676 59.9629 133.726 60.2823 133.81C60.4717 133.86 60.4284 135.888 60.4841 136.121C60.7349 137.164 61.4391 138.137 62.6264 138.071C64.5689 137.963 65.821 135.454 66.8438 134.108C67.6631 135.208 68.2563 136.43 69.0799 137.512C69.4737 138.03 70.8443 139.233 70.4798 139.975ZM49.6575 126.05C49.0618 127.416 47.8633 128.715 47.03 129.952C46.5587 128.955 46.2273 126.668 47.3451 125.932C47.7681 125.653 50.0343 125.186 49.6575 126.05ZM61.9755 130.117C62.1394 129.591 62.321 129.069 62.5236 128.557C62.8712 129.65 63.0488 129.682 61.9755 130.117ZM65.0157 131.236C65.4468 131.965 66.1654 132.683 66.0526 133.6C65.9671 134.294 65.3386 135.006 64.8898 135.49C64.1471 136.29 62.5015 137.827 61.4254 136.764C60.5263 135.876 60.8393 133.434 61.2575 132.435C61.8547 131.007 63.9881 129.497 65.0157 131.236ZM62.9064 129.74C63.1535 129.642 62.6344 128.049 63.1162 127.89C63.5364 128.847 63.9324 129.106 62.9064 129.74ZM56.12 108.302C55.9599 107.714 55.5928 107.739 55.7251 107.012C55.8118 106.535 56.1903 106.027 56.4776 105.649C57.0498 104.897 57.8048 104.277 58.6213 103.807C60.3449 102.816 62.7119 102.405 64.255 103.956C62.8123 104.183 58.3897 105.606 58.3616 107.577C59.9658 107.268 61.2273 105.658 62.8364 105.151C64.1571 104.735 65.5894 104.764 66.9032 105.204C70.4996 106.407 69.0042 109.512 66.9744 111.528C65.7693 112.726 64.3244 113.62 62.7449 114.236C62.0139 114.522 61.5654 114.553 60.8468 114.41C60.7122 114.383 60.555 114.134 60.3937 114.08C59.9928 113.947 60.109 114.397 59.7787 114.195C59.4905 114.019 58.8758 112.883 58.6798 112.558C58.3679 112.04 58.2224 111.537 57.8396 111.064C57.4562 110.592 57.2696 109.958 56.9149 109.53C56.7447 109.324 56.2781 109.333 56.1527 109.132C55.9647 108.83 56.2041 108.61 56.12 108.302ZM50.5968 131.456C51.4141 130.038 52.8126 128.834 53.8945 127.594C53.9611 129.632 52.498 131.027 50.5968 131.456ZM51.7014 132.112C53.3894 131.518 54.3195 130.099 54.4917 128.378C54.7101 126.198 56.0804 125.054 56.9054 123.096C57.2217 122.345 57.5905 119.876 58.8167 120.582C59.2374 120.825 59.4868 121.737 59.7061 122.149C60.2364 123.145 60.8393 124.111 61.4018 125.09C61.8598 125.887 62.5463 126.688 62.3443 127.647C62.1681 128.483 61.601 129.374 61.269 130.163C60.4849 132.026 59.455 133.741 58.5943 135.563C58.2471 136.298 57.8361 138.037 56.776 138.029C55.9369 138.021 56.0307 137.105 55.4783 136.791C54.781 136.395 53.988 137.149 53.4152 137.462C54.0747 136.349 55.2281 135.719 56.5243 135.929C54.9721 134.385 53.9235 136.468 52.5913 136.932C51.3292 137.372 49.0899 135.298 48.0272 134.711C48.4339 134.023 48.8012 133.182 49.5003 132.73C50.1635 132.3 50.9773 132.366 51.7014 132.112ZM37.9775 146.221C38.1623 145.332 38.6846 144.806 39.0158 143.999C39.3998 144.978 38.5007 145.555 37.9775 146.221ZM64.7968 151.676C64.7061 154.67 64.4613 157.655 64.3729 160.65C64.3322 162.031 64.0874 163.348 63.9249 164.713C63.7875 165.868 63.8575 167.001 63.13 167.987C61.983 169.542 59.7531 169.989 58.0218 170.565C56.7505 170.988 55.4645 171.372 54.209 171.842C53.0795 172.265 52.1689 172.905 51.0947 173.408C50.1339 173.858 49.0965 174.124 48.14 174.603C47.1508 175.099 46.3688 175.703 45.3526 176.144C44.1361 176.672 43.1337 177.612 42.0518 178.358C41.0993 179.014 40.0917 179.522 39.2724 180.347C38.5041 181.122 37.5316 181.462 36.6609 182.15C35.7402 182.878 34.7766 183.351 33.7595 183.921C31.6761 185.091 28.8651 187.088 26.3578 185.952C27.0749 185.037 28.5425 184.158 28.6542 182.897C28.7994 181.255 27.3685 181.86 26.54 182.384C25.2851 183.178 24.5909 184.137 23.6355 185.195C22.5186 186.433 21.1078 185.6 19.7412 185.252C20.6756 184.412 21.6025 183.564 22.5352 182.722C23.3227 182.012 24.5274 181.244 25.007 180.262C25.3496 179.559 25.333 178.596 24.5059 178.232C23.5807 177.824 22.5344 178.684 21.8491 179.196C20.0299 180.555 18.8318 182.279 17.6374 184.171C17.002 185.177 16.7093 185.1 15.5404 184.899C14.3018 184.686 13.0629 184.459 11.814 184.309C13.4684 182.612 15.3174 180.774 16.6241 178.788C17.0473 178.145 17.5995 176.449 16.3098 176.293C15.7783 176.229 14.7202 177.314 14.3101 177.607C12.5185 178.886 10.7961 180.499 9.60858 182.367C9.21657 182.983 9.09346 183.669 8.3344 183.72C7.34203 183.787 5.49791 182.841 4.54055 182.549C6.37032 180.245 8.18718 177.924 10.3249 175.893C12.289 174.026 14.2482 172.669 16.5451 171.238C19.0071 169.703 21.3004 167.936 23.5606 166.123C25.7241 164.387 27.9844 162.75 29.976 160.811C33.9541 156.94 37.4974 152.488 40.4318 147.78C41.1182 146.679 41.7645 145.548 42.3232 144.376C42.8478 143.276 43.0897 141.959 43.798 140.958C44.0428 140.612 44.3875 140.355 44.6056 139.994C44.8113 139.654 44.7416 139.243 45.0553 138.942C45.7807 138.247 47.1017 138.666 47.7798 139.154C48.8703 139.938 49.7525 140.89 50.9509 141.546C52.1565 142.206 53.4606 142.686 54.7953 143.011C57.915 143.768 61.0078 144.39 64.1861 144.85C63.8589 146.062 64.6622 146.252 64.9282 147.343C65.2513 148.665 64.8372 150.329 64.7968 151.676ZM34.7573 131.474C34.0499 130.425 33.4189 129.327 32.7235 128.271C32.3002 127.627 31.7753 126.936 32.1372 126.149C32.7468 124.823 34.8971 124.587 36.0639 125.165C38.7168 126.48 36.2525 130.24 34.7573 131.474ZM27.7356 107.468C27.4913 105.416 28.2768 103.961 30.135 102.885C31.4594 102.118 32.5258 103.166 32.345 104.564C32.0698 106.693 29.7918 109.061 28.0532 110.172C27.9396 109.272 27.8432 108.369 27.7356 107.468ZM27.4523 101.598C28.0004 101.163 29.4683 101.717 30.1034 101.755C29.2301 102.518 28.3566 103.28 27.483 104.042C27.4259 103.519 26.9467 101.999 27.4523 101.598ZM30.3996 81.784C34.8193 81.21 29.7315 85.9476 28.4507 86.69C28.6591 85.6819 29.171 81.9438 30.3996 81.784ZM42.1657 73.4898C41.5722 75.9178 36.9585 78.5668 36.9102 74.5894C36.8925 73.1074 37.7258 73.2273 38.9423 73.085C39.6363 73.0041 42.5049 72.1016 42.1657 73.4898ZM26.2295 77.25C25.7115 78.6078 25.2962 80.0008 24.7886 81.3603C24.5636 81.9621 24.299 82.3758 23.88 82.8528C23.5293 83.2516 23.1121 83.3523 23.1258 83.9825C23.5652 83.8979 23.909 83.6363 24.264 83.3841C24.1779 84.6337 23.7357 85.9785 23.5216 87.2241C23.265 88.7178 23.0515 90.2121 22.9723 91.7268C22.8004 95.0203 22.799 98.3021 22.8713 101.598C22.9083 103.277 22.9249 104.957 23.0156 106.634C23.061 107.469 23.1121 108.307 23.2154 109.136C23.2573 109.471 23.5006 110.184 23.3502 110.498C22.7599 111.729 20.145 108.346 19.0094 108.842C19.1727 107.905 18.7959 108.11 18.1666 107.649C17.8618 107.426 17.6635 107.045 17.3455 106.846C17.2494 106.743 17.1435 106.651 17.0281 106.57C16.8967 106.391 16.7581 106.41 16.6123 106.627C15.3329 105.863 15.0023 104.235 14.3156 103.14C13.9623 102.577 13.6211 102.489 13.5608 101.71C13.5086 101.032 13.6108 100.341 13.5832 99.6592C13.5519 98.8907 13.5069 98.0433 13.2911 97.2992C13.0406 96.4351 12.6959 96.5057 12.0247 96.0453C12.2316 95.9549 12.3679 95.8032 12.4339 95.59C12.2195 95.6282 11.5681 95.8935 11.4062 95.7028C11.088 95.3281 11.839 95.2782 12.0364 95.1287C11.1941 94.7552 11.3755 94.4483 11.6794 93.7638C11.7655 93.5702 11.8476 93.2807 11.9208 93.1175C12.0806 92.7606 12.1724 92.9867 12.2252 92.5435C12.2755 92.1209 11.9004 91.2899 11.7899 90.8398C11.6045 90.0845 11.5021 89.4318 11.6685 88.645C11.8034 88.0078 12.1661 87.431 12.1914 86.7757C12.1986 86.5919 11.9179 86.5308 11.9142 86.3532C11.9087 86.0936 12.1512 85.9794 12.2143 85.7396C12.3753 85.1257 12.3027 84.4765 12.5782 83.8939C12.8262 83.3706 13.327 82.6936 13.6814 82.2369C13.927 81.9205 14.5297 81.5639 14.5957 81.1463C14.6393 80.8694 14.208 80.9013 14.2272 80.6927C14.2533 80.4105 14.4904 80.319 14.5555 80.1093C14.7349 79.5335 14.7799 78.9801 15.2434 78.5389C15.8271 77.9836 16.0808 78.2162 16.1049 77.3003C16.1167 76.8533 15.7588 76.7845 15.9505 76.2692C16.0547 75.9896 16.362 75.8243 16.5586 75.6261C17.1423 75.038 17.5358 74.5156 17.9513 73.789C18.3189 73.147 18.9052 72.7735 19.2818 72.219C19.7722 71.4964 19.039 71.1381 20.0342 70.9341C19.8927 70.4854 19.7424 70.1228 20.1146 69.743C20.3493 69.5035 20.9451 69.6501 21.1529 69.373C21.391 69.0548 21.0389 68.3009 21.3979 68.0944C21.6898 67.9269 22.1269 68.4438 22.5854 68.1879C22.935 67.9929 23.4627 66.9157 23.3502 66.5198C24.2539 67.0275 24.0287 66.6779 24.4611 66.0264C24.5581 65.8804 24.852 65.848 24.9355 65.7005C25.1025 65.4059 25.0644 65.1055 25.3049 64.866C25.7058 64.4673 26.3615 64.5697 26.8026 64.2848C27.1671 64.0496 27.1478 63.796 27.4385 63.574C27.6871 63.3843 28.0951 63.3479 28.3368 63.1514C28.81 62.7664 28.8146 62.3599 29.4066 62.0283C30.1077 61.6359 30.7287 61.302 31.3664 60.7816C31.7822 60.4425 32.1768 59.8412 32.6633 59.6175C33.3359 59.308 33.86 59.2862 34.518 58.8447C34.9935 58.5254 35.4432 57.9987 35.9101 57.7296C36.2623 57.5271 36.5093 57.5707 36.9533 57.4451C37.7522 57.2187 37.9468 56.4668 38.5985 56.1607C39.0459 55.9505 39.6974 56.143 40.1887 56.0325C41.7177 55.6897 43.2281 54.9502 44.7623 54.5405C46.6351 54.0408 48.5211 53.603 50.4083 53.1613C48.6741 55.509 46.4652 57.6272 44.225 59.4918C43.4898 60.104 39.4603 62.8944 41.6322 64.086C42.504 64.5642 44.3981 63.0194 45.102 62.6419C46.5194 61.8814 47.9876 61.2727 49.4721 60.6577C51.8727 59.6631 54.9991 57.8943 57.6668 58.0366C56.0428 60.0266 54.0156 61.6241 52.1583 63.382C50.4513 64.9977 47.8794 66.5129 48.6844 69.1572C46.2867 68.5479 44.1332 67.8279 41.6405 67.9874C40.5239 68.0588 39.4067 67.9246 38.2952 68.0809C37.0865 68.2516 35.9483 68.6555 34.7869 69.0101C33.868 69.2904 32.8527 69.3124 32.0072 69.7786C31.5986 70.0041 31.0935 70.3259 30.7264 70.6056C30.2371 70.9786 30.1258 71.2256 29.7415 71.717C28.3706 73.4703 27.0442 75.114 26.2295 77.25ZM18.7308 110.435C18.6559 110.132 18.5878 109.855 18.502 109.509C19.2651 109.978 19.2651 109.978 18.7308 110.435ZM12.9639 100.77C12.8698 100.9 12.4746 100.942 12.3598 100.83C12.2169 100.69 12.5926 100.147 12.6528 100.032C12.8018 100.146 13.1444 100.52 12.9639 100.77ZM11.3302 97.2527C11.4312 96.8821 11.5325 96.5117 11.6335 96.1411C11.7575 96.4845 12.3168 96.8643 12.3291 97.1916C12.3369 97.4085 11.4407 97.3006 11.3302 97.2527ZM11.6544 97.761C12.53 98.3368 12.6216 99.0161 12.6477 100.01C11.5999 99.6632 11.7503 98.65 11.6544 97.761ZM26.8809 58.5466C26.7925 58.7856 26.4175 59.53 26.1425 59.0093C26.0547 58.8427 26.6981 58.6152 26.8809 58.5466ZM26.6295 57.7351C26.8459 57.5403 27.2821 57.7827 27.5269 57.6252C27.6985 57.5148 27.6417 57.4029 27.7224 57.3375C27.7384 57.3243 27.9717 56.8527 28.0673 56.7457C28.236 56.5575 28.6042 56.4402 28.8094 56.2703C29.3828 55.7956 29.7065 55.1713 30.0673 54.5365C30.4977 53.7783 30.6349 53.6905 31.3291 53.3434C31.8078 53.1042 32.1788 52.8113 32.5683 52.4045C33.0171 51.9361 32.9841 51.6007 33.3526 51.0887C33.5345 50.8359 33.7965 50.8047 34.0086 50.601C34.2629 50.3571 34.392 50.0161 34.6271 49.7699C34.7286 49.6635 35.0546 49.6638 35.1161 49.5726C35.1944 49.4572 35.2555 48.996 35.329 48.911C35.4693 49.1004 35.61 49.2897 35.75 49.479C36.3033 48.5071 36.7071 47.7042 37.6323 47.0573C38.604 46.378 39.4428 45.3843 40.4473 44.7762C40.6728 44.6396 41.1328 44.5819 41.3053 44.3806C41.5969 44.0398 41.3443 43.7365 41.557 43.4471C41.7983 43.1189 42.2658 43.3846 42.5726 43.2431C42.9609 43.0641 43.072 42.5412 43.5719 42.5988C41.9281 44.5412 41.9487 47.5633 41.8615 49.9894C41.8236 51.0347 42.4828 51.5617 41.5096 52.3288C40.682 52.9814 39.5149 52.7878 38.5363 53.2172C37.3074 53.7565 35.9931 54.0434 34.7393 54.5136C33.4424 54.9995 32.3995 55.8506 31.1515 56.4138C30.0509 56.91 29.2993 57.6157 28.2926 58.2285C27.9184 58.4563 27.3387 58.787 26.8924 58.5148C26.6129 58.3441 26.2648 58.0638 26.6295 57.7351ZM45.1944 41.4488C45.2659 41.1728 46.6689 40.4476 47.0142 40.211C47.5322 39.8552 48.299 38.9866 48.8772 39.3317C49.0775 38.5302 49.8593 37.6383 50.55 37.4685C51.3163 37.2797 52.6309 36.6234 53.3848 36.0505C53.6049 35.8833 53.6775 35.6386 53.9367 35.4817C54.3878 35.2083 54.8355 35.3575 55.27 34.9848C55.3365 34.928 55.9378 33.9363 55.9616 33.9458C55.9923 34.0522 56.0204 34.1598 56.0448 34.2679C56.5011 34.0152 56.9075 33.8141 57.1919 33.4917C57.2564 33.4185 56.8383 33.2283 56.9703 33.0835C57.1319 32.9062 57.4926 33.1044 57.6559 32.936C57.1479 35.4547 57.5262 38.6966 60.0843 39.9734C57.0421 40.3019 54.0707 39.3882 50.9908 39.9493C49.5166 40.2181 48.018 40.659 46.677 41.3363C45.8554 41.7514 44.8047 43.238 43.9868 42.5162C44.3114 42.0839 44.8065 41.8154 45.1944 41.4488ZM59.956 34.2028C61.0936 32.8129 62.8192 32.263 64.5572 32.7607C66.5918 33.3436 65.7338 34.7636 65.4264 36.3403C64.8392 35.4805 63.5674 34.6277 62.4843 34.6018C60.949 34.5654 61.5292 35.8431 62.4513 36.301C63.2896 36.7169 64.727 36.8328 65.3271 37.5893C65.9111 38.3254 65.6873 39.5291 65.7814 40.3971C65.3274 40.3297 64.8734 40.2623 64.4191 40.1949C64.8002 38.169 63.1231 38.0709 61.5594 37.4998C59.979 36.9229 58.6615 35.7846 59.956 34.2028ZM65.0519 29.2142V31.0943C64.4194 30.734 63.7866 30.374 63.1538 30.0137C63.7866 29.7472 64.4194 29.4807 65.0519 29.2142ZM70.1372 44.2371C72.2496 44.8089 74.3474 45.4139 76.3781 46.2027C77.1156 46.4893 77.9234 46.5906 78.6461 46.9142C79.3342 47.222 79.4375 47.1898 79.1927 47.7923C78.5072 49.4799 76.8829 49.1884 75.4597 48.9303C73.2322 48.5261 71.0509 47.9658 68.8512 47.4386C66.7012 46.9236 64.5058 46.586 62.3882 45.9405C60.2152 45.2785 58.0976 44.6514 55.8623 44.2142C55.21 44.0865 50.0498 43.6138 50.0889 43.075C53.3389 42.6533 56.6848 43.0687 59.9491 43.1126C63.3418 43.1582 66.8467 43.3461 70.1372 44.2371ZM67.2697 37.7089C67.3101 36.5485 67.3262 35.3844 67.4706 34.2309C68.4374 35.4229 69.3101 35.7797 70.5289 34.6624C71.6957 33.5929 71.956 33.0353 73.4354 34.0407C74.7179 34.9128 75.9312 34.8726 77.2932 34.1093C78.124 33.6437 79.4591 31.7412 80.3323 32.1328C80.7485 32.3195 81.0535 33.072 81.4737 33.3488C82.0008 33.6956 82.8115 33.9363 83.426 34.0709C84.8772 34.3884 85.7419 33.4561 86.6527 32.459C87.9737 31.0129 87.935 31.8528 89.1598 32.8554C90.5258 33.9739 91.668 33.4274 92.9049 32.473C93.6585 34.6782 93.9403 37.0864 94.1532 39.3983C94.2249 40.1788 94.4933 41.2873 93.7913 41.8392C93.2966 42.2285 92.2465 42.2437 91.6505 42.4588C89.5211 43.2279 87.4749 44.3189 85.694 45.7156C85 46.2598 84.3951 46.9262 83.4469 46.8023C82.5432 46.6841 81.6651 45.9285 80.9381 45.4296C80.1495 44.8886 79.3514 44.2741 78.4297 43.9726C77.8899 43.7959 77.0252 43.8599 76.5528 43.536C75.6747 42.9339 76.7081 41.3544 76.4894 40.2941C76.3238 39.4892 75.8601 37.8107 74.75 38.2826C73.0982 38.9846 74.0596 41.725 74.9679 42.5805C73.1097 42.2509 71.0523 41.7695 69.2601 41.1579C67.8758 40.6854 67.22 39.1243 67.2697 37.7089ZM98.4346 43.3608C102.249 42.291 105.819 41.5696 109.788 41.3748C111.546 41.2884 113.247 41.3429 114.984 41.3587C115.985 41.3679 116.747 40.5621 115.948 39.6352C114.842 38.3518 111.468 38.8403 109.973 38.7826C105.966 38.628 102.292 39.083 98.4978 40.4023C98.899 39.6639 99.8629 39.5681 100.524 39.1863C101.334 38.7175 101.885 37.9456 102.232 37.0887C103.132 34.8603 102.226 32.7604 101.283 30.7248C103.134 31.2223 105.049 32.3115 106.911 32.588C107.301 32.646 107.551 32.6087 107.896 32.7507C108.108 32.8376 108.175 33.1385 108.438 33.2042C108.564 33.2361 108.869 32.9498 109.013 32.9902C109.579 33.1503 109.131 33.1928 109.49 33.4245C109.774 33.6084 109.751 33.8451 110.273 33.7582C110.504 33.72 110.755 33.3626 110.877 33.3528C111.032 33.3402 110.996 33.1514 111.234 33.2065C111.666 33.3069 111.628 33.8632 111.772 34.1368C111.926 34.4283 111.707 34.8158 112.174 34.9753C112.522 35.0947 112.61 34.7269 112.906 34.7533C113.086 34.7694 113.46 35.0284 113.619 35.1862C114.131 35.6945 114.833 36.2559 115.521 36.5867C115.454 36.5187 115.846 36.3549 115.752 36.3164C115.689 36.2909 116.101 36.3902 116.095 36.3887C116.492 36.4791 116.703 37.089 116.903 37.3113C117.273 37.7189 117.847 38.1492 118.365 38.3291C119.261 38.6404 119.234 38.2683 119.561 39.3314C120.197 38.3314 120.442 40.0061 121.231 40.1906C121.64 40.2861 121.593 40.1111 121.964 40.3248C122.219 40.4714 122.39 40.9204 122.582 41.137C122.664 40.8246 122.747 40.5119 122.829 40.1998C123.398 41.2761 124.626 42.9829 125.972 42.6743C125.972 42.968 125.851 43.3192 126.079 43.5699C126.238 43.7452 126.495 43.5461 126.62 43.6479C126.728 43.7368 126.988 44.0908 127.071 44.1491C127.235 44.2638 127.532 44.3476 127.675 44.462C127.8 44.5627 127.862 45.0438 128.001 45.2176C128.263 45.5444 128.715 45.6092 128.929 46.0011C128.977 45.6147 129.026 45.228 129.075 44.8416C129.499 45.1689 129.535 45.423 129.639 45.9018C129.788 46.5837 129.591 46.4239 130.062 46.7116C130.525 46.9948 130.766 46.9629 131.19 47.4541C131.606 47.9354 131.61 48.232 132.21 47.7306C132.321 48.1015 132.357 48.5814 132.655 48.8657C132.88 49.0806 133.812 49.0898 133.901 49.5972C132.15 48.1219 133.302 50.3626 133.902 49.601C134.028 50.4162 134.626 50.6796 135.308 51.2602C135.944 51.8012 136.048 51.7619 136.266 52.671C136.261 52.6509 136.585 52.852 136.609 52.8922C135.989 52.9805 136.95 53.6725 137.112 53.799C137.231 53.8913 137.385 53.6707 137.582 53.8202C137.807 53.9912 137.991 54.3799 138.174 54.6142C138.671 55.2497 139.039 55.7956 139.561 56.3122C140.126 56.8699 140.4 57.5747 140.942 58.2265C141.543 58.9502 141.868 59.7824 142.37 60.5682C142.848 61.3155 143.483 61.9153 144.036 62.5995C144.918 63.6884 145.218 66.0866 146.862 66.1497C146.765 66.2493 146.899 66.9926 146.915 67.1297C146.993 67.8047 146.941 68.4541 147.341 69.0654C147.433 68.3681 147.798 68.6369 148.115 69.0032C148.643 69.6128 148.18 69.4593 148.208 70.0769C148.241 70.8257 148.327 70.2465 148.612 70.9003C148.836 71.4123 148.958 71.7445 149.078 72.3128C148.15 72.3862 147.724 71.6283 147.381 70.8939C147.238 70.5867 147.188 70.0818 146.934 69.8417C146.664 69.5861 146.292 69.566 146.014 69.2809C145.481 68.733 145.25 67.8787 144.622 67.3454C143.912 66.743 143.755 66.4584 143.168 65.7381C142.518 64.9415 141.622 64.3821 140.941 63.6115C140.259 62.8396 140.314 63.261 139.457 62.9816C138.546 62.6841 137.073 59.8226 135.925 60.9247C135.97 60.2038 134.889 59.5257 134.343 59.2644C134.107 59.1516 133.832 59.2537 133.595 59.0845C133.339 58.9009 133.321 58.5469 133.062 58.3266C133.062 58.3269 132.666 58.4227 132.585 58.3822C132.421 58.2993 132.42 58.0062 132.276 57.9098C131.876 57.6427 131.399 57.3627 130.974 57.1352C129.942 56.5824 129.03 55.9017 128.034 55.2362C127.182 54.6659 126.149 53.636 125.163 53.3354C124.302 53.0729 123.76 53.2066 123.055 52.6808C122.671 52.3945 122.784 52.2984 122.167 52.1202C121.579 51.9507 121.249 52.0379 120.937 51.4154C120.393 50.3262 120.737 48.2002 120.631 46.9787C120.519 45.6824 120.386 44.3539 120.048 43.0934C119.648 41.6037 119.119 40.8248 117.519 41.1757C114.349 41.8716 111.218 42.5337 108.033 43.1447C101.688 44.3622 95.4518 46.349 89.2459 48.113C88.7732 48.2475 86.1362 48.8505 86.6748 47.4885C86.9231 46.8602 88.5921 46.6262 89.1509 46.4288C92.2181 45.3444 95.2994 44.2397 98.4346 43.3608ZM97.3685 40.5885C96.905 40.7649 96.4419 40.9413 95.9784 41.118V39.8309C96.4419 40.0833 96.905 40.3357 97.3685 40.5885ZM95.4426 33.7826C95.8452 34.1113 96.664 33.3201 97.0063 33.1598C97.5912 32.8861 98.3359 32.6511 98.9894 32.7074C100.194 32.8115 101.076 33.9966 100.855 35.198C100.481 37.2307 97.5817 38.192 95.983 38.9866C95.9316 38.2663 95.6983 37.4002 96.204 36.7772C96.643 36.2361 97.4945 36.2754 97.8997 35.7C98.9193 34.2536 96.156 34.1225 95.5384 35.2725C95.2948 34.5376 95.0512 33.8026 94.8075 33.0677C95.3955 32.9704 95.1373 33.5336 95.4426 33.7826ZM98.2946 29.8037C97.7192 30.1752 97.1438 30.5467 96.5687 30.9182C96.2834 29.6322 97.2554 29.4629 98.2946 29.8037ZM150.718 74.5641C149.965 74.9233 149.776 74.0655 149.235 74.0285C149.875 73.6355 149.875 73.6355 150.718 74.5641ZM153.782 93.2919C153.876 94.5246 153.803 95.7716 153.967 96.9994C154.092 97.9334 154.471 98.8026 154.512 99.7473C154.6 101.816 153.901 103.923 152.488 105.44C151.152 106.874 149.24 108.109 147.436 108.712C146.624 108.984 145.775 109.586 144.986 109.808C144.113 110.055 143.283 109.519 142.563 110.48C142.082 106.356 142.433 102.046 142.395 97.895C142.358 93.7354 142.402 89.5744 141.698 85.4596C141.07 81.7949 139.834 77.6729 137.554 74.6748C136.628 73.4574 135.488 72.4602 134.285 71.5268C133.661 71.0425 133.037 70.5247 132.342 70.1423C131.273 69.5537 130.362 69.6352 129.199 69.4674C127.534 69.2272 125.987 69.0244 124.316 69.4926C122.76 69.9286 121.047 70.4252 119.654 71.1825C118.266 71.9373 116.655 72.2482 115.214 72.9241C114.234 73.3839 112.198 74.9201 111.111 74.6436C110.058 74.3756 108.5 72.5913 107.828 71.7921C106.969 70.7706 106.259 69.5867 105.497 68.4877C105.229 68.1019 104.684 67.5055 104.614 67.0101C104.493 66.15 104.838 66.4312 105.661 66.5273C107.776 66.7751 109.765 67.167 111.792 67.8319C112.8 68.1627 114.773 69.5012 115.782 68.6991C117.322 67.4745 114.982 65.3697 114.124 64.6626C112.664 63.4578 110.966 62.563 109.409 61.4925C107.755 60.3547 105.568 59.1436 104.504 57.3917C107.612 58.3082 110.717 59.3579 113.735 60.5395C115.115 61.0799 116.48 61.6511 117.776 62.37C118.505 62.7736 119.976 63.8654 120.853 63.3425C122.76 62.2056 118.381 58.9041 117.749 58.2293C116.767 57.1808 115.805 56.1424 114.726 55.1911C113.998 54.5494 112.855 54.0982 112.516 53.1515C113.725 53.5884 114.701 54.4441 115.833 55.0256C116.425 55.3303 116.966 55.5055 117.62 55.5988C118.317 55.6986 118.401 55.8096 118.95 56.0864C119.378 56.3025 119.818 56.591 120.298 56.7379C120.64 56.8426 121.238 56.8607 121.538 57.0546C121.691 57.2726 121.849 57.4869 122.012 57.6975C122.194 57.7511 122.374 57.8128 122.551 57.8831C122.817 58.1195 122.974 58.4454 123.232 58.6892C125.106 60.4592 127.613 61.726 129.714 63.2088C131.701 64.6116 133.81 65.8807 135.719 67.4117C137.916 69.1739 140.196 71.0678 142.065 73.1808C143.121 74.3751 143.989 75.7291 144.876 77.0495C145.518 78.0057 146.452 78.7988 147.007 79.7848C148.218 81.9343 149.223 84.2579 150.525 86.3727C151.853 88.5276 153.583 90.6688 153.782 93.2919ZM135.925 105.764C136.287 104.272 138.329 102.53 139.634 101.872C138.977 103.498 137.224 104.606 135.925 105.764ZM139.293 110.968C138.179 113.274 133.284 113.538 133.948 110.124C134.274 108.452 135.655 107.425 136.841 106.331C137.389 105.825 138.731 104.015 139.58 104.307C139.54 105.608 139.463 106.914 139.466 108.216C139.468 109.084 139.687 110.151 139.293 110.968ZM137.878 84.3778C138.329 85.391 138.779 86.2347 137.941 87.1412C137.564 87.5503 136.331 88.4453 135.774 88.2465C133.985 87.6091 137.396 84.8337 137.878 84.3778ZM127.056 75.3628C127.487 75.3392 127.905 75.4032 128.331 75.3771C128.755 75.3507 128.8 75.2755 129.193 75.3292C129.235 75.3894 129.276 75.4497 129.317 75.5099C129.371 75.9141 129.584 75.958 129.955 75.6419C130.471 75.7566 130.807 75.8332 131.301 76.1118C129.968 77.0713 128.347 78.187 126.713 78.5091C124.132 79.018 124.845 75.4844 127.056 75.3628ZM87.4769 96.9414C87.2092 97.4793 86.4392 96.1353 86.2487 95.8849C86.604 95.8838 87.7476 96.3987 87.4769 96.9414ZM108.221 82.782C110.227 81.613 112.609 80.5863 114.763 79.716C115.142 81.539 113.295 83.8925 112.157 85.1397C111.237 86.1487 110.127 87.1949 108.88 87.7755C107.531 88.4031 106.057 88.1275 106.122 86.3661C106.146 85.7224 106.293 84.6868 106.555 84.0984C106.894 83.3399 107.533 83.1825 108.221 82.782ZM81.1063 49.6213C81.4048 49.6038 84.6479 49.185 84.6307 49.5881C84.5796 50.7995 81.4317 49.8482 81.1063 49.6213ZM58.1727 73.0125C59.8857 70.9014 62.651 68.6228 62.6915 65.6724C62.7512 61.3309 57.9274 63.4971 55.5021 63.6775C56.7846 62.419 63.2287 57.1393 59.4171 55.264C58.3214 54.725 56.7643 55.2517 55.6648 55.5339C53.7143 56.0351 51.9006 56.9029 49.9844 57.5067C51.3536 56.0509 53.7194 54.3962 53.6419 52.1914C53.5472 49.5074 51.3415 50.1563 49.4343 50.5502C48.7013 50.7017 45.4272 52.0026 44.8122 51.1194C44.5869 50.7958 44.9514 50.3847 45.0286 50.0967C45.1649 49.5869 45.1227 49.409 45.1273 48.8884C45.1368 47.8379 45.8356 46.489 45.2656 45.512C45.1353 45.734 45.0237 45.9649 44.931 46.205C44.743 45.6365 44.8693 45.0335 44.6813 44.4649C49.4429 45.6812 54.2868 46.347 59.0782 47.3852C61.5037 47.9107 63.7866 48.8158 66.2454 49.2232C68.7252 49.6337 71.162 50.2622 73.6463 50.6538C75.9132 51.0109 78.0847 51.6056 80.3295 52.0617C82.5177 52.5064 84.7618 51.5319 86.8975 51.0385C91.6812 49.9334 96.4631 48.8015 101.253 47.7292C106.781 46.4913 112.53 45.4331 117.821 43.3688C117.924 46.1201 118.144 48.8663 118.481 51.5987C116.144 50.4954 112.676 49.0568 110.314 51.031C109.369 51.8207 109.078 53.1845 109.451 54.3443C109.858 55.6068 111.104 56.1932 111.926 57.1436C109.424 56.503 102.971 51.9868 101.822 56.5517C101.011 59.7758 104.968 61.8585 106.903 63.6732C104.982 63.2974 102.408 61.763 101.28 64.2292C100.305 66.3612 101.479 68.681 102.682 70.4395C103.334 71.3922 104.068 72.289 104.761 73.2121C105.127 73.7004 105.485 74.1955 105.87 74.6694C106.257 75.1447 106.985 75.6424 107.256 76.1539C107.801 77.1855 106.701 77.2486 105.846 77.6213C104.778 78.0866 103.861 78.868 102.885 79.4908C100.648 80.9168 98.6941 82.2412 96.0516 82.6971C93.331 83.1661 90.7115 83.6561 88.0268 84.3104C85.3504 84.9627 83.1657 85.5896 80.4299 84.7465C79.1827 84.3621 78.1668 84.0204 76.8438 84.0927C75.4543 84.1687 74.6418 84.0967 73.4994 83.237C68.5832 79.5387 63.2468 76.5039 58.1727 73.0125ZM49.3097 69.2995C51.2098 68.3474 53.1225 67.3904 55.0851 66.5723C56.7097 65.8947 59.1766 65.1055 60.955 65.4024C60.4536 66.6888 59.5388 67.7441 58.5576 68.6914C57.6898 69.529 56.6056 70.7932 55.5555 71.3779C54.6019 71.9086 53.4924 71.0681 52.552 70.7158C51.5186 70.3291 50.0966 70.1487 49.3097 69.2995ZM49.7872 74.1034C50.734 73.7104 52.7689 75.0291 53.6302 75.3719C55.3225 76.0461 57.0243 76.75 58.5157 77.8135C56.6945 79.9156 54.632 81.8376 52.1812 83.1879C50.5687 84.0763 47.851 85.0953 46.33 83.4822C44.419 81.4552 46.7163 77.3249 48.0691 75.5879C48.1139 75.8851 48.1589 76.182 48.204 76.4792C48.6356 75.789 48.9651 74.4448 49.7872 74.1034ZM84.5475 92.0957C83.3663 92.3441 82.9648 92.1198 82.1851 91.215C81.6579 90.6034 81.1399 89.9683 80.5456 89.4184C79.9389 88.8573 78.4409 87.5041 80.3496 88.2832C82.0892 88.9932 83.5795 89.3484 85.4936 89.0701C87.6821 88.7523 89.7226 87.828 91.8803 87.3601C90.6974 88.394 89.5231 89.4382 88.3379 90.4692C87.0858 91.5584 86.1385 91.7609 84.5475 92.0957ZM84.8175 100.411C82.229 102.357 77.0175 102.146 78.7715 97.8649C79.0381 97.2145 79.4108 96.6027 79.8422 96.0487C79.986 95.8637 80.2419 95.4804 80.4468 95.3562C81.0194 95.0094 80.8607 94.9675 81.4111 95.5458C81.886 96.0447 85.5975 100.121 84.8175 100.411ZM84.0501 92.9718C84.2872 92.8949 85.2864 92.3163 85.514 92.6364C85.7445 92.9606 83.7855 94.082 84.0501 92.9718ZM102.895 122.647C102.313 124.038 97.6552 126.052 98.523 123.248C98.9073 122.006 99.2697 121.066 100.72 120.971C101.557 120.917 103.408 121.422 102.895 122.647ZM111.251 103.796C112.018 102.681 114.55 101.173 115.632 102.836C116.153 103.637 114.889 104.048 114.124 103.842C113.714 103.731 113.378 103.486 112.932 103.468C112.358 103.444 111.797 103.894 111.251 103.796ZM113.284 104.903C112.763 105.431 109.618 108.074 109.108 107.666C110.136 106.2 111.315 104.562 113.284 104.903ZM108.148 131.651C107.056 131.713 107.601 130.069 107.707 129.412C107.971 129.87 109.361 131.583 108.148 131.651ZM110.923 128.705C110.57 128.077 109.618 127.142 109.833 126.335C109.998 125.717 111.483 124.887 112.105 125.241C112.932 125.712 111.734 128.809 110.923 128.705ZM136.835 122.121C136.368 123.729 135.884 123.314 134.419 123.625C132.95 123.938 131.934 125.184 130.64 125.852C131.09 124.904 131.368 123.747 132.121 122.977C132.295 122.799 133.361 122.448 132.753 122.036C132.222 121.676 131.459 122.845 131.231 123.163C130.11 124.73 129.326 126.644 128.679 128.447C128.361 129.333 128.106 130.235 127.956 131.165C127.821 131.994 127.966 132.861 127.829 133.668C127.609 134.968 125.841 134.975 124.778 135.31C123.815 135.613 122.857 135.942 121.858 136.106C120.992 136.248 120.093 135.989 119.254 136.16C118.345 136.344 117.937 136.883 116.903 136.761C116.061 136.662 115.273 136.275 114.419 136.236C113.62 136.201 112.823 136.477 112.029 136.252C111.228 136.025 111.267 135.937 111.449 135.151C111.563 135.363 111.677 135.575 111.791 135.787C112.111 135.537 112.332 134.774 112.527 134.416C112.831 133.861 113.078 133.669 112.966 132.978C112.8 131.958 111.879 131.231 111.67 130.261C111.452 129.248 112.202 128.42 112.645 127.574C113.25 126.416 113.242 125.558 112.735 124.361C113.118 124.462 113.5 124.563 113.884 124.664C113.359 123.526 111.579 123.988 110.686 124.325C110.238 124.494 109.527 125.16 109.044 125.143C108.381 125.12 108.035 124.249 107.75 123.769C106.925 122.381 105.984 121.011 105.008 119.723C104.74 119.368 104.388 119.141 104.481 118.737C104.56 118.394 105.329 117.908 105.579 117.697C106.515 116.907 107.705 116.469 108.584 115.637C109.913 114.38 111.445 113.479 112.803 112.247C114.218 110.963 115.676 109.784 117.15 108.571C118.644 107.342 119.937 105.894 121.42 104.653C121.804 105.348 122.548 107.838 123.399 108.031C124.392 108.255 124.362 107.082 124.313 106.377C124.243 105.371 123.684 104.394 123.621 103.434C123.554 102.407 124.543 101.948 125.29 101.355C126.443 100.437 128.994 98.3477 127.623 96.6279C126.441 95.1465 122.599 97.9868 121.54 98.8408C120.64 99.5666 119.945 100.223 118.931 100.796C118.219 101.198 117.024 102.745 116.179 102.602C115.174 102.432 114.782 101.337 113.553 101.373C112.352 101.408 111.332 102.272 110.587 103.139C108.903 105.1 108.325 107.724 106.791 109.768C106.034 110.775 105.053 111.607 104.232 112.561C103.331 113.607 103.14 114.813 102.251 115.837C99.7088 112.454 96.9386 109.25 94.2574 105.978C92.9183 104.344 91.6071 102.691 90.2968 101.034C89.8058 100.413 89.2519 99.8299 88.8022 99.1776C88.1864 98.2843 88.2971 97.5668 88.0552 96.5705C87.9482 96.129 87.4462 95.6001 87.5805 95.1781C87.7613 94.6109 89.0306 94.1657 89.4884 93.9339C91.3575 92.9861 93.0529 91.8017 94.7958 90.6439C98.0234 88.5001 101.288 86.4897 104.721 84.6587C104.662 85.4476 104.148 86.2651 104.493 87.0566C104.654 86.6013 104.908 84.5729 105.517 84.4857C105.4 84.5023 105.496 87.087 105.59 87.4559C105.871 88.5572 106.686 89.3102 107.853 89.3028C110.074 89.2884 112.064 86.8753 113.297 85.2766C114.132 84.1942 114.934 82.9355 115.227 81.5809C115.492 80.3646 115.201 79.5186 116.467 78.901C119.064 77.6339 121.682 76.6014 124.46 75.9296C124.336 77.1253 123.989 78.5972 125.077 79.4572C126.278 80.4064 127.849 79.5605 128.98 78.9325C130.1 78.3106 131.827 76.602 133.143 77.0983C134.437 77.5865 135.337 79.2073 136.061 80.2837C136.7 81.2323 137.394 81.9165 136.655 82.9739C135.827 84.1589 135.288 85.3156 134.624 86.6028C134.369 87.0976 134.125 87.4203 134.305 87.9272C134.364 88.0919 135.029 89.0715 135.21 89.2118C136.362 90.1077 137.919 88.4037 138.741 87.7568C139.031 90.5423 139.096 93.3155 139.213 96.1095C139.299 98.156 140.092 100.171 138.411 101.667C136.73 103.162 135.327 104.697 134.303 106.722C133.755 107.804 133.265 108.914 132.673 109.974C132.277 110.682 131.443 111.719 131.953 112.552C132.492 112.042 132.652 111.266 133.101 110.69C133.37 111.885 133.641 113.21 134.906 113.717C136.362 114.299 137.809 113.291 139.098 112.73C138.636 115.924 137.734 119.028 136.835 122.121ZM135.347 125.793C134.348 127.925 133.446 130.497 131.601 132.068C131.195 132.413 129.474 133.759 128.819 133.533C128.263 133.342 128.569 132.219 128.666 131.739C129.158 129.298 130.008 127.762 131.99 126.205C132.81 125.56 133.863 124.736 134.92 124.577C136.059 124.406 135.731 124.973 135.347 125.793ZM163.53 176.42C160.939 172.902 157.278 170.167 153.818 167.524C152.25 166.327 150.523 165.429 148.94 164.231C147.15 162.877 145.331 161.571 143.326 160.551C139.524 158.616 135.377 157.267 131.789 154.979C130.04 153.863 128.125 152.785 126.48 151.532C125.758 150.981 125.12 150.278 124.467 149.647C123.86 149.062 122.557 148.211 122.316 147.354C123.326 147.189 123.9 146.211 124.801 146.111C125.098 146.078 126.958 146.569 126.703 145.668C127.378 145.651 127.457 145.641 128.022 145.494C128.256 145.433 128.534 145.528 128.771 145.445C129.133 145.317 129.379 144.948 129.745 144.807C130.005 144.706 130.971 144.818 131.117 144.693C131.517 144.352 131.092 144.382 130.854 143.956C131.631 143.937 132.164 144.329 132.943 143.912C133.18 143.785 133.381 143.492 133.61 143.341C134.018 143.072 134.165 143.489 134.444 142.93C134.706 143.701 134.698 143.488 135.328 143.261C135.955 143.035 136.408 142.872 137.122 142.816C138.828 142.681 140.541 142.888 142.239 142.767C142.86 142.722 143.391 142.581 144.008 142.663C144.552 142.734 144.388 143.112 144.84 142.603C144.945 142.485 144.606 142.161 144.768 141.991C144.84 141.916 145.074 141.969 145.163 141.93C145.957 141.584 145.96 142.068 146.101 142.698C146.567 142.589 147.042 142.49 147.446 142.218C147.242 142.035 146.9 141.834 147.098 141.502C147.769 141.756 148.208 141.638 147.872 142.375C148.548 142.598 148.674 142.307 149.281 142.243C149.64 142.206 150.141 142.428 150.441 142.142C150.767 141.83 150.252 141.49 150.852 141.221C150.975 141.284 151.066 141.378 151.126 141.504C151.45 141.602 151.391 141.729 150.951 141.886C152.131 142.497 151.853 141.814 152.349 141.092C152.463 140.925 152.976 140.408 153.209 140.658C153.563 141.037 152.84 141.157 152.995 141.534C153.264 142.187 154.201 141.35 154.489 141.019C154.706 140.769 154.795 140.29 155.03 140.103C155.356 139.844 155.825 140.245 156.233 140.173C158.097 139.847 159.857 137.343 158.453 135.668C158.075 135.218 157.756 135.307 157.306 135.023C156.862 134.742 156.612 134.256 156.256 133.855C155.441 132.939 154.444 132.252 153.305 131.814C150.664 130.796 147.818 130.054 145.044 129.507C143.76 129.254 142.392 128.867 141.077 128.87C140.302 128.872 139.135 129.474 138.411 129.185C137.003 128.625 139.07 125.755 139.411 124.829C140.414 122.106 141.17 119.203 141.666 116.345C141.763 115.785 141.725 115.061 141.927 114.528C142.159 113.915 142.208 114.001 142.704 113.952C143.599 113.861 144.578 114.33 145.511 114.168C146.544 113.989 147.661 114.072 148.704 113.753C149.184 113.606 149.628 113.447 149.944 113.042C150.044 112.916 149.933 112.805 149.996 112.717C150.015 112.688 150.372 112.304 150.383 112.282C150.38 112.083 150.397 111.886 150.435 111.691C150.797 111.99 150.619 112.619 151.228 112.634C151.337 111.964 151.338 111.828 151.778 111.451C151.745 111.48 152.11 111.17 152.063 111.203C152.085 111.084 152.129 110.972 152.195 110.869C152.401 110.77 152.618 110.717 152.847 110.711C153.324 110.222 153.126 109.961 153.126 109.303C153.51 109.502 153.894 109.701 154.279 109.901C154.372 107.95 155.56 106.882 156.351 105.302C156.687 104.628 157.03 104.102 157.11 103.289C157.157 102.82 157.036 102.407 157.23 101.965C157.406 101.565 157.801 101.349 157.965 100.912C158.29 100.053 158.048 98.9561 158.066 98.064C158.09 96.8267 158.214 95.5935 158.254 94.3568C158.334 91.929 158.089 89.4341 157.726 87.0345C157.552 85.8867 157.261 84.7731 157.032 83.6374C156.844 82.704 156.395 81.8284 156.234 80.9601C156.167 80.5992 156.27 80.2753 156.161 79.8763C156.018 79.3516 155.778 78.8358 155.6 78.3206C155.183 77.1172 154.771 75.9155 154.302 74.7308C153.394 72.4347 152.331 70.2075 151.32 67.9556C150.349 65.79 149.544 63.5573 148.285 61.5352C147.046 59.5435 145.711 57.5853 144.345 55.6788C142.921 53.6934 141.122 51.9874 139.742 49.9836C137.151 46.2214 133.536 43.1212 129.755 40.5612C121.951 35.2783 113.519 30.0037 104.162 28.1924C102.752 27.9196 101.323 27.7302 99.8862 27.695C98.9945 27.6729 97.5169 28.1035 96.6726 27.802C95.727 27.4643 95.8134 26.4035 95.5769 25.5713C95.2724 24.5016 94.5857 23.8007 93.806 23.0446C92.9852 22.2485 92.2402 21.3188 91.2166 20.7774C90.1791 20.2292 88.9555 20.0241 87.8061 19.8583C86.7799 19.71 85.2466 19.8486 84.309 19.4019C83.4552 18.9949 83.8768 18.5712 84.6763 18.9197C84.7349 18.5674 84.7822 18.3399 85.0084 18.0677C85.1217 17.9309 85.6578 17.739 85.6707 17.6113C85.6859 17.4618 85.2362 17.0361 85.1719 16.8434C85.0336 16.4283 85.1122 15.8534 85.2764 15.4638C86.0825 16.1795 86.3161 16.4965 87.2161 15.8124C87.5963 15.5235 87.7128 15.3961 88.1531 15.2504C88.2724 15.2108 88.5402 15.333 88.6444 15.2644C89.0421 15.0028 88.6762 15.0645 88.8653 14.7553C88.8177 14.8333 89.1518 14.0114 89.136 14.1832C89.1764 13.7455 89.3061 13.88 89.0415 13.3421C88.5233 12.2899 87.2035 12.2469 87.8761 11.0461C88.1407 10.5736 88.3737 10.6206 88.4484 9.9356C88.4883 9.56726 88.4386 9.145 88.4369 8.77035C88.4337 8.00413 88.5781 7.46769 87.8592 7.07755C87.1684 6.70233 86.5311 7.11398 86.2507 6.18338C85.9568 5.20689 86.2527 3.955 85.1937 3.28632C84.4198 2.79778 83.3023 3.21546 82.4471 2.9765C81.5902 2.73725 80.8021 1.86145 79.9323 2.53386C79.3144 3.01178 78.9864 4.18679 77.8221 3.55138C77.2967 3.2648 77.0074 2.30265 76.6759 1.76305C76.1479 0.903026 75.7246 0.592349 74.9122 1.43C74.4114 1.94665 73.3553 3.20427 73.2908 3.91943C73.2199 4.70889 73.9095 5.03878 73.0437 5.5058C72.1824 5.97053 71.6992 5.62973 71.0001 6.57295C70.3068 7.50871 70.8434 8.02564 70.0402 8.92095C69.036 10.04 68.5017 10.5231 68.5157 12.0309C68.5255 13.065 67.6106 13.9583 68.1444 14.9394C68.7424 16.039 70.4878 16.4962 71.5462 16.9438C71.1929 17.5958 70.7082 18.0138 71.1206 18.685C71.4943 19.2929 72.5504 19.4191 73.205 19.3087C73.6452 19.2347 73.661 19.3012 74.0076 18.992C74.2346 18.7895 73.9233 18.5367 74.3907 18.4246C74.8884 18.3047 75.683 19.2789 76.0061 19.5224C75.2841 20.4585 73.3008 20.6334 72.2516 21.1079C71.6122 21.3974 71.0245 21.8254 70.3733 22.0841C69.7827 22.3188 69.0639 22.2643 68.5284 22.6274C67.6034 23.2545 67.2186 24.8082 66.6518 25.7216C66.0101 26.7555 65.388 27.2357 64.1568 27.4503C62.6209 27.7179 61.384 27.8255 59.9517 28.4936C58.2026 29.3094 56.4784 30.1709 54.7606 31.0504C51.9895 32.469 49.4156 33.9251 46.8426 35.6409C44.1507 37.4361 41.5323 39.3099 38.9352 41.1857C36.3661 43.0409 34.2092 45.3232 31.9777 47.5668C30.1737 49.3804 28.5908 51.3379 26.7937 53.1509C24.6724 55.2918 23.1121 57.9938 21.1451 60.2649C20.0689 61.5074 19.0393 62.7291 18.364 64.1927C17.8167 65.3792 16.8651 66.5433 16.2297 67.788C15.4179 69.3796 14.6496 70.9456 13.7382 72.4843C13.3643 73.1157 12.9197 73.6576 12.5251 74.2603C12.0195 75.0323 12.0493 75.7778 11.9133 76.6677C11.7713 76.4506 11.6295 76.2334 11.4874 76.0165C11.23 76.5782 10.9186 77.1307 10.6957 77.7059C10.5533 78.0728 10.5757 78.5937 10.4328 78.9147C10.2534 79.3178 10.035 79.2641 9.81148 79.5998C9.57242 79.9586 9.49551 80.4409 9.24355 80.8258C8.15446 82.4897 7.73548 84.601 7.17587 86.4995C6.42513 89.0466 6.54366 91.9741 6.58441 94.6003C6.62774 97.3743 6.77955 100.148 7.19711 102.893C7.57534 105.379 8.38405 107.763 9.65019 109.943C10.7533 111.842 12.2746 112.948 14.2232 113.921C15.118 114.368 15.9485 114.23 16.8878 114.301C17.9166 114.379 18.6183 114.658 19.7068 114.413C20.2291 114.295 20.4762 113.915 20.8911 113.789C21.148 113.71 21.2863 113.838 21.5328 113.808C21.8855 113.766 22.619 113.593 23.0016 113.635C24.1917 113.764 23.9919 115.561 24.109 116.479C24.2892 117.892 24.4212 119.321 24.6643 120.726C25.1754 123.68 26.2789 126.439 26.9309 129.342C23.9084 129.711 21.3159 130.274 18.4831 131.417C15.6412 132.563 12.7679 132.952 9.77704 133.522C6.979 134.055 4.28772 135.051 2.04814 136.855C0.998378 137.7 -0.0921394 138.69 0.678684 140.082C1.17171 140.972 2.0602 141.199 2.82729 141.716C2.98226 141.52 2.534 141.105 2.45192 140.99C3.09676 141.122 3.07696 141.423 3.54789 141.685C3.95942 141.913 4.29633 141.905 4.74689 142.067C5.84687 142.461 6.38725 143.446 7.47461 143.723C7.81669 143.81 8.26409 144.018 8.61392 144.077C9.03405 144.148 9.34858 143.964 9.77446 144.042C10.0043 144.193 10.2528 144.301 10.52 144.366C10.6951 144.285 10.8681 144.199 11.0386 144.109C11.6504 144.172 12.0284 144.556 12.5254 144.872C12.5587 144.474 12.5108 144.061 12.8879 143.801C13.0351 144.188 12.7972 144.433 13.199 144.7C13.7081 145.037 14.3767 144.616 14.8324 144.402C14.9613 145.688 17.9424 145.613 18.8874 145.594C20.1961 145.569 21.5033 145.05 22.8234 145.34C23.4969 145.487 24.2158 145.641 24.8862 145.833C25.6934 146.063 26.6694 146.269 27.4641 146.56C27.78 146.676 28.1672 147.046 28.5035 147.021C28.7713 147.001 28.843 146.606 29.1547 146.618C29.5074 146.631 29.6259 147.023 29.9312 147.141C30.3881 147.318 30.8082 146.982 31.2424 147.151C31.3985 147.212 31.61 147.474 31.8098 147.559C32.1131 147.688 32.7132 147.69 33.0507 147.752C33.5291 147.841 33.9575 147.781 34.3673 147.81C34.6979 147.834 34.6908 148.056 34.8489 148.07C35.0303 148.087 35.3462 147.464 35.5899 147.372C35.9449 147.239 36.5891 147.556 36.951 147.612C34.3286 151.162 31.1667 154.3 27.7393 157.048C24.0421 160.012 20.2563 162.972 16.2917 165.572C12.6922 167.933 9.20767 169.975 6.41681 173.307C4.06359 176.117 0.317665 179.123 0.895065 183.196C1.47218 187.265 5.89595 188.921 9.4407 189.698C13.8989 190.675 18.4883 190.282 22.9585 190.831C24.8649 191.065 26.9831 190.94 28.9021 190.741C31.1687 190.505 33.1112 189.027 35.0598 187.959C38.5647 186.037 41.5613 183.466 45.0137 181.485C49.3361 179.003 53.6132 176.374 58.3521 174.712C60.5567 173.939 62.8264 173.057 64.6048 171.467C64.8694 171.23 65.0665 170.873 65.3656 170.678C65.8738 170.346 66.0101 170.682 66.3051 170.582C66.5321 170.505 66.752 170.26 66.9483 170.186C67.4456 170 67.6674 170.077 68.2242 170.077C67.7463 169.802 67.309 169.092 67.8049 168.514C68.6541 167.524 68.8004 169.107 69.1195 169.473C69.3899 169.126 69.2863 168.817 69.2171 168.423C69.4455 168.573 69.6743 168.724 69.903 168.875C69.7454 168.111 69.8952 167.408 70.3002 166.743C70.6735 166.13 70.7656 166.216 70.8687 165.367C72.0283 166.424 72.2551 163.857 72.3595 162.922C72.4605 162.014 72.3607 161.363 72.9581 160.569C73.5995 159.717 74.575 159.179 75.3891 158.517C76.6754 157.471 78.0905 156.15 79.8692 157.153C81.2733 157.945 82.0373 159.887 83.3548 160.884C84.1537 161.489 84.9972 161.55 85.5066 162.489C85.9184 163.247 86.0521 164.155 86.441 164.934C87.3828 166.822 88.7388 168.982 90.2856 170.43C91.7254 171.778 93.5738 171.772 95.2586 172.607C96.9266 173.435 98.6596 174.332 100.425 174.932C102.354 175.587 104.433 175.866 106.31 176.659C107.276 177.068 108.14 177.683 109.114 178.074C110.165 178.495 111.271 178.792 112.336 179.178C116.554 180.709 120.683 182.586 125.114 183.434C127.08 183.81 128.899 184.832 130.879 185.047C131.728 185.14 132.421 185.256 133.252 185.469C134.556 185.801 134.28 185.978 134.76 187.064C135.55 188.852 137.48 187.793 138.967 187.838C141.348 187.91 143.693 187.525 146.07 187.507C150.227 187.475 154.23 187.007 158.251 185.644C162.288 184.275 166.885 180.977 163.53 176.42Z" fill="#3B247B"/>
<path fill-rule="evenodd" clip-rule="evenodd" d="M115.477 36.7607C115.534 36.8176 115.667 36.8521 115.477 36.7607Z" fill="#3B247B"/>
<path fill-rule="evenodd" clip-rule="evenodd" d="M42.2506 112.892C43.1536 111.979 46.9952 112.163 47.2855 113.798C47.6092 115.623 44.1766 118.379 42.9205 119.152C41.3038 120.146 39.3305 120.333 39.6172 117.836C39.834 115.95 40.965 114.194 42.2506 112.892ZM45.4232 111.011C45.5403 111.517 44.6769 111.345 44.4392 111.225C44.3272 110.995 45.306 110.504 45.4232 111.011ZM38.7985 114.357C39.5648 114.426 40.4427 113.198 41.0208 112.78C41.2763 113.175 39.5914 115.343 39.4061 115.838C38.9431 117.074 38.6856 118.636 39.3167 119.869C41.1611 123.472 45.8816 118.326 47.0622 116.529C47.8883 115.272 48.4602 113.713 47.2934 112.482C46.878 112.043 46.1918 111.921 45.8058 111.504C45.2978 110.956 45.6977 110.248 44.6764 110.367C43.9718 110.45 43.1256 111.085 42.4405 111.315C41.6148 111.592 40.8725 111.879 40.1517 112.392C39.9893 112.507 37.8519 114.273 38.7985 114.357Z" fill="#3B247B"/>
<path fill-rule="evenodd" clip-rule="evenodd" d="M92.9521 115.567C92.4706 118.043 90.0146 120.582 87.4304 120.681C84.8569 120.779 84.0237 118.086 84.478 115.939C84.8655 114.108 86.4495 110.928 88.7096 111.278C90.4864 111.553 93.3648 113.445 92.9521 115.567ZM91.3133 111.429C89.6816 110.168 87.4273 109.585 85.5361 110.585C84.916 110.913 82.4408 112.36 83.194 113.34C84.2096 112.554 85.0863 111.463 86.4059 111.202C86.184 112.223 84.9165 113.143 84.47 114.138C83.948 115.3 83.6623 116.631 83.7478 117.908C83.9001 120.182 85.4248 121.949 87.7852 121.636C89.9463 121.35 91.8356 119.695 92.8666 117.836C94.243 115.352 93.4675 113.094 91.3133 111.429Z" fill="#3B247B"/>
<path fill-rule="evenodd" clip-rule="evenodd" d="M76.1606 121.194C74.9987 122.912 73.2272 124.529 71.179 125.059C68.5275 125.746 69.2725 123.557 70.0648 121.987C70.7655 120.598 71.9674 118.209 73.7977 118.222C74.4189 118.226 75.576 118.526 76.1203 118.858C77.1934 119.512 76.7722 120.29 76.1606 121.194ZM73.6859 117.418C74.1028 116.954 75.9489 114.965 76.1964 116.516C76.7265 115.902 76.3082 115.392 75.6296 115.327C74.8108 115.249 73.9157 116.16 73.3249 116.612C72.1088 117.543 71.1728 118.496 70.3668 119.801C69.4785 121.24 67.2129 124.492 69.1956 125.92C71.3385 127.463 74.4578 124.613 75.7996 123.143C76.6578 122.203 77.7944 120.822 77.4681 119.444C77.0673 117.75 75.0955 117.573 73.6859 117.418Z" fill="#3B247B"/>
<path fill-rule="evenodd" clip-rule="evenodd" d="M64.542 89.7279C63.3428 91.0945 60.9069 93.0857 58.8996 92.8511C57.0689 92.6372 57.7836 90.5848 58.4316 89.5916C59.4048 88.0988 60.7086 86.6973 62.5927 86.6157C63.4059 86.5805 64.46 86.597 65.0901 87.2121C65.9502 88.0523 65.1755 89.0061 64.542 89.7279ZM64.4145 85.931C63.0098 85.4462 62.458 85.2614 61.0927 86.0322C59.9963 86.6511 59.024 87.5258 58.2716 88.519C57.1457 90.0058 56.0102 93.3501 58.9014 93.7684C62.0725 94.2274 69.6161 87.7273 64.4145 85.931Z" fill="#3B247B"/>
<path fill-rule="evenodd" clip-rule="evenodd" d="M68.7368 94.4633C67.8246 95.3941 66.6857 96.1535 65.3857 96.4127C65.9357 95.1872 67.1637 92.5094 68.6196 92.1364C69.2902 91.9644 70.055 92.1897 69.9998 92.953C69.9599 93.5048 69.0967 94.0959 68.7368 94.4633ZM69.9113 91.2236C69.1559 90.8454 69.394 90.5871 68.5152 90.8838C67.8226 91.1173 66.9492 91.5228 66.3724 91.99C66.0578 92.2449 65.0782 93.1487 65.1979 93.6086C65.4153 94.4444 66.146 93.1636 66.338 92.9175C66.6672 93.1854 64.984 95.5912 64.8838 95.9872C64.5105 97.4617 65.6691 97.6176 66.8049 97.1351C68.3362 96.4849 72.8711 92.7048 69.9113 91.2236Z" fill="#3B247B"/>
<path fill-rule="evenodd" clip-rule="evenodd" d="M92.3643 130.899C92.4774 129.922 92.638 128.888 93.5362 128.34C94.3455 127.845 95.1835 127.916 95.3034 128.931C95.4148 129.874 94.4904 131.547 93.7427 132.061C92.7015 132.777 92.5008 131.885 92.3643 130.899ZM93.702 133.124C95.8396 131.874 97.1871 126.144 93.2466 127.75C91.0073 128.663 91.8309 134.217 93.702 133.124Z" fill="#3B247B"/>
<path fill-rule="evenodd" clip-rule="evenodd" d="M75.4453 109.363C75.7824 108.673 76.1679 108.444 76.8516 108.142C76.3958 108.572 75.9301 108.969 75.4453 109.363ZM75.9384 107.663C75.4544 108.148 74.3447 108.888 74.5001 109.721C74.6422 110.482 75.2237 110.438 75.7513 110.201C76.8578 109.704 77.4736 107.529 78.6309 107.326C77.3472 106.513 77.0475 106.551 75.9384 107.663Z" fill="#3B247B"/>
<path fill-rule="evenodd" clip-rule="evenodd" d="M76.1085 64.4672C76.17 66.7834 76.2243 69.0994 76.2754 71.4157C76.2935 72.2298 76.0989 73.3903 76.3435 74.17C76.4514 74.5134 77.4281 76.0024 77.7746 76.0987C78.9872 76.4358 78.5539 73.3997 78.5624 72.6521C78.592 70.13 78.5547 67.605 78.5446 65.0826C78.5389 63.7829 78.9064 52.8841 77.2179 52.9372C76.927 52.9466 76.2104 54.1927 76.1025 54.4424C75.7633 55.227 75.8882 56.39 75.8961 57.2262C75.9189 59.6388 76.0444 62.0549 76.1085 64.4672Z" fill="#3B247B"/>
<path fill-rule="evenodd" clip-rule="evenodd" d="M86.3321 71.2193C86.4272 71.8596 86.3772 72.9276 87.099 73.2595C87.7269 73.5483 87.9676 73.2048 88.2026 72.6682C88.7427 71.4337 88.5477 69.5464 88.5378 68.2701C88.5179 65.7405 88.2327 63.2216 88.0356 60.7015C87.949 59.5957 88.1289 58.4851 87.9905 57.3281C87.9297 56.8203 87.8692 54.7777 86.9269 54.8728C86.0748 54.9587 86.1516 57.0996 86.1052 57.6511C85.7189 62.2426 85.6518 66.6358 86.3321 71.2193Z" fill="#3B247B"/>
<path fill-rule="evenodd" clip-rule="evenodd" d="M126.549 123.946C126.188 125.79 120.296 132.211 118.812 128.62C117.932 126.489 119.84 124.169 121.328 122.936C122.249 122.172 123.399 121.423 124.654 121.655C125.719 121.851 126.778 122.775 126.549 123.946ZM123.507 120.638C123.09 120.736 119.612 123.176 119.58 123.144C119.278 122.841 121.472 119.575 121.698 119.289C123.558 116.935 124.792 118.718 125.955 120.568C125.708 119.463 125.026 117.858 123.887 117.391C122.45 116.801 121.328 118.257 120.636 119.304C119.658 120.784 119.119 122.391 118.576 124.061C118.317 124.857 118.022 125.579 117.583 126.297C117.15 127.006 116.392 127.787 116.504 128.684C117.12 128.342 117.447 127.673 117.835 127.121C118.267 127.296 118.119 128.674 118.207 129.025C118.427 129.907 119.03 130.596 119.963 130.748C121.701 131.031 123.577 129.424 124.739 128.334C125.964 127.184 127.282 125.608 127.271 123.839C127.26 121.991 125.44 120.181 123.507 120.638Z" fill="#3B247B"/>
<path fill-rule="evenodd" clip-rule="evenodd" d="M128.219 91.0072C127.232 92.5146 125.502 94.3218 123.671 94.672C122.327 94.929 121.441 93.9341 121.981 92.5911C122.437 91.456 123.99 90.7392 125.009 90.2399C125.817 89.8436 129.583 88.9211 128.219 91.0072ZM127.493 88.5415C125.473 88.4654 123.844 89.9241 122.338 91.0883C122.678 89.751 123.447 88.2961 124.531 87.4255C126.005 86.2409 127.403 86.9764 128.955 87.5689C128.572 86.3617 126.853 85.9276 125.758 86.0981C124.373 86.3139 123.378 87.4945 122.678 88.6367C121.843 89.9994 121.557 91.6052 120.574 92.8833C120.124 93.4683 117.336 95.6573 117.968 96.5521C119.009 95.4482 120.05 94.3446 121.091 93.2407C121.361 94.5453 121.658 96.0308 123.326 95.9039C124.658 95.8024 126.176 94.6717 127.15 93.8075C128.408 92.6912 130.883 88.6696 127.493 88.5415Z" fill="#3B247B"/>
<path fill-rule="evenodd" clip-rule="evenodd" d="M99.1964 101.413C98.3407 101.806 96.4572 102.34 95.9787 101.16C95.314 99.5198 97.4526 96.6433 98.4706 95.5507C99.0968 94.8783 99.5215 94.5305 100.395 94.9656C101.091 95.3131 102.116 96.3004 102.383 97.0595C102.957 98.6888 100.535 100.798 99.1964 101.413ZM101.16 93.5373C101.857 93.6941 101.942 94.578 101.071 94.2386C100.418 93.9844 100.266 93.336 101.16 93.5373ZM102.034 94.7821C101.774 93.9892 102.304 92.7458 101.022 92.6885C100.296 92.6562 98.9659 93.3936 98.3319 93.6933C97.4532 94.1086 96.6263 94.7426 96.1674 95.6357C95.7424 96.463 96.0458 96.6811 96.6937 95.9944C96.7728 96.0482 95.2283 100.027 95.2149 100.426C95.1546 102.248 96.4458 103.448 98.2593 103.125C99.926 102.828 101.428 101.466 102.345 100.092C102.809 99.3967 103.19 98.6007 103.225 97.7488C103.279 96.4421 102.407 95.9168 102.034 94.7821Z" fill="#3B247B"/>
<path fill-rule="evenodd" clip-rule="evenodd" d="M110.029 94.1138C109.326 92.7611 110.955 90.4847 112.414 91.1506C115.452 92.5371 110.952 95.8874 110.029 94.1138ZM112.758 92.3481C112.432 92.3612 110.371 93.1564 110.674 93.6952C111.091 94.4348 112.595 92.6455 112.758 92.3481Z" fill="#3B247B"/>
<path fill-rule="evenodd" clip-rule="evenodd" d="M13.1169 89.8476C13.0354 89.2714 11.7425 90.1079 11.75 90.479C11.9638 90.0517 13.2865 91.0482 13.1169 89.8476Z" fill="#3B247B"/>
<path fill-rule="evenodd" clip-rule="evenodd" d="M83.8282 46.3109C85.4742 46.19 83.377 37.8954 82.1774 38.6289C80.877 39.4239 82.3177 46.4216 83.8282 46.3109Z" fill="#3B247B"/>
<path fill-rule="evenodd" clip-rule="evenodd" d="M86.9022 42.4379C88.4444 42.6585 88.1993 39.1215 87.3698 38.4885C85.8388 37.32 85.03 42.17 86.9022 42.4379Z" fill="#3B247B"/>
</svg>
