<svg width="221" height="114" viewBox="0 0 221 114" fill="none" xmlns="http://www.w3.org/2000/svg">
<g clip-path="url(#clip0)">
<path fill-rule="evenodd" clip-rule="evenodd" d="M217.37 64.668C216.676 63.1666 210.377 55.7132 209.042 54.4799C202.103 48.0989 193.135 47.6163 192.761 44.5062C188.864 12.7621 159.504 15.2823 153.632 8.90133C150.323 5.30867 139.7 -0.804222 134.148 0.053727C128.917 0.858054 122.351 1.716 117.066 4.28985C116.692 4.45072 116.265 4.87969 115.785 5.36229V15.7113C118.614 13.1375 126.568 10.4027 129.984 8.79409C133.347 7.23905 142.689 12.2795 145.465 13.9418C149.255 16.2475 157.956 18.017 159.985 21.7169C162.173 25.7386 174.291 31.5297 175.839 32.5486C177.28 33.4601 179.149 33.9963 180.056 35.2296C182.405 38.5542 180.483 49.1177 181.604 52.5495C182.885 56.5711 203.544 63.2202 205.466 67.0274C209.63 75.3924 210.644 82.0415 207.227 90.0848C203.811 98.2353 190.466 94.5354 183.366 99.9512C179.576 102.847 158.81 100.97 154.486 102.954C150.75 104.67 146.319 101.935 142.262 102.632C138.098 103.383 135.803 102.525 131.853 101.721C127.689 100.863 120.269 100.434 115.785 100.005V110.836C123.045 110.783 129.771 110.568 137.511 111.641C144.077 112.552 155.234 114.59 157.796 113.732C160.358 112.82 181.284 109.121 183.633 107.726C188.918 104.67 205.252 105.957 209.256 101.56C219.078 99.1469 220.786 80.3256 220.947 78.1271C221.213 73.9446 218.064 66.1694 217.37 64.668Z" fill="#FFAB00"/>
<path fill-rule="evenodd" clip-rule="evenodd" d="M83.1684 25.8459C82.9548 29.1168 83.0082 31.7443 83.0616 33.5674C83.1684 36.2485 83.3285 36.5703 83.2217 38.3398C83.115 40.3774 82.7947 42.4687 82.7947 44.4527C82.7947 45.686 83.115 46.812 83.1684 47.8845C83.2218 49.1178 83.0616 50.1366 83.0082 51.3699C83.0082 52.1206 83.2217 52.9249 83.2217 53.7293C83.1684 55.177 82.9548 54.5872 82.8481 55.4988C82.6346 57.4828 82.8481 59.574 82.9015 61.558C83.115 68.2071 82.7947 74.9099 82.5812 81.559C82.4744 84.7227 82.421 88.0472 82.6879 91.2109C82.7947 92.2833 83.4887 94.1065 83.115 95.1253C82.9548 95.5543 82.6879 95.7151 82.5278 96.0905C81.9406 96.0905 81.7804 96.3586 81.9406 96.8412C81.9406 97.3238 81.994 97.86 81.994 98.3426C82.0474 100.005 82.0474 101.721 82.2075 103.437C82.3676 104.884 83.3819 106.761 81.3534 107.083C77.8302 107.673 77.8302 102.311 77.6701 100.219C77.1362 92.8196 76.6024 85.2053 77.0829 77.8055C77.2964 74.5345 77.0829 71.4245 77.0829 68.1535C77.0295 62.5232 77.5099 58.5016 77.6701 56.5176C78.0437 51.6916 77.5099 44.4527 77.937 34.5863C78.4174 22.6822 81.3 23.4865 83.1684 25.8459Z" fill="#FFAB00"/>
<path fill-rule="evenodd" clip-rule="evenodd" d="M104.788 36.2481L103.881 37.0524C105.482 37.3742 106.496 38.2321 107.884 39.2509C107.511 39.8944 106.923 38.822 106.55 39.1437C105.696 39.8408 106.71 40.4842 106.603 40.9132C106.55 41.2349 106.176 41.932 106.176 42.2538C106.176 42.6827 107.084 43.8624 107.244 44.3986C106.283 43.9697 106.016 43.6479 105.109 44.2378C106.817 44.8812 106.443 45.5783 106.443 47.3478L105.269 47.0797C106.977 47.5623 105.322 49.1174 106.817 49.7608C105.696 51.3158 106.39 52.0666 107.297 53.6216C106.71 53.7825 105.963 53.7825 105.963 54.6404C105.909 55.7665 106.71 55.2302 107.351 55.8201C105.802 56.3563 106.496 56.6244 106.603 57.9113C106.71 59.1983 105.963 62.2011 107.938 61.7721C107.884 62.3083 107.084 62.5228 107.084 62.6301C107.137 63.7561 107.137 64.8285 107.137 65.9546C107.137 67.456 107.244 68.9574 107.457 70.3516C107.884 73.5153 107.831 76.7326 107.884 79.8427C107.884 83.1672 108.792 86.7063 108.365 90.138C107.991 93.1945 107.671 95.8756 107.778 98.932C107.884 101.452 109.219 106.171 107.884 108.209C105.696 111.587 102.6 106.439 102.439 104.187C101.959 96.519 102.066 88.7975 101.745 81.1296C101.425 73.5153 101.265 65.9546 100.624 58.2331C99.9305 50.3507 99.8237 27.0252 99.717 19.0891C99.6102 11.7966 104.735 10.027 105.055 11.9038C105.109 12.0647 105.269 16.6761 104.415 18.0703L105.322 18.1239C105.002 19.0891 104.681 18.2312 104.468 19.0891C104.575 19.3572 104.735 19.5717 105.002 19.7326C105.322 19.9471 105.269 20.1616 104.842 20.4297C105.109 21.234 104.735 22.4137 105.002 23.3253C105.215 24.0223 105.642 24.1832 105.802 24.773C105.749 25.0412 105.642 25.2556 105.589 25.5237C105.696 26.0063 105.909 26.3817 106.23 26.7571C106.23 27.5614 105.749 28.6338 105.536 29.3845C105.269 28.8483 104.948 28.2585 104.681 27.7222V29.9744C105.269 29.9207 105.802 29.9207 106.39 29.8671C105.749 30.457 105.375 31.1004 105.109 31.9047C104.628 33.2989 104.415 33.2989 105.856 34.2105C106.176 34.3713 107.564 34.8539 107.617 35.2293C107.724 35.8191 107.03 35.6583 106.87 35.8728C106.55 36.3017 105.696 36.9988 105.162 36.3554C106.069 35.9264 105.642 35.551 105.322 34.6395C104.521 34.9612 104.254 35.551 104.788 36.2481Z" fill="#FFAB00"/>
<path fill-rule="evenodd" clip-rule="evenodd" d="M72.332 29.6528C72.1185 35.7121 70.4103 46.5437 70.4103 49.9755C70.3569 57.1608 70.6238 58.126 70.3569 62.3085C70.2501 64.3461 70.4103 66.0084 70.3035 68.0461C70.1967 69.6547 70.7839 71.4778 70.6238 73.0329C70.5704 73.5155 70.1433 73.8908 70.09 74.3198C69.9832 75.0705 70.3035 76.5183 70.2501 77.3762C70.1434 79.4675 70.2501 81.3443 70.0366 83.2746C69.5561 87.9934 70.1967 93.1411 70.09 97.9134C70.0366 100.273 70.1433 102.686 69.8764 105.045C69.6629 106.868 69.9298 110.622 67.4743 110.139C64.1112 109.496 64.9653 103.329 64.8052 100.916C64.4315 93.9454 64.2714 90.46 65.1255 85.634C66.2465 79.3603 64.3248 57.6434 65.8728 41.5033C67.4209 25.7921 69.2359 31.8513 72.332 29.6528Z" fill="#FFAB00"/>
<path fill-rule="evenodd" clip-rule="evenodd" d="M36.0324 44.7207C35.5519 44.6134 35.3918 45.525 35.8722 45.5786C35.9256 45.3105 35.979 45.0424 36.0324 44.7207ZM40.6766 47.6699C40.6232 49.0104 40.0894 49.0104 40.3029 50.6191C40.4097 51.6379 40.0894 53.2465 41.157 53.89C39.9826 54.5871 40.9969 59.4667 41.0503 60.8072C41.157 63.81 41.157 66.8129 41.2104 69.8157C41.3172 75.6068 41.851 81.2371 41.3705 87.0283C41.1036 90.0311 40.9969 92.9803 40.8901 95.9831C40.8367 97.4845 41.5841 101.667 39.3954 101.613C35.5519 101.453 37.4203 91.2108 37.3669 88.9587C37.3135 83.5429 35.6587 78.3952 35.4452 73.033C35.2316 68.207 34.8046 63.1666 34.3775 58.2334C33.9505 53.2465 39.7157 47.1873 40.6766 47.6699Z" fill="#FFAB00"/>
<path fill-rule="evenodd" clip-rule="evenodd" d="M91.6028 33.7816C91.7629 33.7816 91.9765 33.728 92.1366 33.728L91.7629 32.4947C91.2825 32.5483 91.5494 33.3527 91.6028 33.7816ZM89.5743 32.4947C89.7344 29.8136 89.3608 25.5239 91.1223 23.4326C91.8163 24.5051 91.496 24.7195 91.6562 25.4702C91.8697 26.4354 92.0298 27.4006 92.9373 27.8832C93.5779 26.1673 94.7523 28.8484 94.8591 29.4919C95.2327 31.5831 95.0192 33.9961 95.2327 36.141C95.6064 40.3235 95.8733 44.3987 95.8733 48.5812C95.8733 51.5841 95.8733 54.6941 96.0335 57.697C96.1402 59.4665 96.0868 61.236 96.0868 63.0591C96.0868 64.078 96.1402 65.0968 96.1402 66.1156C96.1402 66.5446 95.8199 67.9924 95.8199 67.9924C96.1402 68.6894 96.0868 69.2257 96.8342 70.03C95.553 70.4053 96.1936 70.9415 96.3004 72.3357C96.4071 73.998 96.1936 75.6603 96.247 77.3762C96.247 78.5558 96.3538 79.7355 96.4071 80.9152C96.4071 81.6659 96.3004 82.4702 96.3538 83.2209L96.1936 83.918C96.674 84.0253 96.8342 84.2934 96.7274 84.6687C96.6207 85.5803 96.1936 86.2774 96.1402 87.2962C96.0335 89.0121 95.8733 90.728 95.6598 92.4439C95.4996 93.5163 95.0726 94.9105 95.0192 95.9829C94.9658 97.3771 95.9801 97.9669 94.5922 98.7713C96.1936 99.6828 96.5673 102.847 94.432 103.061C95.9267 104.026 95.9801 103.812 95.8199 105.42C95.6598 107.244 95.126 107.994 95.553 109.817C94.8057 109.228 94.005 110.729 93.1509 110.836C91.9231 111.051 91.4426 110.407 90.9622 109.281C89.7878 106.707 90.375 102.9 90.2682 100.165C90.0013 93.9453 89.7878 87.6716 89.7344 81.4514C89.681 75.3385 89.8412 69.172 89.7878 63.0055C89.7878 61.3432 89.681 59.681 89.7878 57.9651C89.8412 57.0535 90.3216 55.9274 90.2149 55.0159C90.1081 54.0507 89.7878 53.3536 89.7878 52.2812C89.8412 50.887 89.681 49.4928 89.7878 48.0987C90.0013 48.1523 91.2291 48.7421 91.3893 48.3668C91.6028 47.7769 90.7487 47.8842 90.4818 47.4552C89.681 46.2755 89.7344 44.7741 89.6277 43.3263C89.3074 39.7873 89.5209 36.141 89.5743 32.4947Z" fill="#FFAB00"/>
<path fill-rule="evenodd" clip-rule="evenodd" d="M54.8228 100.594C54.2356 102.042 54.3957 103.973 53.8085 105.26C53.1679 106.707 51.8334 106.332 50.9793 105.099C50.0718 103.812 50.3921 101.184 50.232 99.6829C50.0718 97.6989 50.0718 95.8221 50.1252 93.8381C50.3921 86.7601 50.3387 79.5747 50.5522 72.6039C50.7658 65.0432 50.2853 57.4289 50.4989 49.8682C50.7124 42.0931 51.8334 28.5268 52.1003 30.189C52.2605 31.2615 52.7409 32.0658 53.0612 33.3527C54.6626 32.9774 52.9544 33.8353 53.4882 34.4788C53.7018 34.7469 53.5416 36.0874 54.3423 35.015C53.8619 36.7845 54.1822 37.0526 54.6626 38.6077C55.0897 40.0554 54.3957 41.1279 54.2356 42.2539C54.1822 42.522 54.3423 43.4336 54.3957 43.8626C54.4491 44.6133 54.6626 45.4176 54.8228 45.9538C55.0363 46.6509 55.6769 47.9915 55.6769 49.0103C55.7836 52.8174 54.716 56.8391 55.0897 60.6998C55.2498 62.1476 55.5167 62.8983 55.3566 64.2925C55.1964 65.9548 54.716 66.1693 55.1964 67.7243C55.2498 67.8852 55.8904 69.4402 55.8904 69.333C55.8904 70.03 55.1964 70.5663 55.1431 71.3706C55.0897 72.8184 55.9972 73.1401 55.3032 74.6951C54.7694 75.8748 54.4491 76.0893 54.5025 77.6443C54.5025 79.0921 54.5559 80.3254 54.6092 81.7196C54.6626 83.7036 55.1964 85.4731 55.1964 87.4571C55.1431 89.1194 54.6626 90.5136 54.6092 92.0686C54.5025 93.7309 54.3423 95.6613 54.5025 97.2699C54.5559 97.7525 54.8762 98.1815 54.8228 98.6105C54.7694 99.4148 54.0754 99.8438 54.8228 100.594Z" fill="#FFAB00"/>
<path fill-rule="evenodd" clip-rule="evenodd" d="M10.089 88.7443C9.18149 89.8704 8.00709 89.1197 7.20636 88.2617C5.97859 86.9212 5.97859 85.3125 6.03197 83.6502C6.13873 81.7198 6.45902 79.8431 6.88607 77.9663C7.31313 76.0359 7.52665 73.5693 8.32738 71.7998C8.75443 70.8882 8.274 70.5129 9.55516 70.8346C10.0356 70.9419 10.4093 71.3172 10.6762 71.7462C11.4235 72.8722 11.0498 75.2316 10.9965 76.5185C10.7296 80.701 9.87545 84.4546 10.089 88.7443Z" fill="#FFAB00"/>
<path fill-rule="evenodd" clip-rule="evenodd" d="M0.427053 88.4762C-0.160145 87.6718 0.533816 87.2965 0.693961 86.3313C0.854106 85.3125 0.533816 84.1864 0.427053 83.2212C0.373671 82.3633 0 80.9691 0.0533816 80.2184C0.106763 78.8779 1.70821 79.7894 0 78.2344C3.36304 74.9098 1.54807 80.3793 0.854106 82.1488C3.2029 83.114 1.97512 86.7066 1.76159 88.8515C1.33454 88.7443 0.907488 88.637 0.427053 88.4762Z" fill="#FFAB00"/>
<path fill-rule="evenodd" clip-rule="evenodd" d="M1.92144 97.5384C0.586895 96.0906 3.94994 95.3399 2.93569 97.6457C2.66878 97.2167 2.45525 96.7877 2.18834 96.3587C2.13496 96.7341 2.0282 97.1631 1.92144 97.5384Z" fill="#FFAB00"/>
<path fill-rule="evenodd" clip-rule="evenodd" d="M1.97504 95.7688L1.17432 95.0181C2.02842 94.4282 2.77577 94.4818 3.04267 95.5007C2.669 95.5543 2.29533 95.6615 1.97504 95.7688Z" fill="#FFAB00"/>
<path fill-rule="evenodd" clip-rule="evenodd" d="M18.0963 76.7864C18.1497 76.0357 18.6835 75.285 19.3241 76.1429C19.8045 76.7864 19.5376 78.6096 19.591 79.4139C19.6444 81.5051 19.4842 82.8993 17.2422 81.6124C18.47 80.8617 17.776 80.8617 17.7226 79.5747C17.5625 79.0385 17.6159 78.5023 17.9895 78.0197C18.3098 78.4487 18.5767 78.5023 18.8436 78.1806C18.5767 77.698 18.3632 77.2154 18.0963 76.7864Z" fill="#FFAB00"/>
<path fill-rule="evenodd" clip-rule="evenodd" d="M17.9895 91.6394C17.6158 90.5133 18.4699 90.2452 18.5767 89.0119C18.7368 87.5641 17.8293 87.725 19.4842 87.0815C19.6443 87.9395 20.5518 90.0844 20.018 90.6742C19.5376 91.3177 18.3098 90.5133 17.9895 91.6394Z" fill="#FFAB00"/>
<path fill-rule="evenodd" clip-rule="evenodd" d="M18.4697 74.5879C18.5231 73.6227 18.4697 72.2286 18.7366 71.2634C19.1103 69.762 19.0035 69.762 19.3772 71.1561C19.484 71.8532 19.8576 75.5531 18.4697 74.5879Z" fill="#FFAB00"/>
<path fill-rule="evenodd" clip-rule="evenodd" d="M19.5376 87.082C19.2707 87.1892 18.9504 87.2965 18.6835 87.4037C19.0038 86.3313 17.7226 86.224 17.082 85.8487C18.5767 85.7414 17.7226 84.8835 18.4166 84.669C20.018 84.1328 19.4842 86.1168 19.5376 87.082Z" fill="#FFAB00"/>
<path fill-rule="evenodd" clip-rule="evenodd" d="M19.4309 84.6686C18.5234 84.9904 18.1497 84.7222 18.3632 83.8643C18.3632 83.3281 18.3099 82.7919 18.3099 82.202C19.2174 81.1832 19.4843 84.4541 19.4309 84.6686Z" fill="#FFAB00"/>
<path fill-rule="evenodd" clip-rule="evenodd" d="M19.2708 70.1373C18.2032 70.1373 18.6302 68.2605 19.3242 67.8315C19.9114 68.5822 19.3776 69.333 19.2708 70.1373Z" fill="#FFAB00"/>
<path fill-rule="evenodd" clip-rule="evenodd" d="M18.9505 61.1824C18.8971 60.539 18.8971 59.8955 18.8438 59.3057C19.0039 59.5202 20.3918 61.5578 18.9505 61.1824Z" fill="#FFAB00"/>
<path fill-rule="evenodd" clip-rule="evenodd" d="M19.0037 63.6491C18.9504 63.1129 18.9504 62.523 18.897 61.9868C19.5376 62.523 19.6977 63.0593 19.0037 63.6491Z" fill="#FFAB00"/>
<path fill-rule="evenodd" clip-rule="evenodd" d="M19.3774 67.1344C18.8436 66.9199 18.5767 66.5981 19.0037 66.0083C19.2173 66.3837 20.0714 66.4909 19.3774 67.1344Z" fill="#FFAB00"/>
<path fill-rule="evenodd" clip-rule="evenodd" d="M19.0039 65.0431C19.0573 64.6677 19.0573 64.2923 19.1107 63.917C20.2317 64.346 19.3776 64.6677 19.0039 65.0431Z" fill="#FFAB00"/>
<path fill-rule="evenodd" clip-rule="evenodd" d="M30.0005 71.4778C29.6802 72.443 29.8404 72.7647 28.7727 72.7111C29.1998 73.6763 28.1321 74.5343 27.3314 75.4458C26.9044 73.8372 27.278 72.1213 27.2247 70.4054C27.2247 68.3678 27.1713 66.3837 27.1179 64.3461C26.9577 60.4853 26.6908 56.8391 27.7051 53.1392C28.3457 53.9971 30.7478 57.1072 27.9186 56.7318C28.7727 57.5898 28.5592 57.8579 29.7336 57.1072C30.6945 58.8767 29.6802 60.7535 29.5201 62.523C29.3599 64.3997 30.1606 65.9548 30.0005 67.8315C29.8404 67.4562 29.6802 67.1345 29.5201 66.7591C28.5592 67.2417 29.5201 67.4026 29.3065 68.2069C29.0396 69.3866 28.8795 69.8692 28.0788 70.9416C29.1464 71.2633 29.0396 71.4242 29.3065 72.5503C29.5201 72.1749 29.787 71.8532 30.0005 71.4778Z" fill="#FFAB00"/>
<path fill-rule="evenodd" clip-rule="evenodd" d="M26.6374 85.2052C26.6374 83.7574 25.8366 77.7517 27.6516 77.5909C29.3064 77.4836 28.4523 81.7197 28.5057 82.7922C28.5057 83.2748 29.0929 83.7038 29.0395 84.3472C28.9862 85.0443 28.399 84.6689 28.2388 85.4733C28.0787 86.224 28.6659 87.5645 28.6125 88.4225C28.5591 89.1732 27.9719 90.2456 29.2531 90.2456C29.1463 90.7818 29.0929 91.3181 28.9862 91.8007H28.2922C27.7584 92.9267 28.2922 92.7122 28.399 93.5702C28.4523 94.0528 28.6659 94.8035 28.5591 95.6078C28.399 96.6266 28.2388 97.3773 27.7584 98.2889C26.584 97.1628 27.2779 93.2484 27.011 91.6934C26.584 89.6022 27.4381 87.0819 26.6374 85.2052Z" fill="#FFAB00"/>
<path fill-rule="evenodd" clip-rule="evenodd" d="M28.8258 83.2212C28.292 82.5777 28.9326 81.5053 28.8792 80.6473C28.8258 80.2183 27.4379 77.3228 28.8792 77.3228C29.7867 77.3228 29.3062 80.2183 29.3596 80.7009C29.413 81.398 30.6408 83.7574 28.8258 83.2212Z" fill="#FFAB00"/>
<path fill-rule="evenodd" clip-rule="evenodd" d="M29.2528 90.2989C28.025 90.2989 28.6122 89.2265 28.6122 88.4758C28.6656 87.7787 27.9717 85.8483 28.2386 85.3121C28.7724 84.2397 29.1461 85.3121 29.413 86.17C29.7866 87.457 29.4664 89.012 29.2528 90.2989Z" fill="#FFAB00"/>
<path fill-rule="evenodd" clip-rule="evenodd" d="M30.0004 71.4778C29.7868 71.8531 29.5199 72.1749 29.3064 72.5502C29.0395 71.4242 29.1462 71.2633 28.0786 70.9416C28.5057 70.4054 28.8793 69.8155 29.3064 69.2793C30.2139 69.7083 30.1071 70.6198 30.0004 71.4778Z" fill="#FFAB00"/>
<path fill-rule="evenodd" clip-rule="evenodd" d="M28.6127 93.7844C27.7586 93.4091 27.4917 92.0149 28.6127 91.854C30.4276 91.6932 29.1465 93.3018 28.6127 93.7844Z" fill="#FFAB00"/>
<path fill-rule="evenodd" clip-rule="evenodd" d="M27.3316 75.4461C28.0789 74.5345 29.3601 75.9287 28.506 76.7866C27.2782 77.9663 26.7978 76.4649 27.3316 75.4461Z" fill="#FFAB00"/>
<path fill-rule="evenodd" clip-rule="evenodd" d="M28.7729 75.6069C28.3992 75.4461 28.0255 75.2852 27.6519 75.1244C28.1857 74.8562 28.0789 73.6229 28.933 73.8374C29.5736 73.9447 28.9864 75.3925 28.7729 75.6069Z" fill="#FFAB00"/>
<path fill-rule="evenodd" clip-rule="evenodd" d="M29.4132 68.5288C29.1463 67.6708 28.6125 67.1883 29.52 66.7593C29.8936 67.6172 30.0004 67.7781 29.947 68.7969C29.7869 68.6897 29.5733 68.636 29.4132 68.5288Z" fill="#FFAB00"/>
<path fill-rule="evenodd" clip-rule="evenodd" d="M27.0645 77.0008C27.8652 76.679 28.2389 76.8935 28.2389 77.5906C26.851 77.6978 26.9577 77.9123 26.6375 79.2529C26.5307 78.4485 26.3172 77.5906 27.0645 77.0008Z" fill="#FFAB00"/>
<path fill-rule="evenodd" clip-rule="evenodd" d="M28.7724 75.6068C28.8792 75.4995 31.1746 76.6256 28.4521 76.8401C28.5589 76.4111 28.6657 75.9821 28.7724 75.6068Z" fill="#FFAB00"/>
<path fill-rule="evenodd" clip-rule="evenodd" d="M30.1073 66.4375C29.787 65.9013 29.4667 65.2578 29.9471 64.668C30.4276 65.2042 31.3885 66.1158 30.1073 66.4375Z" fill="#FFAB00"/>
<path fill-rule="evenodd" clip-rule="evenodd" d="M27.0112 61.4507C27.0646 62.7376 27.118 64.0781 27.1714 65.3651C27.118 64.0245 27.0646 62.7376 27.0112 61.4507Z" fill="#FFAB00"/>
<path fill-rule="evenodd" clip-rule="evenodd" d="M27.0112 92.0688C27.3849 93.1949 27.4383 94.321 27.118 95.447C27.0646 94.321 27.0112 93.1949 27.0112 92.0688Z" fill="#FFAB00"/>
<path fill-rule="evenodd" clip-rule="evenodd" d="M26.6372 85.2051C27.0643 86.1703 27.2778 87.1355 26.6372 88.1007C26.6372 87.1355 26.6372 86.1703 26.6372 85.2051Z" fill="#FFAB00"/>
<path fill-rule="evenodd" clip-rule="evenodd" d="M26.6372 88.7441C26.6906 89.4412 26.744 90.1383 26.7974 90.8354C26.744 90.1919 26.6906 89.4412 26.6372 88.7441Z" fill="#FFAB00"/>
<path fill-rule="evenodd" clip-rule="evenodd" d="M29.0929 73.5155C28.9861 73.2474 28.826 72.9793 28.7192 72.7111C29.6801 72.4967 29.7869 72.7648 29.0929 73.5155Z" fill="#FFAB00"/>
<path fill-rule="evenodd" clip-rule="evenodd" d="M205.466 67.0273C203.597 63.2201 182.939 56.6246 181.604 52.5494C180.483 49.0639 182.405 38.5541 180.056 35.2295C179.202 33.9962 177.28 33.46 175.839 32.5484C174.291 31.5832 162.173 25.7921 159.985 21.7168C157.956 18.0169 149.255 16.1938 145.465 13.9416C142.636 12.2257 133.347 7.1853 129.984 8.79395C126.568 10.4026 118.614 13.0837 115.785 15.7112V16.9445C115.251 18.5531 114.824 21.127 114.664 25.095C114.236 35.2831 114.717 42.7366 114.397 47.7234C114.236 49.8146 113.756 53.9435 113.809 59.7347C113.863 63.1129 114.023 66.3302 113.809 69.7083C113.329 77.3763 113.863 85.205 114.397 92.873C114.503 94.3744 114.557 97.6453 115.838 99.1467V100.005C120.322 100.434 127.742 100.916 131.906 101.721C135.856 102.525 138.205 103.383 142.315 102.632C146.372 101.881 150.803 104.67 154.54 102.954C158.864 100.97 179.682 102.9 183.419 99.951C190.465 94.5352 203.811 98.2352 207.281 90.0846C210.644 82.0414 209.629 75.3923 205.466 67.0273Z" fill="#3B247B"/>
</g>
<defs>
<clipPath id="clip0">
<rect width="221" height="114" fill="white"/>
</clipPath>
</defs>
</svg>
