<svg width="142" height="132" viewBox="0 0 142 132" fill="none" xmlns="http://www.w3.org/2000/svg">
<g clip-path="url(#clip0)">
<path fill-rule="evenodd" clip-rule="evenodd" d="M112.414 105.056C85.3089 127.287 54.4525 124.085 29.6463 100.162C19.1189 90.0734 12.8266 79.8638 13.7341 65.0628C14.5812 51.7722 18.5138 37.0317 29.1623 28.0304C38.1772 20.4789 55.118 17.7603 66.4925 16.6729C82.4653 15.1626 96.7439 23.8619 107.755 34.6757C117.375 44.1603 128.629 56.1823 130.081 70.1979C131.654 84.9384 123.244 96.175 112.414 105.056ZM116.528 16.6729C92.2062 -6.7669 49.0677 -4.41083 23.8986 16.9146C-4.29571 40.8981 -9.13593 85.905 17.9693 112.124C46.5266 139.792 84.2804 136.832 114.532 113.876C130.746 101.552 139.58 85.7841 141.818 65.4857C143.936 46.3956 129.899 29.4802 116.528 16.6729Z" fill="#FFAB00"/>
<path fill-rule="evenodd" clip-rule="evenodd" d="M54.15 59.5659C48.2812 60.1096 40.6579 61.7407 36.5437 66.4528C34.2446 69.0505 35.4546 71.5274 38.9033 71.8295C41.6259 72.0711 43.7435 70.138 46.1031 68.9901C52.0929 66.03 59.4742 65.6071 65.948 66.1508C72.7848 66.7549 79.6216 68.9297 86.0349 71.4066C89.4231 72.7357 91.9642 74.7293 95.1103 76.4812C96.3204 77.1457 99.043 78.5956 100.435 77.3874C103.46 74.7897 94.7473 69.7151 93.0533 68.6881C86.882 64.9425 80.7712 62.7073 73.7529 61.197C67.2791 59.8679 60.7448 58.9014 54.15 59.5659Z" fill="#3B247B"/>
<path fill-rule="evenodd" clip-rule="evenodd" d="M45.9219 84.5159C48.221 85.12 50.3991 83.1868 52.5772 82.8243C54.8763 82.4015 57.5385 82.8243 59.8376 83.1264C64.7988 83.7909 69.76 84.8179 74.6002 86.0262C79.622 87.2948 84.2807 89.4092 89.1814 90.8591C90.815 91.3424 93.3561 92.4298 94.6872 91.4028C96.8653 89.7113 95.1107 88.6843 93.5981 87.8989C85.3092 83.4285 75.9918 80.287 66.7954 78.4143C62.4392 77.5081 57.7805 76.904 53.3638 77.7497C51.0647 78.1726 48.8261 79.0788 47.011 80.5287C45.8614 81.314 43.1388 83.7305 45.9219 84.5159Z" fill="#3B247B"/>
<path fill-rule="evenodd" clip-rule="evenodd" d="M105.941 62.5261C108.421 60.3513 105.214 58.3577 103.641 57.2099C97.3491 52.5582 91.9039 48.3293 84.4015 45.9128C70.4254 41.4424 55.2392 41.8652 41.2631 45.6712C39.3875 46.1545 33.0347 47.2419 33.4582 50.3229C33.7607 52.3165 36.8464 51.1083 38.1774 50.8666C44.8932 49.5376 51.7905 49.4771 58.6274 49.4771C73.8135 49.5376 87.0032 53.8268 100.193 61.1971C101.766 62.0428 104.125 64.0968 105.941 62.5261Z" fill="#3B247B"/>
</g>
<defs>
<clipPath id="clip0">
<rect width="142" height="132" fill="white"/>
</clipPath>
</defs>
</svg>
