<svg width="171" height="146" viewBox="0 0 171 146" fill="none" xmlns="http://www.w3.org/2000/svg">
<g clip-path="url(#clip0)">
<path fill-rule="evenodd" clip-rule="evenodd" d="M132.027 86.4709C132.529 85.2411 133.031 84.0673 133.588 82.8376C134.202 84.9617 134.369 85.9678 132.027 86.4709ZM132.696 92.0045C131.581 92.2281 132.027 88.7067 132.027 88.0918C133.923 89.2098 132.362 90.4954 132.696 92.0045ZM130.968 81.9433C131.916 81.3843 132.864 80.8254 133.811 80.2664C132.473 82.7258 133.031 81.1608 133.533 82.8376C132.585 83.1171 131.581 82.7817 130.968 81.9433ZM125.392 101.06C121.824 113.972 110.562 124.145 98.6859 129.399C91.8281 132.417 85.1375 133.2 77.7779 132.864C74.9344 132.753 71.5891 131.802 68.8571 131.97C66.7384 132.082 66.8499 132.194 65.1215 133.982C64.341 132.529 64.8985 131.579 63.3374 130.74C61.386 129.678 60.6054 130.908 59.6576 132.361C58.3752 131.076 57.8734 130.349 56.2565 129.622C56.3123 129.622 54.6954 129.567 54.7511 129.622C54.4724 129.511 52.6882 128.393 52.1864 128.225C49.9562 127.387 47.3358 127.051 45.2728 125.822C43.4329 124.76 41.9833 121.797 39.8646 124.089C39.8646 120.288 34.7352 118.667 32.3377 116.711C28.6021 113.58 25.5914 108.941 23.6957 104.469C21.6885 99.7182 21.0195 95.1347 20.0717 90.2159C19.4026 86.8062 15.1652 81.8315 17.73 78.366C18.3433 79.8193 18.0645 81.3284 19.0681 82.614C19.9602 80.8254 20.4619 78.869 20.908 76.9127C21.131 75.9624 22.3019 73.1676 22.1346 72.3851C21.8558 70.7082 19.7929 70.5964 20.908 68.5283C23.3054 71.1554 25.2569 66.5719 23.4169 64.7274C22.5249 65.7335 22.1903 66.9073 21.8001 68.137C19.4584 63.3859 25.9817 64.8951 24.532 60.5911C26.9295 60.1439 28.2676 59.5291 29.2154 57.1814C30.219 54.5543 29.4942 53.9954 31.7802 52.2626C32.5607 51.6477 34.7909 50.8093 35.1812 49.8032C35.9618 47.9027 33.9546 47.3438 35.7388 45.5551C36.3521 46.6171 38.638 48.6853 39.9204 46.673C40.1991 46.2817 39.084 46.0022 39.8646 45.1079C41.0355 43.7664 42.3178 42.4808 44.2135 42.7603C42.6524 38.9035 52.4652 38.624 54.9742 37.7297C57.4831 36.8353 59.6018 36.2205 62.278 35.9969C64.9543 35.7733 65.0658 34.9908 67.3517 33.3698C67.519 35.6615 68.0765 35.1585 69.7492 35.5497C70.1395 34.879 70.5298 34.8231 70.9758 35.3261C71.3661 35.7174 71.8679 35.8851 72.4812 35.8851C73.3733 35.941 74.3768 35.8292 75.3247 35.8292C77.5549 35.8851 79.7851 35.6615 81.9595 35.7174C82.517 35.6056 83.0188 35.4379 83.5206 35.1585C83.7436 35.5497 83.9109 35.941 84.1339 36.3323C85.3048 36.5 85.3605 37.8974 86.7544 36.3323C87.1447 38.3445 88.3713 37.2825 89.6537 37.8415C90.8245 38.3445 90.9918 39.1271 92.0511 39.686C92.7759 40.245 93.5007 40.3568 94.2813 39.9096C95.0619 40.4686 95.8424 41.0275 96.623 41.5865C98.0726 42.4249 99.801 42.928 101.306 43.5428C102.31 43.99 103.314 44.3813 104.317 44.8284C104.373 46.0581 104.875 46.4494 105.934 46.114C106.882 46.8966 107.161 46.8966 108.053 48.2381C110.171 51.3124 112.011 53.7159 114.632 56.4548C126.173 68.3606 129.686 85.297 125.392 101.06ZM128.905 50.1385C123.72 43.1516 116.36 35.2144 109.781 30.7986C106.436 28.5627 101.752 24.5941 97.6823 23.3644C96.7345 23.0849 95.7309 23.0849 94.7831 22.7496C94.0583 22.526 93.668 21.7434 92.8317 21.6317C92.2184 21.5199 92.1626 22.8614 91.5493 22.7496C90.267 22.4701 89.4306 21.1845 88.4828 20.4019C86.5314 23.8116 85.4163 18.0543 82.517 21.9111C79.0602 16.4892 70.92 17.663 65.4003 17.9425C63.7834 17.9984 63.0029 18.6133 61.5532 19.0604C60.2151 19.4517 60.0479 19.3399 58.5982 19.3399C54.9184 19.284 51.6846 19.7871 48.2836 21.4081C42.5966 24.147 37.3556 28.3392 31.9474 31.637C25.8702 35.2702 20.4062 39.9655 15.7785 45.3315C-0.947903 64.6715 -5.46404 92.9548 7.91711 115.369C29.1039 150.975 83.8552 154.831 114.855 130.629C138.718 111.959 147.862 75.5712 128.905 50.1385Z" fill="#FFAB00"/>
<path fill-rule="evenodd" clip-rule="evenodd" d="M94.0583 81.1608C91.4936 78.6455 88.4828 76.3537 85.7508 74.0061C80.1196 69.1432 82.1268 70.9318 75.938 66.7955C73.0945 64.951 70.1952 63.2741 67.073 61.9885C63.7834 60.7029 60.5496 59.8644 57.8734 62.771C58.3752 63.1623 58.9327 63.4977 59.3788 63.833C58.654 71.8262 59.2115 78.4778 58.3194 86.6945C57.4831 94.0168 56.7026 92.9548 56.3123 100.333C56.2008 102.178 55.9777 103.463 57.9849 104.078C58.4867 104.246 58.9885 104.302 59.4345 104.246C58.1522 105.14 57.3159 105.811 58.4867 107.264C59.323 108.382 60.3824 108.885 61.9435 108.214C65.6233 106.593 69.1359 104.525 72.6484 102.737C79.8966 99.0474 77.2203 100.277 83.7994 95.9732C86.7544 94.0168 89.5421 91.8369 91.8838 89.4893C93.8353 87.5329 95.3964 85.4647 94.6716 83.2848C94.7831 82.5023 94.7273 81.8315 94.0583 81.1608ZM72.6484 96.3085C66.2366 100.333 66.1251 99.4387 60.5496 103.351C60.6611 103.184 60.7169 103.016 60.7169 102.848C61.6647 99.3828 62.2223 95.6378 63.0028 92.1164C64.564 84.8499 63.9507 87.4211 64.6197 80.0428C64.8985 76.6891 64.9543 73.2794 64.5082 69.9816C64.341 68.8637 64.1737 67.8017 63.8949 66.8514C68.7456 69.7021 73.4848 72.1615 78.6142 75.7948C84.6357 80.0429 83.3534 80.2664 89.5979 84.1232C89.5979 84.1232 89.6537 84.1232 89.6537 84.1791C83.7994 88.0919 79.2275 92.1164 72.6484 96.3085Z" fill="#FFAB00"/>
<path fill-rule="evenodd" clip-rule="evenodd" d="M72.8161 95.6378C66.4043 99.6623 66.2928 98.7679 60.7173 102.681C60.8288 102.513 60.8845 102.345 60.8845 102.178C61.8324 98.7121 62.3899 94.967 63.1705 91.4456C64.7316 84.1791 64.1183 86.7503 64.7874 79.3721C65.0662 76.0183 65.1219 72.6087 64.6759 69.3108C64.5086 68.1929 64.3413 67.1309 64.0626 66.1807C68.9132 69.0314 73.6524 71.4908 78.7818 75.124C84.8034 79.3721 83.521 79.5957 89.7655 83.4525C89.7655 83.4525 89.8213 83.4525 89.8213 83.5084C83.967 87.4211 79.3951 91.5015 72.8161 95.6378Z" fill="#3B247B"/>
<path fill-rule="evenodd" clip-rule="evenodd" d="M153.828 18.4456C150.315 13.5826 144.963 7.71358 138.718 6.48387C135.261 5.81312 133.644 8.16075 135.15 11.3468C136.376 13.8621 139.164 14.7565 141.339 16.2098C147.026 19.9548 151.207 26.2151 154.051 32.2519C157.061 38.624 158.623 45.7787 159.738 52.6539C160.295 56.2871 159.849 59.6408 159.905 63.2741C159.905 64.7274 160.072 67.8575 161.801 68.4165C165.648 69.758 165.648 59.4173 165.703 57.405C165.871 50.0268 164.644 43.4869 162.358 36.5559C160.295 30.2396 157.786 23.9234 153.828 18.4456Z" fill="#FFAB00"/>
<path fill-rule="evenodd" clip-rule="evenodd" d="M161.801 3.72571e-06C158.121 -0.279476 160.574 3.29786 161.912 4.35988C164.31 6.26034 165.703 7.76953 166.763 10.6761C167.376 12.353 167.711 16.3216 169.383 17.4395C171.056 18.5015 171 17.6072 171 15.9862C171 11.2351 167.711 0.503066 161.801 3.72571e-06Z" fill="#FFAB00"/>
</g>
<defs>
<clipPath id="clip0">
<rect width="171" height="146" fill="white"/>
</clipPath>
</defs>
</svg>
