<svg width="208" height="138" viewBox="0 0 208 138" fill="none" xmlns="http://www.w3.org/2000/svg">
<path fill-rule="evenodd" clip-rule="evenodd" d="M47.4751 56.9285C54.8465 58.8942 62.1379 61.2054 69.4474 63.387C70.2698 63.6325 70.2676 63.6737 71.003 63.2307C73.0034 62.0258 75.0419 60.8814 77.1039 59.7849C83.323 56.4779 89.7161 53.8318 96.5639 52.1483C101.418 50.9551 106.353 50.0088 111.303 49.3139C110.8 50.863 109.823 52.478 108.616 53.5691C107.68 54.4148 106.404 54.877 105.247 55.3305C101.809 56.679 98.2095 57.6221 94.8304 59.121C91.3839 60.65 89.2066 63.8284 88.5522 67.5161C88.4297 68.2059 88.4371 68.3109 89.0032 68.659C89.6377 69.0493 90.409 69.2778 91.1087 69.5161C96.7262 71.4293 102.65 72.6076 108.459 73.7688C111.542 74.3854 114.637 74.9582 117.748 75.4201C119.678 75.7067 121.718 76.0913 123.679 75.9768C132.082 75.4866 137.062 65.485 139.522 58.7201C147.114 62.8329 155.825 65.4615 164.328 66.7298C174.64 68.2677 187.63 68.3521 195.781 60.7535C199.663 57.1343 202.047 52.2339 203.798 47.2983C198.085 46.8085 192.398 45.9516 186.732 45.0849C185.743 44.9335 184.754 44.7794 183.766 44.6226C183.368 44.5595 182.757 44.3362 182.35 44.3955C181.733 44.4851 180.936 45.1548 180.389 45.4515C176.197 47.7267 171.863 49.8131 167.365 51.4142C164.956 52.2719 162.454 53.0307 159.898 53.2847C157.158 53.5575 154.351 52.9969 151.704 52.3277C145.064 50.6489 138.117 47.8084 132.579 43.7149C131.232 45.6358 128.8 46.937 126.482 46.0101C123.942 44.9949 122.53 42.3324 121.169 40.1428C120.674 39.3455 119.74 39.3399 118.818 39.1048C116.243 38.4479 113.637 37.9124 111.017 37.4681C102.416 36.009 93.572 35.514 84.8909 36.5205C76.4199 37.5028 68.0802 40.2353 60.6109 44.3425C57.3617 46.1292 54.1981 48.1995 51.4983 50.7573C49.7931 52.3727 47.8005 54.4869 47.4751 56.9285Z" fill="#FFAB00"/>
<path fill-rule="evenodd" clip-rule="evenodd" d="M73.0652 1.37167C75.7238 2.26168 78.1222 3.56937 80.4652 5.09206C81.607 5.83404 82.7492 6.70233 84.0109 7.22773C85.1312 7.69379 86.354 7.90588 87.5045 8.28885C92.6589 10.0048 98.2518 10.3499 103.493 8.70026C108.836 7.01855 113.371 3.407 118.897 2.27422C124.286 1.16944 129.766 1.41377 134.941 3.41439C137.454 4.38615 139.574 6.01903 141.718 7.60913C143.774 9.13295 145.93 10.6359 147.521 12.6701C149.084 14.6679 149.986 17.1538 150.675 19.5712C151.072 20.9653 151.255 22.4049 151.226 23.8551C151.207 24.8696 150.67 25.8496 150.986 26.8304C151.428 28.2057 152.073 29.2166 151.907 30.7478C151.773 31.9809 151.212 33.0436 150.336 33.9092C149.437 34.7972 148.361 35.4071 147.163 35.7923C146.257 36.0836 145.97 36.01 145.443 35.2198C143.968 36.5551 142.915 38.2424 141.067 39.1243C140.15 39.5624 139.21 39.7734 138.199 39.8376C137.434 39.8862 136.731 39.9084 136.085 40.374C135.406 40.8629 132.924 43.0436 133.874 43.9014C134.428 44.4017 135.719 44.5009 136.424 44.7885C137.409 45.1907 138.357 45.6841 139.252 46.2616C142.524 48.3747 145.781 49.6929 149.564 50.6387C153.493 51.6205 157.453 52.1518 161.506 52.1663C165.188 52.1798 169.045 51.9 172.458 50.4096C174.097 49.6943 175.679 48.7456 177.019 47.5577C178.357 46.3725 179.178 44.7244 180.552 43.6214C181.442 42.9074 180.619 41.8082 180.344 40.8282C179.785 38.8345 179.357 36.5649 179.188 34.5034C179.023 32.5008 178.747 30.5039 178.391 28.5224C178.015 26.4216 177.229 24.4663 176.674 22.4146C176.265 20.9017 175.853 19.1262 176.327 17.5813C176.563 16.8149 177.085 16.0051 177.826 15.6394C178.49 15.3122 178.899 15.6248 179.493 15.5897C181.237 15.4871 182.584 16.1982 183.899 17.3616C184.611 17.9903 185.434 18.5408 186.112 19.1992C186.639 19.7112 186.763 20.5373 187.325 20.9913C188.247 18.6382 189.213 15.6468 192.34 16.9925C194.814 18.0575 195.133 22.0587 196.333 24.1446C197.008 23.5892 197.083 22.4947 197.346 21.7205C197.617 20.9192 198.075 20.0729 198.72 19.506C200.129 18.268 201.848 18.7652 202.818 20.2482C203.336 21.041 203.028 21.9512 203.542 22.7342C204.053 23.5106 203.894 24.4179 204.102 25.3222C204.366 26.4684 204.686 27.5979 204.899 28.7571C204.997 29.293 205.14 29.8972 205.116 30.4473C205.105 30.6753 204.92 31.0674 204.977 31.2925C205.051 31.587 205.401 31.852 205.529 32.1433C205.702 32.5348 205.638 32.8194 205.657 33.2232C205.693 33.9502 205.888 34.5466 206.096 35.2646C206.622 37.0731 206.489 39.3622 205.71 41.0748C205.306 41.9626 205.023 42.6082 204.903 43.5583C204.826 44.1717 204.363 44.7305 204.391 45.3898C204.43 46.3073 206.885 47.7223 204.947 48.331C204.137 48.5852 203.964 48.4524 203.743 49.3769C203.524 50.2947 203.275 51.1876 202.915 52.0619C202.152 53.9174 201.023 55.5788 199.958 57.2685C198.805 59.0976 197.594 60.8651 195.891 62.229C194.311 63.4937 192.501 64.5225 190.698 65.4329C186.899 67.3509 182.672 68.4217 178.407 68.318C173.859 68.2071 169.245 68.6369 164.738 67.8645C160.123 67.0734 155.621 65.7642 151.025 64.886C148.96 64.4914 147.036 64.0612 145.157 63.087C143.251 62.0989 141.35 61.0897 139.606 59.8297C138.405 62.7087 137.758 65.7097 136.036 68.3583C134.533 70.6698 132.719 72.843 130.5 74.5006C128.333 76.12 125.5 77.3312 122.771 77.4353C121.938 77.4669 120.657 77.1014 120.059 77.7289C119.76 78.0429 119.73 78.6669 119.611 79.07C119.409 79.7562 119.117 80.4256 118.954 81.1228C118.708 82.1799 119.7 82.1962 120.57 82.6253C121.737 83.2009 122.876 83.8295 124.003 84.477C125.155 85.1388 126.254 85.9 127.408 86.5515C128.399 87.1108 129.422 87.5423 130.375 88.1759C132.63 89.6737 135.099 90.6726 137.52 91.858C140.111 93.1274 142.632 94.5435 145.178 95.8993C150.222 98.5853 155.282 101.373 160.044 104.538C162.267 106.016 164.404 107.555 166.684 108.952C168.81 110.256 171.237 111.782 172.591 113.921C173.646 115.589 175.163 116.379 176.908 117.288C177.937 117.824 178.573 117.925 179.408 117.048C180.228 116.188 181.021 115.332 181.886 114.511C185.433 111.145 188.467 107.461 191.425 103.585C193.621 100.708 196.632 97.2529 200.665 97.8834C201.874 98.0726 202.677 98.6352 203.571 99.4269C204.178 99.9642 205.274 100.316 205.679 101.011C205.912 101.413 206.01 101.928 206.245 102.349C206.492 102.79 206.797 103.22 206.962 103.702C207.24 104.517 206.64 105.813 207.239 106.478C207.677 106.964 207.269 108.11 207.15 108.659C206.929 109.676 206.741 110.708 206.392 111.69C206.117 112.462 205.846 113.521 205.267 114.124C204.75 114.663 204.143 114.61 204.278 115.542C203.718 115.355 203.237 116.695 203.08 117.033C202.655 117.941 202.192 118.687 201.509 119.439C199.782 121.341 197.805 122.629 195.565 123.838C194.748 124.279 193.054 124.892 192.864 125.912C192.682 126.891 193.241 127.686 192.848 128.732C192.031 130.908 190.195 133.202 188.696 134.957C187.348 136.536 186.041 137.591 183.879 137.22C181.964 136.892 180.069 135.915 178.476 134.831C176.556 133.526 174.523 132.544 172.45 131.508C171.43 130.998 170.409 130.527 169.525 129.795C168.703 129.114 167.99 128.347 167.037 127.841C166.359 127.481 165.473 127.226 165.19 126.424C164.881 125.549 165.445 125.004 165.924 124.377C166.246 123.956 166.424 123.891 166.146 123.553C165.924 123.283 165.315 123.055 165.009 122.89C164.269 122.493 163.529 122.146 162.738 122.582C161.855 123.069 161.252 124.076 160.591 124.807C159.798 125.684 158.908 126.482 158.039 127.281C156.315 128.867 154.426 130.287 152.743 131.91C152.357 132.281 151.599 133.221 150.964 133.043C150.495 132.912 150.741 132.633 150.499 132.419C150.239 132.188 150.018 132.185 149.685 131.936C148.856 131.315 148.603 130.125 147.734 129.482C146.84 128.822 145.737 128.347 144.769 127.803C140.353 125.322 136.051 122.646 132.015 119.578C129.991 118.04 128.079 116.371 126.119 114.756C125.196 113.995 124.26 113.162 123.234 112.544C122.298 111.981 121.258 111.587 120.304 111.046C118.261 109.888 116.076 109.002 114.053 107.806C113.102 107.244 112.398 106.489 111.513 105.863C110.739 105.315 110.094 104.99 109.518 104.192C109.244 104.795 108.492 104.008 108.221 103.824C108.008 103.678 107.734 103.575 107.536 103.409C107.337 103.241 107.216 102.868 107.065 102.752C106.73 102.494 106.34 102.553 105.891 102.391C105.289 102.176 104.496 101.601 104.034 101.162C103.714 100.858 104.236 101.097 103.695 100.725C103.444 100.552 103.012 100.505 102.73 100.321C102.059 99.886 101.443 99.3268 100.802 98.8462C99.641 97.9761 98.1398 97.184 97.4809 95.8272C93.9417 98.7333 90.5239 101.887 86.4597 104.062C82.5342 106.163 77.9936 107.117 73.8022 108.566C69.4895 110.057 65.1337 111.556 60.7486 112.82C58.6167 113.435 56.4184 113.876 54.2395 114.291C52.0044 114.717 49.8002 114.59 47.5575 114.831C46.4549 114.949 45.351 114.911 44.2489 115.018C43.2339 115.116 42.2496 115.374 41.2418 115.508C40.3534 115.626 39.3514 115.526 38.497 115.768C37.8701 115.945 37.0422 116.573 36.5831 115.756C36.2467 116.259 36.1398 116.022 35.7018 115.99C35.2346 115.955 35.094 115.975 34.6366 116.063C33.8929 116.205 33.0721 116.26 32.4407 115.675C32.1518 116.722 29.3526 115.77 29.0186 115.078C28.6426 116.187 25.2423 115.23 25.193 114.19C25.1515 113.309 25.7363 112.043 25.9777 111.216C26.3717 109.866 26.8599 108.545 27.3701 107.235C27.9098 105.85 28.4632 104.469 29.0184 103.09C29.2623 102.484 29.4928 101.868 29.7711 101.277C29.9078 100.987 30.2632 100.554 30.2574 100.219C30.2401 99.2403 28.4858 99.1707 27.7441 98.9266C27.1831 98.7418 26.6135 98.547 26.0808 98.291C25.694 98.1051 25.2299 97.6782 24.8019 97.6191C23.8212 97.4834 24.0434 98.5933 23.9368 99.2753C23.8 100.153 23.3164 100.604 22.387 100.611C21.3013 100.618 18.205 98.7508 17.6209 100.174C17.347 100.841 17.4214 102.12 17.3211 102.836C17.1562 104.01 17.2216 105.178 17.3824 106.349C17.6465 108.278 18.5179 110.717 17.537 112.565C15.5784 116.257 8.78713 114.032 6.61944 111.709C3.42714 108.287 3.52031 103.158 5.04994 99.0155C5.79371 97.0005 6.87117 94.8414 8.27965 93.2026C8.90538 92.4746 10.0957 91.772 10.3022 90.7716C10.4738 89.9418 9.82876 89.1772 9.96448 88.3269C10.1257 87.3175 10.9797 86.7054 11.7116 86.0931C12.4735 85.4559 13.2148 84.7614 14.0831 84.2678C16.0922 83.1263 18.3708 83.8154 20.3682 84.6537C22.5525 85.5704 24.645 86.7997 26.5961 88.1378C27.562 88.8001 28.381 89.396 29.5263 89.7165C30.4045 89.9624 31.2916 90.2039 32.1738 90.4345C33.0062 90.6522 33.7079 90.8141 34.2922 90.0946C34.9352 89.3026 35.1482 88.9826 36.261 88.9486C37.4462 88.9125 38.6323 88.9786 39.8163 89.0238C40.0665 89.0334 40.6345 88.9555 40.8318 89.164C41.0076 89.3497 40.7529 89.7371 40.9166 89.8549C41.1751 90.0404 42.6434 87.9663 42.769 89.6453C42.8492 88.8303 43.7045 89.2249 44.1813 89.3322C44.3549 89.3712 44.528 89.4173 44.6998 89.4554C44.8861 89.3931 45.0411 89.4408 45.1636 89.598C45.3595 89.6399 45.4921 89.5651 45.5613 89.3741C47.6334 89.3441 49.7236 89.4746 51.8008 89.4637C54.203 89.4509 56.6188 89.4274 58.9984 89.0796C59.8799 88.9506 60.7618 88.7728 61.6449 88.6646C62.0496 88.6153 62.3891 88.6583 62.7839 88.6845C62.9279 88.7118 63.0585 88.7714 63.1759 88.8637C63.2361 88.745 63.3259 88.6552 63.4451 88.594C64.9563 88.1515 66.5111 87.8514 68.0467 87.4651C69.1217 87.1946 70.0229 86.9859 71.0932 86.9096L71.2959 86.8969L71.7259 87.0236C71.7889 86.8702 71.8912 86.7506 72.033 86.6649C72.3819 86.522 72.6782 86.4667 73.0542 86.4284C74.5509 86.2756 76.0194 86.2913 77.4342 86.0725C78.1793 85.9571 80.9017 85.535 81.4038 86.2738C81.7888 85.3742 84.561 86.599 85.3728 86.0676C84.1131 84.3494 83.5641 82.5109 83.2076 80.4332C82.819 78.1699 82.5749 75.789 83.1496 73.5346C83.679 71.4574 84.8326 69.3253 86.4093 67.864C87.934 66.4506 88.2917 64.7599 89.3091 63.0158C91.4287 59.3814 94.9208 57.161 98.8112 55.8202C100.93 55.0901 103.084 54.4825 105.221 53.8115C106.956 53.2666 108.41 52.4868 109.288 50.8199C101.897 50.8199 94.825 53.1121 88.0579 55.8925C84.6915 57.2755 81.3402 58.7146 78.0153 60.1948C76.3229 60.9479 74.6493 61.7535 73.0703 62.7262L72.634 62.995C72.1251 63.3098 71.6195 63.6319 71.145 63.9949C71.0319 64.0816 70.4144 64.4417 70.3781 64.562C70.096 65.4972 71.6505 67.0013 72.054 67.8035C72.6034 68.896 73.1416 70.1735 73.2092 71.405C73.2896 72.878 72.3503 73.615 70.9029 73.3127C69.1327 72.9429 67.7925 71.4677 66.387 70.442C66.0734 71.3833 66.4784 72.4661 66.6978 73.3835C66.9988 74.6417 67.298 75.9189 67.5121 77.1955C67.8147 78.9999 67.5997 81.0361 65.8045 81.9817C61.2297 84.3908 58.8974 78.0344 57.9684 74.8591C57.3404 75.312 57.4136 76.9713 57.2981 77.6651C57.0761 79.0001 56.8215 80.4334 56.2287 81.6594C55.7745 82.5982 55.0027 83.6945 53.8668 83.7957C52.6348 83.9055 51.6418 82.8461 51.09 81.8686C50.1363 80.1799 49.9115 78.2971 49.8362 76.4042C49.8194 75.9872 49.9404 72.1259 49.5189 72.016C48.2795 74.2365 47.5881 76.7057 46.1322 78.8234C44.8563 80.6794 42.9363 81.938 41.2112 79.7922C38.5396 76.4692 39.3944 71.6668 40.4889 67.9281C41.1254 65.7539 41.9916 63.6784 43.1596 61.7343C43.6438 60.9278 44.2299 60.3227 44.8312 59.6118C45.3271 59.0255 45.5179 58.7502 45.304 58.0746C45.1795 57.6806 45.0617 57.6663 45.1728 57.2307C45.2527 56.9183 45.4923 56.5337 45.6292 56.2435C46.0207 55.4142 46.4316 54.5958 46.9111 53.8133C47.9362 52.1418 49.3319 50.7513 50.7987 49.4618L50.946 49.3326L50.939 49.3391C50.8445 49.4262 51.5308 48.9033 51.5166 48.9021L51.5129 48.9035L51.5309 48.8928C51.7841 48.7273 51.8804 48.1833 52.1685 48.6688L52.1894 48.7053C52.2344 47.9908 52.8359 47.5848 53.3519 47.1846C53.5441 47.0354 53.7362 46.8283 53.9696 46.7391C54.132 46.6771 54.5096 46.738 54.6271 46.6513C54.8558 46.4831 54.9676 46.1499 55.1848 45.9517C55.4025 45.7535 55.703 45.6608 55.9507 45.5096C56.5579 45.139 57.1158 44.6852 57.7081 44.2901C58.9663 43.4508 60.2801 42.6944 61.6261 42.0053C64.4578 40.5552 67.4633 39.3884 70.4711 38.3593C73.1219 37.4523 75.8694 36.612 78.592 35.9513C81.3866 35.2729 84.3236 35.4418 87.1777 35.1629C92.9948 34.5943 99.1351 34.709 104.949 35.2765C107.799 35.5547 110.633 35.9896 113.443 36.5333C116.169 37.0605 119.004 37.6605 121.425 39.0858C121.941 39.3895 122.873 40.3635 123.478 40.3277C123.988 40.2976 124.429 39.3581 124.669 38.9879C125.237 38.1087 125.952 37.3006 126.435 36.3741C127.03 35.233 127.334 33.9504 127.782 32.7498C125.707 33.0358 123.528 33.2212 121.537 32.4264C119.734 31.7066 118.519 30.2681 117.172 28.9398C115.753 27.5408 114.233 26.5927 112.204 26.4642C109.902 26.3182 107.825 27.1443 105.708 27.9143C101.233 29.5411 96.76 31.3286 92.1554 32.5556C89.9051 33.1554 87.5914 33.6288 85.2595 33.7354C84.0723 33.7894 82.8708 33.7361 81.6965 33.9554C81.2097 34.0461 81.0636 34.122 80.6787 33.907C80.7308 33.9363 80.1886 33.0347 80.0811 33.3856C79.9774 33.7238 80.147 33.9881 79.8507 34.2429C79.5027 34.5421 78.7475 34.3966 78.3443 34.3621C77.7406 34.3106 77.2593 34.1056 76.6779 33.9693C75.7791 33.7585 74.772 33.8974 73.8562 33.7822C73.4307 33.7287 73.1219 33.6214 72.7391 33.5036C72.338 33.3802 72.5965 33.3959 72.1832 33.3433C71.8173 33.2967 71.6101 33.3449 71.1672 33.2009C70.771 33.0721 70.4048 32.9834 69.9997 32.8889C69.6286 32.8027 69.3291 32.6474 68.984 32.5464C69.4177 32.6734 68.4271 32.2808 68.47 32.3853L68.4739 32.392L68.4703 32.3884C68.3629 32.2672 68.2383 32.0237 68.0254 31.9859L67.9816 31.9812C68.6821 33.0566 65.6025 31.9203 65.3984 31.8582C63.6966 31.3404 61.9533 30.1651 60.1748 30.0569C58.4387 29.9512 56.7548 31.1344 55.357 32.0119C53.6691 33.0716 51.9887 34.1401 50.3072 35.2107C46.5904 37.5768 42.5657 39.6932 38.3944 41.1312C36.3656 41.8306 34.2866 42.3917 32.2286 42.9975C31.3008 43.2705 30.2876 43.3827 29.4009 43.7744C28.8016 44.0391 27.9378 44.8312 27.3322 44.1296C27.0883 44.7434 25.904 44.7121 25.4019 44.7311C25.3247 44.734 25.4487 44.8812 25.272 44.8689C25.0118 44.8505 24.9421 44.5979 24.7372 44.545C24.3209 44.438 24.2777 44.5983 23.8651 44.7576C23.3292 44.9643 23.4313 44.7853 22.9574 44.7365C22.6862 44.7085 22.3989 44.8574 22.1272 44.8659C22.0168 44.8695 21.8719 44.6857 21.7122 44.6883C21.5586 44.6913 21.1985 44.8747 20.9951 44.9051C20.4858 44.9817 19.8865 44.9309 19.373 44.908C18.6382 44.8751 11.2784 44.2189 11.8065 42.6803C10.921 43.4973 8.86686 42.1619 7.94371 41.7377C7.59993 41.5798 7.57776 41.4264 7.38404 41.2483C7.43756 41.0345 7.34596 40.9391 7.10924 40.9619C7.05862 40.9561 7.00778 40.9505 6.95739 40.9447C6.55181 40.7379 6.40735 40.7426 6.08441 40.3801C5.65373 39.8961 4.86092 39.4585 4.63764 38.8278C4.57784 38.6585 4.64144 38.3662 4.58052 38.2332C4.50259 38.0625 4.29744 38.0822 4.24996 37.9438C4.23339 37.8955 4.31267 37.5781 4.30685 37.573C3.9344 37.2612 3.40945 37.409 2.97788 37.0348C1.7853 35.9999 1.06572 33.924 0.722619 32.4499C-0.174783 28.5945 -0.481157 24.7178 1.26057 21.071C2.10713 19.298 3.14361 17.6116 4.28803 16.0163C4.60471 15.5751 4.9364 14.9926 5.34042 14.6201C5.52182 14.4528 5.75922 14.4186 5.84768 14.3185C6.31979 13.7843 6.56457 13.0975 7.19725 12.5776C7.9016 11.9987 8.5961 11.4037 9.37413 10.9248C10.0881 10.4852 10.9772 10.2015 11.6319 9.79026C11.8115 9.67739 11.7497 9.49934 11.9447 9.36519C12.1514 9.22298 12.4188 9.212 12.6531 9.1428C12.931 9.06106 13.2757 8.91033 13.5642 8.88547C14.1028 8.83866 14.2835 8.99297 14.6898 9.37549C14.6898 7.90341 17.4006 7.69849 18.4971 7.6958C19.003 7.69446 21.5454 7.46759 21.4965 8.24249C22.0757 7.477 23.8365 8.04652 24.6024 8.27608C25.5215 8.55133 26.1029 9.22477 26.6926 9.94412C26.8019 9.71613 26.9114 9.48792 27.0209 9.25993C27.1882 9.37684 27.7539 9.57123 27.5716 9.87962C28.2339 9.29532 27.8605 9.7766 28.4278 9.88052C28.6771 9.92621 28.8919 9.83416 29.1541 9.80303C29.1759 10.1493 29.0256 10.2615 28.8113 10.5029C29.325 10.5125 31.2994 10.3074 29.8381 10.9531C30.0334 11.3024 30.9601 11.1797 31.286 11.2267C31.4587 11.2516 31.8889 11.2605 31.9919 11.3869C32.0598 11.47 31.9404 11.6997 31.9556 11.7201C32.0949 11.9089 31.8056 12.0059 32.0913 12.0605C32.1617 12.074 32.3841 11.8507 32.4344 11.8516C32.8051 11.8574 32.5451 11.7837 32.9381 11.8404C33.0768 11.8603 33.3428 12.0184 33.5209 12.0549C36.2052 12.6043 39.4865 10.5376 41.4365 8.93765C43.767 7.02595 45.7956 4.98255 48.5973 3.7416C51.3076 2.5414 54.327 1.59495 57.2076 0.908522C62.5344 -0.360874 67.8243 -0.383045 73.0652 1.37167ZM140.873 123.698C140.959 123.744 141.045 123.79 141.131 123.836C141.254 123.773 141.377 123.711 141.5 123.649C141.148 123.482 141.123 123.409 140.873 123.698ZM169.479 116.084C168.833 116.492 168.279 117.412 167.714 117.961C166.92 118.732 166.091 119.465 165.262 120.198C166.217 120.529 167.602 121.87 168.636 121.262C169.147 120.961 169.471 120.077 169.794 119.608C170.296 118.881 170.881 118.199 171.47 117.543C172.078 116.867 170.156 115.657 169.479 116.084ZM108.944 102.168C109.2 102.276 109.761 102.893 109.501 103.11C109.237 102.805 108.884 102.585 108.944 102.168ZM26.7618 92.3935C26.2944 92.7973 25.7674 93.6405 25.442 94.1715C25.0754 94.7697 25.0624 95.0711 25.6223 95.4702C26.7042 96.2418 28.276 96.4682 29.5308 96.8281C30.2007 97.0202 31.0289 97.5035 31.598 96.8926C32.1614 96.2879 32.1628 95.1614 32.4163 94.4116C32.6217 93.8042 32.8414 93.202 33.0546 92.5975C31.8719 92.7164 30.6824 92.7247 29.5196 92.46C28.6755 92.2681 27.5083 91.7483 26.7618 92.3935ZM47.1906 60.0615C46.2357 61.3585 45.3837 62.7322 44.6326 64.1568C43.3896 66.5149 42.4234 69.0185 41.8114 71.6142C41.3776 73.4531 40.7437 76.0385 41.7343 77.8026C43.8922 81.6457 48.2719 70.5517 48.9404 69.3914C49.3384 68.7005 49.9561 67.9594 50.6402 68.8476C51.2015 69.5766 51.0187 70.745 51.0447 71.6034C51.1222 74.1548 50.7661 77.2102 51.7862 79.6108C52.1211 80.3987 53.0079 81.5367 54.009 81.1788C54.9064 80.8576 55.3548 79.3121 55.6323 78.5159C56.51 75.997 57.1326 72.9183 57.161 70.253C57.1666 69.7175 56.6862 66.1776 57.9249 66.9608C58.7352 67.4727 58.7021 69.958 58.7807 70.7712C59.0886 73.9483 59.7162 79.3437 63.658 79.8782C64.5259 79.9961 65.5082 79.7907 66.0163 79.0104C66.6479 78.0409 66.0127 76.7372 65.7915 75.7182C65.4101 73.9615 64.9781 72.1506 64.94 70.3421C64.9167 69.2335 65.0258 67.3906 66.5829 67.8183C68.4595 68.3336 69.2532 70.7885 71.3607 70.8706C71.3627 70.3766 71.0892 69.9739 70.8574 69.5612C70.1076 68.227 68.7419 67.0846 68.2797 65.6087C68.128 65.1245 68.2857 64.3965 67.9858 63.9929C67.7025 63.6119 67.0631 63.5143 66.6356 63.4281C63.7893 62.8532 60.9912 62.0749 58.1581 61.4122C55.1295 60.7041 52.3215 59.9386 49.4853 58.6916C48.2074 58.1297 47.9156 59.0772 47.1906 60.0615ZM115.098 79.9607C115.516 80.1591 115.93 80.3658 116.353 80.5535C116.721 80.7172 116.865 80.5869 117.012 80.2433C116.746 80.1884 115.252 79.6576 115.098 79.9607ZM97.164 36.9228C91.7482 37.0816 86.4534 37.1508 81.1156 38.179C78.5627 38.6708 76.0602 39.2406 73.5566 39.9389C72.499 40.2338 71.5667 40.5413 70.6444 41.1296C70.3015 41.3482 69.3938 42.0347 69.2545 41.2501C68.7986 41.6871 67.9094 43.021 67.1805 42.2799C67.0526 42.8156 66.6542 42.799 66.2654 42.9811C66.1285 43.0452 66.054 43.2631 65.8779 43.3421C65.8336 43.3618 65.8188 43.0557 65.7543 43.0505C65.5221 43.0322 65.3389 43.5213 65.2054 43.646C64.884 43.945 64.583 44.0819 64.157 44.1905C63.972 44.2523 63.7823 44.2919 63.5882 44.3094C63.3595 44.4032 63.2224 44.3358 63.1772 44.1072C62.8617 44.1123 62.6308 44.227 62.3002 44.3766C63.0135 44.5401 61.8135 44.7199 61.6541 44.7381C61.6344 45.2711 62.0899 44.9334 62.3842 45.0438C62.248 45.7127 61.0082 46.2234 60.498 46.5515C60.4109 46.366 60.3238 46.1806 60.2364 45.9954C60.0953 46.1318 59.986 46.2887 59.9079 46.4663C59.8552 46.6813 59.7025 46.7557 59.4499 46.6894C59.2134 46.8771 59.178 46.7902 59.0326 47.0545C58.8824 47.3284 59.3267 47.8614 58.6812 47.6318C58.6812 48.5415 57.8363 47.9902 57.9843 47.7541C57.3451 47.6923 57.0723 48.8623 57.144 49.3187C56.8384 49.0157 56.6509 49.054 56.3439 49.2907L56.3168 49.3118L56.3329 49.3004C56.5691 49.1406 56.3262 49.7942 56.3473 49.7865L56.3501 49.7838C55.701 50.6391 55.7622 49.6815 55.9631 49.1769C55.5232 49.3532 55.4399 49.8302 55.0869 50.0994C54.7727 50.339 54.6843 50.2277 54.4139 50.2636C53.9976 50.3187 54.1232 49.9762 53.9407 50.4349C53.8635 50.6293 53.9806 50.9775 53.9806 51.1896C54.1611 50.9428 54.0928 50.5525 54.4189 50.4112C54.3214 51.1263 52.9307 53.5831 52.3459 52.1352C51.7771 52.5305 52.4039 52.9636 52.0306 53.493C51.7529 53.2252 51.6864 52.799 51.7175 52.4339C51.543 52.666 51.5486 52.9591 51.412 53.1938C51.2696 53.4386 51.1204 53.4583 51.0517 53.7244C50.9475 54.1284 51.3034 53.9304 51.1155 54.3591C51.0212 54.5743 50.5796 54.7627 50.4058 54.8838C49.797 55.308 49.1816 55.7994 49.7724 56.5044C50.6976 57.6078 53.1354 57.7341 54.4446 57.9196C57.2365 58.3151 59.9574 58.972 62.708 59.5805C64.3644 59.9471 65.9868 60.3551 67.6114 60.844C68.778 61.1948 70.3893 61.4129 71.005 62.6207C74.2569 59.5117 78.5932 57.8896 82.6065 56.0249C86.9535 54.0055 91.4425 52.1303 96.0476 50.7807C100.131 49.5838 104.318 49.1297 108.536 48.7171C109.648 48.6083 111.362 48.3299 112.352 49.0128C112.964 49.4342 112.992 50.0725 112.524 50.6365C112.27 50.9419 111.997 50.8627 111.842 51.4073C111.722 51.8284 111.787 52.1473 111.897 52.5641C111.616 52.3437 111.113 52.475 110.969 52.0864L110.954 52.0428L110.941 52.089C110.749 52.8476 112.09 52.9525 111.679 53.8623L111.652 53.9179C111.51 54.1958 111.51 53.3042 111.384 53.2978C111.044 53.2801 110.765 54.0751 110.625 54.2955C111.258 54.2955 111.017 54.7559 110.678 54.9884C110.435 55.1544 110.026 55.2025 109.744 55.3396C109.183 55.6137 108.688 56.0155 108.112 56.2768C107.481 56.5633 106.926 56.581 106.299 56.751C106.202 56.7772 105.817 56.9214 105.778 56.9248C105.725 56.9295 105.713 57.0921 105.668 57.0983C105.267 57.155 104.964 56.783 104.576 56.9346C104.428 56.9928 104.505 57.3554 104.376 57.4376C104.234 57.5283 103.831 57.4125 103.659 57.4029C103.245 57.3792 103.182 57.3245 102.853 57.5165C102.289 57.8461 102.002 58.2918 101.241 58.3727C100.646 58.436 100.262 58.3236 99.6963 58.5467C99.1234 58.7722 98.5808 58.8221 98.0224 58.9733C97.9517 58.9926 97.9329 59.2347 97.8753 59.2515C97.6905 59.3061 97.4697 59.2645 97.2932 59.3187C96.8879 59.4434 96.5589 59.5545 96.1824 59.7782C94.5278 60.7616 92.7072 62.2377 91.4098 63.6549C90.8175 64.3019 89.1653 65.9317 89.7042 66.8683C90.0497 67.4692 91.243 67.7612 91.8381 68.015C92.7256 68.3937 93.6434 68.6694 94.5406 69.0201C95.6561 69.4563 96.6682 70.134 97.8061 70.5139C98.9044 70.8805 100.08 70.9528 101.214 71.1486C106.123 71.9951 110.932 73.3566 115.843 74.2009C118.537 74.6641 121.287 75.2168 124.023 74.7803C126.434 74.3955 128.743 73.329 130.669 71.839C134.173 69.1278 136.615 65.2782 137.843 61.0434C138.097 60.1686 138.15 57.9803 138.969 57.445C139.65 56.9993 140.008 57.9816 140.45 58.3697C141.169 59.0002 142.222 59.2441 143.087 59.6037C145.227 60.494 147.172 61.4337 149.435 62.0359C151.728 62.6462 154.054 63.1248 156.373 63.6281C161.073 64.6482 165.56 65.613 170.391 65.6287C175.172 65.6439 179.971 65.8237 184.699 64.9431C188.834 64.1729 192.994 62.0689 196.086 59.212C197.647 57.7695 198.851 55.9476 200.078 54.2256C200.737 53.302 201.349 52.3446 201.863 51.3325C202.241 50.5888 202.891 49.5117 202.957 48.6683C203.017 47.9147 202.576 48.0217 201.823 47.9447C200.665 47.8264 199.502 47.7514 198.343 47.6323C196.006 47.3926 193.677 47.0869 191.341 46.8386C188.957 46.585 186.588 46.2413 184.272 45.6097C183.58 45.4209 183.068 45.1828 182.579 45.8556C182.264 46.2888 182.27 47.2771 181.612 46.5515C180.348 48.1481 178.499 49.1041 176.771 50.1061C174.902 51.1903 173.085 52.3833 171.103 53.2588C166.834 55.1454 162.129 54.9958 157.598 54.3913C152.995 53.777 148.33 52.9847 144.004 51.2329C142.02 50.4295 140.315 49.2071 138.536 48.0408C137.698 47.4914 136.829 47.0395 135.939 46.5817C134.936 46.0657 134.323 45.3006 133.416 44.7042C132.804 46.695 130.453 47.3794 128.595 47.4683C126.276 47.5794 124.401 46.4722 122.995 44.6738C121.827 43.1809 121.6 40.9478 119.793 40.1306C117.731 39.1985 115.314 38.828 113.107 38.3944C107.924 37.3766 102.445 36.7676 97.164 36.9228ZM124.657 52.2284C125.24 52.489 126.935 54.4386 125.59 54.467C124.735 54.4852 124.233 53.4131 123.289 53.5755C122.866 53.6485 122.233 53.7945 122.129 54.1212C121.869 54.9349 123.066 55.4589 123.584 55.6849C124.381 56.033 125.037 56.383 125.472 57.1792C126.14 58.4024 126.315 60.3816 124.752 60.9287C123.59 61.3354 122.138 61.0198 120.991 60.7C120.024 60.4304 119.286 59.4309 119.731 58.4376C119.857 58.1563 120.195 57.6602 120.588 57.8461C120.901 57.9939 120.749 58.2739 120.844 58.5245C121.228 59.5287 124.101 60.9603 124.762 59.4425C125.568 57.5917 122.502 57.0343 121.566 56.4155C120.356 55.6157 120.324 54.2476 121.247 53.2021C122.056 52.2859 123.481 51.7029 124.657 52.2284ZM129.723 58.5005C129.674 58.9366 129.614 59.3885 129.539 59.8205C129.473 60.1961 129.476 60.5907 129.045 60.7264C128.76 60.816 128.483 60.5139 128.209 60.7146C127.905 60.9372 128.05 59.3182 128.064 59.2273C128.154 58.6235 128.317 57.3975 128.898 57.023C129.88 56.3892 129.781 57.9688 129.723 58.5005ZM129.66 55.9701C128.618 56.6301 128.347 54.7582 128.762 54.1495C129.792 52.6383 131.303 54.9302 129.66 55.9701ZM108.483 55.0502C108.781 55.2715 108.682 55.1497 108.682 55.7387C108.336 55.7539 108.389 55.2793 108.483 55.0502ZM109.661 54.5407C109.56 54.7745 110.011 55.0551 110.157 55.0917C110.166 55.0162 109.946 53.8776 109.661 54.5407ZM53.1038 51.1209C52.8266 51.5226 52.9832 51.7688 53.424 51.6107L53.4603 51.597L53.1038 51.1209ZM58.6739 47.2589L58.41 47.3705C58.2855 47.4894 58.1614 47.6081 58.0371 47.7268C58.3997 47.6562 58.6515 47.7107 58.6739 47.2589ZM60.1352 46.6945C59.9535 46.3241 59.3294 47.0589 59.3155 47.2309C59.461 47.1447 60.3466 47.1259 60.1352 46.6945ZM60.7211 45.3855C60.5694 45.599 60.6003 45.7701 60.8138 45.8988C60.9909 45.6621 61.1255 45.4034 61.2171 45.1224C60.9806 44.9506 60.8053 45.1831 60.7211 45.3855ZM180.229 18.9419C179.772 19.147 180.011 19.8534 180.056 20.2361C180.268 22.0591 180.605 23.864 180.814 25.6866C181.108 28.25 181.15 30.8444 181.631 33.3849C182.07 35.7018 182.809 37.9517 183.2 40.2793C183.462 41.8365 182.963 43.6357 184.82 44.1081C186.49 44.5329 188.395 44.556 190.107 44.7428C192.313 44.9833 194.523 45.1015 196.738 45.2088C197.787 45.2594 198.868 45.2726 199.906 45.4317C200.518 45.5253 201.28 45.9309 201.75 45.3647C202.208 44.8142 202.209 43.4131 202.352 42.7103C202.541 41.7825 202.71 40.8497 202.802 39.9066C203.012 37.7714 202.704 35.657 202.421 33.5428C202.116 31.2638 201.883 28.9752 201.568 26.6984C201.364 25.2308 201.388 22.8609 200.378 21.6764C199.457 24.4264 199.207 27.3461 199.161 30.2296C199.151 30.8486 198.746 34.4062 197.669 32.6719C197.37 32.1895 197.365 31.914 196.9 31.5062C196.421 31.0858 196.253 30.7496 196.091 30.1131C195.797 28.9602 195.75 27.9463 195.114 26.9096C193.821 24.7995 193.297 22.187 191.371 20.4836C191.351 22.4636 191.065 24.6051 191.433 26.5609C191.665 27.79 192.613 29.5591 191.831 30.7749C191.442 31.3814 191.216 31.2005 190.757 30.8959C190.463 30.7006 190.508 30.6097 190.139 30.4141C189.786 30.2278 189.509 30.2365 189.176 29.9763C187.995 29.0554 187.902 27.4552 187.516 26.1303C186.665 23.2054 183.721 21.3989 181.466 19.5898C181.221 19.3929 180.607 18.7728 180.229 18.9419ZM135.741 24.8676C134.012 25.5578 132.23 25.8208 130.393 25.4308C130.395 25.8344 130.977 26.4902 130.528 26.7222C130.42 26.7775 129.808 26.5126 129.689 26.4817C129.027 26.3099 128.134 26.0145 127.441 26.1553C126.709 26.3045 126.734 26.7791 127.213 27.3166C127.885 28.0711 129.572 28.1018 129.591 29.3537C129.599 29.895 129.266 30.5731 129.194 31.1315C129.087 31.9664 128.971 32.7946 128.775 33.6145C128.438 35.0241 127.892 36.3649 127.241 37.6578C126.681 38.7716 126 39.9321 124.956 40.66C124.276 41.1343 124.538 40.9202 124.672 41.6194C124.761 42.0877 124.746 42.4364 124.141 42.3209C124.026 42.2853 123.91 42.2499 123.794 42.2143C125.213 44.5381 128.799 46.0028 131.254 44.4521C130.219 43.6176 131.624 42.1628 132.217 41.5464C133.106 40.6231 134.037 39.5606 134.989 38.7176C136.448 37.4272 138.357 38.0551 140.083 37.5123C141.83 36.9629 143.101 35.7233 144.23 34.3379C145.235 33.1041 146.569 31.5942 146.704 29.9241C146.731 29.5971 146.572 29.2137 146.63 28.9044C146.689 28.5891 146.88 28.5481 146.98 28.3416C147.184 27.9168 147.233 27.4794 147.266 26.9929C147.371 25.4055 146.867 25.1563 145.376 24.7462C144.507 24.507 143.627 24.3193 142.757 24.0857C141.926 23.8629 141.185 23.434 140.366 23.1948C138.643 22.6912 137.259 24.2616 135.741 24.8676ZM140.183 34.843C141.554 35.6748 139.393 36.2074 138.595 35.8397C137.517 35.3429 139.418 34.3786 140.183 34.843ZM142.766 27.9271C144.01 29.4139 145.394 32.436 142.668 33.0477C141.827 33.2365 140.526 33.5415 139.68 33.3101C138.471 32.9794 138.787 31.4027 139.992 31.3335C140.706 31.2925 142.345 31.8573 142.769 31.028C142.999 30.5783 142.476 29.8636 142.396 29.4148C142.294 28.8372 142.387 28.3757 142.766 27.9271ZM68.4739 32.392L68.4749 32.3936C68.4794 32.3997 68.4863 32.407 68.496 32.4157L68.5008 32.4195L68.4916 32.4109L68.4739 32.392ZM145.231 28.4586C146.095 28.4566 145.666 30.2924 145.238 30.6059C144.468 31.1685 144.139 28.4609 145.231 28.4586ZM139.533 29.8428C138.53 29.9644 138.756 27.5644 139.67 27.4907C140.869 27.3938 140.693 29.7023 139.533 29.8428ZM148.209 25.8595C148.089 26.1041 148.18 28.4852 148.468 28.5302C148.545 27.9486 148.502 27.3638 148.494 26.7796L148.493 26.632C148.5 26.6412 148.547 25.1695 148.209 25.8595Z" fill="#3B247B"/>
</svg>
