<svg width="145" height="141" viewBox="0 0 145 141" fill="none" xmlns="http://www.w3.org/2000/svg">
<g clip-path="url(#clip0)">
<path fill-rule="evenodd" clip-rule="evenodd" d="M143.616 56.3903C140.056 45.5365 134.766 35.2255 129.131 25.8518C126.659 21.757 121.369 5.47635 118.749 5.9697C115.486 6.61106 110.394 7.00574 104.659 6.8084C91.0142 6.36438 82.3133 13.1233 68.718 10.0645C54.2328 6.8084 39.5499 3.84829 24.5703 1.57887C14.6828 0.0494755 7.16835 -3.45332 2.32348 9.76851C-0.197828 24.6184 1.03811 31.8707 1.58192 40.1097C3.21336 45.8819 0.988671 50.8647 4.30098 56.9823C5.98185 60.0904 3.36167 69.3654 2.81786 73.8549C4.5976 87.4221 -12.4583 108.242 20.5165 109.968C30.8983 116.925 32.7275 137.152 40.8352 140.901C52.7002 142.826 68.6191 120.625 79.8414 107.748C82.9065 106.466 93.4861 107.008 102.187 106.12C116.524 104.64 116.623 100.644 126.461 91.5169C128.784 89.3462 133.629 82.0939 138.326 77.2097C143.072 73.3123 147.274 67.688 143.616 56.3903ZM131.256 69.4641C128.488 75.631 126.906 75.4337 123.495 81.0085C117.958 85.8927 112.421 90.7769 103.225 92.6517C102.286 92.849 93.2389 95.9571 87.0592 95.8584C79.3964 95.7598 74.7493 94.7731 73.3651 96.1544C72.4752 97.0425 70.3 102.864 66.8393 107.699C63.3787 112.534 53.5901 127.285 47.9048 126.002C44.8891 125.312 41.4779 110.215 41.4779 110.215L36.9791 100.792C35.9409 98.5719 33.7163 97.1411 31.2444 97.1411C24.2243 97.0918 18.6873 96.5985 17.4019 95.3651C13.0514 90.9743 18.0446 71.8815 15.8693 65.616C15.6716 58.4624 17.8468 45.4379 14.4851 39.4683C14.2873 28.9599 17.2536 27.5785 17.748 19.1422C17.8963 16.4781 20.8625 13.9127 23.2355 14.406C49.8823 19.8822 72.4752 16.0341 100.556 18.0075C108.96 18.5995 115.98 18.0568 119.589 24.6184C122.16 29.2559 129.724 43.0204 132.245 47.7566C135.458 53.7262 134.569 65.1226 131.256 69.4641Z" fill="#FFAB00"/>
<path fill-rule="evenodd" clip-rule="evenodd" d="M131.257 69.4641C128.488 75.631 126.906 75.4337 123.495 81.0086C117.958 85.8928 112.421 90.777 103.225 92.6517C102.286 92.849 93.2391 95.9572 87.0594 95.8585C79.3966 95.7598 74.7495 94.7731 73.3653 96.1545C72.4754 97.0425 70.3001 102.864 66.8395 107.699C63.3789 112.534 53.5903 127.285 47.905 126.002C44.8893 125.312 41.4781 110.215 41.4781 110.215L36.9793 100.792C35.9411 98.5719 33.7164 97.1412 31.2446 97.1412C24.2245 97.0919 18.6875 96.5985 17.4021 95.3651C13.0516 90.9743 18.0448 71.8816 15.8695 65.616C15.6718 58.4624 17.847 45.4379 14.4853 39.4683C14.2875 28.9599 17.2538 27.5786 17.7482 19.1422C17.8965 16.4781 20.8627 13.9127 23.2357 14.4061C49.8825 19.8823 72.4754 16.0341 100.556 18.0075C108.96 18.5995 115.98 18.0569 119.589 24.6184C122.16 29.256 129.724 43.0205 132.245 47.7567C135.459 53.7262 134.569 65.1227 131.257 69.4641Z" fill="#3B247B"/>
<path fill-rule="evenodd" clip-rule="evenodd" d="M60.462 53.9232C60.3136 57.9193 60.808 72.3745 63.9226 70.2531C67.7787 67.6383 68.8663 55.2552 69.0641 52.1471C69.3113 48.2003 69.3607 36.0145 67.2349 36.2118C63.0821 36.7052 60.6103 50.371 60.462 53.9232Z" fill="#FFAB00"/>
<path fill-rule="evenodd" clip-rule="evenodd" d="M89.2045 55.1689C89.0356 50.5392 90.3702 46.6115 89.8794 43.325C89.3273 39.3564 88.1616 37.124 85.1555 37C82.5789 45.1853 81.8427 55.541 82.0267 61.928C82.2108 67.2608 83.9286 75.6322 89.3272 64.5324C89.711 63.0717 89.711 61.8148 89.711 61.1863C89.711 57.4156 89.2906 57.5256 89.2045 55.1689Z" fill="#FFAB00"/>
</g>
<defs>
<clipPath id="clip0">
<rect width="145" height="141" fill="white"/>
</clipPath>
</defs>
</svg>
