<svg width="137" height="142" viewBox="0 0 137 142" fill="none" xmlns="http://www.w3.org/2000/svg">
<g clip-path="url(#clip0)">
<path fill-rule="evenodd" clip-rule="evenodd" d="M4.27618 77.6237C6.13988 38.6835 31.72 15.6634 69.871 13.0283C86.0231 11.8572 96.0359 17.5665 107.547 29.351C117.852 39.9644 124.503 52.7005 123.991 68.1814C123.516 81.2469 118.766 95.4103 111.201 105.585C100.567 119.894 82.7707 125.164 65.7051 126.189C50.759 127.068 32.4874 127.36 19.8435 118.138C6.54185 108.439 3.54532 93.1412 4.27618 77.6237ZM73.1964 141.56C107.912 139.145 135.868 104.523 136.964 70.5237C138.097 32.352 107.072 -2.4892 68.2997 0.145849C27.4445 2.8541 3.65495 33.7794 0.292984 72.8294C-1.46108 93.7634 4.49544 111.404 18.4549 127.141C31.5739 141.963 54.194 142.914 73.1964 141.56Z" fill="#FFAB00"/>
<path d="M115.111 47.3578C111.822 48.8217 106.34 50.2856 103.417 50.2856C108.533 47.3578 112.553 41.1361 112.187 38.5743C105.244 44.064 101.224 44.064 99.0318 44.43C96.4738 39.6722 84.4145 35.6465 78.2022 39.3062C71.9899 42.966 64.3159 53.9454 66.8739 62.3629C58.469 60.899 41.2937 58.3372 25.5802 41.8681C20.0987 52.8475 24.4839 65.2908 33.2542 67.1207C25.9456 67.1207 25.2148 67.4867 22.2913 65.6568C23.753 75.1722 32.5234 82.4918 39.1011 85.7856C35.4468 86.1516 33.2542 85.4196 29.2345 85.0537C31.0617 90.1774 33.2542 94.5691 48.6023 99.3269C39.4666 105.549 19.0024 107.378 19.0024 107.378C27.4073 113.234 62.4887 122.018 81.4911 105.914C100.494 89.8114 105.975 70.0485 105.244 57.9712C109.995 55.0434 114.38 49.1877 115.111 47.3578ZM88.7997 50.6516C87.7765 50.6516 86.9726 49.8464 86.9726 48.8217C86.9726 47.797 87.7765 46.9918 88.7997 46.9918C89.8229 46.9918 90.6269 47.797 90.6269 48.8217C90.6269 49.8098 89.7864 50.6516 88.7997 50.6516Z" fill="#3B247B"/>
</g>
<defs>
<clipPath id="clip0">
<rect width="137" height="142" fill="white"/>
</clipPath>
</defs>
</svg>
