<svg width="236" height="177" viewBox="0 0 236 177" fill="none" xmlns="http://www.w3.org/2000/svg">
<path fill-rule="evenodd" clip-rule="evenodd" d="M100.668 71.3348C98.218 71.4911 95.7483 71.4274 93.2965 71.3494C93.0549 71.3416 92.4774 71.2293 92.3302 71.3736C92.1609 71.5399 92.1969 72.4556 92.1688 72.6825C91.9572 74.4007 91.7452 76.1192 91.5336 77.8375C91.4362 78.6264 91.3389 79.4155 91.2416 80.2045C91.2139 80.4288 90.9393 81.3987 91.0705 81.5933C91.3089 81.9473 93.017 82.0282 93.4671 82.1149L98.8275 83.1474C99.3324 83.2446 100.621 83.2675 100.855 83.6662C101.003 83.9191 100.913 84.6043 100.93 84.8913L101.076 87.2599C101.267 90.3621 101.458 93.4642 101.649 96.5664C105.442 96.2614 109.236 95.9566 113.029 95.6515C113.953 95.5773 114.876 95.5033 115.799 95.429C116.019 95.4112 116.479 95.4576 116.659 95.3362C117.05 95.0708 117.385 93.9357 117.596 93.5279C118.135 92.4882 118.673 91.4486 119.212 90.4088C119.732 89.4069 120.251 88.405 120.77 87.403C120.903 87.1466 121.235 86.7188 121.227 86.4383C121.217 86.1224 120.746 85.5566 120.599 85.2865C120.167 84.4949 119.736 83.7033 119.304 82.9116C117.168 78.9918 115.031 75.072 112.895 71.1524C112.786 70.9536 112.545 70.2313 112.333 70.1215C111.921 69.9085 110.482 70.337 110.039 70.3876C106.923 70.7433 103.799 71.135 100.668 71.3348Z" fill="#FFAB00"/>
<path fill-rule="evenodd" clip-rule="evenodd" d="M64.5312 64.6011C65.2885 65.4997 66.0458 66.3983 66.8033 67.2969C68.8115 64.8182 70.8197 62.3395 72.8281 59.8608C71.8212 59.4109 70.8145 58.961 69.8079 58.511C68.9143 58.1118 69.0284 58.3016 68.4631 59.0932C67.1526 60.9293 65.8418 62.7652 64.5312 64.6011Z" fill="#3B247B"/>
<path fill-rule="evenodd" clip-rule="evenodd" d="M103.26 123.07C103.256 124.376 103.253 125.682 103.25 126.988C107.245 126.792 111.24 126.595 115.234 126.398C115.053 125.85 114.871 125.302 114.69 124.754C114.548 124.326 114.369 123.033 114.024 122.746C113.648 122.432 111.992 122.756 111.487 122.774C108.744 122.872 106.002 122.971 103.26 123.07Z" fill="#3B247B"/>
<path fill-rule="evenodd" clip-rule="evenodd" d="M93.7427 24.1992C89.076 27.1474 84.4091 30.0959 79.7422 33.0441C80.7727 34.2492 81.8027 35.4543 82.833 36.6594C83.0798 36.948 83.1237 37.1307 83.4059 37.1026C83.7344 37.07 84.287 36.5545 84.5606 36.384C87.869 34.3247 91.1771 32.2655 94.4853 30.2065C95.4861 29.5834 96.4872 28.9603 97.4883 28.3373C96.2398 26.9579 94.991 25.5786 93.7427 24.1992Z" fill="#3B247B"/>
<path fill-rule="evenodd" clip-rule="evenodd" d="M202.173 70.28C202.004 68.9095 201.313 67.5163 200.808 66.247C200.212 64.7514 199.584 63.2683 198.942 61.7923C198.535 60.8579 198.387 61.0875 197.323 61.1293C196.08 61.1778 194.837 61.2265 193.594 61.2752C194.551 64.7505 195.508 68.2257 196.465 71.7008C196.631 72.3024 196.899 74.5577 197.421 74.8624C197.602 74.9679 198.226 74.8321 198.431 74.8245C199.018 74.8024 199.604 74.7805 200.191 74.7585C200.988 74.7286 201.785 74.6988 202.582 74.6689C202.471 73.2044 202.352 71.738 202.173 70.28Z" fill="#3B247B"/>
<path fill-rule="evenodd" clip-rule="evenodd" d="M123.217 158.275C121.078 157.734 118.751 158.247 116.595 158.262C115.326 158.271 114.059 158.186 112.79 158.251C112.365 158.273 110.42 158.217 110.354 158.473C110.303 158.669 110.69 159.163 110.839 159.245C111.259 159.474 111.555 159.18 111.978 159.071C113.127 158.774 114.469 158.957 115.649 158.901C116.884 158.842 118.118 158.769 119.352 158.712C120.582 158.655 122.151 158.91 123.217 158.275ZM18.4202 47.402C18.256 47.0261 18.1886 46.4292 17.8116 46.1939C17.4623 45.9756 16.7305 46.1349 16.3269 46.1293C15.4686 46.1176 13.6052 46.1509 13.0446 46.9322C12.3629 47.8819 14.3682 48.5591 15.037 48.541C16.199 48.5095 17.2563 47.6168 18.4202 47.402ZM39.7834 35.4806C39.8717 35.24 39.5613 35.0811 39.337 35.0045C38.7664 34.8096 38.391 35.1339 37.8888 35.3778C36.6208 35.9939 35.2421 36.401 33.9083 36.8462C32.7469 37.2336 31.6695 37.7766 30.5307 38.2129C29.7233 38.5222 28.0193 38.4619 27.5543 39.2424C26.6363 40.784 29.0411 39.6277 29.4648 39.4782C30.6808 39.0494 31.975 38.7852 33.1669 38.2951C34.314 37.8236 35.4837 37.3439 36.6189 36.8333C37.1368 36.6003 37.6519 36.4025 38.18 36.1989C38.674 36.0086 39.2577 35.5309 39.7834 35.4806ZM74.4851 62.1995C74.1822 62.0138 72.9405 60.977 72.5232 61.1137C72.1974 61.2207 71.8328 62.4118 71.6296 62.7247C70.6127 64.2906 69.5158 65.7918 68.4254 67.3066C68.9093 67.5669 69.3932 67.827 69.8773 68.0872C70.864 65.7488 72.7666 63.9989 74.4851 62.1995ZM93.3147 70.5574C94.8722 70.5611 96.4152 70.3658 97.9709 70.3874C99.7141 70.4118 101.427 70.4589 103.168 70.3166C104.882 70.1764 106.589 70.1695 108.303 70.0653C108.842 70.0326 111.844 69.8035 110.085 68.9452C109.494 68.6564 108.782 69.0162 108.14 69.1458C107.395 69.2962 106.644 69.3525 105.891 69.4431C105.174 69.5295 104.413 69.768 103.689 69.7503C102.93 69.7319 102.361 69.5962 101.598 69.7059C100.016 69.9336 98.4419 69.8062 96.8613 69.6596C95.7715 69.5584 93.379 68.9456 93.3147 70.5574ZM135.7 159.243C136.702 158.435 138.288 158.785 139.479 158.527C140.794 158.242 139.758 156.848 139.254 156.106C138.728 155.332 137.937 153.786 137.053 154.931C136.13 156.128 136.021 157.815 135.7 159.243ZM104.145 124.117C104.112 124.844 103.752 125.591 104.508 125.841C105.233 126.08 106.478 125.717 107.229 125.652C108.209 125.567 109.173 125.405 110.15 125.305C110.586 125.26 111.024 125.226 111.462 125.266C111.764 125.294 112.492 125.622 112.761 125.486C113.093 125.319 113.254 124.42 112.983 124.074C112.689 123.698 110.917 124.07 110.283 124.118C108.216 124.275 106.203 124.025 104.145 124.117ZM104.019 121.786C104.97 121.394 106.1 121.577 107.102 121.572C108.28 121.566 109.445 121.63 110.621 121.707C111.141 121.741 112.658 122.126 113.095 121.793C113.325 121.618 113.407 120.118 113.212 119.889C112.895 119.513 111.898 119.965 111.49 120.026C110.397 120.188 109.281 120.184 108.178 120.174C107.146 120.165 106.11 120.119 105.078 120.117C103.856 120.114 104.021 120.738 104.019 121.786ZM71.2958 60.2936C70.9071 60.0682 69.6316 59.0329 69.1552 59.1901C68.7497 59.3239 68.3193 60.5595 68.0772 60.9478C67.6159 61.6875 67.1287 62.4129 66.6506 63.142C66.3451 63.6082 65.5303 64.4505 65.6695 65.0808C65.7436 65.4162 66.4221 65.9958 66.7647 65.894C67.1183 65.7891 67.7006 64.474 67.8969 64.2145C68.9589 62.8117 70.2931 61.7562 71.2958 60.2936ZM194.984 61.8127C196.345 64.4808 196.52 67.4977 197.258 70.3613C197.429 71.0277 197.694 71.6856 197.84 72.3559C197.921 72.7294 197.771 73.3694 197.98 73.6872C198.504 74.4833 200.925 74.2305 201.448 73.5298C201.755 73.1183 201.516 72.6914 201.386 72.2641C201.209 71.687 201.294 71.1845 201.192 70.6085C200.987 69.4541 199.947 68.289 199.453 67.2235C198.914 66.0596 198.666 64.6593 197.894 63.6196C197.377 62.9239 195.927 61.4883 194.984 61.8127ZM106.223 165.892C108.045 165.653 110.91 165.111 110.814 162.663C110.719 160.23 107.529 159.798 105.754 159.585C105.233 159.522 105.176 159.492 104.648 159.808C104.285 160.024 103.924 160.256 103.585 160.509C102.925 161.001 102.179 161.672 102.038 162.531C101.681 164.712 104.625 165.699 106.223 165.892ZM95.8118 27.6718C96.6383 27.7592 95.5389 26.9562 95.3306 26.8589C94.6983 26.5638 93.9957 26.6173 93.3244 26.7295C91.7001 27.001 90.2623 28.3648 88.8743 29.208C87.4045 30.1006 85.9539 31.1099 84.4213 31.8891C83.7205 32.2456 83.1412 32.5481 82.5589 33.0796C82.2622 33.3507 82.1593 33.5387 81.7604 33.5385C81.5392 33.5385 81.046 33.0215 80.8105 33.3206C80.1531 34.1555 83.4653 34.4255 83.811 34.369C85.5378 34.0865 87.036 33.4313 88.5178 32.5427C90.0307 31.6357 91.6374 30.8993 93.158 30.0164C93.8152 29.6346 94.3779 29.1284 94.9774 28.6749C95.0631 28.6099 95.2183 28.391 95.3051 28.3079C95.4445 28.3488 95.5611 28.3126 95.6549 28.1994C95.7037 28.0224 95.756 27.8465 95.8118 27.6718ZM129.22 158.298C127.54 158.894 124.794 159.358 124.006 161.328C123.113 163.56 127.126 165.152 128.7 165.273C130.354 165.4 133.294 164.731 133.525 162.674C133.657 161.49 132.719 160.734 131.842 160.144C130.945 159.54 129.665 159.41 129.22 158.298ZM21.7406 33.9843C20.5533 34.1206 19.7463 34.2377 18.8005 35.0082C18.0157 35.6478 17.3692 36.2939 17.0494 37.2804C16.3101 39.5604 18.1373 41.5181 20.4846 41.2526C20.7434 41.2233 20.9961 41.1275 21.2588 41.1539C21.5002 41.1782 21.6689 41.3515 21.8728 41.3862C22.3536 41.4678 22.4468 41.3835 22.8413 41.0093C23.646 40.2459 24.4536 39.4071 24.8993 38.377C25.9727 35.8961 24.3585 34.0288 21.7406 33.9843ZM48.7351 29.2325C48.8505 26.6647 44.9417 26.2428 43.1393 26.4381C41.0929 26.6599 37.7355 28.7377 38.5149 31.2867C39.2009 33.5304 43.0708 33.3595 44.7435 32.9033C45.1013 32.8059 45.6574 32.594 46.0095 32.6656C46.5384 32.7728 46.5642 33.2082 47.0626 32.8142C47.3759 32.5663 47.6588 31.8449 47.88 31.4895C48.3207 30.7813 48.5485 30.043 48.7351 29.2325ZM103.674 134.681C103.62 135.231 103.41 135.937 104.002 136.199C104.368 136.361 105.383 136.184 105.75 136.197C107.283 136.251 108.857 136.129 110.381 136.251C110.832 136.287 112.179 136.745 112.58 136.438C112.972 136.138 112.666 135.201 112.64 134.781C112.533 133.068 112.763 131.404 112.836 129.7C112.856 129.243 113.045 128.132 112.694 127.793C112.267 127.38 111.32 127.619 110.811 127.67C109.223 127.831 107.59 128.067 105.994 128.07C105.556 128.071 104.586 127.76 104.206 127.924C103.622 128.176 103.76 129.054 103.728 129.615C103.63 131.305 103.565 132.989 103.674 134.681ZM67.9817 58.0131C65.9003 56.4712 63.7426 55.0089 61.6611 53.5095C60.9199 52.9759 60.369 52.2137 59.6745 51.6927C59.239 51.3656 59.1061 51.2233 58.5108 51.539C57.8227 51.904 57.1832 52.4773 56.5484 52.9302C56.0154 53.3103 55.4798 53.6874 54.9461 54.0661C54.4514 54.4169 54.2858 54.4967 54.6363 55.0794C55.253 56.1045 56.5337 57.0297 57.371 57.8729C59.4373 59.9538 61.4557 62.1065 63.7773 63.904C64.5753 61.5757 66.2264 59.6825 67.9817 58.0131ZM91.3156 22.0737C87.7021 20.6459 87.428 15.8116 86.1643 12.7301C85.7729 14.8396 86.8111 18.268 85.0583 19.9247C83.9803 20.9434 83.3557 19.5057 82.777 18.7232C81.8955 17.5316 80.9493 16.3924 80.1079 15.1706C80.3662 16.6446 81.1066 18.299 80.9682 19.798C80.8594 20.9748 80.1072 22.5868 79.0124 21.2523C78.2607 20.3358 77.2983 19.4785 76.4215 18.6656C75.3676 17.6885 74.1651 17.0572 73.0195 16.2238C73.4632 18.4282 74.3087 20.385 75.5554 22.2506C76.195 23.2079 76.8951 24.1273 77.4987 25.1082C77.9921 25.91 78.225 26.9073 78.8788 27.5885C79.4897 28.2248 80.3878 28.7329 81.119 29.2217C82.1605 29.9176 82.4101 29.7196 83.3678 29.0582C85.2214 27.7781 87.234 26.7532 89.0996 25.4894C88.7544 25.0328 88.2028 24.5818 88.2209 23.9603C88.2354 23.4571 88.6205 22.9991 89.136 23.0593C89.5398 23.1065 89.7265 23.5296 90.176 23.3869C90.5559 23.266 91.0753 22.3589 91.3156 22.0737ZM215.743 60.5722C214.069 60.7697 212.505 61.3665 210.789 61.2577C210.095 61.2136 209.576 61.3418 209.271 60.6447C209.027 60.0877 209.277 59.2415 208.511 59.0898C207.944 58.9776 207.242 59.5044 206.823 59.8025C206.069 60.3383 205.402 60.8138 204.549 61.1922C203.037 61.8632 201.501 62.4463 199.848 62.5196C200.248 63.734 200.67 64.9503 201.223 66.1045C201.754 67.2108 202.276 68.1521 202.434 69.3845C202.502 69.912 202.502 70.4867 203.019 70.7186C203.527 70.9462 204.433 70.7587 204.983 70.7684C206.242 70.7911 207.501 70.8206 208.761 70.8235C209.72 70.8253 210.675 71.0541 211.609 71.0408C212.77 71.0239 214.085 70.5192 215.217 70.2794C217.364 69.8253 220.368 69.5436 222.078 68.0796C220.495 67.8305 218.882 68 217.327 68.3411C216.615 68.4975 214.981 69.3112 214.504 68.4965C213.935 67.526 215.048 66.1861 215.833 65.7351C216.719 65.226 218.041 65.281 218.666 64.3635C217.486 64.463 216.244 64.5066 215.104 64.8535C214.23 65.1192 213.103 65.8762 212.757 64.5652C212.197 62.4411 214.282 61.4338 215.743 60.5722ZM90.7744 78.7569C91.0705 75.9453 91.6133 73.1037 91.6615 70.273C91.682 69.0501 90.3003 69.2688 89.3331 68.9213C87.9272 68.4163 86.5492 67.8184 85.1689 67.2486C83.7929 66.6807 82.4095 66.1329 81.0288 65.5766C79.7752 65.0718 78.5721 64.3084 77.3082 63.8597C76.6203 63.6154 76.5668 63.8539 76.1676 64.4852C75.7793 65.0992 75.3714 65.7004 74.9491 66.2916C74.0622 67.5336 73.1127 68.7291 72.1422 69.9063C75.0624 71.6644 78.1104 73.289 81.1236 74.8823C84.1986 76.5084 87.5434 77.4929 90.7744 78.7569ZM153.153 68.0906C154.697 68.0943 156.201 67.872 157.739 67.8249C159.26 67.7784 160.73 67.845 162.237 67.8845C163.685 67.9223 165.105 68.216 166.549 68.2844C166.9 68.301 167.265 68.2995 167.615 68.3386C167.966 68.3779 168.174 68.5083 168.5 68.5636C169.301 68.6994 170.081 68.5071 170.889 68.5503C173.869 68.7094 176.805 69.3216 179.786 69.4768C182.85 69.6363 185.841 69.8741 188.891 70.2416C190.503 70.4359 192.117 70.5499 193.737 70.6635C194.069 70.6868 194.78 70.896 194.962 70.5171C195.183 70.0569 194.433 68.4851 194.295 67.9979C194.116 67.365 193.969 66.7177 193.728 66.1038C193.587 65.7451 193.289 64.5739 193.003 64.3462C192.604 64.0288 192.009 64.3338 191.543 64.4011C190.6 64.5373 189.641 64.6186 188.692 64.712C187.288 64.8508 185.883 65.1825 184.48 65.2247C182.896 65.2721 181.32 65.2042 179.738 65.1452C176.569 65.0265 173.324 65.0878 170.172 64.7642C166.529 64.3901 162.87 64.238 159.219 63.9634C158.353 63.8981 157.485 63.8817 156.619 63.8298C155.999 63.7926 154.734 63.3576 154.155 63.5593C153.567 63.7644 153.679 64.4607 153.612 65.0018C153.485 66.0345 153.32 67.064 153.153 68.0906ZM115.223 96.7449C113.025 97.0829 110.869 97.2152 108.647 97.279C107.667 97.3071 106.693 97.3542 105.717 97.4523C104.9 97.5343 104.443 97.57 104.413 98.4637C104.28 102.383 104.067 106.26 103.946 110.181C103.878 112.395 103.957 114.612 103.949 116.826C103.946 117.667 103.774 118.273 104.697 118.371C105.82 118.49 106.997 118.334 108.126 118.344C109.166 118.354 110.205 118.38 111.244 118.402C111.912 118.417 113.149 118.749 113.373 117.941C113.445 117.682 113.316 117.228 113.323 116.943C113.335 116.411 113.401 115.874 113.433 115.342C113.506 114.122 113.56 112.902 113.634 111.682C113.937 106.685 114.752 101.729 115.223 96.7449ZM90.0552 34.5354C91.505 35.6478 93.1541 36.4131 94.7039 37.3859C95.447 37.8525 96.1641 38.3527 96.8923 38.8417C97.6411 39.3448 98.5112 39.6495 99.2188 40.2083C100.588 41.29 102.282 41.9792 103.787 42.9178C105.315 43.8715 106.839 44.8268 108.402 45.723C109.094 46.1195 109.851 46.3578 110.56 46.7155C111.411 47.1445 112.182 47.7064 113.044 48.1162C114.89 48.9939 116.732 49.8726 118.57 50.7673C122.177 52.5232 125.875 54.1456 129.557 55.7368C130.342 56.0758 131.167 56.2248 131.994 56.425C132.385 56.5196 132.88 56.5686 133.232 56.7564C133.341 56.8149 133.457 56.8233 133.544 56.9215C133.711 57.1099 133.569 57.3737 133.672 57.514C134.245 58.299 135.838 56.0931 136.208 55.5586C136.78 54.7327 136.548 54.5989 135.665 54.2563C134.774 53.9107 133.875 53.5847 132.994 53.2154C131.371 52.5351 129.71 51.7654 128.16 50.932C126.547 50.065 124.867 49.3491 123.271 48.4449C121.481 47.4307 119.705 46.3958 117.895 45.4176C114.841 43.7672 112.035 41.6863 109.068 39.8949C107.429 38.9059 105.889 37.7289 104.304 36.6399C102.757 35.5772 101.29 34.3906 99.7104 33.3977C98.8413 32.8516 97.9377 32.397 97.1255 31.7662C96.5185 31.2948 95.9128 30.8112 95.1519 31.2069C94.3298 31.6345 93.5537 32.3532 92.7552 32.8497C91.8543 33.4101 90.9549 33.9733 90.0552 34.5354ZM157.36 52.93C156.89 52.6836 155.162 52.0261 155.973 51.2208C156.551 50.6476 157.916 51.4092 158.475 51.5988C158.463 50.8063 158.465 50.2598 158.21 49.5043C157.953 48.745 158.024 48.1709 158.649 47.5954C158.934 47.3323 159.97 47.1052 160.091 46.76C160.277 46.2236 159.348 46.3937 159.031 46.3187C157.355 45.9224 157.456 44.1652 157.414 42.8199C157.365 41.2383 156.995 39.7175 155.773 38.6894C155.221 38.2251 155.021 38.2243 154.341 38.5293C154.091 38.6416 153.865 38.8224 153.588 38.8722C153.197 38.9426 152.935 38.6877 152.587 38.705C152.048 38.7316 151.497 39.6238 150.972 39.9088C150.292 40.2781 149.623 40.1678 148.951 40.4321C148.354 40.667 147.776 41.3043 147.218 41.6433C146.459 42.1049 146.632 42.558 146.681 43.4649C146.721 44.2217 146.697 44.7182 145.953 44.9988C145.713 45.0894 145.291 45.0487 145.087 45.1943C144.785 45.4093 144.949 45.5709 144.851 45.9305C144.605 46.8403 144.083 46.2851 143.417 46.1636C142.606 46.0154 141.713 46.588 142.136 47.4586C142.288 47.7701 142.613 48.0539 142.939 48.1509C143.324 48.2654 143.805 47.95 144.161 48.0923C145.067 48.4557 144.343 49.3161 144.386 49.9025C144.936 49.604 145.123 48.7484 145.692 49.6968C146.103 50.3824 145.939 51.4237 145.837 52.1722C145.6 53.9038 145.069 56.0252 143.943 57.4143C143.781 57.6143 143.538 57.9901 143.234 57.9427C142.98 57.9035 142.949 57.5744 142.73 57.4903C142.26 57.3091 141.539 57.5773 141.359 58.0129C141.055 58.7491 141.087 59.8291 141.062 60.6083C141.035 61.5051 140.929 62.5196 141.147 63.3994C141.518 64.9019 142.916 65.425 144.276 65.7569C145.033 65.9416 145.864 66.1572 146.631 65.8976C147.468 65.6142 148.043 64.8541 148.633 64.2407C149.076 63.7795 149.936 63.2546 149.994 62.5876C150.021 62.2754 149.799 61.8449 149.749 61.5252C149.668 61.0178 149.646 60.5049 149.659 59.9914C149.684 59.0481 149.948 58.0892 149.867 57.1459C149.784 56.181 149.067 56.1116 148.677 55.3683C148.444 54.9248 148.389 54.2343 148.955 54.0835C149.284 53.9958 149.9 54.2455 150.257 54.2709C150.8 54.3095 151.351 54.318 151.896 54.3234C152.901 54.3336 153.658 54.2821 154.567 53.8446C155.503 53.3947 156.339 53.114 157.36 52.93ZM134.069 158.646C134.106 157.823 134.221 157.001 134.476 156.216C134.692 155.548 135.157 154.964 135.235 154.274C135.398 152.835 134.921 151.483 133.534 150.964C132.189 150.461 130.732 150.469 129.327 150.563C128.512 150.618 127.821 150.339 127.021 150.376C126.178 150.415 125.435 150.299 124.599 150.21C123.045 150.045 121.721 149.361 120.212 149.072C119.474 148.93 119.218 149.245 118.767 149.765C118.269 150.337 117.708 150.819 117.077 151.239C116.108 151.885 114.374 153.073 114.281 151.069C114.204 149.388 115.888 148.142 116.927 147.053C115.874 146.605 115.964 144.943 114.74 145.612C114.209 145.902 113.79 146.332 113.299 146.68C112.886 146.973 111.938 147.789 111.395 147.726C110.628 147.636 110.546 146.546 110.661 145.942C110.87 144.844 112.017 144.212 112.832 143.567C113.324 143.178 114.061 142.871 114.479 142.413C114.924 141.927 114.825 141.382 114.81 140.771C114.803 140.492 115.012 139.445 114.898 139.204C114.724 138.834 114.119 138.932 113.689 138.894C112.889 138.822 112.096 138.682 111.3 138.607C110.676 138.548 110.076 138.689 109.451 138.712C107.874 138.769 106.278 138.687 104.698 138.683C104.412 138.682 103.211 138.477 103.011 138.725C102.839 138.938 103.003 139.929 103.002 140.185C102.996 141.775 103.002 143.363 103.049 144.952C103.142 148.087 103.038 151.307 102.394 154.389C102.277 154.948 101.91 155.566 102.476 155.841C102.911 156.053 104.073 155.724 104.548 155.693C106.088 155.592 107.644 155.692 109.175 155.58C111.841 155.385 114.598 155.564 117.317 155.627C120.935 155.711 124.532 156.103 128.148 156.195C129.72 156.235 131.319 155.949 132.87 155.996C133.48 156.015 133.652 156.169 133.687 156.823C133.728 157.599 133.39 158.016 134.069 158.646ZM58.1645 47.7596C56.775 45.4124 55.4653 43.0189 54.0773 40.6712C53.4502 39.6109 52.7461 38.603 52.0462 37.5905C51.6877 37.0718 51.2913 36.5477 51.0172 35.9764C50.7659 35.4534 50.6912 34.852 50.3955 34.3499C49.8361 35.5867 48.6353 36.2652 47.3786 36.7079C46.4021 37.0519 45.4495 37.5444 44.4306 37.7567C41.7661 38.3126 39.1301 39.5102 36.5154 40.3785C30.9632 42.2217 25.0286 43.2339 19.683 45.6289C21.507 47.4345 20.9403 51.2841 23.9838 51.8664C25.1946 52.0982 26.4591 51.7255 27.618 51.4063C29.0813 51.0031 30.5457 50.603 32.0104 50.2041C33.5997 49.771 35.205 49.4349 36.8073 49.0568C37.612 48.867 38.4219 48.7353 39.2283 48.5641C39.9 48.4216 39.9081 48.282 40.26 47.6492C40.8551 46.5796 41.9592 45.4855 42.893 46.8966C43.2732 47.4714 43.1926 48.1929 43.5259 48.7625C43.8106 49.249 44.4192 49.5014 44.8471 49.8302C45.144 48.9918 45.4986 47.8564 46.1548 47.2124C46.8707 46.5098 47.5818 47.0751 47.8395 47.9008C48.1491 48.8931 47.6928 50.1007 47.4932 51.077C47.3956 51.5542 47.2105 52.1026 47.3226 52.592C47.4716 53.2424 48.0383 53.913 48.3759 54.4774C51.5316 52.1252 54.7554 49.7232 58.1645 47.7596ZM119.858 87.2762C118.934 86.0235 117.957 84.9136 117.264 83.5104C116.522 82.0106 115.923 80.3953 115.132 78.9337C114.347 77.4823 113.624 76.0032 112.907 74.513C112.407 73.4729 111.838 70.9757 110.405 71.0383C109.689 71.0696 108.959 71.3274 108.239 71.3981C107.395 71.4811 106.547 71.4764 105.705 71.5794C103.855 71.8056 102.056 72.2101 100.189 72.3196C98.5857 72.4137 96.9614 72.4618 95.3557 72.3921C94.9183 72.3731 93.7793 72.0323 93.3738 72.2275C92.9009 72.4552 93.0588 73.3432 93.019 73.7978C92.8681 75.5072 92.6372 77.2181 92.3774 78.9138C92.333 79.2029 91.886 80.6479 92.086 80.8922C92.3944 81.269 93.7199 81.017 94.1522 81.0505C95.8574 81.1818 97.533 81.5712 99.2317 81.7597C100.093 81.8552 100.956 81.8772 101.822 81.8804C102.664 81.8833 103.892 81.651 104.69 81.9393C105.204 82.1249 105.495 82.5611 105.329 83.1168C105.147 83.7294 104.552 83.8663 104.001 83.9809C103.597 84.0648 102.425 84.0181 102.171 84.3895C101.896 84.7917 102.378 85.5495 102.514 85.9309C102.775 86.6621 102.627 86.976 102.607 87.691C102.587 88.4436 103.023 89.1059 102.964 89.867C102.908 90.6109 102.877 91.2048 102.949 91.9632C103.013 92.6296 102.969 93.3593 103.062 94.0066C103.279 95.5046 106.518 94.5985 107.523 94.576C109.6 94.5295 111.686 94.8656 113.756 94.7661C114.365 94.7368 115.777 94.8473 116.206 94.3303C116.642 93.8066 116.711 92.6115 116.992 91.9634C117.724 90.27 118.817 88.7855 119.858 87.2762ZM138.358 53.9352C138.207 55.6733 138.122 57.0119 137.081 58.4745C135.97 60.0362 134.692 59.8962 132.938 60.068C131.363 60.2221 130.127 60.7425 128.862 61.6736C127.375 62.7685 125.77 63.6777 124.185 64.6202C121.169 66.4131 117.572 66.909 114.147 67.4418C113.286 67.576 111.697 67.9614 112.71 68.9819C113.799 70.0792 114.409 71.6982 115.141 73.0709C116.819 76.2182 118.105 79.5991 120.019 82.6134C120.792 83.8312 121.717 85.3006 122.904 86.1604C124.03 86.9764 126.292 85.461 127.438 84.9598C128.929 84.3083 130.493 83.8139 131.897 83.01C133.207 82.2601 134.54 81.6132 135.916 80.9958C137.268 80.3895 138.577 79.786 139.993 79.3436C141.659 78.8228 143.419 78.6381 145.111 78.1844C146.847 77.7193 148.217 77.2261 149.62 76.0755C150.272 75.541 151.067 75.0063 151.329 74.1615C151.598 73.2971 151.4 72.1947 151.359 71.3085C151.317 70.382 151.173 69.4333 151.192 68.5067C151.211 67.5725 151.669 66.8394 151.945 65.9713C152.382 64.6015 152.879 62.1181 151.496 61.1956C151.399 62.659 150.883 63.9721 150.399 65.3448C149.934 66.667 149.169 67.4757 148.026 68.2466C147.592 68.5399 147.121 68.9483 146.606 69.0814C146.06 69.2229 145.297 69.1504 144.729 69.1564C143.452 69.1699 142.069 68.8355 141.086 67.9751C139.096 66.233 138.662 63.1109 138.854 60.6343C138.965 59.2099 139.199 57.7749 139.852 56.4896C140.077 56.0478 140.523 55.5763 140.274 55.0588C140.013 54.517 138.846 54.189 138.358 53.9352ZM99.0922 84.2848C96.7447 83.9784 94.3003 83.729 92.0205 83.0665C91.1907 82.8253 90.1901 82.5202 90.1814 81.5253C90.1785 81.22 90.4071 80.6685 90.2756 80.3812C90.1407 80.087 89.3001 80.0671 88.9112 79.9898C84.3891 79.093 80.1888 77.34 76.152 75.1449C72.0691 72.9245 68.2978 70.3046 64.4452 67.7171C60.6865 65.1927 57.5636 62.1098 54.4392 58.8677C54.0053 58.4174 53.56 57.9785 53.1118 57.5422C52.7847 57.2238 52.3305 56.5752 51.9006 56.4024C51.1278 56.0916 50.0476 57.2686 49.3642 57.6191C48.4755 58.0748 47.4154 58.1438 46.8287 57.1833C46.4413 56.5486 46.8016 56.4327 46.857 55.8357C46.9026 55.3448 46.5667 55.0665 46.2712 54.7248C46.0433 55.2628 45.7402 56.247 44.9645 56.1247C44.2673 56.015 44.1907 55.054 44.1411 54.506C44.0833 53.8673 44.2823 53.0559 43.85 52.5388C43.5099 52.1321 42.8455 51.8348 42.4101 52.2033C41.5345 52.9445 42.1024 55.1521 40.8665 55.7023C39.1239 56.478 39.2938 52.9385 39.2569 52.231C35.3556 52.6624 31.6888 54.3664 27.7832 54.9242C26.1937 55.1512 24.3577 55.0767 22.9705 54.1693C21.695 53.3353 20.3703 51.5 19.825 50.0915C18.5167 51.0612 17.1488 51.8047 15.4688 51.3722C13.7611 50.9322 12.2587 49.9848 11.6312 48.2683C11.0013 46.5454 11.1835 45.2333 12.7561 44.261C13.3996 43.8629 13.9084 43.6681 14.6166 43.4759C15.4008 43.2632 16.3941 43.1091 17.1345 42.7721C16.3711 41.6568 15.5027 40.5642 15.1557 39.2314C14.7644 37.7282 14.9596 36.0371 15.5666 34.6158C16.6636 32.047 19.7476 30.3282 22.5254 30.9153C24.9497 31.4276 26.6651 33.5263 27.3536 35.8217C27.6666 36.8653 27.3918 37.5107 28.6684 36.9461C30.118 36.3049 31.3867 35.3614 32.884 34.7955C34.183 34.3044 35.5997 33.8919 36.8032 33.1868C37.4261 32.8221 37.3968 32.7907 37.1429 32.1212C36.8275 31.2896 36.6326 30.5154 36.703 29.6118C36.904 27.0245 39.0455 25.1904 41.3371 24.3392C43.9351 23.374 47.1566 23.7552 49.1034 25.8409C50.0492 26.8542 50.6948 28.1859 50.7773 29.5802C50.8143 30.1982 50.4458 31.1378 50.6512 31.7076C50.83 32.2034 51.6765 32.5836 52.0031 33.0576C52.521 33.81 52.7611 34.7105 53.2751 35.4758C53.7208 36.1385 54.1723 36.7957 54.6006 37.4702C55.641 39.1078 56.6163 40.7856 57.4667 42.5303C57.8557 43.3285 58.2209 44.138 58.5774 44.9512C58.8223 45.509 59.0242 46.5279 59.4645 46.9723C59.9092 47.4214 60.5722 47.2776 60.954 47.8462C61.435 48.562 60.978 49.195 60.5969 49.8186C63.4953 50.6676 65.275 53.1217 67.5943 54.9202C69.9358 56.7354 72.5057 58.3075 75.0228 59.864C77.6427 61.4843 80.2149 63.0286 83.0673 64.206C85.7252 65.3032 88.2943 66.5966 90.945 67.7075C91.3164 67.8633 91.6059 68.0698 91.9734 67.828C92.3133 67.6041 92.3815 66.8822 92.7368 66.5897C93.6367 65.8485 95.7537 66.2598 96.8248 66.243C98.3697 66.2189 99.9368 66.1317 101.48 66.2114C102.003 66.2382 102.508 66.4466 103.02 66.3776C103.804 66.2721 104.537 66.1117 105.354 66.0787C106.033 66.0511 106.712 66.0008 107.393 66.0251C107.715 66.0367 108.261 66.1753 108.551 65.9555C108.912 65.6819 108.694 65.0251 108.941 64.6269C109.101 64.3689 109.417 64.2982 109.572 64.0947C109.552 64.1206 109.819 63.6611 109.745 63.7195C110.22 63.3441 111.551 63.2305 112.114 63.3643C112.276 63.4029 112.303 63.6763 112.507 63.6769C112.711 63.6775 112.726 63.4719 112.87 63.4227C113.019 63.3713 113.059 63.1647 113.259 63.1333C113.48 63.0984 113.762 63.3466 114.001 63.3605C114.271 63.3759 114.527 63.1975 114.778 63.1279C115.111 63.0357 115.368 63.1034 115.645 63.0706C116.151 63.0105 116.694 62.9536 117.219 62.8921C117.983 62.8028 118.728 62.5643 119.473 62.383C119.799 62.3034 120.126 62.2108 120.463 62.1852C120.852 62.1555 121.358 62.3387 121.726 62.2521C122.04 62.1781 121.784 62.066 122.056 61.9717C122.35 61.8697 122.668 61.8416 122.967 61.7384C123.652 61.5011 124.285 61.1069 124.901 60.7311C126.335 59.8555 127.618 58.7645 129.036 57.8654C128.712 57.3943 127.507 57.3145 126.997 57.1479C126.296 56.9186 125.607 56.65 124.921 56.3791C123.36 55.763 121.811 55.1172 120.263 54.472C117.325 53.2482 114.371 52.0675 111.564 50.566C108.927 49.1557 106.11 48.0566 103.495 46.5958C102.165 45.8528 100.833 45.0705 99.5398 44.2645C98.335 43.5137 97.0385 43.0017 95.7904 42.3151C93.3522 40.9738 91.1129 39.3051 88.6653 37.9923C88.0872 37.6823 87.4454 37.0259 86.8217 36.8572C86.2855 36.7122 85.7416 37.0114 85.2571 37.2212C84.7437 37.4434 84.2621 37.8082 83.6861 37.8207C83.0517 37.8344 82.3257 37.4927 81.7272 37.2856C80.615 36.9008 79.6489 35.8344 79.2444 34.7238C79.0469 34.1808 78.9554 33.5776 78.8823 33.0063C78.7958 32.3293 79.0245 31.5333 78.8595 30.8893C78.5458 29.6646 77.0966 28.5146 76.2863 27.6361C75.2801 26.5453 74.4079 25.3244 73.6136 24.0731C71.838 21.2756 70.606 17.9573 71.5958 14.6645C71.7467 14.1626 72.0156 13.3334 72.4599 12.9994C73.0764 12.5353 73.3403 13.0768 73.8736 13.3459C74.536 13.6801 75.1643 13.8747 75.7853 14.3288C76.538 14.8791 77.1572 15.5503 77.851 16.1658C77.8546 14.7445 77.6334 13.4985 77.9401 12.0752C78.0976 11.3446 78.4499 9.82482 79.3793 9.69457C80.3436 9.55934 81.0348 11.3068 81.4544 11.9443C82.2346 13.129 83.1063 14.2405 83.9743 15.3608C84.087 13.6228 83.8562 9.49079 86.0414 8.80714C87.9992 8.19434 89.0115 13.4709 89.4856 14.6516C89.928 15.7532 90.5491 16.8415 91.2212 17.8202C91.9252 18.8455 92.6928 18.3231 93.7838 18.3713C94.7925 18.4159 95.2461 19.1137 95.2349 20.1029C95.2208 21.3545 94.2262 22.2687 93.5382 23.2131C95.0274 23.9331 96.9558 24.8695 97.8453 26.3521C98.0427 26.6805 98.1784 27.0575 98.1906 27.4452C98.2022 27.8284 97.8518 28.5301 98.0337 28.8843C98.1667 29.1434 98.6158 29.2372 98.8548 29.3783C99.3493 29.6702 99.7884 30.0476 100.277 30.3501C103.48 32.3326 106.491 34.7016 109.58 36.7949C112.37 38.6848 115.325 40.3685 118.147 42.2574C121.735 44.6592 125.508 46.7026 129.348 48.6771C130.234 49.1327 131.056 49.6385 131.906 50.1485C132.778 50.6715 133.82 51.0249 134.751 51.4484C135.403 51.7451 136.115 52.3097 136.8 52.4946C137.615 52.7146 137.958 51.85 138.908 52.0741C139.727 52.2675 140.62 52.3531 141.112 53.0905C141.544 53.7372 141.504 54.7264 142.198 55.1444C143.004 55.6288 143.23 55.1095 143.416 54.4366C143.628 53.6712 144.226 52.7958 143.492 52.2447C142.798 51.7241 141.816 51.6668 141.004 51.4742C140.593 51.3768 140.048 51.0209 139.656 50.9887C139.167 50.9484 139.053 51.4042 138.637 51.4048C138.416 51.405 138.222 51.1913 138.011 51.1233C137.963 51.108 137.839 51.2823 137.781 51.2663C137.576 51.2085 137.559 51.1397 137.358 51.0573C136.642 50.7633 135.696 50.2999 135.912 49.4064C136.028 48.9272 136.813 48.1563 136.265 47.7168C135.75 47.3034 135.059 48.1653 134.775 47.3028C134.573 46.6902 135.065 46.5258 134.44 46.0217C133.98 45.6509 133.557 45.5501 133.811 44.8702C133.975 44.4323 134.826 43.7666 134.582 43.2385C134.236 42.4913 132.922 43.2468 133.049 41.8968C133.139 40.9298 134.355 40.2318 134.363 39.2804C134.369 38.5995 133.723 38.6042 133.555 38.1618C133.389 37.7245 133.541 37.7262 133.783 37.4191C133.963 37.191 134.08 37.1152 134.214 36.8464C134.377 36.5197 134.659 36.0965 134.553 35.7164C134.458 35.3747 134.058 35.1715 133.957 34.793C133.578 33.3669 136.59 30.1272 137.357 32.0904C137.927 31.4313 138.674 30.0513 139.681 30.1619C140.29 30.2287 140.03 30.4024 140.241 30.7541C140.394 31.0094 140.82 31.139 140.94 31.4151C141.179 30.6739 140.926 29.3004 141.589 28.7566C142.236 28.2264 142.642 29.1591 142.917 29.6781C143.094 29.1884 143.208 28.2696 143.818 28.0939C144.471 27.9063 144.879 28.7233 145.197 29.1394C145.539 28.6525 146.182 27.2175 146.922 27.3924C147.477 27.5235 147.752 28.4502 148.011 28.8779C148.618 28.479 149.575 27.5185 150.362 27.6201C151.127 27.7187 151.06 28.4367 151.955 28.1429C152.605 27.9298 153.28 27.3637 153.969 27.3213C154.696 27.2767 155.08 27.786 155.887 27.6624C156.744 27.5314 156.874 27.3319 157.433 28.0314C157.709 28.3766 157.636 28.5281 158.114 28.6003C158.519 28.6616 158.873 28.3943 159.297 28.5627C159.611 28.6872 159.83 28.9778 159.961 29.2765C160.116 29.6292 159.937 30.2406 160.091 30.5181C160.389 31.052 161.516 30.5809 162.021 30.9516C162.703 31.4521 162.061 32.2117 162.424 32.7662C162.716 33.2113 163.537 33.0979 163.864 33.6987C164.161 34.2427 164.091 34.9619 163.747 35.4661C163.603 35.6779 163.197 35.8535 163.102 36.0452C162.906 36.4407 163.071 36.3946 163.184 36.7989C163.403 37.572 163.228 37.8637 162.632 38.3926C162.288 38.6985 162.216 38.6107 162.193 39.0756C162.175 39.4343 162.48 39.7669 162.424 40.1685C162.331 40.8207 161.69 41.2306 161.497 41.8718C161.248 42.6972 160.568 43.1488 160.056 43.828C160.661 44.1934 161.457 44.4963 161.751 45.1822C162.072 45.9305 162.013 46.9955 161.785 47.7546C161.567 48.482 161.1 48.9463 160.651 49.5236C160.105 50.2266 160.151 50.7839 160.118 51.6418C160.046 53.4555 159.268 55.1026 157.489 55.6787C156.783 55.9072 156.146 56.2433 155.43 56.4564C154.555 56.7171 153.914 56.7383 153.006 56.6868C152.438 56.6548 151.773 56.5322 151.575 57.1338C151.476 57.4346 151.513 58.6054 151.647 58.8725C151.878 59.3299 152.532 59.2693 152.926 59.6648C153.637 60.3782 153.436 60.9862 154.635 61.0028C158.52 61.057 162.392 60.7571 166.277 61.0383C168.193 61.1771 170.067 61.5082 171.991 61.6056C174.108 61.7126 176.23 61.7483 178.345 61.8769C180.342 61.9982 182.295 62.2598 184.303 62.1563C186.177 62.0597 187.978 61.9311 189.845 61.724C190.483 61.6532 191.473 61.755 191.924 61.2666C192.174 60.9959 192.232 60.5317 192.481 60.2336C192.712 59.9583 193.025 59.7591 193.308 59.5443C193.994 59.0235 194.641 58.5551 195.546 58.5724C196.339 58.5875 196.972 59.1604 197.618 59.5817C198.368 60.0709 198.679 60.2957 199.568 60.106C200.455 59.9172 201.269 59.567 202.134 59.3094C203.959 58.7662 205.669 57.9847 207.331 57.058C208.15 56.6014 208.727 56.2946 209.67 56.5694C210.637 56.8511 210.911 57.1284 210.923 58.1324C210.927 58.451 210.805 59.0175 211.171 59.2016C211.437 59.3351 212.023 58.9625 212.248 58.8644C213.246 58.4317 214.225 57.9809 215.268 57.665C216.219 57.3764 217.182 57.1205 218.138 56.8451C218.937 56.6145 220.003 56.2807 220.799 56.7098C222.811 57.7938 219.851 60.5481 219.082 61.4644C220.041 61.2346 222.098 61.3657 222.602 62.3946C223.199 63.6123 222.003 64.8199 221.328 65.705C222.273 66.1356 224.182 65.7652 224.449 67.1211C224.673 68.2592 223.489 69.4057 222.717 70.0715C220.72 71.7948 217.622 73.0015 214.984 73.0242C214.315 73.03 213.663 72.8995 212.997 72.8678C212.51 72.8447 212.07 73.0132 211.597 73.0138C210.93 73.0146 210.338 72.8835 209.65 72.9776C208.857 73.0861 208.07 73.2192 207.274 73.309C206.535 73.3921 205.795 73.4679 205.053 73.5256C204.565 73.5641 203.827 73.456 203.373 73.6202C202.786 73.8325 202.957 74.0448 202.91 74.61C202.851 75.304 202.499 75.9314 201.988 76.3942C200.13 78.0756 196.966 77.6719 196.033 75.2039C195.806 74.6035 196.107 74.2899 196.022 73.7487C195.935 73.2043 195.429 73.2228 194.933 73.186C193.423 73.0742 191.894 73.0638 190.378 72.9594C187.444 72.7572 184.421 72.3455 181.488 72.4155C178.427 72.4884 175.346 72.3042 172.288 72.138C170.861 72.0605 169.383 71.5601 167.979 71.6681C166.487 71.7826 164.903 71.4612 163.403 71.3054C160.051 70.9568 156.309 70.8559 153.211 69.463C153.456 72.8212 153.863 76.2305 151.138 78.7351C149.996 79.7846 148.561 80.9867 147.064 81.4342C145.134 82.0108 143.284 82.489 141.321 82.9169C137.669 83.7128 134.041 85.6172 130.746 87.3281C129.197 88.1328 127.378 88.4465 125.698 88.8975C124.898 89.1125 123.997 89.3958 123.158 89.3659C122.331 89.3364 121.757 88.7745 121.027 88.439C120.328 90.0843 119.386 91.5905 118.683 93.2143C118.334 94.0199 118.059 94.8764 117.653 95.6556C117.344 96.2495 116.843 96.5688 116.795 97.2574C116.68 98.9292 116.986 100.673 116.904 102.364C116.815 104.208 116.528 106.079 116.359 107.925C115.994 111.915 116.164 115.932 115.868 119.927C115.597 123.577 115.766 127.198 115.361 130.851C115.249 131.865 115.124 132.878 115.043 133.895C114.99 134.563 114.621 136.1 114.969 136.698C115.121 136.96 115.486 136.988 115.731 137.119C116.112 137.323 116.459 137.636 116.744 137.962C117.346 138.649 117.49 139.468 117.627 140.344C118.406 139.925 121.671 137.775 121.182 140.13C121.031 140.86 120.368 141.254 119.846 141.72C119.462 142.061 119.097 142.424 118.689 142.737C118.414 142.948 117.832 143.21 117.699 143.554C117.462 144.171 118.686 145.051 119.264 145.044C120.075 145.034 121.088 143.817 121.776 143.428C123.601 142.398 123.436 144.624 122.748 145.591C122.229 146.321 122.668 146.265 123.382 146.413C124.498 146.645 125.529 146.843 126.664 146.984C128.832 147.255 130.966 146.906 133.118 147.406C135.26 147.905 136.534 149.242 136.846 151.446C137.011 152.611 137.166 152.026 138.144 152.299C139.047 152.552 139.557 153.584 140.077 154.284C141.114 155.682 143.054 159.201 141.465 160.848C140.79 161.548 139.152 161.37 138.263 161.49C137.692 161.566 137.004 161.833 136.427 161.695C135.879 161.564 135.514 161.073 135.119 160.714C135.114 162.925 135.1 164.845 133.348 166.442C131.935 167.73 130.044 168.322 128.148 168.191C126.29 168.064 124.383 167.308 123.205 165.814C122.584 165.026 122.142 164.06 121.982 163.067C121.908 162.609 121.886 162.129 121.958 161.669C122 161.396 122.26 160.901 122.095 160.637C121.806 160.175 120.39 160.559 119.922 160.606C118.688 160.731 117.457 160.886 116.228 161.051C115.212 161.187 114.175 161.332 113.155 161.139C112.278 160.974 111.943 160.879 112.101 161.916C112.418 164.003 111.89 165.854 110.174 167.137C108.457 168.421 106.872 168.675 104.772 168.337C102.854 168.028 101.099 166.216 100.54 164.414C99.7961 162.015 100.563 159.83 102.355 158.192C101.268 157.641 100.547 157.316 100.164 156.045C99.7633 154.716 100.138 153.318 100.327 151.985C100.734 149.123 100.576 146.337 100.716 143.466C100.777 142.199 101.039 140.909 101.043 139.646C101.045 138.925 101.005 138.951 100.264 138.945C99.8035 138.942 99.3159 138.974 99.1223 138.438C98.6546 137.145 100.849 137.254 101.4 136.739C102.058 136.125 101.604 133.704 101.585 132.852C101.522 130.084 101.796 127.38 101.849 124.619C101.874 123.372 101.95 122.061 101.847 120.819C101.805 120.323 101.522 119.922 101.541 119.428C101.565 118.796 101.686 118.206 101.654 117.548C101.368 111.763 101.305 105.871 102.047 100.125C102.091 99.7805 102.335 99.0059 102.205 98.6602C102.007 98.1367 101.382 98.3222 100.945 98.1305C99.7216 97.5946 99.4192 96.7435 99.3524 95.4973C99.313 94.7588 99.2738 94.0201 99.2354 93.2814C99.2157 92.9021 99.1964 92.5226 99.1758 92.1431C99.1518 91.7033 99.3327 91.2087 99.3223 90.8394C99.3188 90.7207 99.2678 90.5436 99.2667 90.4736C99.125 90.404 99.07 90.3018 99.1009 90.1667C99.0945 90.0398 99.1148 89.916 99.1617 89.7957C99.1692 89.8676 99.0767 89.3884 99.0686 89.4307C99.0814 89.3651 99.3213 88.9764 99.2972 88.9293C99.1852 88.7093 98.9478 88.9766 98.8685 88.5666C98.8023 88.2224 99.0264 87.8175 98.9513 87.4145C98.7503 86.3387 98.9399 85.3736 99.0922 84.2848Z" fill="#3B247B"/>
<path fill-rule="evenodd" clip-rule="evenodd" d="M39.5615 101.176C53.1498 101.207 66.7698 101.542 80.3238 101.943C81.8174 101.988 83.3158 102.114 84.8103 102.178C85.0701 102.189 85.9253 102.08 86.1179 102.359C86.4313 102.813 85.7137 103.275 85.3756 103.482C84.2122 104.194 82.6722 104.07 81.3537 104.115C79.5346 104.176 77.7145 104.183 75.8946 104.158C69.5711 104.07 63.2449 103.59 56.9349 103.216C53.0479 102.986 49.1489 102.845 45.2565 102.73C43.3352 102.674 41.4124 102.642 39.4913 102.579C38.9725 102.562 38.0273 102.724 38.0273 102.042C38.0273 101.331 39.064 101.214 39.5615 101.176Z" fill="#3B247B"/>
<path fill-rule="evenodd" clip-rule="evenodd" d="M55.812 108.819C65.4273 109.233 75.0492 109.517 84.6653 109.901C85.2887 109.926 86.6157 109.742 86.8497 110.507C87.0933 111.302 86.0794 112.1 85.4085 112.306C84.5373 112.574 83.4281 112.424 82.5189 112.45C81.2953 112.484 80.1327 112.473 78.9132 112.391C74.2666 112.076 69.6279 111.668 64.9802 111.352C62.3492 111.174 59.72 110.963 57.0928 110.736C56.3922 110.675 54.3116 110.863 53.8208 110.292C53.5186 109.94 53.8389 109.397 54.1377 109.126C54.6296 108.679 55.1953 108.78 55.812 108.819Z" fill="#3B247B"/>
<path fill-rule="evenodd" clip-rule="evenodd" d="M84.1828 119.331C81.0581 119.499 77.8988 119.251 74.8272 118.735C74.4088 118.665 73.4414 118.657 73.174 118.268C72.7655 117.675 73.5331 117.157 74.0495 117.104C75.4801 116.959 77.1812 117.458 78.6249 117.546C80.1349 117.638 81.6657 117.478 83.1795 117.466C84.0448 117.459 84.9101 117.453 85.7756 117.45C86.2832 117.448 87.0131 117.32 87.5143 117.435C88.9169 117.757 87.1332 118.938 86.5085 119.074C86.2917 119.122 84.19 119.433 84.1828 119.331Z" fill="#3B247B"/>
<path fill-rule="evenodd" clip-rule="evenodd" d="M152.37 44.37C152.391 44.0034 152.296 43.0767 152.75 42.9029C153.634 42.5642 153.576 44.7364 153.921 45.0422C155.186 46.1633 154.845 41.8434 156.051 43.2366C157.031 44.3688 156.244 47.0965 154.866 47.6054C153.85 47.9801 153.159 47.2589 152.764 46.4237C152.755 46.4044 152.207 44.3612 152.37 44.37Z" fill="#3B247B"/>
<path fill-rule="evenodd" clip-rule="evenodd" d="M153.516 39.4241C154.127 39.3077 154.922 39.9423 154.548 40.5567C154.275 41.0061 152.421 41.7027 151.919 41.7145C151.302 41.7291 151.354 41.2387 151.551 40.7394C151.859 39.9579 152.681 39.4151 153.516 39.4241Z" fill="#3B247B"/>
<path fill-rule="evenodd" clip-rule="evenodd" d="M42.1758 29.5811C42.3635 28.7994 42.6405 27.8733 43.5656 28.6268C44.187 29.1331 44.6414 30.3815 44.7038 31.1624C44.7784 32.0973 44.2651 32.5729 43.4355 32.0483C42.5937 31.5162 42.2725 30.535 42.1758 29.5811Z" fill="#3B247B"/>
<path fill-rule="evenodd" clip-rule="evenodd" d="M22.125 39.4109C21.824 41.5011 19.97 39.5558 20.0535 38.2807C20.0969 37.6171 20.4769 37.0731 21.1987 37.4712C21.8449 37.8278 22.0699 38.7653 22.125 39.4109Z" fill="#3B247B"/>
<path fill-rule="evenodd" clip-rule="evenodd" d="M127.68 161.579C127.818 161.06 127.848 159.992 128.448 159.764C129.336 159.427 129.721 160.903 129.751 161.497C129.783 162.141 129.558 163.509 128.636 163.396C127.881 163.303 127.831 162.143 127.68 161.579Z" fill="#3B247B"/>
<path fill-rule="evenodd" clip-rule="evenodd" d="M105.324 162.407C105.494 161.772 105.527 160.624 106.29 160.432C107.131 160.22 107.388 161.366 107.398 162.014C107.408 162.619 107.069 164.187 106.213 164.089C105.553 164.015 105.465 162.921 105.324 162.407Z" fill="#3B247B"/>
</svg>
