<svg width="204" height="217" viewBox="0 0 204 217" fill="none" xmlns="http://www.w3.org/2000/svg">
<g clip-path="url(#clip0)">
<path fill-rule="evenodd" clip-rule="evenodd" d="M138.196 4.10323C124.215 -1.14352 94.2367 -0.94172 79.1803 2.21978C69.2324 4.23776 50.0087 4.70862 38.1787 7.66832C30.5833 9.34997 16.468 9.2827 9.20868 13.655C2.21823 17.8927 4.16749 24.4848 3.22647 37.1981C1.34443 61.8847 1.61329 87.1767 1.34443 111.661C1.07556 134.599 1.41164 157.402 0.134542 180.475C-1.14256 204.018 12.5695 212.964 26.5504 215.386C52.8989 219.825 80.4574 213.569 106.739 210.341C123.139 208.255 122.467 209.533 138.868 207.515C154.596 205.632 169.586 208.39 185.247 203.48C195.195 200.453 192.909 177.986 193.649 166.82C194.455 153.03 195.06 139.241 195.934 125.586C197.682 96.863 201.984 71.1001 204.067 38.6779C206.084 6.323 152.177 9.41724 138.196 4.10323ZM181.147 118.792C179.668 133.187 179.534 147.514 177.719 161.909C176.442 172.134 177.315 177.044 174.56 186.865C172.812 192.986 157.957 196.484 153.857 196.618C146.329 196.753 138.801 196.887 131.273 196.955C114.401 197.291 116.418 197.56 99.4795 198.771C82.4739 199.982 65.5355 200.52 48.5971 201.125C40.7329 201.394 32.8014 201.596 24.9372 202.471C18.8878 203.076 15.0564 203.95 13.3088 192.986C11.6957 182.896 11.0235 177.179 11.2251 166.349C11.5612 153.097 11.9645 139.779 12.2334 126.527C12.8383 98.0065 12.9728 61.7502 13.5777 33.2294C37.3049 34.8438 58.3434 28.588 82.4067 25.8974C96.5892 19.7762 146.463 26.7046 161.99 33.7002C172.274 33.7002 188.742 32.4895 188.406 42.3103C187.532 67.6023 183.768 93.7688 181.147 118.792Z" fill="#FFAB00"/>
<path d="M111.914 56.2344C76.29 56.2344 53.5038 71.7728 50.748 103.993C48.7315 127.536 40.6656 122.155 37.3048 121.482C30.5832 120.137 28.5668 127.536 31.9276 130.9C40.8001 139.779 83.0116 171.932 137.456 145.698C191.901 119.464 145.993 56.2344 111.914 56.2344ZM89.061 94.576C89.061 91.6163 91.4808 89.1947 94.4383 89.1947C97.3958 89.1947 99.8155 91.6163 99.8155 94.576C99.8155 97.5357 97.3958 99.9573 94.4383 99.9573C91.4808 99.9573 89.061 97.5357 89.061 94.576ZM128.718 112.738C128.046 116.774 121.325 124.173 111.242 124.173C101.16 124.173 97.7991 118.119 95.1104 114.083C92.4218 110.047 97.1269 108.702 99.8155 110.72C102.504 112.738 107.881 114.083 111.914 114.083C115.947 114.083 123.341 111.392 125.358 110.047C127.374 108.702 129.391 108.702 128.718 112.738ZM129.391 99.9573C126.433 99.9573 124.013 97.5357 124.013 94.576C124.013 91.6163 126.433 89.1947 129.391 89.1947C132.348 89.1947 134.768 91.6163 134.768 94.576C134.768 97.5357 132.348 99.9573 129.391 99.9573Z" fill="#3B247B"/>
<path d="M81.5327 164.869C87.7321 164.869 92.7577 159.84 92.7577 153.636C92.7577 147.431 87.7321 142.402 81.5327 142.402C75.3332 142.402 70.3076 147.431 70.3076 153.636C70.3076 159.84 75.3332 164.869 81.5327 164.869Z" fill="#FFAB00"/>
<path d="M129.592 165.071C135.792 165.071 140.817 160.041 140.817 153.837C140.817 147.633 135.792 142.604 129.592 142.604C123.393 142.604 118.367 147.633 118.367 153.837C118.367 160.041 123.393 165.071 129.592 165.071Z" fill="#FFAB00"/>
</g>
<defs>
<clipPath id="clip0">
<rect width="204" height="217" fill="white"/>
</clipPath>
</defs>
</svg>
