<svg width="187" height="130" viewBox="0 0 187 130" fill="none" xmlns="http://www.w3.org/2000/svg">
<g clip-path="url(#clip0)">
<path fill-rule="evenodd" clip-rule="evenodd" d="M174.495 25.7227C173.738 38.584 170.769 52.0127 168.685 64.874C167.485 72.2503 166.096 79.6266 164.643 87.003C163.633 92.2358 163.57 99.3599 161.359 104.404C159.97 107.556 160.159 107.367 156.749 107.556C153.465 107.745 150.244 107.556 146.96 107.619C140.961 107.682 134.961 107.745 128.961 107.808C115.509 107.997 102.121 108.123 88.6056 108.754C75.0905 109.384 61.5755 109.636 48.1236 109.952C41.8714 110.078 35.5559 110.204 29.3037 110.645C24.5039 110.96 15.2834 114.05 13.894 108.438C12.6309 103.269 14.4624 94.8837 14.6518 89.3357C14.9045 82.5267 15.2202 75.7178 15.4728 68.9089C15.9781 54.2823 16.0412 39.6557 16.5465 25.0292C35.4296 25.8488 54.5654 24.5248 73.7012 23.1378C85.0058 19.9855 141.087 17.7159 153.465 21.3095C161.675 21.3095 174.748 20.679 174.495 25.7227ZM131.74 2.45884C119.993 -0.693437 79.0061 -0.567346 66.3752 1.32402C58.102 2.52189 38.5873 4.91762 30.4404 8.0699C24.0618 9.07863 18.6306 10.7178 12.5046 13.3657C6.63124 15.8876 3.47352 14.6897 2.65251 22.3182C1.07366 37.1339 1.32627 52.2649 1.07366 66.9545C0.821039 80.6984 1.13681 94.3793 0.0631868 108.186C-1.01044 122.309 10.4837 127.667 22.2304 129.117C44.3344 131.765 67.4489 128.046 89.4897 126.091C103.257 124.83 117.088 123.569 130.856 122.372C144.055 121.237 157.823 121.93 170.959 118.967C179.295 117.139 177.653 106.673 178.222 99.9904C178.916 91.7314 179.422 83.4724 180.116 75.2765C181.569 58.0651 185.169 42.6189 186.937 23.2008C188.705 3.7828 143.487 5.61112 131.74 2.45884Z" fill="#FFAB00"/>
<path fill-rule="evenodd" clip-rule="evenodd" d="M118.099 62.4783C114.688 59.1369 110.71 56.1107 107.11 53.0215C99.6576 46.5908 102.31 48.9865 94.1 43.5016C90.3739 41.0428 86.5215 38.8362 82.3533 37.197C77.9957 35.4948 73.7643 34.36 70.1645 38.2057C70.8592 38.7101 71.5539 39.1514 72.1855 39.5927C71.2382 50.1214 71.996 58.8847 70.7961 69.7285C69.6593 79.3745 68.6488 77.9875 68.1436 87.6965C68.0173 90.1553 67.7015 91.7945 70.354 92.6141C71.0487 92.8032 71.6803 92.9293 72.2486 92.8663C70.5435 94.0642 69.4698 94.9468 70.9856 96.8382C72.1223 98.2882 73.5117 98.9817 75.5327 98.0991C80.3955 95.9555 85.0058 93.2446 89.6792 90.8488C99.2787 85.9943 95.7421 87.6335 104.457 81.9594C108.373 79.3745 112.036 76.5375 115.13 73.3852C117.72 70.8003 119.741 68.0894 118.793 65.1893C119.109 64.2436 119.046 63.3609 118.099 62.4783ZM89.8055 82.4007C81.3429 87.6965 81.2166 86.4987 73.8275 91.6684C73.9538 91.4793 74.017 91.2271 74.0801 90.9749C75.3432 86.3726 76.1011 81.455 77.1115 76.7897C79.1956 67.2067 78.3746 70.6112 79.2588 60.8391C79.6377 56.4259 79.7009 51.9497 79.1325 47.5365C78.943 46.0864 78.6904 44.6364 78.3115 43.3755C84.7532 47.1582 91.0055 50.3735 97.763 55.165C105.72 60.7761 104.015 61.0283 112.288 66.1349C112.288 66.1349 112.352 66.1349 112.352 66.198C104.584 71.5569 98.5208 76.9157 89.8055 82.4007Z" fill="#FFAB00"/>
<path fill-rule="evenodd" clip-rule="evenodd" d="M89.8054 82.4007C81.3428 87.6965 81.2165 86.4987 73.8274 91.6684C73.9537 91.4793 74.0169 91.2271 74.08 90.9749C75.3431 86.3726 76.1009 81.455 77.1114 76.7897C79.1955 67.2067 78.3745 70.6112 79.2587 60.8391C79.6376 56.4259 79.7007 51.9497 79.1324 47.5365C78.9429 46.0864 78.6903 44.6364 78.3114 43.3755C84.7531 47.1582 91.0054 50.3735 97.7629 55.165C105.72 60.7761 104.015 61.0283 112.288 66.1349C112.288 66.1349 112.352 66.1349 112.352 66.198C104.584 71.5569 98.5207 76.9157 89.8054 82.4007Z" fill="#3B247B"/>
</g>
<defs>
<clipPath id="clip0">
<rect width="187" height="130" fill="white"/>
</clipPath>
</defs>
</svg>
